<?xml version="1.0" encoding="utf-8"?>
<svg version="1.1" xmlns:xlink="http://www.w3.org/1999/xlink" width="12px" height="12px" viewBox="404 1227  12 12" xmlns="http://www.w3.org/2000/svg">
  <path d="M 410 1227  C 413.36 1227  416 1229.64  416 1233  C 416 1236.36  413.36 1239  410 1239  C 406.64 1239  404 1236.36  404 1233  C 404 1229.64  406.64 1227  410 1227  Z " fill-rule="nonzero" fill="#ffffff" stroke="none" />
  <path d="M 410 1227.5  C 413.08 1227.5  415.5 1229.92  415.5 1233  C 415.5 1236.08  413.08 1238.5  410 1238.5  C 406.92 1238.5  404.5 1236.08  404.5 1233  C 404.5 1229.92  406.92 1227.5  410 1227.5  Z " stroke-width="1" stroke="#aaaaaa" fill="none" />
  <path d="M 410 1236  C 408.32 1236  407 1234.68  407 1233  C 407 1231.32  408.32 1230  410 1230  C 411.68 1230  413 1231.32  413 1233  C 413 1234.68  411.68 1236  410 1236  " fill-rule="nonzero" fill="#aaaaaa" stroke="none" />
</svg>