<?xml version="1.0" encoding="utf-8"?>
<svg version="1.1" xmlns:xlink="http://www.w3.org/1999/xlink" width="23px" height="25px" xmlns="http://www.w3.org/2000/svg">
  <g transform="matrix(1 0 0 1 -51 -7 )">
    <path d="M 22 17.7302083251953  L 22 7.22395832519531  C 22.067215933295 6.77445906796194  21.8205355505232 6.36009105696591  21.4219444444444 6.13645832519531  L 12.1005555555556 0.914583325195313  C 11.701336101792 0.692482976967531  11.2115856326547 0.694466028375255  10.8142592675781 0.919791674804688  L 1.53439815646701 6.20729167480469  C 1.13777027861348 6.43378367375438  0.894366909165011 6.84968594665462  1 7.29895832519531  L 1 17.8072916748047  C 0.938101843532986 18.2552083496094  1.18620371202257 18.671875  1.58337962131076 18.89375  L 10.8632407324219 24.0916666748047  C 11.2606489104742 24.3140928729464  11.7490075954215 24.3129024854331  12.1452777777778 24.0885416748047  L 21.465601843533 18.8239583251953  C 21.8649379589374 18.5984145348314  22.1106182223201 18.1812965993291  22 17.7302083251953  Z M 3.37972222222222 7.02708332519531  L 11.4637962879774 2.421875  L 19.589398156467 6.97291667480469  L 15.3226851768663 9.40520832519531  L 12.1463426009115 7.61041667480469  C 12.0400264225575 7.55166653021107  11.9256320643435 7.5081664250306  11.8066666666667 7.48125  C 11.5912780697314 7.3941506427213  11.3482192857555 7.40058722129988  11.1379629546441 7.49895832519531  C 11.0421296213108 7.52604165039062  10.9484259092882 7.56145832519531  10.8600462879774 7.61145832519531  L 7.67625 9.41145832519531  L 3.37972222222222 7.02708332519531  Z M 13.6754166666667 14.6604166748047  L 11.5074537120226 15.890625  L 9.27134260091146 14.6291666748047  L 11.4829629546441 13.4291666748047  L 13.6754166666667 14.6604166748047  Z M 14.4974537120226 10.80625  L 14.4974537120226 13.2572916748047  L 12.3401388888889 12.0458333251953  L 12.3252314898003 9.57916667480468  L 14.4974537120226 10.80625  Z M 8.50787037868924 10.809375  L 10.6726388888889 9.58541667480468  L 10.6864814898003 12.0125  L 8.50787037868924 13.1947916748047  L 8.50787037868924 10.809375  Z M 2.58856482313368 17.59375  L 2.55342593424479 8.42708332519531  L 6.85527777777778 10.8145833251953  L 6.85527777777778 14.4041666748047  C 6.85527777777778 14.8520833496094  7.10018517686632 15.2697916748047  7.49842593424479 15.49375  L 10.6822222222222 17.2916666748047  L 10.676898156467 22.125  L 2.58856482313368 17.59375  Z M 20.4550926009115 17.5270833251953  L 12.3305555555556 22.1166666748047  L 12.3348148231337 17.290625  L 15.5090277777778 15.4885416748047  C 15.9051599673854 15.2633245603784  16.1492306383408 14.8492540609458  16.1500462879774 14.4010416748047  L 16.1500462879774 10.8041666748047  L 20.4199537120226 8.37083332519531  L 20.4550926009115 17.5270833251953  Z " fill-rule="nonzero" fill="#333333" stroke="none" transform="matrix(1 0 0 1 51 7 )" />
  </g>
</svg>