<?xml version="1.0" encoding="utf-8"?>
<svg version="1.1" xmlns:xlink="http://www.w3.org/1999/xlink" width="23px" height="23px" xmlns="http://www.w3.org/2000/svg">
  <g transform="matrix(1 0 0 1 -51 -9 )">
    <path d="M 22.4375 11.49755859375  C 22.4375 5.4599609375  17.5400390625 0.5625  11.5 0.5625  C 5.4599609375 0.5625  0.5625 5.4599609375  0.5625 11.49755859375  C 0.5625 17.5400390625  5.4599609375 22.4375  11.5 22.4375  C 17.5400390625 22.4375  22.4375 17.5400390625  22.4375 11.49755859375  Z M 10.42578125 3.97802734375  C 10.42578125 3.38720703125  10.9091796875 2.90380859375  11.5 2.90380859375  C 12.0908203125 2.90380859375  12.57421875 3.38720703125  12.57421875 3.97802734375  C 12.57421875 4.5712890625  12.0908203125 5.05224609375  11.5 5.05224609375  C 10.9091796875 5.05224609375  10.42578125 4.5712890625  10.42578125 3.97802734375  Z M 4.84716796875 12.91845703125  C 5.0205078125 13.150390625  5.08642578125 13.43603515625  5.0400390625 13.71923828125  C 4.99609375 14.00244140625  4.84228515625 14.25146484375  4.6103515625 14.41748046875  C 4.419921875 14.556640625  4.2001953125 14.62255859375  3.98046875 14.62255859375  C 3.6484375 14.62255859375  3.3212890625 14.47119140625  3.10888671875 14.1806640625  C 2.93798828125 13.94873046875  2.86962890625 13.66552734375  2.91845703125 13.3798828125  C 2.96240234375 13.0966796875  3.1162109375 12.84765625  3.345703125 12.681640625  C 3.57763671875 12.5107421875  3.86083984375 12.4423828125  4.146484375 12.48876953125  C 4.4296875 12.53271484375  4.6787109375 12.6865234375  4.84716796875 12.91845703125  Z M 5.0546875 9.44677734375  C 5.0546875 10.0400390625  4.5712890625 10.52099609375  3.98046875 10.52099609375  C 3.38720703125 10.52099609375  2.90625 10.0400390625  2.90625 9.44921875  C 2.90625 8.85595703125  3.38720703125 8.37255859375  3.98046875 8.37255859375  C 4.5712890625 8.37255859375  5.0546875 8.85595703125  5.0546875 9.44677734375  Z M 7.76220703125 17.64990234375  C 7.76220703125 18.2431640625  7.27880859375 18.7265625  6.68798828125 18.7265625  C 6.09716796875 18.7265625  5.61376953125 18.2431640625  5.61376953125 17.64990234375  C 5.61376953125 17.05908203125  6.09716796875 16.57568359375  6.68798828125 16.57568359375  C 7.27880859375 16.57568359375  7.76220703125 17.05908203125  7.76220703125 17.64990234375  Z M 7.58154296875 4.71533203125  C 7.75244140625 4.94970703125  7.82080078125 5.23291015625  7.7744140625 5.5185546875  C 7.72802734375 5.8017578125  7.57421875 6.05078125  7.34228515625 6.216796875  C 7.1591796875 6.3486328125  6.939453125 6.421875  6.71484375 6.421875  C 6.65869140625 6.421875  6.6025390625 6.4169921875  6.5439453125 6.4072265625  C 6.25830078125 6.36328125  6.01171875 6.20947265625  5.84326171875 5.9775390625  C 5.67236328125 5.74560546875  5.60400390625 5.46240234375  5.650390625 5.17919921875  C 5.6943359375 4.89599609375  5.84814453125 4.64697265625  6.080078125 4.478515625  C 6.31201171875 4.3076171875  6.59765625 4.2392578125  6.880859375 4.28564453125  C 7.1640625 4.32958984375  7.4130859375 4.4833984375  7.58154296875 4.71533203125  Z M 13.26025390625 11.50244140625  C 13.2578125 12.4619140625  12.4765625 13.25048828125  11.5146484375 13.25537109375  L 9.70556640625 15.74560546875  C 9.56396484375 15.9384765625  9.3369140625 16.0361328125  9.0830078125 16.0361328125  C 8.84619140625 16.0361328125  8.58740234375 15.953125  8.35302734375 15.7822265625  C 8.0771484375 15.58203125  7.8916015625 15.30615234375  7.84765625 15.025390625  C 7.81591796875 14.8251953125  7.85986328125 14.63232421875  7.9697265625 14.4833984375  L 9.8056640625 11.95654296875  C 9.76416015625 11.80517578125  9.74462890625 11.65380859375  9.74462890625 11.5  C 9.74462890625 10.53076171875  10.533203125 9.7421875  11.50244140625 9.7421875  C 12.4716796875 9.7421875  13.26025390625 10.53076171875  13.26025390625 11.50244140625  Z M 17.2568359375 17.64990234375  C 17.2568359375 18.2431640625  16.77587890625 18.7265625  16.1826171875 18.7265625  C 15.591796875 18.7265625  15.1083984375 18.2431640625  15.1083984375 17.64990234375  C 15.1083984375 17.05908203125  15.591796875 16.57568359375  16.1826171875 16.57568359375  C 16.7734375 16.57568359375  17.2568359375 17.05908203125  17.2568359375 17.64990234375  Z M 17.15185546875 4.71533203125  C 17.5009765625 5.19140625  17.39599609375 5.865234375  16.9150390625 6.21435546875  C 16.7294921875 6.3486328125  16.509765625 6.41943359375  16.28515625 6.41943359375  C 16.22900390625 6.41943359375  16.1728515625 6.41455078125  16.1142578125 6.40478515625  C 15.82861328125 6.36083984375  15.58203125 6.20703125  15.41357421875 5.97509765625  C 15.24267578125 5.7431640625  15.1767578125 5.45751953125  15.22314453125 5.17431640625  C 15.26708984375 4.89111328125  15.4208984375 4.64208984375  15.65283203125 4.47607421875  C 15.884765625 4.31005859375  16.16796875 4.2392578125  16.451171875 4.28564453125  C 16.734375 4.32958984375  16.9833984375 4.4833984375  17.15185546875 4.71533203125  Z M 17.9453125 9.44921875  C 17.9453125 8.85595703125  18.4287109375 8.37255859375  19.01953125 8.37255859375  C 19.6103515625 8.37255859375  20.09375 8.85595703125  20.09375 9.44921875  C 20.09375 10.0400390625  19.6103515625 10.52099609375  19.01953125 10.52099609375  C 18.4287109375 10.52099609375  17.9453125 10.0400390625  17.9453125 9.44921875  Z M 19.888671875 12.91845703125  C 20.2353515625 13.3994140625  20.13037109375 14.07080078125  19.65185546875 14.419921875  C 19.4638671875 14.55419921875  19.24658203125 14.625  19.02197265625 14.625  C 18.96337890625 14.625  18.9072265625 14.6201171875  18.85107421875 14.6103515625  C 18.56787109375 14.56640625  18.31884765625 14.41259765625  18.150390625 14.1806640625  C 17.98193359375 13.951171875  17.91357421875 13.66796875  17.95751953125 13.384765625  C 18.00146484375 13.1015625  18.1552734375 12.8525390625  18.38720703125 12.681640625  L 18.3896484375 12.67919921875  C 18.8681640625 12.33251953125  19.5419921875 12.43994140625  19.888671875 12.91845703125  Z " fill-rule="nonzero" fill="#174a8e" stroke="none" transform="matrix(1 0 0 1 51 9 )" />
  </g>
</svg>