<?xml version="1.0" encoding="utf-8"?>
<svg version="1.1" xmlns:xlink="http://www.w3.org/1999/xlink" width="12px" height="12px" viewBox="304 1227  12 12" xmlns="http://www.w3.org/2000/svg">
  <path d="M 310 1227  C 313.36 1227  316 1229.64  316 1233  C 316 1236.36  313.36 1239  310 1239  C 306.64 1239  304 1236.36  304 1233  C 304 1229.64  306.64 1227  310 1227  Z " fill-rule="nonzero" fill="#f0f0f0" stroke="none" />
  <path d="M 310 1227.5  C 313.08 1227.5  315.5 1229.92  315.5 1233  C 315.5 1236.08  313.08 1238.5  310 1238.5  C 306.92 1238.5  304.5 1236.08  304.5 1233  C 304.5 1229.92  306.92 1227.5  310 1227.5  Z " stroke-width="1" stroke="#aaaaaa" fill="none" />
  <path d="M 310 1236  C 308.32 1236  307 1234.68  307 1233  C 307 1231.32  308.32 1230  310 1230  C 311.68 1230  313 1231.32  313 1233  C 313 1234.68  311.68 1236  310 1236  " fill-rule="nonzero" fill="#aaaaaa" stroke="none" />
</svg>