<?xml version="1.0" encoding="utf-8"?>
<svg version="1.1" xmlns:xlink="http://www.w3.org/1999/xlink" width="25px" height="24px" xmlns="http://www.w3.org/2000/svg">
  <g transform="matrix(1 0 0 1 -623 -1125 )">
    <path d="M 20.4166666666666 23.8529411764705  C 21.9444444444445 24  23.3333333333334 23.1176470588234  24.1666666666666 21.6470588235295  C 25 20.1764705882354  25 18.5588235294117  24.1666666666666 17.0882352941176  L 16.3888888888889 2.67647058823536  C 15.5555555555555 1.20588235294122  14.1666666666666 0.323529411764639  12.6388888888889 0.323529411764639  C 11.1111111111111 0.323529411764639  9.72222222222217 1.20588235294122  8.88888888888891 2.67647058823536  L 0.972222222222172 17.0882352941176  C 0.138888888888914 18.5588235294117  0.138888888888914 20.3235294117646  0.972222222222172 21.6470588235295  C 1.80555555555554 23.1176470588234  3.19444444444446 23.8529411764705  4.72222222222217 23.8529411764705  L 20.4166666666666 23.8529411764705  Z M 22.3611111111111 18.2647058823529  C 22.9166666666666 18.8529411764705  22.9166666666666 19.8823529411766  22.3611111111111 20.6176470588234  C 21.9444444444445 21.3529411764705  21.1111111111111 21.9411764705883  20.2777777777778 22  L 4.58333333333337 22  C 3.75 21.9411764705883  2.91666666666663 21.5  2.5 20.7647058823529  C 2.08333333333337 20.0294117647059  2.08333333333337 19  2.5 18.2647058823529  L 10.4166666666666 3.85294117647049  C 10.8333333333334 3.11764705882342  11.6666666666666 2.52941176470586  12.5 2.52941176470586  C 13.3333333333334 2.52941176470586  14.1666666666666 2.97058823529414  14.5833333333334 3.85294117647049  L 22.3611111111111 18.2647058823529  Z M 12.9 7.71428571428578  C 12.7 7.42857142857133  12.2 7.14285714285711  11.8 7.28571428571422  C 11.4 7.42857142857133  11.1 8  11.1 8.71428571428578  C 11.1 9.14285714285711  11.1 9.57142857142867  11.2 10  C 11.3 11.5714285714287  11.3 13  11.4 14.5714285714287  C 11.4 15.1428571428571  11.7 15.4285714285713  12.1 15.4285714285713  C 12.5 15.4285714285713  12.8 15  12.8 14.4285714285713  L 12.8 13.4285714285713  C 12.8 12.4285714285713  12.9 11.4285714285713  12.9 10.4285714285713  C 12.9 9.71428571428578  13 9.14285714285711  13 8.42857142857133  C 13 8.14285714285711  13 8  12.9 7.71428571428578  Z M 12.9 18.6500000000001  C 12.9 17.9000000000001  12.5 17.3  12 17.3  C 11.5 17.3  11.1 17.9000000000001  11.1 18.6500000000001  C 11.1 19.4000000000001  11.5 20  12 20  C 12.5 20  12.9 19.4000000000001  12.9 18.6500000000001  Z " fill-rule="nonzero" fill="#f59a23" stroke="none" transform="matrix(1 0 0 1 623 1125 )" />
  </g>
</svg>