<?xml version="1.0" encoding="utf-8"?>
<svg version="1.1" xmlns:xlink="http://www.w3.org/1999/xlink" width="350px" height="30px" xmlns="http://www.w3.org/2000/svg">
  <defs>
    <mask fill="white" id="clip9303">
      <path d="M 0 26.25  L 0 3.75  C 0 1.64999999999992  2.09999999999999 0  4.77272727272727 0  L 345.227272727273 0  C 347.9 0  350 1.64999999999992  350 3.75  L 350 26.25  C 350 28.3500000000001  347.9 30  345.227272727273 30  L 210.367132867133 30  L 195.681818181818 30  L 4.77272727272727 30  C 2.09999999999999 30  0 28.3500000000001  0 26.25  Z " fill-rule="evenodd" />
    </mask>
  </defs>
  <g transform="matrix(1 0 0 1 -75 -1568 )">
    <path d="M 0 26.25  L 0 3.75  C 0 1.64999999999992  2.09999999999999 0  4.77272727272727 0  L 345.227272727273 0  C 347.9 0  350 1.64999999999992  350 3.75  L 350 26.25  C 350 28.3500000000001  347.9 30  345.227272727273 30  L 210.367132867133 30  L 195.681818181818 30  L 4.77272727272727 30  C 2.09999999999999 30  0 28.3500000000001  0 26.25  Z " fill-rule="nonzero" fill="#ffffff" stroke="none" transform="matrix(1 0 0 1 75 1568 )" />
    <path d="M 0 26.25  L 0 3.75  C 0 1.64999999999992  2.09999999999999 0  4.77272727272727 0  L 345.227272727273 0  C 347.9 0  350 1.64999999999992  350 3.75  L 350 26.25  C 350 28.3500000000001  347.9 30  345.227272727273 30  L 210.367132867133 30  L 195.681818181818 30  L 4.77272727272727 30  C 2.09999999999999 30  0 28.3500000000001  0 26.25  Z " stroke-width="2" stroke="#d7d7d7" fill="none" transform="matrix(1 0 0 1 75 1568 )" mask="url(#clip9303)" />
  </g>
</svg>