<?xml version="1.0" encoding="utf-8"?>
<svg version="1.1" xmlns:xlink="http://www.w3.org/1999/xlink" width="23px" height="20px" xmlns="http://www.w3.org/2000/svg">
  <g transform="matrix(1 0 0 1 -51 -10 )">
    <path d="M 16.02734375 19.677734375  C 12.19921875 19.677734375  9.0546875 16.455078125  9.0546875 12.5  C 9.0546875 8.544921875  12.0625 5.322265625  16.02734375 5.322265625  C 19.9921875 5.322265625  23 8.544921875  23 12.5  C 23 16.455078125  19.85546875 19.677734375  16.02734375 19.677734375  Z M 1.43229166666667 12.5297619047619  C 0.572916666666664 12.5297619047619  0 11.9345238095238  0 11.0416666666667  L 0 8.80952380952381  C 0 8.06547619047619  0.572916666666664 7.32142857142857  1.43229166666667 7.32142857142857  L 8.88020833333333 7.32142857142857  C 7.734375 8.80952380952381  7.16145833333333 10.7440476190476  7.16145833333333 12.5297619047619  L 1.43229166666667 12.5297619047619  Z M 1.43229166666667 0.327380952380949  L 19.765625 0.327380952380949  C 20.625 0.327380952380949  21.1979166666667 0.922619047619051  21.1979166666667 1.81547619047619  L 21.1979166666667 4.19642857142857  C 21.1979166666667 4.64285714285714  20.9114583333333 4.94047619047619  20.625 5.23809523809524  C 19.1927083333333 4.3452380952381  17.4739583333333 3.75  15.8984375 3.89880952380952  C 13.8932291666667 3.89880952380952  12.1744791666667 4.49404761904762  10.5989583333333 5.53571428571429  L 1.43229166666667 5.53571428571429  C 0.572916666666664 5.53571428571429  0 4.94047619047619  0 4.04761904761905  L 0 1.81547619047619  C 0 1.07142857142857  0.572916666666664 0.327380952380949  1.43229166666667 0.327380952380949  Z M 0 18.1845238095238  L 0 15.8035714285714  C 0 15.0595238095238  0.572916666666664 14.3154761904762  1.43229166666667 14.3154761904762  L 7.16145833333333 14.3154761904762  L 7.16145833333333 14.4642857142857  C 7.59114583333333 16.5476190476191  8.73697916666667 18.4821428571429  10.4557291666667 19.6726190476191  L 1.43229166666667 19.6726190476191  C 0.572916666666664 19.6726190476191  0 19.0773809523809  0 18.1845238095238  Z M 16.02734375 17.48046875  C 18.76171875 17.48046875  20.94921875 15.283203125  20.94921875 12.353515625  C 20.94921875 9.423828125  18.76171875 7.2265625  16.02734375 7.2265625  C 13.29296875 7.2265625  11.10546875 9.5703125  11.10546875 12.353515625  C 11.10546875 15.283203125  13.29296875 17.48046875  16.02734375 17.48046875  Z M 4.58333333333333 10.8928571428571  C 5.01302083333333 10.8928571428571  5.29947916666667 10.5952380952381  5.29947916666667 10.1488095238095  L 5.29947916666667 9.85119047619048  C 5.29947916666667 9.4047619047619  5.01302083333333 9.10714285714286  4.58333333333333 9.10714285714286  L 2.43489583333333 9.10714285714286  C 2.00520833333333 9.10714285714286  1.71875 9.4047619047619  1.71875 9.85119047619048  L 1.71875 10.1488095238095  C 1.71875 10.5952380952381  2.00520833333333 10.8928571428571  2.43489583333333 10.8928571428571  L 4.58333333333333 10.8928571428571  Z M 4.58333333333333 3.89880952380952  C 5.01302083333333 3.89880952380952  5.29947916666667 3.60119047619048  5.29947916666667 3.15476190476191  L 5.29947916666667 2.85714285714286  C 5.29947916666667 2.41071428571429  5.01302083333333 2.11309523809524  4.58333333333333 2.11309523809524  L 2.43489583333333 2.11309523809524  C 2.00520833333333 2.11309523809524  1.71875 2.41071428571429  1.71875 2.85714285714286  L 1.71875 3.15476190476191  C 1.71875 3.60119047619048  2.00520833333333 3.89880952380952  2.43489583333333 3.89880952380952  L 4.58333333333333 3.89880952380952  Z M 4.58333333333333 17.8869047619048  C 5.01302083333333 17.8869047619048  5.29947916666667 17.5892857142857  5.29947916666667 17.1428571428571  L 5.29947916666667 16.8452380952381  C 5.29947916666667 16.3988095238095  5.01302083333333 16.1011904761905  4.58333333333333 16.1011904761905  L 2.43489583333333 16.1011904761905  C 2.00520833333333 16.1011904761905  1.71875 16.3988095238095  1.71875 16.8452380952381  L 1.71875 17.1428571428571  C 1.71875 17.5892857142857  2.00520833333333 17.8869047619048  2.43489583333333 17.8869047619048  L 4.58333333333333 17.8869047619048  Z M 16.65625 13  L 15.5625 13  C 15.40625 11.625  14.9375 9.875  14.9375 9.625  C 14.78125 9.25  14.9375 9  15.09375 8.875  C 15.25 8.625  15.5625 8.625  16.03125 8.625  C 16.34375 8.625  16.65625 8.75  16.96875 8.875  C 17.125 9.125  17.28125 9.25  17.28125 9.625  C 17.28125 9.875  16.8125 11.75  16.65625 13  Z M 16.03125 13.625  C 16.34375 13.625  16.65625 13.75  16.8125 13.875  C 17.125 14  17.125 14.25  17.125 14.5  C 17.125 14.75  17.125 15  16.8125 15.125  C 16.65625 15.25  16.34375 15.375  16.03125 15.375  C 15.71875 15.375  15.40625 15.25  15.25 15.125  C 14.9375 15  14.9375 14.75  14.9375 14.5  C 14.9375 14.25  15.09375 14  15.25 13.875  C 15.5625 13.625  15.71875 13.625  16.03125 13.625  Z " fill-rule="nonzero" fill="#333333" stroke="none" transform="matrix(1 0 0 1 51 10 )" />
  </g>
</svg>