<?xml version="1.0" encoding="utf-8"?>
<svg version="1.1" xmlns:xlink="http://www.w3.org/1999/xlink" width="23px" height="24px" xmlns="http://www.w3.org/2000/svg">
  <g transform="matrix(1 0 0 1 -51 -170 )">
    <path d="M 10.039568452381 12.3743821022727  C 10.2475246465774 12.3744140625  10.4104627046131 12.3022478693182  10.5317838541667 12.1370134943182  C 10.7017489769345 11.9065802556818  10.7397721354167 11.6554367897727  10.6253817894345 11.3906143465909  C 10.5110556175595 11.1325355113636  10.2856440662202 11.0466583806818  10.0221772693452 11.0328515625  C 9.95293340773809 11.0293998579545  9.88356119791667 11.0293998579545  9.81422107514881 11.0293998579545  C 9.25256928943452 11.0293998579545  8.69451125372024 11.0260120738636  8.13289155505952 11.0328515625  C 8.01166666666667 11.0328515625  7.97688430059524 10.9949467329545  7.98038178943452 10.8745845170455  C 7.98724841889881 10.4858842329545  7.99427548363095 10.0936363636364  7.98384719122024 9.70490411931818  C 7.98038178943452 9.54328125  8.03236281622024 9.50544034090909  8.18837007068452 9.50544034090909  C 8.83672107514881 9.50892400568182  9.48144624255952 9.50544034090909  10.1297330729167 9.48827769886364  C 10.4868619791667 9.47792258522727  10.7018131510417 9.22674715909091  10.6879194568452 8.87591974431818  C 10.6705603608631 8.43566761363637  10.3134635416667 8.09506747159091  9.86969959077381 8.09506747159091  C 9.29765159970238 8.09506747159091  8.72569986979167 8.09845525568182  8.15365187872024 8.09506747159091  C 8.09467587425595 8.09506747159091  7.99068173363095 8.1226171875  7.99424339657738 8.04338778409091  C 7.99767671130953 7.84743963068182  7.91790829613095 7.64439630681818  8.09817336309524 7.46206321022727  C 8.72213820684524 6.83947798295454  9.32880812872024 6.20305397727273  9.94247302827381 5.57008167613636  C 10.0221130952381 5.48759232954545  10.1019777715774 5.40161931818182  10.1642908296131 5.3051953125  C 10.3965690104167 4.95781960227273  10.230261811756 4.54498934659091  9.8177185639881 4.44872514204545  C 9.52649646577381 4.37997869318182  9.29418619791667 4.50043678977273  9.09306454613095 4.68948153409091  C 8.52098446800595 5.22267400568182  7.94903273809524 5.75586647727273  7.38397972470238 6.29947798295455  C 7.28688430059524 6.39232244318182  7.24536365327381 6.38196732954546  7.15869652157738 6.28902698863636  C 6.68024646577381 5.77644886363636  6.19136811755952 5.27083806818182  5.70954892113095 4.76177556818182  C 5.52581845238095 4.56915127840909  5.31433268229167 4.4315625  5.04740048363095 4.37991477272727  C 4.75621047247024 4.32491122159091  4.51696940104166 4.46246803977273  4.43033435639881 4.74451704545455  C 4.32637230282738 5.08169744318182  4.48237955729167 5.34648792613636  4.70076404389881 5.58385653409091  C 5.22073474702381 6.15147017045455  5.73730422247024 6.72943892045455  6.27466610863095 7.27973011363637  C 6.47222609747024 7.48274147727273  6.55892531622024 7.68910866477273  6.53110584077381 7.96435014204546  C 6.52064546130952 8.08471235795455  6.49298642113095 8.1191015625  6.37160109747024 8.1191015625  C 5.76499534970238 8.11223011363637  5.15829334077381 8.12258522727273  4.55155924479167 8.11223011363637  C 4.35740048363095 8.10881036931818  4.2222498139881 8.1809765625  4.10779529389881 8.32562855113637  C 4.02106398809524 8.43563565340909  3.96212007068452 8.55944957386364  3.91710193452381 8.69023082386364  C 3.7541638764881 9.18213068181818  3.99940522693452 9.61503196022727  4.52386811755953 9.61503196022727  C 5.15871047247024 9.61503196022727  5.7475720796131 9.51927911931818  6.36117280505953 9.51240767045455  C 6.45830031622024 9.50898792613636  6.52767252604167 9.51240767045455  6.52417503720238 9.64306107954546  C 6.51721214657738 10.0662464488636  6.51721214657738 10.4928196022727  6.52061337425595 10.9159410511364  C 6.52061337425595 11.015625  6.48599144345238 11.0431107954545  6.38896019345238 11.0431107954545  C 6.05271995907738 11.0363032670455  5.71991303943453 11.0397230113636  5.38364071800595 11.0397230113636  L 4.43723307291667 11.0397230113636  C 4.04885137648809 11.0431107954545  3.75419596354167 11.3253196022727  3.75766136532738 11.6933416193182  C 3.76115885416667 12.0854616477273  4.05584635416667 12.3778977272727  4.4475330171131 12.3778977272727  C 5.08205450148809 12.3778977272727  5.71984886532738 12.3778977272727  6.35427408854167 12.3743501420455  C 6.46529529389881 12.3743501420455  6.50684802827381 12.4019318181818  6.50341471354167 12.5188423295455  C 6.49994931175595 12.7322727272727  6.50341471354167 12.9454474431818  6.52070963541667 13.1553622159091  C 6.5554920014881 13.5783877840909  6.8465857514881 13.8226598011364  7.28004975818452 13.8123686079546  C 7.66823893229167 13.8020134943182  7.96645600818452 13.4993181818182  7.97335472470238 13.0968110795455  C 7.97678803943453 12.9179616477273  7.98381510416667 12.7390802556818  7.96295851934524 12.5635866477273  C 7.94556733630952 12.4019637784091  7.99764462425595 12.3675106534091  8.15015438988095 12.3710262784091  C 8.7811462983631 12.3778977272727  9.40867280505952 12.3710262784091  10.039568452381 12.3743821022727  Z M 22.5762048921131 17.1128373579545  C 22.5762369791667 13.7239666193182  19.6877604166667 10.9684836647727  16.135242280506 10.9684836647727  C 12.5870558965774 10.9684836647727  9.69646158854166 13.7239026988636  9.69646158854166 17.1128373579545  C 9.69646158854166 20.4996946022727  12.5869596354167 23.2571271306818  16.135242280506 23.2571271306818  C 19.6877604166667 23.2571271306818  22.5762048921131 20.4997585227273  22.5762048921131 17.1128373579545  Z M 21.4131454613095 17.1128373579545  C 21.4132096354167 19.8866335227273  19.0461476934524 22.1473721590909  16.1363332403274 22.1473721590909  C 13.229021577381 22.1473721590909  10.8597456287202 19.8866335227273  10.8597456287202 17.1128373579545  C 10.8597456287202 14.3366761363636  13.2290536644345 12.0783664772727  16.1363332403274 12.0783664772727  C 19.0461797805059 12.0783664772727  21.4131454613095 14.3366122159091  21.4131454613095 17.1128373579545  Z M 9.66751906622024 20.8815553977273  L 9.59753720238095 20.644921875  L 2.46474562872024 20.644921875  C 2.27726097470238 20.644921875  1.46597191220238 19.9726384943182  1.46597191220238 19.7346946022727  L 1.46597191220238 3.27265269886364  C 1.63744512648809 2.83102627840909  2.00882068452381 2.47125  2.45672386532738 2.25599786931818  C 2.45672386532738 2.25599786931818  17.4431105840774 2.25983309659091  17.873045014881 2.31227982954545  C 18.3030757068452 2.36488636363636  18.9055422247024 3.09194957386364  18.9055422247024 3.32890269886364  L 18.9055422247024 10.3037748579545  L 19.1775441778274 10.3578835227273  C 19.7159328497024 10.5133380681818  19.4575678943452 10.6794673295455  20.099373139881 10.96359375  L 20.099373139881 3.42331321022727  C 20.099373139881 2.11278409090909  19.2619010416667 1.06247514204546  17.9207905505952 1  L 2.72198753720238 1  C 1.38087704613095 1.06247514204546  0.291168619791666 2.12182883522727  0.291168619791666 3.42331321022727  L 0.291168619791666 19.7663991477273  C 0.291168619791666 21.0689701704545  1.36707961309524 21.8391796875  2.72198753720238 21.8391796875  L 10.6727743675595 21.8391796875  C 10.2801571800595 21.2610191761364  9.94212007068452 21.4432883522727  9.66751906622024 20.8815553977273  Z M 15.8047456287202 6.25697088068182  L 13.0032570684524 6.25697088068182  C 12.5462732514881 6.25697088068182  12.1766303943452 6.57510298295455  12.1766303943452 6.96581676136364  C 12.1766303943452 7.35560369318182  12.5462732514881 7.673671875  13.0032570684524 7.673671875  L 15.8047456287202 7.673671875  C 16.2616010974702 7.673671875  16.6336183965774 7.35560369318182  16.6336183965774 6.96581676136364  C 16.6336183965774 6.57510298295454  16.2616652715774 6.25697088068182  15.8047456287202 6.25697088068182  Z M 15.7895684523809 19.1939595170455  C 15.6681831287202 19.3101029829546  15.5087425595238 19.3679509943182  15.3504250372024 19.3679509943182  C 15.1914978608631 19.3679509943182  15.0319931175595 19.3100710227273  14.9112816220238 19.1938636363636  L 13.5940759858631 17.9379225852273  C 13.3508561197917 17.7070738636364  13.3508561197917 17.3325  13.5940759858631 17.10046875  C 13.7152687872024 16.9849964488636  13.8737146577381 16.9275  14.0333156622024 16.9275  C 14.1915690104167 16.9275  14.3504320126488 16.9849964488636  14.4722665550595 17.10046875  L 15.3503929501488 17.9379225852273  L 17.9096563430059 15.4976313920455  C 18.0302394903274 15.3819034090909  18.1898404947917 15.3240234375  18.3488639322917 15.3240234375  C 18.5082403273809 15.3240234375  18.6664615885417 15.3819034090909  18.7878148251488 15.4976313920455  C 19.0304892113095 15.7293430397727  19.0304892113095 16.1035653409091  18.7878148251488 16.3348295454546  L 15.7895684523809 19.1939595170455  Z M 8.21474562872024 16.4108629261364  C 8.21477771577381 16.0199254261364  7.84401181175595 15.7015696022727  7.38718843005952 15.7015696022727  L 4.58534691220238 15.7015696022727  C 4.12852353050595 15.7015696022727  3.7577576264881 16.0197975852273  3.7577576264881 16.4108629261364  C 3.7577576264881 16.7998828125  4.12855561755952 17.1182386363636  4.58534691220238 17.1182386363636  L 7.38715634300595 17.1182386363636  C 7.84401181175595 17.1182386363636  8.21474562872024 16.7998828125  8.21474562872024 16.4108629261364  Z " fill-rule="nonzero" fill="#333333" stroke="none" transform="matrix(1 0 0 1 51 170 )" />
  </g>
</svg>