<?xml version="1.0" encoding="utf-8"?>
<svg version="1.1" xmlns:xlink="http://www.w3.org/1999/xlink" width="23px" height="20px" xmlns="http://www.w3.org/2000/svg">
  <g transform="matrix(1 0 0 1 -51 -10 )">
    <path d="M 16.953210201712 12.9533680846931  C 16.9524180561282 12.1482660234423  16.2922597883622 11.4957238544206  15.4774968025673 11.4946796620047  C 14.6626559766976 11.495723308921  14.0023602894865 12.1481894030033  14.0013041188072 12.9533680846931  C 14.0023603003136 13.7585467587969  14.6626559843605 14.4110128410639  15.4774968025673 14.4120564879565  C 16.2922597806963 14.4110122955608  16.9524180452962 13.7584701383584  16.953210201712 12.9533680846931  Z M 18.3819538264977 12.9533680846931  C 18.3819538264977 14.5361397435897  17.0783031521392 15.8233849067599  15.4774968025673 15.8233848873349  C 13.8741759173726 15.821557996657  12.5748886028546 14.5376772597749  12.5730397786369 12.9533680846931  C 12.5730397786369 11.371070027195  13.8762111683799 10.0833512626263  15.4774968025673 10.0833512626263  C 17.0783031521392 10.0833512626263  18.3819538264977 11.371070027195  18.3819538264977 12.9533680846931  Z M 16.714047807695 17.3488509324009  C 17.0073692059854 17.5638653846154  17.2105853521392 17.7798270590521  17.2359873581221 17.8068222610723  C 17.2426973230794 17.8115582556333  17.2618686487204 17.8181886557887  17.2815192786349 17.8181886752137  L 17.2839157017118 17.8181886752137  L 18.6891744393181 17.0509564491065  C 18.6556246145317 16.9728124320124  18.5003368119677 16.5948795260295  18.5003368119677 16.2013178127428  C 18.5011641087619 15.0266082323985  19.4312018061532 14.057478411028  20.618289865813 13.9943411810412  C 20.6350647880352 13.9024627622378  20.7275664632488 13.3819762043512  20.7275664632488 12.9912560800311  C 20.7275664632488 12.600535955711  20.6350647880352 12.080523018648  20.618289865813 11.988170998446  C 19.4315711371633 11.9250538709782  18.501672844022 10.9564851877237  18.5003368119677 9.78214156954157  C 18.5003368119677 9.38668545066045  18.6561038991471 9.00875254467754  18.6891744393181 8.93108212898213  L 17.3069213042759 8.17237470862471  L 17.3011698888913 8.17190110722611  C 17.2824722823013 8.17187032112601  17.2641057411994 8.17677539141067  17.2479694538486 8.18610911033411  C 17.0901836563056 8.34169742694783  16.9190815861879 8.48351608282778  16.7365741256437 8.60998123543123  C 16.3100119581225 8.90598131313131  15.9078932273534 9.05611256798757  15.5383657914561 9.05611256798757  C 15.1664419128238 9.05611256798757  14.7600096598325 8.90313972416472  14.3315303341917 8.60145642968143  C 14.1475302792117 8.47242608181379  13.9754364818338 8.32757185520579  13.8172593179526 8.16858591686092  C 13.8007890161699 8.15969622444237  13.7823462840577 8.15497749344767  13.7635795786364 8.1548514957265  L 13.7587867521407 8.1548514957265  L 12.3271674196626 8.93250293317793  C 12.3607172444489 9.01112055167055  12.5155257623976 9.38857985625486  12.5155257820557 9.78214156954157  C 12.5141758792643 10.9566585343677  11.5840010148735 11.9252960823211  10.3970934239369 11.988170998446  C 10.3803185017147 12.0800494172494  10.2887753957319 12.600535975136  10.2887753957319 12.9912560800311  C 10.2887753957319 13.3819761849262  10.3803185213728 13.9024627428127  10.3975727085523 13.9948147824398  C 11.5846649482924 14.0576997396004  12.5149095289316 15.0266178540906  12.5160050666711 16.2013178127428  C 12.5160050666711 16.5963003302253  12.3592794102609 16.975654040404  12.3257295854746 17.0519036519037  L 13.6816221453031 17.8006654623155  L 13.6844978333373 17.8006654623155  C 13.7046277282091 17.8006654623155  13.7228405042774 17.7935614607615  13.7300297538501 17.789299048174  C 13.8895750781448 17.6246141910673  14.0634213726104 17.4740647134571  14.2495728812003 17.3393789238539  C 14.6838035829095 17.0249084304584  15.0964665359008 16.8648315850816  15.4765382333365 16.8648315850816  C 15.8609234726526 16.8648315850816  16.2769413982934 17.02775003885  16.714047807695 17.3488509324009  Z M 17.6817208709424 19.9124484654235  C 17.4109257906007 19.9119748640249  17.1482785094042 19.801626029526  16.9786122076949 19.616921989122  C 16.7471183478659 19.3663875097125  16.0152527059859 18.7147137334887  15.4151899598323 18.7147137140637  C 14.8199200598325 18.7147137140637  14.076072322226 19.3706499028749  13.86231195385 19.5993987762238  C 13.6931249367561 19.7817348290598  13.4323947940211 19.8901892579643  13.1644754213717 19.8901892579643  C 13.0369860478675 19.8901892579643  12.916685943594 19.8660356449106  12.8069300418846 19.818202039627  L 12.7877587162436 19.8101508352758  L 10.9655234641076 18.8032769425019  L 10.9473107076974 18.7900161421911  C 10.6134711275204 18.5534071662082  10.4914047837376 18.119021414614  10.6539892897488 17.7462014374514  C 10.6549478589796 17.7433598290598  10.8217384529966 17.3635325369075  10.8217384726547 17.015910042735  C 10.820418099643 15.9623555533027  9.95642376638791 15.1086062121412  8.89022662308288 15.1073014957265  L 8.81354128120257 15.1073014957265  C 8.50871707180099 15.1073014957265  8.25996902479254 14.8392438228438  8.18088727949343 14.4253172882673  C 8.17417731453617 14.3921652874903  8.02512019231401 13.6059890637141  8.02512019231401 12.9869936868687  C 8.02512019231401 12.3670511072261  8.17369802992079 11.5813484848485  8.18040799487805 11.5472492812743  C 8.2614068786387 11.1281131701632  8.5144684871856 10.8586346930847  8.82552335727094 10.8657386752137  L 8.88974733846749 10.8657386752137  C 9.95639605576561 10.8644334384356  10.8206821523998 10.0101839255364  10.8217384726547 8.95618292540792  C 10.8217384726547 8.60950763403263  10.6549478786377 8.22968032245532  10.6535100051334 8.22541792929292  C 10.4913363409673 7.85239475732532  10.6147376351058 7.4181138216545  10.9497071111162 7.18302402874902  L 10.9683991717999 7.17023682983682  L 12.8917632025684 6.12594852369852  L 12.9118930974402 6.11789731934731  C 13.0197318410299 6.0719581002331  13.1381148264999 6.04922529137529  13.2636870615426 6.04922531080031  C 13.5311271692348 6.04922531080031  13.792336576927 6.15483813131313  13.9634407324824 6.33338539238539  C 14.1911003153883 6.56876466588966  14.9105045965846 7.18112964257964  15.492354586328 7.18112962315462  C 16.0694117299175 7.18112962315462  16.7849817538488 6.58060464257964  17.0116827675239 6.34948778166278  C 17.1818283538486 6.17472933177933  17.4411206427374 6.07101089743589  17.7056850427373 6.07101091686091  C 17.8336537008569 6.07101091686091  17.9544330897457 6.09469092851592  18.0651475410277 6.14205093240093  L 18.0843188666687 6.15010213675213  L 19.9415417974372 7.17023682983682  L 19.9602338581209 7.18302402874902  C 20.292377211967 7.41129930069929  20.4189080162404 7.86074582362082  20.2540345410268 8.22683873348873  C 20.253075971796 8.22968034188034  20.086285377779 8.60950763403263  20.0862853581209 8.95618292540792  C 20.0876051407889 10.0098143759535  20.9515225400097 10.8636995255146  22.0177972076927 10.8652650738151  L 22.0825004735047 10.8652650738151  C 22.3925967940174 10.8586346736597  22.6470962367523 11.1276395493395  22.7276158358975 11.5472492812743  C 22.7338465162394 11.5804012820513  22.8829036384616 12.3670511072261  22.8829036384616 12.9860464840715  C 22.8829036384616 13.6055154623155  22.7338465162394 14.3926388888889  22.7266572666668 14.4257908896659  C 22.6470962367523 14.8444534188034  22.3925967743592 15.1139318958819  22.0825004735047 15.1068278943279  L 22.0177972076927 15.1068278943279  C 20.9515225400097 15.1083934426283  20.0876051407889 15.9622785921895  20.0862853581209 17.015910042735  C 20.0862853581209 17.3625853341103  20.2530759521379 17.7433598484848  20.2545138256422 17.74667503885  C 20.4168272488687 18.1197755130412  20.2938910600371 18.5542187273558  19.9592752888902 18.7900161421911  L 19.9410625128218 18.8032769425019  L 18.0512483264978 19.834778049728  L 18.0320769811987 19.8428292346542  C 17.9211714480539 19.8894702758424  17.8017713437116 19.9131638470715  17.681241586327 19.9124484654235  Z M 22.0470334905987 1.00159506604507  L 22.0470334905987 6.21119654234654  C 22.0470335004278 6.73445645190586  21.6178685816308 7.15853245862242  21.0884668252145 7.15853245862242  C 20.5590650687982 7.15853245862242  20.1299001500012 6.73445645190586  20.1299001500012 6.21133218667215  L 20.1299001598303 2.42381625874126  C 20.1299001598303 2.16238898601399  19.9161397914543 1.94879533799534  19.6520546564117 2  L 2.39497883419673 2  C 2.1342486914618 1.94879533799534  1.91713335043625 2.16191538461538  2 2.42381625874126  L 2 13.7873779137529  C 1.91713335043625 14.0488051864802  2.13089371881223 14.2623988539239  2.39497883419673 14.2623988539239  L 6.7099667265026 14.2623988539239  C 7.2393684829189 14.2623988539239  7.66853340171587 14.6864748606404  7.66853340171587 15.2095991258741  C 7.66853340171587 15.7327233911078  7.2393684829189 16.1567993978244  6.7099667265026 16.1567993978244  L 0.961442382915283 16.1567993978244  C 0.960483816377654 16.1568022394452  0.959525246064502 16.156803660258  0.958566675213271 16.156803660258  C 0.429164918796974 16.156803660258  0 15.7327276535414  0 15.2096033883077  L 0 1.00159506604507  C 0 0.478266919191919  0.430396444453969 0.0543947940947939  0.961442382915283 0  L 21.0855911273512 0  C 21.0865496873366 0.0543919525128622  21.0875082510963 0.0543905317194986  21.0884668153951 0.0543905317194986  C 21.6178685718114 0.0543905317194986  22.0470334906084 0.478466538436055  22.0470334906084 1.00159080366977  Z M 4.31355003846942 18.9984001942502  C 4.31355003846942 18.475072047397  4.7458636017171 18.0511999222999  5.27643025556304 18.0511999417249  L 9.10206985299732 18.0511999417249  C 9.63160888148302 18.0511999320124  10.06077380028 18.475275938729  10.06077380028 18.9984002039627  C 10.06077380028 19.5215244691964  9.63160888148302 19.945600475913  9.10220712506672 19.945600475913  L 5.27690954017842 19.9456004662005  C 5.27531194380278 19.9456083595506  5.27371432995372 19.9456123062442  5.27211671360781 19.9456123062442  C 4.74271495719151 19.9456123062442  4.31355003839453 19.5215362995277  4.31355003839453 18.998412034294  Z " fill-rule="nonzero" fill="#333333" stroke="none" transform="matrix(1 0 0 1 51 10 )" />
  </g>
</svg>