<?xml version="1.0" encoding="utf-8"?>
<svg version="1.1" xmlns:xlink="http://www.w3.org/1999/xlink" width="15px" height="15px" xmlns="http://www.w3.org/2000/svg">
  <g transform="matrix(1 0 0 1 -79 -28 )">
    <path d="M 14.99609375 9.00453629032258  C 14.27734375 8.73235887096774  13.76171875 8.05569556451613  13.76171875 7.25806451612903  C 13.76171875 6.46421370967742  14.2734375 5.78755040322581  15 5.51537298387097  C 14.80859375 4.74042338709677  14.4921875 4.01461693548387  14.07421875 3.35685483870968  C 13.82421875 3.46270161290323  13.55859375 3.51940524193548  13.2890625 3.51940524193548  C 12.796875 3.51940524193548  12.3046875 3.33795362903226  11.92578125 2.97505040322581  C 11.34375 2.41179435483871  11.21484375 1.58392137096774  11.52734375 0.895917338709677  C 10.8515625 0.491431451612903  10.09765625 0.18523185483871  9.30078125 0  C 9.0234375 0.699344758064516  8.3203125 1.19833669354839  7.5 1.19833669354839  C 6.6796875 1.19833669354839  5.9765625 0.699344758064516  5.69921875 0  C 4.8984375 0.18523185483871  4.1484375 0.491431451612903  3.46875 0.895917338709677  C 3.78515625 1.58014112903226  3.65234375 2.41179435483871  3.0703125 2.97505040322581  C 2.6953125 3.33795362903226  2.19921875 3.51940524193548  1.70703125 3.51940524193548  C 1.4375 3.51940524193548  1.171875 3.46648185483871  0.921875 3.35685483870968  C 0.5078125 4.01839717741936  0.19140625 4.74420362903226  0 5.51915322580645  C 0.72265625 5.78755040322581  1.23828125 6.46421370967742  1.23828125 7.26184475806452  C 1.23828125 8.05569556451613  0.7265625 8.73235887096774  0.00390625 9.00453629032258  C 0.1953125 9.77948588709677  0.51171875 10.5052923387097  0.9296875 11.1630544354839  C 1.1796875 11.0572076612903  1.4453125 11.0042842741935  1.7109375 11.0042842741935  C 2.203125 11.0042842741935  2.6953125 11.1857358870968  3.07421875 11.5486391129032  C 3.65234375 12.1081149193548  3.78515625 12.9397681451613  3.47265625 13.6239919354839  C 4.15234375 14.0284778225806  4.90625 14.3346774193548  5.703125 14.5199092741935  C 5.98046875 13.820564516129  6.6796875 13.3253528225806  7.5 13.3253528225806  C 8.3203125 13.3253528225806  9.01953125 13.820564516129  9.296875 14.5199092741935  C 10.09765625 14.3346774193548  10.84765625 14.0284778225806  11.52734375 13.6239919354839  C 11.21484375 12.9397681451613  11.34765625 12.1118951612903  11.92578125 11.5486391129032  C 12.30078125 11.1857358870968  12.79296875 11.0042842741935  13.2890625 11.0042842741935  C 13.5546875 11.0042842741935  13.82421875 11.0572076612903  14.0703125 11.1630544354839  C 14.48828125 10.5052923387097  14.8046875 9.77570564516129  14.99609375 9.00453629032258  Z M 10.66015625 7.25428427419355  C 10.66015625 8.92137096774194  9.265625 10.2784778225806  7.53515625 10.2784778225806  C 5.8046875 10.2784778225806  4.41015625 8.92137096774194  4.41015625 7.25428427419355  C 4.41015625 5.58719758064516  5.8046875 4.23009072580645  7.53515625 4.23009072580645  C 9.265625 4.23009072580645  10.66015625 5.58719758064516  10.66015625 7.25428427419355  Z " fill-rule="nonzero" fill="#ffffff" stroke="none" transform="matrix(1 0 0 1 79 28 )" />
  </g>
</svg>