<?xml version="1.0" encoding="utf-8"?>
<svg version="1.1" xmlns:xlink="http://www.w3.org/1999/xlink" width="17px" height="18px" xmlns="http://www.w3.org/2000/svg">
  <g transform="matrix(1 0 0 1 -596 -186 )">
    <path d="M 0.928321432128906 12.796875  C 1.19379464196777 13.3899107058105  1.97791964196777 13.4236607124023  2.28619643212891 12.8542499934082  C 2.41095032035965 12.6243003963391  2.42149582585546 12.3442541833441  2.31442857409668 12.1045178496094  C 2.13948700238261 11.7139097503647  1.99761839217748 11.3076386450045  1.89049106787109 10.890482137207  C 1.65802535124325 9.99015083825366  1.59261320441244 9.05063922055175  1.69787499377441 8.12394643798828  C 1.80807141345215 7.16448215698242  2.0958571295166 6.24744643139648  2.55349107409668 5.3988750065918  C 3.00471926050555 4.55883803788381  3.61191908469509 3.82423923049144  4.33849106787109 3.23935714379883  C 5.03923371229462 2.67368338012106  5.83729798058706 2.25789298777929  6.68813391967774 2.01519643139648  C 7.53940328717827 1.77014256288202  8.42729391224773 1.70106186896799  9.30325 1.81173214379883  C 10.109830554779 1.91479665823472  10.892310355203 2.17071466831304  11.61327677771 2.5672499934082  L 11.4038124937744 2.95489285620117  C 11.2417053518066 3.25333929418945  11.4939732160645 3.65448214379883  11.8582589321289 3.67666071899414  L 13.2011071357422 3.75573214379883  L 14.5439553580322 3.83480356860351  C 14.5518407837545 3.83528682850842  14.5597377563686 3.83552860995604  14.5676363797205 3.83552860995604  C 14.7939745034008 3.83552860995604  14.9774578056238 3.64125217230816  14.9774578056238 3.40160004135253  C 14.9774578056238 3.31568014503635  14.9533679236861 3.23169418662391  14.9082410740967 3.16028571899414  L 14.1628214321289 1.97421428759765  L 13.4174017901611 0.787178568603514  C 13.2156785740967 0.467035718994139  12.7616875124512 0.439071418212889  12.5995803518066 0.737999999999999  L 12.3755446481934 1.153125  C 8.41029463574219 -1.05364285620117  3.470125 0.443410712402344  1.22521429016113 4.59417856860352  C -0.140236925036989 7.1107924366853  -0.251216571415304 10.1769906448155  0.928321432128906 12.796875  Z M 16.0493660803223 5.19685715039063  C 15.7820714383545 4.59755357519531  14.9974910803223 4.56380358837891  14.6896696481934 5.13321428759766  C 14.5649157599626 5.36316388466681  14.5543702544668 5.6432100976618  14.6614375062256 5.88294643139648  C 14.8353839383545 6.27058929418945  14.9770000062256 6.67607143798828  15.0853749937744 7.09698214379883  C 15.3189732160645 8.00485713720703  15.3822678518066 8.93394643798828  15.2779910678711 9.86351786279297  C 15.1677263458757 10.823309267435  14.8767840200863 11.7499382260687  14.4223750062256 12.5885892941895  C 13.970488637161 13.4284122013396  13.363221465624 14.1630690873074  12.6369196357422 14.7485892810059  C 11.9361404035583 15.3140918256146  11.1380784585658 15.729717246199  10.2872767839355 15.9722678496094  C 9.43029464819336 16.2196071437988  8.55236606164551 16.2866249934082  7.67443749377441 16.1762142810059  C 6.86770083450404 16.073206279644  6.08506222678765 15.8172867774864  5.36395535803223 15.4206964313965  L 5.57341964196777 15.0330535686035  C 5.73598214196777 14.7341250065918  5.48371427770996 14.332982137207  5.11942858032226 14.3112857058105  L 3.77658035803223 14.2322142810059  L 2.43373213574219 14.1531428562012  C 2.42595184613425 14.1526724309581  2.41816046669644 14.1524370747846  2.41036750189232 14.1524370747846  C 2.184029378212 14.1524370747846  2.000546075989 14.3467135124325  2.000546075989 14.5863656433881  C 2.000546075989 14.6720801116445  2.02452100555773 14.7558746539377  2.06944641967773 14.8271785620117  L 2.81486608032227 16.013732137207  L 3.55983036425781 17.2002857124023  C 3.76155358032226 17.5209107058106  4.21554464196777 17.548392862793  4.37810714196777 17.2499464248047  L 4.60214286425781 16.8343392810059  C 8.56739285803223 19.0473749868164  13.5071071544189 17.5503214182129  15.7520178642578 13.3995535620117  C 17.1176148488081 10.8830198697074  17.2287647708142 7.81681998305889  16.0493660803223 5.19685715039063  Z " fill-rule="nonzero" fill="#0a92fa" stroke="none" transform="matrix(1 0 0 1 596 186 )" />
  </g>
</svg>