<?xml version="1.0" encoding="utf-8"?>
<svg version="1.1" xmlns:xlink="http://www.w3.org/1999/xlink" width="19px" height="22px" xmlns="http://www.w3.org/2000/svg">
  <g transform="matrix(1 0 0 1 -360 -32 )">
    <path d="M 16.410625 0.124999999999998  L 3.464375 0.125  L 16.410625 0.125  C 17.8084375 0.125  18.9565625 1.259375  18.99875 2.6625  L 19 2.7421875  L 19 14.5765625  C 18.4832822847287 14.9980233290974  18.0449074527116 15.507274400847  17.705 16.0809375  L 17.705 14.6240625  L 2.169375 14.6240625  L 2.169375 18.4453125  C 2.169375 19.2065625  2.656875 19.721875  3.394375 19.7525  L 3.464375 19.75375  L 16.410625 19.75375  C 16.611875 19.75375  16.7959375 19.71875  16.9578125 19.653125  C 17.01 20.0915625  17.1128125 20.5146875  17.259375 20.9165625  C 17.0118023685662 21.004570568644  16.7520074615519 21.0533875499539  16.489375 21.06125  L 16.410625 21  L 3.464375 21  C 2.0665625 21.0625  0.918125000000001 19.928125  0.876250000000001 18.525  L 1 18.4453125  L 1 2.7421875  C 0.875 1.3296875  1.9975 0.168749999999999  3.3853125 0.126249999999999  L 3.464375 0.124999999999998  L 16.410625 0.124999999999998  Z M 13.82125 15.9328125  L 16.410625 15.9328125  L 16.410625 18.55  L 13.82125 18.55  L 13.82125 15.9328125  Z M 17.705 13  L 17.705 8  L 2.169375 8  L 2.169375 13  L 17.705 13  Z M 13.82125 9.3896875  L 16.410625 9.3896875  L 16.410625 12.006875  L 13.82125 12.006875  L 13.82125 9.3896875  Z M 16.480625 1.435  L 16.410625 1.4334375  L 3.464375 1.4334375  C 2.71125 1.4334375  2.20125 1.9259375  2.1709375 2.6715625  L 2.1696875 2.7421875  L 2.169375 7  L 17.705 7  L 17.705 2.7421875  C 17.705 1.9809375  17.2184375 1.465625  16.480625 1.435  Z M 13.82125 2.846875  L 16.410625 2.846875  L 16.410625 5.4640625  L 13.82125 5.4640625  L 13.82125 2.846875  Z " fill-rule="nonzero" fill="#0a92fa" stroke="none" transform="matrix(1 0 0 1 360 32 )" />
  </g>
</svg>