<?xml version="1.0" encoding="utf-8"?>
<svg version="1.1" xmlns:xlink="http://www.w3.org/1999/xlink" width="11px" height="10px" xmlns="http://www.w3.org/2000/svg">
  <g transform="matrix(1 0 0 1 -377 -46 )">
    <path d="M 0.75 5.03125  C 0.75 2.35625  2.91875 0.1875  5.59375 0.1875  C 8.26875 0.1875  10.4375 2.35625  10.4375 5.03125  C 10.4375 7.70625  8.26875 9.875  5.59375 9.875  C 2.91875 9.875  0.75 7.70625  0.75 5.03125  Z M 9.1740625 5.03125  C 9.1740625 3.0540625  7.5709375 1.4509375  5.59375 1.4509375  C 3.6165625 1.4509375  2.0134375 3.0540625  2.0134375 5.03125  C 2.0134375 7.0084375  3.6165625 8.6115625  5.59375 8.6115625  C 7.5709375 8.6115625  9.1740625 7.0084375  9.1740625 5.03125  Z " fill-rule="nonzero" fill="#0a92fa" stroke="none" transform="matrix(1 0 0 1 377 46 )" />
  </g>
</svg>