<?xml version="1.0" encoding="utf-8"?>
<svg version="1.1" xmlns:xlink="http://www.w3.org/1999/xlink" width="40px" height="40px" xmlns="http://www.w3.org/2000/svg">
  <g transform="matrix(1 0 0 1 -346 -300 )">
    <path d="M 36.9642857003348 35  L 36.0714285714286 35  L 36.0714285714286 38.3333333203125  C 36.0714285714286 39.2538333203125  35.2719642717634 40  34.2857142717634 40  L 5.71428572823661 40  C 4.72803572823661 40  3.92857142857143 39.2538333203125  3.92857142857143 38.3333333203125  L 3.92857142857143 35  L 3.03571429966518 35  C 1.55642857142857 35  0.35714287109375 33.8806666796875  1 32.5  L 1 2.5  C 0.35714287109375 1.1193333203125  1.55642857142857 0  3.03571429966518 0  L 36.9642857003348 0  C 38.4435714285714 0  39.6428571289062 1.1193333203125  39 2.5  L 39 32.5  C 39.6428571289062 33.8806666796875  38.4435714285714 35  36.9642857003348 35  Z M 35.8928571289063 5  L 4.10714287109375 5  C 4.00852058663339 5  3.92857142857143 5.07461921419116  4 5.1666666796875  L 4 16.5  C 3.92857142857143 16.5920474654963  4.00852058663339 16.6666666796875  4.10714287109375 17  L 35.8928571289063 17  C 35.9914794133666 16.6666666796875  36.0714285714286 16.5920474654963  36 16.5  L 36 5.1666666796875  C 36.0714285714286 5.07461921419116  35.9914794133666 5  35.8928571289063 5  Z M 14.4712499860491 30.2716666796875  C 14.4682885490398 30.2747291991571  14.4666492765346 30.2787079861127  14.4666492765346 30.2828333667056  C 14.4666492765346 30.2920227661864  14.4746185419138 30.2994783177581  14.4844642996652 30.2995  L 18.6212500139509 30.2995  L 17.4700000139509 36.607  C 17.4698126780949 36.6079729244365  17.4697184530332 36.6089594752697  17.4697184530332 36.6099479859486  C 17.4697184530332 36.6191527389703  17.4777133744609 36.6266146656361  17.4875756098413 36.6266146656361  C 17.492851339029 36.6266146656361  17.4978570531751 36.6244373145854  17.5012499860491 36.6206666796875  L 25.3319642857143 28.0516666796875  C 25.334730871553 28.0486478052306  25.3362511585552 28.0448059007173  25.3362511585552 28.0408333593399  C 25.3362511585552 28.0316286063182  25.3282562371276 28.0241666796524  25.3183940017472 28.0241666796524  L 21.697857156808 28.0241666796875  L 22.8382142857143 21.7226666796875  C 22.8383687644796 21.7217811634146  22.8384463821735 21.7208854509259  22.8384463821735 21.7199882736892  C 22.8384463821735 21.7107835206674  22.8304514607459 21.7033215940017  22.8205892253655 21.7033215940017  C 22.8155297413199 21.7033215940017  22.8107077383951 21.7053247591654  22.8073214425223 21.7088333203125  L 14.4714285714286 30.2715  Z M 7.49999998604911 10  C 7.49999998604911 9.0795  8.29946428571429 8.3333333203125  9.28571428571429 9  L 30.7142857142857 9  C 31.7005357142857 8.3333333203125  32.5000000139509 9.0795  32.5000000139509 10  C 32.5000000139509 10.9205  31.7005357142857 11.6666666796875  30.7142857142857 12  L 9.28571428571429 12  C 8.29946428571429 11.6666666796875  7.49999998604911 10.9205  7.49999998604911 10  Z " fill-rule="nonzero" fill="#174a8e" stroke="none" transform="matrix(1 0 0 1 346 300 )" />
  </g>
</svg>