<?xml version="1.0" encoding="utf-8"?>
<svg version="1.1" xmlns:xlink="http://www.w3.org/1999/xlink" width="45px" height="20px" xmlns="http://www.w3.org/2000/svg">
  <defs>
    <linearGradient gradientUnits="userSpaceOnUse" x1="53.8333333333333" y1="10.5000000000001" x2="0" y2="10.5000000000001" id="LinearGradient3596">
      <stop id="Stop3597" stop-color="#174a8e" offset="0" />
      <stop id="Stop3598" stop-color="#79b6c2" offset="0.54" />
      <stop id="Stop3599" stop-color="#79b6c2" offset="1" />
    </linearGradient>
  </defs>
  <g transform="matrix(1 0 0 1 13 -13 )">
    <path d="M 44.7395833333333 9.33680104031209  C 44.9131944444445 9.51018638925011  45 9.70957954052882  45 9.93498049414825  C 45 10.1777199826615  44.9131944444445 10.3857824013871  44.7395833333333 10.5591677503251  L 34.7395833333333 19.7659297789337  C 34.4618055555556 20.0086692674469  34.1579861111111 20.0606848721283  33.828125 19.9219765929779  C 33.4982638888889 19.7659297789337  33.3333333333333 19.5145210229736  33.3333333333333 19.1677503250975  L 33.3333333333333 13  L 0.833333333333333 13  C 0.590277777777778 13.3420026007802  0.390625 13.2639791937581  0.234375 13.1079323797139  C 0.078125 12.9518855656697  0 12.752492414391  0 12.5097529258778  L 0 7.51625487646294  C 0 7.27351538794972  0.078125 7.074122236671  0.234375 6.91807542262679  C 0.390625 6.76202860858258  0.590277777777778 6.68400520156047  0.833333333333333 7  L 33.3333333333333 7  L 33.3333333333333 0.858257477243174  C 33.3333333333333 0.494148244473342  33.4982638888889 0.242739488513219  33.828125 0.104031209362809  C 34.1579861111111 -0.0346770697876053  34.4618055555556 0.00866926744689911  34.7395833333333 0.23407022106632  L 44.7395833333333 9.33680104031209  Z " fill-rule="nonzero" fill="url(#LinearGradient3596)" stroke="none" transform="matrix(1 0 0 1 -13 13 )" />
  </g>
</svg>