<?xml version="1.0" encoding="utf-8"?>
<svg version="1.1" xmlns:xlink="http://www.w3.org/1999/xlink" width="17px" height="18px" xmlns="http://www.w3.org/2000/svg">
  <g transform="matrix(1 0 0 1 -476 -186 )">
    <path d="M 14.044921875 11.4763140817651  C 14.3621961805556 10.6859182349124  14.5208333333333 9.85853341985723  14.5208333333333 8.99415963659961  C 14.5208333333333 7.74042829331603  14.1998697916667 6.59182349123945  13.5579427083333 5.54834523036989  L 5.212890625 14.3439325113563  C 6.22374131944444 15.0369889682025  7.31944444444444 15.3835171966256  8.5 15.3835171966256  C 9.31901041666667 15.3835171966256  10.0992838541667 15.2141466580143  10.8408203125 14.8754055807917  C 11.5823567708333 14.5366645035691  12.2224392361111 14.0830629461389  12.7610677083333 13.514600908501  C 13.2996961805556 12.9461388708631  13.7276475694444 12.2667099286178  14.044921875 11.4763140817651  Z M 2.47916666666667 8.99415963659961  C 2.47916666666667 10.2556781310837  2.80750868055556 11.4198572355613  3.46419270833333 12.4866969500324  L 11.8203125 3.6794289422453  C 10.82421875 2.97079818299805  9.71744791666667 2.61648280337443  8.5 2.61648280337443  C 7.40798611111111 2.61648280337443  6.40082465277778 2.90071382219338  5.478515625 3.46917585983128  C 4.55620659722222 4.03763789746917  3.82573784722222 4.81245944192083  3.287109375 5.79364049318624  C 2.74848090277778 6.77482154445166  2.47916666666667 7.84166125892278  2.47916666666667 8.99415963659961  Z M 16.3248697916667 5.49578195976639  C 16.7749565972222 6.60545100584036  17 7.7715768981181  17 8.99415963659961  C 17 10.2167423750811  16.7749565972222 11.384815055159  16.3248697916667 12.4983776768332  C 15.8747829861111 13.6119402985075  15.2715928819444 14.5697598961713  14.5152994791667 15.3718364698248  C 13.7590060763889 16.1739130434783  12.8551432291667 16.8124594419208  11.8037109375 17.2874756651525  C 10.7522786458333 17.7624918883842  9.65104166666667 18  8.5 18  C 7.34895833333333 18  6.24772135416667 17.7624918883842  5.1962890625 17.2874756651525  C 4.14485677083333 16.8124594419208  3.24099392361111 16.1739130434783  2.48470052083333 15.3718364698248  C 1.72840711805556 14.5697598961713  1.12521701388889 13.6119402985075  0.675130208333333 12.4983776768332  C 0.225043402777778 11.384815055159  0 10.2167423750811  0 8.99415963659961  C 0 7.7715768981181  0.225043402777778 6.60545100584036  0.675130208333333 5.49578195976639  C 1.12521701388889 4.38611291369241  1.72840711805556 3.43024010382868  2.48470052083333 2.62816353017521  C 3.24099392361111 1.82608695652174  4.14485677083333 1.18754055807917  5.1962890625 0.712524334847503  C 6.24772135416667 0.237508111615832  7.34895833333333 0  8.5 0  C 9.65104166666667 0  10.7522786458333 0.237508111615832  11.8037109375 0.712524334847503  C 12.8551432291667 1.18754055807917  13.7590060763889 1.82608695652174  14.5152994791667 2.62816353017521  C 15.2715928819444 3.43024010382868  15.8747829861111 4.38611291369241  16.3248697916667 5.49578195976639  Z " fill-rule="nonzero" fill="#ffffff" stroke="none" transform="matrix(1 0 0 1 476 186 )" />
  </g>
</svg>