<?xml version="1.0" encoding="utf-8"?>
<svg version="1.1" xmlns:xlink="http://www.w3.org/1999/xlink" width="80px" height="80px" xmlns="http://www.w3.org/2000/svg">
  <g transform="matrix(1 0 0 1 -326 -280 )">
    <path d="M 366 281  C 387.84 281  405 298.16  405 320  C 405 341.84  387.84 359  366 359  C 344.16 359  327 341.84  327 320  C 327 298.16  344.16 281  366 281  Z " fill-rule="nonzero" fill="#70b603" stroke="none" fill-opacity="0.0980392156862745" />
    <path d="M 366 281  C 387.84 281  405 298.16  405 320  C 405 341.84  387.84 359  366 359  C 344.16 359  327 341.84  327 320  C 327 298.16  344.16 281  366 281  Z " stroke-width="2" stroke="#00c69c" fill="none" />
  </g>
</svg>