<?xml version="1.0" encoding="utf-8"?>
<svg version="1.1" xmlns:xlink="http://www.w3.org/1999/xlink" width="10px" height="2px" xmlns="http://www.w3.org/2000/svg">
  <g transform="matrix(1 0 0 1 -70 -79 )">
    <path d="M 9.80113636363636 0.145833333333333  C 9.93371212121212 0.243055555555555  10 0.361111111111111  10 0.5  L 10 1.5  C 10 1.63888888888889  9.93371212121212 1.75694444444444  9.80113636363636 1.85416666666667  C 9.66856060606061 1.95138888888889  9.50757575757576 2  9.31818181818182 2  L 0.681818181818182 2  C 0.492424242424242 2  0.331439393939394 1.95138888888889  0.198863636363636 1.85416666666667  C 0.0662878787878788 1.75694444444444  0 1.63888888888889  0 1.5  L 0 0.5  C 0 0.361111111111111  0.0662878787878788 0.243055555555555  0.198863636363636 0.145833333333333  C 0.331439393939394 0.0486111111111107  0.492424242424242 0  0.681818181818182 0  L 9.31818181818182 0  C 9.50757575757576 0  9.66856060606061 0.0486111111111107  9.80113636363636 0.145833333333333  Z " fill-rule="nonzero" fill="#555555" stroke="none" transform="matrix(1 0 0 1 70 79 )" />
  </g>
</svg>