<?xml version="1.0" encoding="utf-8"?>
<svg version="1.1" xmlns:xlink="http://www.w3.org/1999/xlink" width="30px" height="40px" xmlns="http://www.w3.org/2000/svg">
  <g transform="matrix(1 0 0 1 -609 -142 )">
    <path d="M 20.5965741131757 34.6116015625  C 20.2134184966216 34.5428125  19.959327491554 34.183515625  20.0284522804054 33.8083203125  C 20.1047033361487 33.4371875  20.4672719594594 33.1916015625  20.8492398648649 33.2521484375  C 23.2485747466216 33.6847265625  26.1025258657095 34.5499609375  26.1025258657095 36.280078125  C 26.1531223606419 38.7021875  20.3819942989865 39.802265625  15.0150047508446 39.802265625  C 9.64793602195947 39.802265625  3.86429740287163 38.7022265625  3.86429740287163 36.2924609375  C 3.86429740287163 34.5991796875  6.62984322212837 33.7216796875  8.91563291807433 33.2893359375  C 9.29605679898648 33.2241796875  9.65961518158785 33.46984375  9.73210515202703 33.84125  C 9.8043971706081 34.2125390625  9.55901604729729 34.5719921875  9.1807300464527 34.648671875  C 6.2257442989865 35.1925  5.24077544341216 35.9958984375  5.24077544341216 36.2800390625  C 5.24077544341216 36.910234375  8.54930320945947 38.405546875  14.9644082559122 38.405546875  C 21.3795924831081 38.405546875  24.688159839527 36.9225  24.688159839527 36.2800390625  C 24.688159839527 35.983359375  23.6528716216216 35.167734375  20.5965741131757 34.6116015625  Z M 4.39797561233109 25.007578125  L 14.999683277027 35.2890234375  L 25.5695206925675 24.976171875  C 28.2283308699324 22.343203125  29.8615128800675 18.738359375  29.8615128800675 14.7263671875  C 29.8935019003378 6.70171875000001  23.2312341638514 0.181953124999995  14.999683277027 0.181953124999995  C 6.76797402871622 0.181953124999995  0.105627111486482 6.70171875000001  0.105627111486482 14.7577734375  C 0.105627111486482 18.738359375  1.73928420608109 22.3746484375  4.39797561233109 25.007578125  Z " fill-rule="nonzero" fill="#174a8e" stroke="none" transform="matrix(1 0 0 1 609 142 )" />
  </g>
</svg>