<?xml version="1.0" encoding="utf-8"?>
<svg version="1.1" xmlns:xlink="http://www.w3.org/1999/xlink" width="20px" height="16px" xmlns="http://www.w3.org/2000/svg">
  <g transform="matrix(1 0 0 1 -1372 -150 )">
    <path d="M 7.696706374269 10.9169014035088  L 6.4932943079922 12.3091962573099  C 5.35590842105263 13.3269371150097  4.60167389863548 13.2653592007797  3.83311709551657 12.4942291617934  L 2.95287428849903 11.5495360233918  C 2.18429752436647 10.7787450877193  2.18429752436647 9.52873567251462  2.95287428849903 8.75760563352827  L 6.7201371539961 4.97887296296296  C 7.48869397660819 4.20774292397661  8.73487346978557 4.20774292397661  9.50345021442495 4.97887296296296  L 10.1989593177388 5.67661619883041  C 10.7926763937622 6.27224822612086  10.927980214425 7.15346846003899  10.604451871345 7.8792977582846  L 12.2864441130604 9.16662892787524  C 13.4394488888889 8.0100934502924  13.4394488888889 6.13508929824562  12.2864441130604 4.97889292397661  L 10.198959337232 2.88500497076023  C 9.04625378167641 1.72846949317739  7.17731366471735 1.72846949317739  6.02428894736842 2.88500497076023  L 0.86538947368421 8.05988235867446  C -0.287316081871345 9.21609867446394  -0.287316081871345 11.0911028265107  0.86538947368421 12.2476183625731  L 2.95287426900585 14.3414863547758  C 4.1055798245614 15.4977026705653  5.97483910331384 15.4977026705653  7.12786382066277 14.3414863547758  L 9.11932140350877 12.2820876218324  L 7.696706374269 10.9169014035088  Z M 19.2444475438596 7.77050415204678  C 20.889417251462 5.87377717348928  19.2444475438596 3.5827481871345  19.2444475438596 3.5827481871345  L 17.1572619493177 1.48888019493177  C 16.0042571734893 0.332344717348929  14.1352971150097 0.332344717348929  12.9822723976608 1.48888019493177  C 12.9822723976608 1.48888019493177  13.0645956920078 1.46813481481482  11.8518880701754 2.68465237816764  L 13.2381188888889 4.01345436647174  L 13.8541970955166 3.33358409356725  C 14.6227738596491 2.56279315789474  15.8689533528265 2.56279315789474  16.6375101559454 3.33358409356725  L 17.3333384210526 4.0316464717349  C 18.1019151851852 4.80243740740741  18.1019151851852 6.05244682261209  17.3333384210526 6.82357686159844  L 13.9349445419103 10.3556987329435  C 13.1663677777778 11.126489668616  11.9205074463938 11.126489668616  11.1519306822612 10.3556987329435  L 10.5789191033138 9.41100559454191  C 9.37261463937622 8.50937908382066  9.74333873294347 8.29370682261209  9.8457491423002 7.68498923976608  L 8.31563707602339 6.17017692007797  C 7.16261235867446 7.32671239766082  7.16261235867446 9.2017165497076  8.31563707602339 10.3579129239766  L 10.4028226705653 12.4521200389864  C 11.5558274463938 13.6083164132554  13.4247875048733 13.6083164132554  14.5778122222222 12.4521200389864  L 19.2444475438596 7.77050415204678  Z " fill-rule="nonzero" fill="#ffffff" stroke="none" transform="matrix(1 0 0 1 1372 150 )" />
  </g>
</svg>