<?xml version="1.0" encoding="utf-8"?>
<svg version="1.1" xmlns:xlink="http://www.w3.org/1999/xlink" width="18px" height="16px" xmlns="http://www.w3.org/2000/svg">
  <g transform="matrix(1 0 0 1 -615 -149 )">
    <path d="M 18 9.22664835164841  C 18 4.12912087912096  13.9700892857143 0  9 0  C 4.02991071428573 0  0 4.12912087912096  0 9.22664835164841  C 0 11.5755494505495  0.855803571428601 13.7184065934066  2.2620535714286 15.3461538461538  C 2.30625 15.3956043956044  2.3464285714286 15.445054945055  2.390625 15.4903846153846  C 2.58348214285713 15.7005494505495  2.8526785714286 15.8241758241759  3.1339285714286 15.8241758241759  C 3.4191964285714 15.8241758241759  3.68839285714287 15.7005494505495  3.88125 15.4862637362638  C 5.15089285714287 14.0686813186813  6.975 13.1826923076923  9 13.1826923076923  C 11.025 13.1826923076923  12.8491071428571 14.0728021978023  14.11875 15.4862637362638  C 14.3116071428571 15.7005494505495  14.5808035714286 15.8241758241759  14.8660714285714 15.8241758241759  C 15.1473214285714 15.8241758241759  15.4165178571429 15.7046703296704  15.609375 15.4903846153846  C 15.6535714285714 15.4409340659341  15.69375 15.3956043956044  15.7379464285714 15.3461538461538  C 17.1441964285714 13.7184065934066  18 11.5755494505495  18 9.22664835164841  Z M 8.4375 3.375  L 8.4375 1.89148351648356  C 8.4375 1.57417582417586  8.690625 1.31456043956048  9 1.31456043956048  C 9.309375 1.31456043956048  9.5625 1.57417582417586  9.5625 1.89148351648356  L 9.5625 3.375  C 9.5625 3.69230769230769  9.309375 3.95192307692308  9 3.95192307692308  C 8.690625 3.95192307692308  8.4375 3.69230769230769  8.4375 3.375  Z M 3.85714285714287 9.22664835164841  C 3.85714285714287 9.5439560439561  3.60401785714287 9.80357142857149  3.29464285714287 9.80357142857149  L 1.84821428571427 9.80357142857149  C 1.53883928571427 9.80357142857149  1.28571428571427 9.5439560439561  1.28571428571427 9.22664835164841  C 1.28571428571427 8.90934065934072  1.53883928571427 8.64972527472533  1.84821428571427 8.64972527472533  L 3.29464285714287 8.64972527472533  C 3.60401785714287 8.64972527472533  3.85714285714287 8.90934065934072  3.85714285714287 9.22664835164841  Z M 5.36383928571427 4.68543956043952  C 5.5808035714286 4.90796703296711  5.5808035714286 5.27472527472534  5.36383928571427 5.49725274725279  C 5.146875 5.71978021978024  4.78526785714287 5.71978021978024  4.5683035714286 5.49725274725279  L 3.54375 4.45054945054947  C 3.32678571428573 4.22802197802202  3.32678571428573 3.85714285714284  3.54375 3.63461538461538  C 3.76071428571427 3.41208791208793  4.1223214285714 3.41208791208793  4.33928571428573 3.63461538461538  L 5.36383928571427 4.68543956043952  Z M 11.7241071428571 6.34203296703303  C 11.9049107142857 6.47390109890106  11.9450892857143 6.73351648351644  11.8165178571429 6.9189560439561  L 9.90803571428573 10.0302197802198  C 9.8316964285714 10.1373626373626  9.73526785714287 10.2403846153846  9.62678571428573 10.3186813186813  C 9.084375 10.7184065934066  8.32901785714287 10.5865384615385  7.93928571428573 10.0302197802198  C 7.5495535714286 9.47390109890106  7.678125 8.69917582417586  8.22053571428573 8.29945054945053  L 11.2540178571429 6.34203296703303  C 11.390625 6.24313186813183  11.5794642857143 6.23901098901101  11.7241071428571 6.34203296703303  Z M 14.45625 4.44642857142865  L 13.4316964285714 5.49725274725279  C 13.2147321428571 5.71978021978024  12.853125 5.71978021978024  12.6361607142857 5.49725274725279  C 12.4191964285714 5.27472527472534  12.4191964285714 4.90384615384615  12.6361607142857 4.6813186813187  L 13.6607142857143 3.63049450549457  C 13.8776785714286 3.40796703296697  14.2392857142857 3.40796703296697  14.45625 3.63049450549457  C 14.6732142857143 3.85302197802202  14.6732142857143 4.22390109890106  14.45625 4.44642857142865  Z M 16.7142857142857 9.22664835164841  C 16.7142857142857 9.5439560439561  16.4611607142857 9.80357142857149  16.1517857142857 9.80357142857149  L 14.7053571428571 9.80357142857149  C 14.3959821428571 9.80357142857149  14.1428571428571 9.5439560439561  14.1428571428571 9.22664835164841  C 14.1428571428571 8.90934065934072  14.3959821428571 8.64972527472533  14.7053571428571 8.64972527472533  L 16.1517857142857 8.64972527472533  C 16.4611607142857 8.64972527472533  16.7142857142857 8.90934065934072  16.7142857142857 9.22664835164841  Z " fill-rule="nonzero" fill="#174a8e" stroke="none" transform="matrix(1 0 0 1 615 149 )" />
  </g>
</svg>