<?xml version="1.0" encoding="utf-8"?>
<svg version="1.1" xmlns:xlink="http://www.w3.org/1999/xlink" width="16px" height="16px" xmlns="http://www.w3.org/2000/svg">
  <g transform="matrix(1 0 0 1 -1504 -150 )">
    <path d="M 16 8  C 16 3.58076923076927  12.4192307692307 0  8 0  C 3.58076923076927 0  0 3.58076923076927  0 8  C 0 12.4192307692307  3.58076923076927 16  8 16  C 12.4192307692307 16  16 12.4192307692307  16 8  Z M 12.0961538461539 8  C 12.0961538461539 8.33846153846146  11.8192307692307 8.61538461538463  11.4807692307693 8.61538461538463  L 4.51923076923073 8.61538461538463  C 4.1923076923078 8.61538461538463  3.9038461538461 8.38461538461537  3.9038461538461 8  C 3.9038461538461 7.61538461538463  4.18076923076927 7.38461538461537  4.51923076923073 7.38461538461537  L 11.4807692307693 7.38461538461537  C 11.8192307692307 7.38461538461537  12.0961538461539 7.66153846153854  12.0961538461539 8  Z " fill-rule="nonzero" fill="#ffffff" stroke="none" transform="matrix(1 0 0 1 1504 150 )" />
  </g>
</svg>