<?xml version="1.0" encoding="utf-8"?>
<svg version="1.1" xmlns:xlink="http://www.w3.org/1999/xlink" width="14px" height="18px" xmlns="http://www.w3.org/2000/svg">
  <g transform="matrix(1 0 0 1 -171 -148 )">
    <path d="M 13.0056818181818 3  L 0.750710227272727 3  L 1.92400568181818 16.6265625  C 1.92400568181818 17.3859375  2.57528409090909 18  3.38068181818182 18  L 10.390625 18  C 11.1960227272727 18  11.8473011363636 17.3859375  11.8473011363636 16.6265625  L 13.0056818181818 3  Z M 4.74289772727273 15.421875  L 3.81321022727273 15.421875  L 3.48011363636364 4.5  L 4.39985795454545 4.5  L 4.74289772727273 15.421875  Z M 7.30823863636364 4.5  L 7.30823863636364 15.421875  L 6.41335227272727 15.421875  L 6.41335227272727 4.5  L 7.30823863636364 4.5  Z M 10.2414772727273 4.5  L 9.90838068181818 15.421875  L 8.98366477272727 15.421875  L 9.32173295454546 4.5  L 10.2414772727273 4.5  Z M 13.7215909090909 2.53125  C 13.7215909090909 1.70625  13.1051136363636 1.3125  12.2301136363636 1.3125  L 10.4403409090909 1.3125  L 9.1328125 0.234375  C 8.94886363636364 0.084375  8.71519886363636 0  8.4765625 0  L 5.25497159090909 0  C 5.01136363636364 0  4.77272727272727 0.084375  4.58877840909091 0.234375  L 3.28125 1.3125  L 1.49147727272727 1.3125  C 0.616477272727273 1.3125  0 1.70625  0 2.53125  L 13.7215909090909 2.53125  Z " fill-rule="nonzero" fill="#ffffff" stroke="none" transform="matrix(1 0 0 1 171 148 )" />
  </g>
</svg>