<?xml version="1.0" encoding="utf-8"?>
<svg version="1.1" xmlns:xlink="http://www.w3.org/1999/xlink" width="72px" height="72px" xmlns="http://www.w3.org/2000/svg">
  <defs>
    <mask fill="white" id="clip85">
      <path d="M 36 0  C 55.882251739502 0  72 16.117748260498  72 36  C 72 55.882251739502  55.882251739502 72  36 72  C 16.117748260498 72  0 55.882251739502  0 36  C 0 16.117748260498  16.117748260498 0  36 0  Z " fill-rule="evenodd" />
    </mask>
  </defs>
  <g>
    <path d="M 36 0  C 55.882251739502 0  72 16.117748260498  72 36  C 72 55.882251739502  55.882251739502 72  36 72  C 16.117748260498 72  0 55.882251739502  0 36  C 0 16.117748260498  16.117748260498 0  36 0  Z " fill-rule="nonzero" fill="#ffffff" stroke="none" fill-opacity="0" />
    <path d="M 36 0  C 55.882251739502 0  72 16.117748260498  72 36  C 72 55.882251739502  55.882251739502 72  36 72  C 16.117748260498 72  0 55.882251739502  0 36  C 0 16.117748260498  16.117748260498 0  36 0  Z " stroke-width="1.39805817604065" stroke="#125db5" fill="none" mask="url(#clip85)" />
  </g>
</svg>