<?xml version="1.0" encoding="utf-8"?>
<svg version="1.1" xmlns:xlink="http://www.w3.org/1999/xlink" width="36px" height="27px" xmlns="http://www.w3.org/2000/svg">
  <g transform="matrix(1 0 0 1 -817 -899 )">
    <path d="M 22.0112902337079 23.1304836290637  L 22.0112902340075 25.0568148611236  L 23.0043532515356 25.0568148611236  C 23.5362949257147 25.0568148611236  23.9675188546816 25.4880387900905  23.9675188546816 26.0199804642697  C 23.9675188546816 26.5519221384488  23.5362949257147 26.9831460674157  23.0043532515356 26.9831460674157  L 13.198002496779 26.9831460674157  C 12.6660608225999 26.9831460674157  12.234836893633 26.5519221384488  12.234836893633 26.0199804642697  C 12.234836893633 25.4880387900905  12.6660608225999 25.0568148611236  13.198002496779 25.0568148611236  L 14.1898930603745 25.0568148611236  L 14.1898930603745 23.1304836290637  L 22.0112902337079 23.1304836290637  Z M 23.5284372668165 7.12657547385768  L 23.5272648386517 7.12657547385768  L 23.7031319646442 13  L 12.444118771236 13  L 12.6199858972285 7.12657547385768  L 23.5284372668165 7.12657547385768  Z M 25.9272648389513 7.12657547385768  L 25.9260923844195 7.12657547385768  L 34.7511045857678 7.12657547385768  L 35.1626336677154 12.5374206109363  L 26.1031319646442 12.5374206109363  L 25.9272648389513 7.12657547385768  Z M 23.7805134783521 15  L 23.9868642331086 21  L 12.1592140224719 21  L 12.3655647775281 15  L 23.7805134783521 15  Z M 33.7134885659925 21.2029799682397  L 26.3856918049438 21.2029799682397  L 26.1805134783521 14.9057645279401  L 35.3431905848689 14.9057645279401  L 35.6620962993258 19.1007816362547  C 35.6658223084458 19.1499363065088  35.6676873136644 19.1992143474481  35.6676873136644 19.2485100343969  C 35.6676873136644 20.327828072639  34.7928065938436 21.2028302005574  33.7134885659925 21.2029799682397  Z M 12.8509580359551 0  L 23.2951202199251 0  L 23.4498832988764 5  L 12.6961949827715 5  L 12.8509580359551 0  Z M 25.8487108449438 4.75588667505618  L 25.6939477917603 0.0168539325842696  L 32.3991749510112 0.0168539325842696  C 33.420376715206 0.0168539325842696  34.2692286906367 0.803566195355805  34.3466102037453 1.82242305138577  L 34.5693752407491 4.75588667505618  L 25.8487108449438 4.75588667505618  Z M 1.41607771625468 7.1265754741573  L 10.2199858972285 7.1265754741573  L 10.0429463170037 12.5374206109363  L 1.00454866067416 12.5374206109363  L 1.41607771625468 7.1265754741573  Z M 9.76038647670412 21.2041524227715  L 9.75921402247191 21.2029799685393  L 2.453693762397 21.2029799685393  C 1.37437573453707 21.2028302008696  0.49949501470245 20.3278280729475  0.49949501470245 19.2485100346965  C 0.49949501470245 19.1992143476475  0.501360019928593 19.1499363066082  0.505086029063671 19.1007816362547  L 0.823991743820225 14.9069369818727  L 9.96556477752809 14.9069369818727  L 9.76038647670412 21.2041524227715  Z M 3.76800737737828 0.0168539325842696  L 10.4509580359551 0.0168539325842696  L 10.2961949827715 4.75588667505618  L 1.59663463340824 4.75588667505618  L 1.81939967041199 1.82242305138577  C 1.89795363775281 0.803566195655431  2.74563318501873 0.0168539325842696  3.76800737737828 0.0168539325842696  Z " fill-rule="nonzero" fill="#33ccff" stroke="none" transform="matrix(1 0 0 1 817 899 )" />
  </g>
</svg>