<?xml version="1.0" encoding="utf-8"?>
<svg version="1.1" xmlns:xlink="http://www.w3.org/1999/xlink" width="43px" height="44px" xmlns="http://www.w3.org/2000/svg">
  <defs>
    <filter x="16px" y="18px" width="43px" height="44px" filterUnits="userSpaceOnUse" id="filter86">
      <feOffset dx="1" dy="4" in="SourceAlpha" result="shadowOffsetInner" />
      <feGaussianBlur stdDeviation="4" in="shadowOffsetInner" result="shadowGaussian" />
      <feComposite in2="shadowGaussian" operator="atop" in="SourceAlpha" result="shadowComposite" />
      <feColorMatrix type="matrix" values="0 0 0 0 0.364705882352941  0 0 0 0 0.674509803921569  0 0 0 0 0.894117647058823  0 0 0 0.67843137254902 0  " in="shadowComposite" />
    </filter>
    <g id="widget87">
      <path d="M 15.2378844101538 27.9984402307681  C 15.2378844101538 27.9984402307681  15.2451077502787 27.9975549563392  15.2591943226631 27.9941729014322  C 15.3089248337416 27.9962634520858  15.3588171045031 27.9982064570012  15.408873060658 28  C 15.408873060658 28  15.408873060658 27.9968919586067  15.408873060658 27.9968919586067  C 15.408975123315 27.9984210689839  15.4217079212105 27.9814207340633  15.4454683003444 27.946956349045  C 16.670999134928 27.6241013636484  22.9976013492526 25.7559538743006  25.6501539605553 20.9832918822881  C 28.5743338164965 15.7217361288187  25.836768788997 6.8504355678848  25.836768788997 6.8504355678848  C 25.836768788997 6.8504355678848  20.5851944671627 9.24948807240527  16.7878801343632 12.6649822089677  C 16.5658322325283 12.3511006871005  16.3194144641828 12.0423142836456  16.046805107184 11.7398311490952  C 14.5563802747618 10.2950920237842  12.9124493547051 9.0159490373188  11.1440183615784 7.92496854387823  C 8.01291898557279 5.79998895460012  2.54715943791791 0  2.54715943791791 0  C 2.54715943791791 0  2.53935140393925 0  2.53935140393925 0  C 2.10599480635875 0.00388477853648178  -1.73565353470583 10.7507621257481  0.940226170865869 19.1597760206422  C 1.06140884651082 19.4998823603322  3.9979887736783 27.5092015571961  15.2341995630919 27.9931094224104  C 15.2366384754535 27.9966524363045  15.2378844101538 27.9984402307681  15.2378844101538 27.9984402307681  Z " fill-rule="nonzero" fill="#0aa7ff" stroke="none" transform="matrix(1 0 0 1 23 22 )" />
    </g>
  </defs>
  <g transform="matrix(1 0 0 1 -16 -18 )">
    <use xlink:href="#widget87" filter="url(#filter86)" />
    <use xlink:href="#widget87" />
  </g>
</svg>