<?xml version="1.0" encoding="utf-8"?>
<svg version="1.1" xmlns:xlink="http://www.w3.org/1999/xlink" width="24px" height="13px" xmlns="http://www.w3.org/2000/svg">
  <g transform="matrix(1 0 0 1 -593 -435 )">
    <path d="M 24 9  L 24 10.8775510204082  C 24 12.0661224489796  23.0613333333333 13  21.8666666666667 13  L 2.13333333333333 13  C 0.938666666666669 13  0 12.0661224489796  0 10.8775510204082  L 0 9  L 24 9  Z M 24 1.3265306122449  L 24 8  L 0 8  L 0 1.3265306122449  C 0 0.583673469387752  0.586666666666664 0  1.33333333333333 0  L 22.6666666666667 0  C 23.4133333333333 0  24 0.583673469387752  24 1.3265306122449  Z M 19.7333333333333 10.3469387755102  L 5.06666666666667 10.3469387755102  L 5.06666666666667 11  L 19.7333333333333 11  L 19.7333333333333 10.3469387755102  Z " fill-rule="nonzero" fill="#ffffff" stroke="none" transform="matrix(1 0 0 1 593 435 )" />
  </g>
</svg>