<?xml version="1.0" encoding="utf-8"?>
<svg version="1.1" xmlns:xlink="http://www.w3.org/1999/xlink" width="116px" height="36px" xmlns="http://www.w3.org/2000/svg">
  <defs>
    <linearGradient gradientUnits="userSpaceOnUse" x1="58" y1="0" x2="58" y2="36" id="LinearGradient7366">
      <stop id="Stop7367" stop-color="#02a7f0" stop-opacity="0.6" offset="0" />
      <stop id="Stop7368" stop-color="#02a7f0" stop-opacity="0.329411764705882" offset="0.99" />
    </linearGradient>
    <mask fill="white" id="clip7369">
      <path d="M 101.032258064516 0  L 77.3333333333333 0  L 38.6576254331055 0  L 14.9677419354839 0  L 11.2258064516129 0.87096774193551  L 0 18  L 11.2258064516129 35.1290322580645  L 14.9677419354839 36  L 38.6666666666667 36  L 77.333333317194 36  L 101.032258064516 36  L 104.774193548387 35.1290322580645  L 116 18  L 104.774193548387 0.87096774193551  L 101.032258064516 0  Z " fill-rule="evenodd" />
    </mask>
  </defs>
  <g transform="matrix(1 0 0 1 -871 -934 )">
    <path d="M 101.032258064516 0  L 77.3333333333333 0  L 38.6576254331055 0  L 14.9677419354839 0  L 11.2258064516129 0.87096774193551  L 0 18  L 11.2258064516129 35.1290322580645  L 14.9677419354839 36  L 38.6666666666667 36  L 77.333333317194 36  L 101.032258064516 36  L 104.774193548387 35.1290322580645  L 116 18  L 104.774193548387 0.87096774193551  L 101.032258064516 0  Z " fill-rule="nonzero" fill="url(#LinearGradient7366)" stroke="none" transform="matrix(1 0 0 1 871 934 )" />
    <path d="M 101.032258064516 0  L 77.3333333333333 0  L 38.6576254331055 0  L 14.9677419354839 0  L 11.2258064516129 0.87096774193551  L 0 18  L 11.2258064516129 35.1290322580645  L 14.9677419354839 36  L 38.6666666666667 36  L 77.333333317194 36  L 101.032258064516 36  L 104.774193548387 35.1290322580645  L 116 18  L 104.774193548387 0.87096774193551  L 101.032258064516 0  Z " stroke-width="2" stroke="#02a7f0" fill="none" stroke-opacity="0.298039215686275" transform="matrix(1 0 0 1 871 934 )" mask="url(#clip7369)" />
  </g>
</svg>