<?xml version="1.0" encoding="utf-8"?>
<svg version="1.1" xmlns:xlink="http://www.w3.org/1999/xlink" width="12px" height="20px" xmlns="http://www.w3.org/2000/svg">
  <g transform="matrix(1 0 0 1 -1649 -188 )">
    <path d="M 11.8597402597403 4.56018518518519  C 11.9948051948052 4.68364197530864  12.0207792207792 4.81867283950617  11.9376623376623 4.96527777777778  C 11.8441558441558 5.11188271604938  11.6935064935065 5.18518518518519  11.4857142857143 5.18518518518519  L 8 5.18518518518519  L 8 19.6296296296296  C 7.9948051948052 19.7376543209877  7.94805194805195 19.8263888888889  7.85454545454545 19.8958333333333  C 7.76103896103896 19.9652777777778  7.64155844155844 20  7.4961038961039 20  L 4.5038961038961 20  C 4.35844155844156 20  4.23896103896104 19.9652777777778  4.14545454545455 19.8958333333333  C 4.05194805194805 19.8263888888889  4.00519480519481 19.7376543209877  4 19.6296296296296  L 4 5.18518518518519  L 0.514285714285714 5.18518518518519  C 0.296103896103896 5.18518518518519  0.145454545454545 5.11188271604938  0.0623376623376623 4.96527777777778  C -0.0207792207792208 4.81867283950617  0.00519480519480518 4.68364197530864  0.14025974025974 4.56018518518519  L 5.5948051948052 0.115740740740742  C 5.6987012987013 0.0385802469135799  5.81818181818182 0  5.95324675324675 0  C 6.0987012987013 0  6.22337662337662 0.0385802469135799  6.32727272727273 0.115740740740742  L 11.8597402597403 4.56018518518519  Z " fill-rule="nonzero" fill="#d9001b" stroke="none" transform="matrix(1 0 0 1 1649 188 )" />
  </g>
</svg>