<?xml version="1.0" encoding="utf-8"?>
<svg version="1.1" xmlns:xlink="http://www.w3.org/1999/xlink" width="16px" height="14px" xmlns="http://www.w3.org/2000/svg">
  <g transform="matrix(1 0 0 1 -185 -101 )">
    <path d="M 14.10909090625 12.6565656510417  L 14.1090905398711 5.76028721499734  C 14.6700815706537 5.17999124242665  15.2979088571067 4.57761536933767  16 3.95959595269097  L 15.7818181875 3.39393939670139  C 15.7818181875 3.39393939670139  14.8648690485744 3.79915681881066  13.3818181875 4.87878787326389  L 4.654545453125 4.87878787326389  C 4.21818182812499 4.87878787326389  3.92727273437499 5.16161615885416  3.92727273437499 5.58585858723958  L 3.92727273437499 12.6565656510417  C 3.92727271875001 13.0808080794271  4.21818181250001 13.3636363650174  4.654545453125 13.2222222222222  L 13.3818181875 13.2222222222222  C 13.8181818125 13.3636363650174  14.10909090625 13.0808080794271  14.10909090625 12.6565656510417  Z M 12.2181818125 3.46464646050347  C 12.50909090625 3.46464646050347  12.8 3.25252525390625  12.8 2.89898990451389  C 12.8 2.61616161892361  12.5818181875 2.33333333333333  12.2181818125 2.33333333333333  L 2.4 2.33333333333333  C 2.10909090625 2.33333333333333  1.81818181250001 2.61616160373264  1.81818181250001 2.96969696831597  L 1.81818181250001 10.5353535394965  C 1.81818181250001 10.8181818250868  2.03636362500001 11.1010101106771  2.4 11.1010100954861  C 2.69090909375 11.1010100954861  2.90909090625 10.8888888888889  2.90909090625 10.5353535394965  L 2.90909090625 3.46464646050347  L 12.2181818125 3.46464646050347  Z M 10.472727265625 1.69696969835069  C 10.763636359375 1.69696969835069  11.054545453125 1.48484849175347  11.054545453125 1.13131312717014  C 11.054545453125 0.848484841579863  10.836363640625 0.565656555989583  10.472727265625 0.777777777777778  L 0.581818187499994 0.777777777777778  L 0.581818187499994 0.63636363498264  C 0.218181828124989 0.63636363498264  0 0.848484841579863  0 1.13131312717014  L 0 9.54545453993055  C 0 9.82828282552084  0.218181812500006 10.1111111111111  0.581818187499994 10.1111111111111  C 0.87272728124999 10.1111111111111  1.16363637499999 9.89898990451388  1.163636359375 9.54545453993055  L 1.163636359375 1.69696969835069  L 10.472727265625 1.69696969835069  Z M 5.38181818749999 11.9494949522569  L 5.38180951182758 8.17345255255915  C 6.00464818411447 8.704065836615  7.83174099171456 10.3069896276739  9.16351191020203 11.9494949522569  L 5.38181818749999 11.9494949522569  Z M 12.654545453125 11.9494949522569  L 9.80026955383678 11.9495000370674  C 10.1298338154083 11.1294895915611  10.93013537717 9.47719024908804  12.654545453125 7.38547146570377  L 12.654545453125 11.9494949522569  Z M 5.38181818749999 6.2929292860243  L 11.7661804415719 6.29294692745103  C 10.8778539527321 7.11310730753383  9.89461180745839 8.13781636638006  8.87272726562501 9.40404039713541  C 8.87272726562501 9.33333333333333  7.92727271875001 8.41414141276042  6.254545453125 7.14141414279514  L 5.38181818749999 7.82022430795519  L 5.38181818749999 6.2929292860243  Z " fill-rule="nonzero" fill="#ffffff" stroke="none" transform="matrix(1 0 0 1 185 101 )" />
  </g>
</svg>