<?xml version="1.0" encoding="utf-8"?>
<svg version="1.1" xmlns:xlink="http://www.w3.org/1999/xlink" width="20px" height="20px" xmlns="http://www.w3.org/2000/svg">
  <g transform="matrix(1 0 0 1 -848 -168 )">
    <path d="M 17.45640625 13.3812890625  C 15.988046875 14.849501953125  14.035966796875 15.658037109375  11.959755859375 15.658037109375  C 9.883193359375 15.658037109375  7.93087890625 14.84947265625  6.462431640625 13.3812890625  C 4.99392578125 11.913076171875  4.18521484375 9.96099609375  4.18521484375 7.884638671875  C 4.18521484375 5.807958984375  4.993955078125 3.855615234375  6.462431640625 2.38728515625  C 7.930849609375 0.919042968749999  9.883134765625 0.110449218749997  11.959755859375 0.110449218749997  C 14.036025390625 0.110449218749997  15.98810546875 0.919072265624997  17.45640625 2.387314453125  C 18.92482421875 3.855673828125  19.73353515625 5.80798828125  19.73353515625 7.884638671875  C 19.73353515625 9.9609375  18.92482421875 11.913017578125  17.45640625 13.3812890625  Z M 18.39279296875 7.884638671875  C 18.39279296875 4.3372265625  15.50693359375 1.45119140625  11.959755859375 1.45119140625  C 8.412138671875 1.45119140625  5.52595703125 4.3372265625  5.52595703125 7.884638671875  C 5.52595703125 11.431611328125  8.41216796875 14.317294921875  11.959755859375 14.317294921875  C 15.50693359375 14.317294921875  18.39279296875 11.431611328125  18.39279296875 7.884638671875  Z M 7.614033203125 16.192587890625  C 7.389326171875 16.85361328125  6.77951171875 17.33994140625  6.04421875 17.33994140625  C 5.308955078125 17.33994140625  4.699140625 16.853583984375  4.473642578125 16.192587890625  L 2.7410546875 16.192587890625  C 2.999130859375 17.78701171875  4.37916015625 19.018125  6.04421875 19.018125  C 7.708515625 19.018125  9.089306640625 17.78701171875  9.346591796875 16.192587890625  L 7.614033203125 16.192587890625  Z M 1.715927734375 0.834052734375  C 1.505546875 0.677197265625001  1.21017578125 0.720468749999998  1.05373046875 0.927744140625  C 0.37404296875 1.8329296875  0.0151269531249998 2.9096484375  0.0151269531249998 4.042705078125  L 0.0151269531249998 8.76322265625  C 0.0151260768068564 9.02455233281795  0.226238682807052 9.23566493881814  0.486659279931855 9.23566493881814  C 0.748808593749997 9.2356640625  0.959248046874999 9.024462890625  0.959248046874999 8.76322265625  L 0.959248046874999 4.042705078125  C 0.959248046874999 3.115283203125  1.253037109375 2.234296875  1.808037109375 1.495078125  C 1.966064453125 1.285458984375  1.923994140625 0.99005859375  1.715927734375 0.834052734375  Z " fill-rule="nonzero" fill="#ffffff" stroke="none" transform="matrix(1 0 0 1 848 168 )" />
  </g>
</svg>