<?xml version="1.0" encoding="utf-8"?>
<svg version="1.1" xmlns:xlink="http://www.w3.org/1999/xlink" width="12px" height="20px" xmlns="http://www.w3.org/2000/svg">
  <g transform="matrix(1 0 0 1 -1870 -188 )">
    <path d="M 11.4857142857143 14.8148148148148  C 11.7038961038961 14.8148148148148  11.8545454545455 14.8881172839506  11.9376623376623 15.0347222222222  C 12.0207792207792 15.1813271604938  11.9948051948052 15.3163580246914  11.8597402597403 15.4398148148148  L 6.4051948051948 19.8842592592593  C 6.3012987012987 19.9614197530864  6.18181818181818 20  6.04675324675325 20  C 5.9012987012987 20  5.77662337662338 19.9614197530864  5.67272727272727 19.8842592592593  L 0.14025974025974 15.4398148148148  C 0.00519480519480518 15.3163580246914  -0.0207792207792208 15.1813271604938  0.0623376623376623 15.0347222222222  C 0.155844155844156 14.8881172839506  0.306493506493506 14.8148148148148  0.514285714285714 14.8148148148148  L 4 14.8148148148148  L 4 0.37037037037037  C 4.00519480519481 0.262345679012344  4.05194805194805 0.173611111111112  4.14545454545455 0.104166666666667  C 4.23896103896104 0.0347222222222232  4.35844155844156 0  4.5038961038961 0  L 7.4961038961039 0  C 7.64155844155844 0  7.76103896103896 0.0347222222222232  7.85454545454545 0.104166666666667  C 7.94805194805195 0.173611111111112  7.9948051948052 0.262345679012344  8 0.37037037037037  L 8 14.8148148148148  L 11.4857142857143 14.8148148148148  Z " fill-rule="nonzero" fill="#70b603" stroke="none" transform="matrix(1 0 0 1 1870 188 )" />
  </g>
</svg>