<?xml version="1.0" encoding="utf-8"?>
<svg version="1.1" xmlns:xlink="http://www.w3.org/1999/xlink" width="80px" height="30px" xmlns="http://www.w3.org/2000/svg">
  <defs>
    <mask fill="white" id="clip5437">
      <path d="M 0 24  L 0 6  C 0 2.63999999999999  2.20000000000005 0  5 0  L 75 0  C 77.8 0  80 2.63999999999999  80 6  L 80 24  C 80 27.36  77.8 30  75 30  L 46.5384615384614 30  L 5 30  C 2.20000000000005 30  0 27.36  0 24  Z " fill-rule="evenodd" />
    </mask>
  </defs>
  <g transform="matrix(1 0 0 1 -1560 -183 )">
    <path d="M 0 24  L 0 6  C 0 2.63999999999999  2.20000000000005 0  5 0  L 75 0  C 77.8 0  80 2.63999999999999  80 6  L 80 24  C 80 27.36  77.8 30  75 30  L 46.5384615384614 30  L 5 30  C 2.20000000000005 30  0 27.36  0 24  Z " fill-rule="nonzero" fill="#ffffff" stroke="none" transform="matrix(1 0 0 1 1560 183 )" />
    <path d="M 0 24  L 0 6  C 0 2.63999999999999  2.20000000000005 0  5 0  L 75 0  C 77.8 0  80 2.63999999999999  80 6  L 80 24  C 80 27.36  77.8 30  75 30  L 46.5384615384614 30  L 5 30  C 2.20000000000005 30  0 27.36  0 24  Z " stroke-width="2" stroke="#d7d7d7" fill="none" transform="matrix(1 0 0 1 1560 183 )" mask="url(#clip5437)" />
  </g>
</svg>