<?xml version="1.0" encoding="utf-8"?>
<svg version="1.1" xmlns:xlink="http://www.w3.org/1999/xlink" width="130px" height="130px" xmlns="http://www.w3.org/2000/svg">
  <g transform="matrix(1 0 0 1 0 -386 )">
    <path d="M 1 390  A 3 3 0 0 1 4 387 L 126 387  A 3 3 0 0 1 129 390 L 129 512  A 3 3 0 0 1 126 515 L 4 515  A 3 3 0 0 1 1 512 L 1 390  Z " fill-rule="nonzero" fill="#ffffff" stroke="none" />
    <path d="M 0.5 390  A 3.5 3.5 0 0 1 4 386.5 L 126 386.5  A 3.5 3.5 0 0 1 129.5 390 L 129.5 512  A 3.5 3.5 0 0 1 126 515.5 L 4 515.5  A 3.5 3.5 0 0 1 0.5 512 L 0.5 390  Z " stroke-width="1" stroke-dasharray="3,1" stroke="#000000" fill="none" stroke-opacity="0.149019607843137" stroke-dashoffset="0.5" />
  </g>
</svg>