<?xml version="1.0" encoding="utf-8"?>
<svg version="1.1" xmlns:xlink="http://www.w3.org/1999/xlink" width="16px" height="14px" xmlns="http://www.w3.org/2000/svg">
  <g transform="matrix(1 0 0 1 -35 -100 )">
    <path d="M 12.125 12.66015625  C 12.2467948717949 12.5447048611111  12.3076923076923 12.4079861111111  12.3076923076923 12.25  C 12.3076923076923 12.0920138888889  12.2467948717949 11.9552951388889  12.125 11.83984375  C 12.0032051282051 11.7243923611111  11.8589743589744 11.6666666666667  11.6923076923077 11.6666666666667  C 11.525641025641 11.6666666666667  11.3814102564103 11.7243923611111  11.2596153846154 11.83984375  C 11.1378205128205 11.9552951388889  11.0769230769231 12.0920138888889  11.0769230769231 12.25  C 11.0769230769231 12.4079861111111  11.1378205128205 12.5447048611111  11.2596153846154 12.66015625  C 11.3814102564103 12.7756076388889  11.525641025641 12.8333333333333  11.6923076923077 12.8333333333333  C 11.8589743589744 12.8333333333333  12.0032051282051 12.7756076388889  12.125 12.66015625  Z M 14.5865384615385 12.66015625  C 14.7083333333333 12.5447048611111  14.7692307692308 12.4079861111111  14.7692307692308 12.25  C 14.7692307692308 12.0920138888889  14.7083333333333 11.9552951388889  14.5865384615385 11.83984375  C 14.4647435897436 11.7243923611111  14.3205128205128 11.6666666666667  14.1538461538462 11.6666666666667  C 13.9871794871795 11.6666666666667  13.8429487179487 11.7243923611111  13.7211538461538 11.83984375  C 13.599358974359 11.9552951388889  13.5384615384615 12.0920138888889  13.5384615384615 12.25  C 13.5384615384615 12.4079861111111  13.599358974359 12.5447048611111  13.7211538461538 12.66015625  C 13.8429487179487 12.7756076388889  13.9871794871795 12.8333333333333  14.1538461538462 12.8333333333333  C 14.3205128205128 12.8333333333333  14.4647435897436 12.7756076388889  14.5865384615385 12.66015625  Z M 15.7307692307692 9.58854166666667  C 15.9102564102564 9.75868055555555  16 9.96527777777778  16 10.2083333333333  L 16 13.125  C 16 13.3680555555556  15.9102564102564 13.5746527777778  15.7307692307692 13.7447916666667  C 15.5512820512821 13.9149305555556  15.3333333333333 14  15.0769230769231 14  L 0.923076923076923 14  C 0.666666666666667 14  0.448717948717949 13.9149305555556  0.269230769230769 13.7447916666667  C 0.0897435897435897 13.5746527777778  0 13.3680555555556  0 13.125  L 0 10.2083333333333  C 0 9.96527777777778  0.0897435897435897 9.75868055555555  0.269230769230769 9.58854166666667  C 0.448717948717949 9.41840277777778  0.666666666666667 9.33333333333333  0.923076923076923 9.33333333333333  L 5.39423076923077 9.33333333333333  L 6.69230769230769 10.5729166666667  C 7.06410256410256 10.9131944444444  7.5 11.0833333333333  8 11.0833333333333  C 8.5 11.0833333333333  8.93589743589744 10.9131944444444  9.30769230769231 10.5729166666667  L 10.6153846153846 9.33333333333333  L 15.0769230769231 9.33333333333333  C 15.3333333333333 9.33333333333333  15.5512820512821 9.41840277777778  15.7307692307692 9.58854166666667  Z M 12.3076923076923 4.66666666666667  C 12.5769230769231 4.66666666666667  12.7660256410256 4.78515625  12.875 5.02213541666667  C 12.9839743589744 5.27126736111111  12.9391025641026 5.48394097222222  12.7403846153846 5.66015625  L 8.43269230769231 9.74348958333333  C 8.31730769230769 9.85894097222222  8.17307692307692 9.91666666666667  8 9.91666666666667  C 7.82692307692308 9.91666666666667  7.68269230769231 9.85894097222222  7.56730769230769 9.74348958333333  L 3.25961538461538 5.66015625  C 3.06089743589744 5.48394097222222  3.01602564102564 5.27126736111111  3.125 5.02213541666667  C 3.23397435897436 4.78515625  3.42307692307692 4.66666666666667  3.69230769230769 4.66666666666667  L 6.15384615384615 4.66666666666667  L 6.15384615384615 0.583333333333333  C 6.15384615384615 0.42534722222222  6.21474358974359 0.28862847222222  6.33653846153846 0.173177083333333  C 6.45833333333333 0.0577256944444453  6.6025641025641 0  6.76923076923077 0  L 9.23076923076923 0  C 9.3974358974359 0  9.54166666666667 0.0577256944444453  9.66346153846154 0.173177083333333  C 9.78525641025641 0.28862847222222  9.84615384615385 0.42534722222222  9.84615384615385 0.583333333333333  L 9.84615384615385 4.66666666666667  L 12.3076923076923 4.66666666666667  Z " fill-rule="nonzero" fill="#ffffff" stroke="none" transform="matrix(1 0 0 1 35 100 )" />
  </g>
</svg>