<?xml version="1.0" encoding="utf-8"?>
<svg version="1.1" xmlns:xlink="http://www.w3.org/1999/xlink" width="80px" height="60px" xmlns="http://www.w3.org/2000/svg">
  <g transform="matrix(1 0 0 1 -663 -1637 )">
    <path d="M 663 1637  L 743 1637  L 743 1697  L 663 1697  L 663 1637  " fill-rule="nonzero" fill="#cccccc" stroke="none" />
    <path d="M 667 1641  L 739 1641  L 739 1693  L 667 1693  L 667 1641  " fill-rule="nonzero" fill="#ffffff" stroke="none" />
    <path d="M 709.1 1655  C 706.58 1655  704.6 1653.02  704.6 1650.5  C 704.6 1647.98  706.58 1646  709.1 1646  C 711.62 1646  713.6 1647.98  713.6 1650.5  C 713.6 1653.02  711.62 1655  709.1 1655  " fill-rule="nonzero" fill="#cccccc" stroke="none" />
    <path d="M 669 1692  L 669 1665.05  L 686.25 1652.8  L 710.4 1669.95  L 724.2 1660.15  L 738 1669.95  L 738 1692  L 669 1692  " fill-rule="nonzero" fill="#169bd5" stroke="none" />
  </g>
</svg>