<?xml version="1.0" encoding="utf-8"?>
<svg version="1.1" xmlns:xlink="http://www.w3.org/1999/xlink" width="26px" height="25px" xmlns="http://www.w3.org/2000/svg">
  <g transform="matrix(1 0 0 1 -622 -165 )">
    <path d="M 22.375 20  L 3.625 20  C 3.625 20.375  3.625 20.375  3.625 20.375  C 3.10723304703363 20.375  2.6875 20.7947330470336  2.6875 21.3125  C 2.6875 21.8302669529664  3.10723304703363 22.25  3.625 22.25  C 3.625 22.25  3.625 22.25  3.625 22  L 22.375 22  C 22.375 22.25  22.375 22.25  22.375 22.25  C 22.8927669529664 22.25  23.3125 21.8302669529664  23.3125 21.3125  C 23.3125 20.7947330470336  22.8927669529664 20.375  22.375 20.375  C 22.375 20.375  22.375 20.375  22.375 20  Z M 3.625 18.5  L 22.375 18.5  C 23.9283008588991 18.5  25.1875 19.7591991411009  25.1875 21.3125  C 25.1875 22.8658008588991  23.9283008588991 24.125  22.375 24.125  C 22.375 24.125  22.375 24.125  22.375 24  L 3.625 24  C 3.625 24.125  3.625 24.125  3.625 24.125  C 2.07169914110089 24.125  0.8125 22.8658008588991  0.8125 21.3125  C 0.8125 19.7591991411009  2.07169914110089 18.5  3.625 18.5  Z M 20.5 2.09375  C 20.5 2.87040042944955  21.1295995705504 3.5  21.90625 3.5  C 22.6829004294496 3.5  23.3125 2.87040042944955  23.3125 2.09375  C 23.3125 1.31709957055045  22.6829004294496 0.6875  21.90625 0.6875  C 21.1295995705504 0.6875  20.5 1.31709957055045  20.5 2.09375  Z M 2.6875 2.09375  C 2.6875 2.87040042944955  3.31709957055045 3.5  4.09375 3.5  C 4.87040042944955 3.5  5.5 2.87040042944955  5.5 2.09375  C 5.5 1.31709957055045  4.87040042944955 0.6875  4.09375 0.6875  C 3.31709957055045 0.6875  2.6875 1.31709957055045  2.6875 2.09375  Z " fill-rule="nonzero" fill="#ffffff" stroke="none" transform="matrix(1 0 0 1 622 165 )" />
  </g>
</svg>