<?xml version="1.0" encoding="utf-8"?>
<svg version="1.1" xmlns:xlink="http://www.w3.org/1999/xlink" width="18px" height="24px" xmlns="http://www.w3.org/2000/svg">
  <g transform="matrix(1 0 0 1 -842 -160 )">
    <path d="M 10.512578125 23.601494140625  C 10.97705078125 23.601435546875  11.35263671875 23.225849609375  11.35263671875 22.762548828125  C 11.35263671875 22.2983984375  10.97705078125 21.923251953125  10.512548828125 21.923251953125  L 3.07345703125 21.923251953125  C 3.733720703125 21.008134765625  4.4137890625 19.72337890625  4.515830078125 18.218720703125  C 4.604951171875 16.894267578125  4.587490234375 14.728935546875  4.5748046875 13.147255859375  L 4.566044921875 11.937939453125  C 4.566044921875 9.87107421875  5.44345703125 7.899482421875  6.974365234375 6.52701171875  C 8.46080078125 5.19341796875  10.353759765625 4.576484375  12.330888671875 4.788095703125  C 13.917373046875 4.95880859375  15.36173828125 5.70083984375  16.505107421875 6.93236328125  C 16.82189453125 7.274990234375  17.353134765625 7.292451171875  17.69060546875 6.97642578125  C 18.031240234375 6.661572265625  18.051103515625 6.130390625  17.735078125 5.791337890625  C 16.650419921875 4.622919921875  15.29341796875 3.80228515625  13.826875 3.38662109375  L 13.826875 3.265126953125  C 13.826875 2.005009765625  12.81765625 0.980703125000003  11.575 0.980703125000003  C 10.33234375 0.980703125000003  9.322333984375 2.005009765625  9.322333984375 3.265126953125  L 9.322333984375 3.380673828125  C 8.057412109375 3.727255859375  6.87513671875 4.3605078125  5.853203125 5.278408203125  C 3.967978515625 6.96810546875  2.887685546875 9.395849609375  2.887685546875 11.937939453125  L 2.896005859375 13.16193359375  C 2.90951171875 14.715869140625  2.927001953125 16.843818359375  2.840458984375 18.10396484375  C 2.687587890625 20.366181640625  0.678291015624999 22.10509765625  0.658457031249999 22.12337890625  C 0.3896875 22.350869140625  0.293212890624999 22.722822265625  0.414677734374999 23.05279296875  C 0.536171875 23.38232421875  0.850205078124999 23.601494140625  1.201181640625 23.601494140625  L 10.512578125 23.601494140625  Z M 11.034208984375 3.09634765625  C 11.106484375 2.848232421875  11.32005859375 2.658857421875  11.57494140625 2.658857421875  C 11.83064453125 2.658857421875  12.04421875 2.848642578125  12.115673828125 3.097548828125  C 11.75201171875 3.0753125  11.39154296875 3.074521484375  11.034208984375 3.09634765625  Z " fill-rule="nonzero" fill="#ffffff" stroke="none" transform="matrix(1 0 0 1 842 160 )" />
  </g>
</svg>