<?xml version="1.0" encoding="utf-8"?>
<svg version="1.1" xmlns:xlink="http://www.w3.org/1999/xlink" width="30px" height="19px" xmlns="http://www.w3.org/2000/svg">
  <g transform="matrix(1 0 0 1 -620 -161 )">
    <path d="M 14.9999999308528 18.75  C 13.1878155954705 18.75  11.7187499308528 17.2809343353823  11.7187499308528 15.46875  C 11.7187499308528 13.6565656646177  13.1878155954705 12.1875  14.9999999308528 12.1875  C 16.8121842662351 12.1875  18.2812499308528 13.6565656646177  18.2812499308528 15.46875  C 18.2812499308528 17.2809343353823  16.8121842662351 18.75  14.9999999308528 18.75  Z M 15 16.875  C 15.7766504294496 16.875  16.40625 16.2454004294496  16.40625 15.46875  C 16.40625 14.6920995705504  15.7766504294496 14.0625  15 14.0625  C 14.2233495705504 14.0625  13.59375 14.6920995705504  13.59375 15.46875  C 13.59375 16.2454004294496  14.2233495705504 16.875  15 16.875  Z M 28.125 14.0625  L 25.3125 14.0625  C 24.7947330470336 14.0625  24.375 13.6427669529664  24.375 13.125  C 24.375 12.6072330470336  24.7947330470336 12.1875  25.3125 12.1875  L 28.125 12.1875  C 28.6427669529664 12.1875  29.0625 12.6072330470336  29.0625 13.125  C 29.0625 13.6427669529664  28.6427669529664 14.0625  28.125 14.0625  Z M 4.6875 14.0625  L 1.875 14.0625  C 1.35723304703363 14.0625  0.9375 13.6427669529664  0.9375 13.125  C 0.9375 12.6072330470336  1.35723304703363 12.1875  1.875 12.1875  L 4.6875 12.1875  C 5.20526695296637 12.1875  5.625 12.6072330470336  5.625 13.125  C 5.625 13.6427669529664  5.20526695296637 14.0625  4.6875 14.0625  Z M 14.0625 4.6875  L 14.0625 1.875  C 14.0625 1.35723304703363  14.4822330470336 0.9375  15 0.9375  C 15.5177669529664 0.9375  15.9375 1.35723304703363  15.9375 1.875  L 15.9375 4.6875  C 15.9375 5.20526695296637  15.5177669529664 5.625  15 5.625  C 14.4822330470336 5.625  14.0625 5.20526695296637  14.0625 4.6875  Z " fill-rule="nonzero" fill="#ffffff" stroke="none" transform="matrix(1 0 0 1 620 161 )" />
  </g>
</svg>