<?xml version="1.0" encoding="utf-8"?>
<svg version="1.1" xmlns:xlink="http://www.w3.org/1999/xlink" width="30px" height="24px" xmlns="http://www.w3.org/2000/svg">
  <g transform="matrix(1 0 0 1 -1060 -162 )">
    <path d="M 16.6363636230469 17.6363636230469  C 16.6363636230469 17.5  14.8636363476563 15.7272727246094  11.7272727246094 13.2727272753906  L 9.68181817382813 14.9090908984375  C 9.68181817382813 14.9090908984375  15 19.4090908984375  18 23.6363636230469  C 18 23.6363636230469  19.9090908984375 16.2727272460937  30 7.13636362304687  L 29.5909091015625 6.04545455078125  C 29.5909091015625 6.04545455078125  23.5909091015625 8.77272727539062  16.6363636230469 17.6363636230469  Z M 1.0909091015625 1  L 1.0909091015625 0.727272724609375  C 0.409090927734375 0.727272724609375  0 1.13636362304687  0 1.68181817382813  L 0 17.9090908984375  C 0 18.4545454492187  0.4090908984375 19  1.0909091015625 19  C 1.63636365234375 19  2.181818203125 18.5909091015625  2.18181817382812 17.9090908984375  L 2.18181817382812 3  L 19.6363636230469 3  C 20.1818181738281 2.77272727539062  20.7272727246094 2.36363637695312  20.7272727246094 1.68181817382812  C 20.7272727246094 1.13636362304687  20.3181818261719 0.590909072265624  19.6363636230469 1  L 1.0909091015625 1  Z " fill-rule="nonzero" fill="#ffffff" stroke="none" transform="matrix(1 0 0 1 1060 162 )" />
  </g>
</svg>