<?xml version="1.0" encoding="utf-8"?>
<svg version="1.1" xmlns:xlink="http://www.w3.org/1999/xlink" width="16px" height="15px" xmlns="http://www.w3.org/2000/svg">
  <g transform="matrix(1 0 0 1 -170 -93 )">
    <path d="M 12.125 13.621875  C 12.2467948717949 13.503125  12.3076923076923 13.3625  12.3076923076923 13.2  C 12.3076923076923 13.0375  12.2467948717949 12.896875  12.125 12.778125  C 12.0032051282051 12.659375  11.8589743589744 12.6  11.6923076923077 12.6  C 11.525641025641 12.6  11.3814102564103 12.659375  11.2596153846154 12.778125  C 11.1378205128205 12.896875  11.0769230769231 13.0375  11.0769230769231 13.2  C 11.0769230769231 13.3625  11.1378205128205 13.503125  11.2596153846154 13.621875  C 11.3814102564103 13.740625  11.525641025641 13.8  11.6923076923077 13.8  C 11.8589743589744 13.8  12.0032051282051 13.740625  12.125 13.621875  Z M 14.5865384615385 13.621875  C 14.7083333333333 13.503125  14.7692307692308 13.3625  14.7692307692308 13.2  C 14.7692307692308 13.0375  14.7083333333333 12.896875  14.5865384615385 12.778125  C 14.4647435897436 12.659375  14.3205128205128 12.6  14.1538461538462 12.6  C 13.9871794871795 12.6  13.8429487179487 12.659375  13.7211538461538 12.778125  C 13.599358974359 12.896875  13.5384615384615 13.0375  13.5384615384615 13.2  C 13.5384615384615 13.3625  13.599358974359 13.503125  13.7211538461538 13.621875  C 13.8429487179487 13.740625  13.9871794871795 13.8  14.1538461538462 13.8  C 14.3205128205128 13.8  14.4647435897436 13.740625  14.5865384615385 13.621875  Z M 15.7307692307692 10.4625  C 15.9102564102564 10.6375  16 10.85  16 11.1  L 16 14.1  C 16 14.35  15.9102564102564 14.5625  15.7307692307692 14.7375  C 15.5512820512821 14.9125  15.3333333333333 15  15.0769230769231 15  L 0.923076923076923 15  C 0.666666666666667 15  0.448717948717949 14.9125  0.269230769230769 14.7375  C 0.0897435897435897 14.5625  0 14.35  0 14.1  L 0 11.1  C 0 10.85  0.0897435897435897 10.6375  0.269230769230769 10.4625  C 0.448717948717949 10.2875  0.666666666666667 10.2  0.923076923076923 10.2  L 5.02884615384615 10.2  C 5.16346153846154 10.55  5.38942307692308 10.8375  5.70673076923077 11.0625  C 6.02403846153846 11.2875  6.37820512820513 11.4  6.76923076923077 11.4  L 9.23076923076923 11.4  C 9.62179487179487 11.4  9.97596153846154 11.2875  10.2932692307692 11.0625  C 10.6105769230769 10.8375  10.8365384615385 10.55  10.9711538461538 10.2  L 15.0769230769231 10.2  C 15.3333333333333 10.2  15.5512820512821 10.2875  15.7307692307692 10.4625  Z M 12.7403846153846 4.378125  C 12.9391025641026 4.565625  12.9839743589744 4.78125  12.875 5.025  C 12.7660256410256 5.275  12.5769230769231 5.4  12.3076923076923 5.4  L 9.84615384615385 5.4  L 9.84615384615385 9.6  C 9.84615384615385 9.7625  9.78525641025641 9.903125  9.66346153846154 10.021875  C 9.54166666666667 10.140625  9.3974358974359 10.2  9.23076923076923 10.2  L 6.76923076923077 10.2  C 6.6025641025641 10.2  6.45833333333333 10.140625  6.33653846153846 10.021875  C 6.21474358974359 9.903125  6.15384615384615 9.7625  6.15384615384615 9.6  L 6.15384615384615 5.4  L 3.69230769230769 5.4  C 3.42307692307692 5.4  3.23397435897436 5.275  3.125 5.025  C 3.01602564102564 4.78125  3.06089743589744 4.565625  3.25961538461538 4.378125  L 7.56730769230769 0.178125  C 7.68269230769231 0.0593749999999993  7.82692307692308 0  8 0  C 8.17307692307692 0  8.31730769230769 0.0593749999999993  8.43269230769231 0.178125  L 12.7403846153846 4.378125  Z " fill-rule="nonzero" fill="#ffffff" stroke="none" transform="matrix(1 0 0 1 170 93 )" />
  </g>
</svg>