<?xml version="1.0" encoding="utf-8"?>
<svg version="1.1" xmlns:xlink="http://www.w3.org/1999/xlink" width="37px" height="35px" xmlns="http://www.w3.org/2000/svg">
  <g transform="matrix(1 0 0 1 -624 -155 )">
    <path d="M 36.1480078125 25.4  C 36.1480107162936 25.1931078209797  35.980873650247 25.0250805209521  35.773984375 25.023984375  L 33.2419921875 25.023984375  L 33.2419921875 18  L 19.7419921875 18  L 19.7419921875 14.12  L 30.898046875 14.12  C 31.3125824821844 14.1189018030177  31.6480483296814 13.7825448743633  31 13.3680078125  L 31 0.967968749999999  C 31.6481339439647 0.963291494372662  31.6481774812751 0.958613529703404  31.6481774812751 0.953935463734643  C 31.6481774812751 0.539025593333723  31.3129513257263 0.202081626913761  30.898046875 0.1999609375  L 5.4 0.199960937499999  C 4.98591867748239 0.202147720103495  4.65108833220063 0.537867458489902  5 0.951953125  L 5 13.351953125  C 4.64991293103533 13.3566303806272  4.6498693937249 13.3613083452967  4.6498693937249 13.3659864112654  C 4.6498693937249 13.7808962816663  4.98509554927367 14.1178402480862  5.4 14.1199609375  L 16.556015625 14.1199609375  L 16.556015625 18  L 3.056015625 18  L 3.056015625 25.0239453125  L 0.523984374999999 25.0239453125  C 0.317110371252518 25.0250628696315  0.149996981436024 25.1930839152106  0.149999999999999 25.3999609375  L 0.149999999999999 33.6699609375  C 0.149996981436024 33.8768379597894  0.317110371252519 34.0448590053685  0.523984374999999 34.0459765625  L 8.773984375 34.0459765625  C 8.98165207038559 34.0459765625  9.15 33.8776286328856  9.15 33.6699609375  L 9.15 25.4  C 9.15 25.1923323046144  8.98165207038559 25.023984375  8.773984375 25.023984375  L 6.2419921875 25.023984375  L 6.2419921875 21  L 16.556015625 21  L 16.556015625 25.023984375  L 14.023984375 25.023984375  C 13.8171103712525 25.0251019321315  13.649996981436 25.1931229777106  13.65 25.4  L 13.65 33.67  C 13.649996981436 33.8768770222894  13.8171103712525 34.0448980678685  14.023984375 34.046015625  L 22.273984375 34.046015625  C 22.480873650247 34.0449194790479  22.6480107162936 33.8768921790203  22.6480078125 33.67  L 22.6480078125 25.4  C 22.6480107162936 25.1931078209797  22.480873650247 25.0250805209521  22.273984375 25.023984375  L 19.7419921875 25.023984375  L 19.7419921875 21  L 30.053984375 21  L 30.053984375 25.023984375  L 27.523984375 25.023984375  C 27.3163319346336 25.0240059470384  27.1480078113795 25.1923475585131  27.1480078125 25.4  L 27.1480078125 33.67  C 27.1480078113795 33.8776524414869  27.3163319346336 34.0459940529616  27.523984375 34.046015625  L 35.773984375 34.046015625  C 35.980873650247 34.0449194790479  36.1480107162936 33.8768921790203  36.1480078125 33.67  L 36.1480078125 25.4  Z M 6.15 28.153984375  L 6.15 30.9119921875  C 6.15 30.982688950203  6.09268895020295 31.04  6.0219921875 31.04  L 3.2719921875 31.04  C 3.20129542479705 31.04  3.143984375 30.982688950203  3.143984375 30.9119921875  L 3.143984375 28.153984375  C 3.14400594396877 28.083302867634  3.20131067684301 28.026015621709  3.2719921875 28.026015625  L 6.0219921875 28.026015625  C 6.09267369815699 28.026015621709  6.14997843103123 28.083302867634  6.15 28.153984375  Z M 19.6480078125 28.153984375  L 19.6480078125 30.9119921875  C 19.6480162813055 30.98191820408  19.5919097357873 31.0389117408632  19.5219921875 31.04  L 16.77 31.04  C 16.7000824517127 31.0389117408632  16.6439759061945 30.98191820408  16.643984375 30.9119921875  L 16.643984375 28.153984375  C 16.6439742839957 28.1533333819085  16.6439692382662 28.1526823203877  16.6439692382662 28.1520312490909  C 16.6439692382662 28.082434741163  16.7003883553383 28.0260156240909  16.7699848632662 28.0260156240909  L 19.5219921875 28.026015625  C 19.5916038321617 28.0260156240909  19.6480229492338 28.082434741163  19.6480229492338 28.1520312490909  C 19.6480229492338 28.1526823203878  19.6480179035043 28.1533333819084  19.6480078125 28.153984375  Z M 28.6480078125 11.1119921875  L 7.6480078125 11.1119921875  L 7.6480078125 3.216015625  L 28.6480078125 3.216015625  L 28.6480078125 11.1119921875  Z M 33.1480078125 28.153984375  L 33.146015625 30.9119921875  C 33.1460240938055 30.98191820408  33.0899175482873 31.0389117408632  33.02 31.04  L 30.27 31.04  C 30.2000824517127 31.0389117408632  30.1439759061946 30.98191820408  30.143984375 30.9119921875  L 30.143984375 28.153984375  C 30.1439742839957 28.1533333819084  30.1439692382662 28.1526823203879  30.1439692382662 28.1520312490909  C 30.1439692382662 28.082434741163  30.2003883553383 28.0260156240909  30.2699848632662 28.0260156240909  L 33.0219921875 28.026015625  C 33.0916038321617 28.0260156240909  33.1480229492338 28.082434741163  33.1480229492338 28.1520312490909  C 33.1480229492338 28.1526823203878  33.1480179035043 28.1533333819084  33.1480078125 28.153984375  Z M 14.773984375 7.163984375  C 14.7750861678354 6.12758095424938  13.9364016291799 5.28620417773694  12.9 5.283984375  C 12.897994798091 5.28397795872104  12.8959895871991 5.2839747505754  12.8939843750246 5.2839747505754  C 11.8556890453427 5.2839747505754  11.0139843750246 6.12567942089351  11.0139843750246 7.1639747505754  C 11.0139843750246 8.20227008025729  11.8556890453427 9.0439747505754  12.8939843750246 9.0439747505754  C 13.9322797047065 9.0439747505754  14.7739843750246 8.20227008025729  14.7739843750246 7.1639747505754  Z " fill-rule="nonzero" fill="#0a92fa" stroke="none" transform="matrix(1 0 0 1 624 155 )" />
  </g>
</svg>