<?xml version="1.0" encoding="utf-8"?>
<svg version="1.1" xmlns:xlink="http://www.w3.org/1999/xlink" width="6px" height="21px" xmlns="http://www.w3.org/2000/svg">
  <g transform="matrix(1 0 0 1 -817 -155 )">
    <path d="M 4.375 17.35  C 4.375 17.6951779686442  4.65482203135575 17.975  5 17.975  C 5.34517796864425 17.975  5.625 17.6951779686442  5.625 17.35  L 5.625 12.741875  C 5.625 12.3966970313558  5.34517796864425 12.116875  5 12.116875  C 4.65482203135575 12.116875  4.375 12.3966970313558  4.375 12.741875  L 4.375 17.35  Z M 0.625 19.858125  C 0.625 20.2033029686442  0.904822031355755 20.483125  1.25 20.483125  C 1.59517796864425 20.483125  1.875 20.2033029686442  1.875 19.858125  L 1.875 15.25  C 1.875 14.9048220313558  1.59517796864425 14.625  1.25 14.625  C 0.904822031355755 14.625  0.625 14.9048220313558  0.625 15.25  L 0.625 19.858125  Z M 0.625 9.858125  C 0.625 10.2033029686442  0.904822031355755 10.483125  1.25 10.483125  C 1.59517796864425 10.483125  1.875 10.2033029686442  1.875 9.858125  L 1.875 5.25  C 1.875 4.90482203135575  1.59517796864425 4.625  1.25 4.625  C 0.904822031355755 4.625  0.625 4.90482203135575  0.625 5.25  L 0.625 9.858125  Z M 4.375 6.085  C 4.375 6.43017796864425  4.65482203135575 6.71  5 6.71  C 5.34517796864425 6.71  5.625 6.43017796864425  5.625 6.085  L 5.625 1.476875  C 5.625 1.13169703135575  5.34517796864425 0.851875  5 0.851875  C 4.65482203135575 0.851875  4.375 1.13169703135575  4.375 1.476875  L 4.375 6.085  Z " fill-rule="nonzero" fill="#0a92fa" stroke="none" transform="matrix(1 0 0 1 817 155 )" />
  </g>
</svg>