<?xml version="1.0" encoding="utf-8"?>
<svg version="1.1" xmlns:xlink="http://www.w3.org/1999/xlink" width="26px" height="35px" xmlns="http://www.w3.org/2000/svg">
  <g transform="matrix(1 0 0 1 -993 -155 )">
    <path d="M 13.2577827777778 0.445601763237847  C 6.2652496412037 0.445601763237847  0.59373787326389 6.16958755425347  0.59373787326389 13.2293177354601  C 0.59373787326389 20.2912630642361  13.2578212586806 34.5355887369792  13.2578212586806 34.5355887369792  C 13.2578212586806 34.5355887369792  25.9198260734954 20.2912630642361  25.9198260734954 13.229356624349  C 25.9197875549769 6.1695875922309  20.2503159143519 0.445601763237847  13.2577827777778 0.445601763237847  Z M 13.2580137384259 23.7909902723524  C 7.47841528356481 23.7909902723524  2.79446506655093 19.0619243706597  2.79446506655093 13.2293177354601  C 2.79446506655093 7.3967499891493  7.47845376446759 2.66776178927951  13.2580137384259 2.66776178927951  C 19.0350717013889 2.66776178927951  23.7189834375 7.3967499891493  23.7189834375 13.2293177354601  C 23.7189833998843 19.0619632215712  19.0350717013889 23.7909902723524  13.2580137384259 23.7909902723524  Z " fill-rule="nonzero" fill="#0a92fa" stroke="none" transform="matrix(1 0 0 1 993 155 )" />
  </g>
</svg>