<?xml version="1.0" encoding="utf-8"?>
<svg version="1.1" xmlns:xlink="http://www.w3.org/1999/xlink" width="32px" height="26px" xmlns="http://www.w3.org/2000/svg">
  <g transform="matrix(1 0 0 1 -811 -164 )">
    <path d="M 28.4975010009997 13.7499977505974  C 28.4962506669963 13.7499977505974  28.4950003331041 13.7499985003984  28.49375 13.75  L 26.326875 13.75  L 26.326875 11.844375  C 26.3257443142282 10.3602527411399  25.2704584754319 9.08619772770869  23.8125 8.80875  L 23.8125 0.625  C 23.8125 0.279822031355755  23.5326779686442 0  23.1875 0  C 22.8423220313558 0  22.5625 0.279822031355755  22.5625 0.625  L 22.5625 8.825  C 21.170625 9.12875  20.125 10.36375  20.125 11.844375  L 20.125 13.75  L 3.50625 13.75  C 3.50562500006925 13.7499996255242  3.50500000004289 13.7499994382864  3.50437499999995 13.7499994382864  C 1.77606891099821 13.7499994382864  0.37499999999995 15.1510683492846  0.37499999999995 16.8793744382863  L 0.375000000000001 22.495  C 0.374999332666898 22.4958340829674  0.374998999000307 22.4966681661683  0.374998999000307 22.4975022494027  C 0.374998999000307 24.2247728044985  1.7752284439045 25.6250022494026  3.50249899900031 25.6250022494026  C 3.5037493330037 25.6250022494026  3.50499966689589 25.6250014996016  3.50625 25.625  L 28.49375 25.625  C 28.4943749999277 25.6250003744758  28.4949999999602 25.6250005617137  28.4956250000001 25.6250005617137  C 30.2239310890018 25.6250005617137  31.6250000000001 24.2239316507154  31.6250000000001 22.4956255617137  L 31.625 16.88  C 31.6250006673331 16.8791659170337  31.6250010009997 16.8783318338306  31.6250010009997 16.8774977505974  C 31.6250010009997 15.1502271955016  30.2247715560955 13.7499977505974  28.4975010009997 13.7499977505974  Z M 21.375 13.75  L 21.375 11.844375  C 21.3781006168206 10.8246016253754  22.2058469714791 9.99965076668001  23.225625 10  C 23.2272918024178 9.99999548405521  23.2289586101876 9.99999322607971  23.230625418723 9.99999322607971  C 24.2494504839679 9.99999322607971  25.0755637122158 10.8255501658992  25.07625 11.844375  L 25.07625 13.75  L 21.375 13.75  Z M 30.375 16.879375  L 30.375 22.495625  C 30.3746551326083 23.5336763654114  29.5330515264498 24.3750004156275  28.4950001037515 24.3750004156275  C 28.4945834024675 24.3750004156275  28.4941667011919 24.375000277085  28.49375 24  L 3.50625 24  C 3.50499968822678 24.3750024979248  3.50374937427091 24.3750037468881  3.50249906000246 24.3750037468881  C 2.46558444219515 24.3750037468881  1.62499906000246 23.5344183646954  1.62499906000246 22.4975037468881  C 1.62499906000246 22.4968774978083  1.62499937333501 22.4962512487663  1.625 22.495625  L 1.625 16.88  C 1.62499999999995 15.8417042547596  2.46670467031806 14.9999995844414  3.50499999999995 14.9999995844414  C 3.50541666670161 14.9999995844414  3.50583333339045 14.999999722961  3.50625 15  L 28.49375 15  C 28.4950003117721 14.9999975020752  28.4962506257302 14.9999962531119  28.4975009399975 14.9999962531119  C 29.5344155578048 14.9999962531119  30.3750009399975 15.8405816353046  30.3750009399975 16.8774962531119  C 30.3750009399975 16.8781225021906  30.375000626665 16.8787487512348  30.375 16.879375  Z " fill-rule="nonzero" fill="#0a92fa" stroke="none" transform="matrix(1 0 0 1 811 164 )" />
  </g>
</svg>