<?xml version="1.0" encoding="utf-8"?>
<svg version="1.1" xmlns:xlink="http://www.w3.org/1999/xlink" width="16px" height="24px" xmlns="http://www.w3.org/2000/svg">
  <g transform="matrix(1 0 0 1 -822 -161 )">
    <path d="M 15.29375 21.990625  C 15.29375 21.990625  15.29375 21.990625  15.29375 22  L 1.25 22  C 1.25 21.990625  1.25 21.990625  1.25 21.990625  C 0.904822031355755 21.990625  0.625 22.2704470313558  0.625 22.615625  C 0.625 22.9608029686442  0.904822031355755 23.240625  1.25 23.240625  C 1.25 23.240625  1.25 23.240625  1.25 23  L 15.29375 23  C 15.29375 23.240625  15.29375 23.240625  15.29375 23.240625  C 15.6389279686442 23.240625  15.91875 22.9608029686442  15.91875 22.615625  C 15.91875 22.2704470313558  15.6389279686442 21.990625  15.29375 21.990625  Z M 9.7075 2.89588650779094  C 9.93759865700557 2.89588650779094  10.1491038523865 2.76950713301154  10.258125 2.566875  C 10.6399731738639 1.85675141159343  11.381222519659 1.41397078520985  12.1875 1.414375  C 13.060625 1.414375  13.8375 1.92625  14.18625 2.705625  C 14.2839297481768 2.93717568860735  14.5107970025447 3.08769921508105  14.7621076760116 3.08769921508105  C 15.1072856446559 3.08769921508105  15.3871076760116 2.8078771837253  15.3871076760116 2.46269921508105  C 15.3871076760116 2.3701060936444  15.3665343694888 2.27866971106161  15.326875 2.195  C 14.7721135140898 0.958240588055904  13.5423572586762 0.162962309027484  12.186875 0.164374999999998  C 10.920742713868 0.1641198923675  9.75681557554585 0.859403100408104  9.156875 1.974375  C 9.10788278378716 2.06543437232809  9.08223849220906 2.16722264732739  9.08223849220906 2.270625  C 9.08223849220906 2.61594739540914  9.36217760459085 2.89588650779094  9.7075 2.89588650779094  Z " fill-rule="nonzero" fill="#0a92fa" stroke="none" transform="matrix(1 0 0 1 822 161 )" />
  </g>
</svg>