<?xml version="1.0" encoding="utf-8"?>
<svg version="1.1" xmlns:xlink="http://www.w3.org/1999/xlink" width="12px" height="5px" xmlns="http://www.w3.org/2000/svg">
  <g transform="matrix(1 0 0 1 -828 -158 )">
    <path d="M 11.5023374943548 3.79389286637831  C 11.5023374943548 3.70411173002599  11.4829944754518 3.61538439685064  11.445625 3.53375  C 10.5024263668765 1.42963145139519  8.41022150785951 0.0767735001983896  6.10437499999999 0.0800000000000001  C 3.95038963346628 0.079371552022188  1.97027247767462 1.26235169347794  0.949999999999999 3.159375  C 0.900888141871107 3.25050880628554  0.875177983225811 3.35241288815836  0.875177983225811 3.4559375  C 0.875177983225811 3.80118976020723  1.15506023979277 4.08107201677419  1.5003125 4.08107201677419  C 1.73021259644429 4.08107201677419  1.94156087776343 3.95488347656332  2.050625 3.7525  C 2.8530113661605 2.26052222652519  4.41032030645802 1.3301225744048  6.104375 1.330625  C 7.9174301269456 1.32759058494531  9.56281519052601 2.39081143468936  10.305 4.045  C 10.4046695491145 4.27217243903402  10.6292622314256 4.41889286637831  10.8773374943548 4.41889286637831  C 11.222515462999 4.41889286637831  11.5023374943548 4.13907083502255  11.5023374943548 3.79389286637831  Z " fill-rule="nonzero" fill="#0a92fa" stroke="none" transform="matrix(1 0 0 1 828 158 )" />
  </g>
</svg>