<?xml version="1.0" encoding="utf-8"?>
<svg version="1.1" xmlns:xlink="http://www.w3.org/1999/xlink" width="16px" height="14px" xmlns="http://www.w3.org/2000/svg">
  <g transform="matrix(1 0 0 1 -1182 -63 )">
    <path d="M 15.999875 12.8590504807692  C 16 13.1484314903846  15.89825 13.3956610576923  15.695125 13.6020012019231  C 15.491375 13.8077103365385  15.24725 13.9108173076923  14.96175 14  L 4.57675 14  C 4.29125 13.9108173076923  4.047 13.8077103365385  3.843375 13.6020012019231  C 3.64025 13.3956610576923  3.538375 13.1484314903846  3.538375 12.8591766826923  L 3.538375 4.86819711538462  C 3.538375 4.57906850961538  3.64025 4.33196514423077  3.843375 4.12587740384615  C 4.046875 3.92016826923077  4.29125 3.81706129807692  4.57675 4  L 14.961625 4  C 15.247125 3.81706129807692  15.49125 3.92016826923077  15.695 4.12587740384615  C 15.898125 4.33209134615385  15.999875 4.57906850961538  15.999875 4.86819711538462  L 15.999875 12.8590504807692  Z M 15.16925 12.8596814903846  L 15.16925 4.86857572115385  C 15.16925 4.81140625  15.1485 4.7621875  15.10725 4.72079326923077  C 15.06625 4.67902043269231  15.0175 4.65844951923077  14.961125 4.65844951923077  L 4.57675 4.65844951923077  C 4.520375 4.65844951923077  4.471625 4.67902043269231  4.43075 4.72079326923077  C 4.38975 4.76243990384615  4.369125 4.81140625  4.369125 4.86857572115385  L 4.369125 12.8596814903846  C 4.369125 12.9162199519231  4.38975 12.9655649038462  4.43075 13.0069591346154  C 4.472125 13.0488581730769  4.520375 13.0696814903846  4.57675 13  L 14.961125 13  C 15.0175 13.0696814903846  15.06625 13.0488581730769  15.10725 13.0069591346154  C 15.1485 12.9655649038462  15.16925 12.9162199519231  15.16925 12.8596814903846  Z M 5.20025 12.228671875  L 5.20025 10.9667788461538  L 7.27675 8.86400240384615  L 8.315125 9.91564302884615  L 11.638125 6.55084735576923  L 14.338375 9.28438100961538  L 14.338375 12.228671875  L 5.20025 12.228671875  Z M 7.32875 7.65473557692308  C 7.086625 7.90032451923077  6.79225 8.02261418269231  6.44625 8.02261418269231  C 6.099875 8.02261418269231  5.80575 7.90032451923077  5.563625 7.65473557692308  C 5.321125 7.40965144230769  5.200125 7.1115625  5.200125 6.76122596153846  C 5.200125 6.41051081730769  5.321 6.11280048076923  5.563625 5.86746394230769  C 5.80575 5.62225360576923  6.099875 5.49945913461538  6.44625 5.49945913461538  C 6.79225 5.49945913461538  7.086625 5.62225360576923  7.32875 5.86746394230769  C 7.570875 6.11280048076923  7.692125 6.41051081730769  7.692125 6.76122596153846  C 7.692125 7.1115625  7.570875 7.40965144230769  7.32875 7.65473557692308  Z M 13.323125 3.00469951923077  C 13.323125 2.94765625  13.3025 2.8984375  13.261125 2.85691706730769  C 13.220125 2.81501802884615  13.171375 2.79457331730769  13.115125 3  L 2.730625 3  C 2.67425 2.79457331730769  2.625625 2.81501802884615  2.584625 2.85691706730769  C 2.543625 2.8984375  2.523 2.94753004807692  2.523 3.00469951923077  L 2.523 10.9956790865385  C 2.523 11.0522175480769  2.543625 11.1015625  2.584625 11.1429567307692  C 2.626 11.1848557692308  2.67425 11.2058052884615  2.730625 11.2058052884615  L 2.923125 11.2058052884615  L 2.923125 11.5818870192308  C 2.923125 11.746328125  2.9555 11.9030709134615  3.013 12.0466887019231  L 2.730625 12.0466887019231  C 2.445125 12.0466887019231  2.200875 11.9435817307692  1.997375 11.7378725961538  C 1.794125 11.5315324519231  1.692375 11.2843028846154  1.692375 10.9950480769231  L 1.692375 3.00432091346154  C 1.692375 2.71519230769231  1.794125 2.46808894230769  1.997375 2.26200120192308  C 2.200875 2.05641826923077  2.44525 1.95318509615385  2.730625 2  L 13.1155 2  C 13.401 1.95318509615385  13.645125 2.05629206730769  13.848875 2.26200120192308  C 14.052 2.46821514423077  14.15375 2.71519230769231  14.15375 3.00432091346154  L 14.15375 3.19450721153846  L 13.323 3.19450721153846  L 13.323 3.00469951923077  Z M 11.630875 1.14082331730769  C 11.630875 1.08365384615385  11.610125 1.03443509615385  11.568875 0.993040865384616  C 11.527875 0.951268028846154  11.479125 0.930823317307692  11.42275 1  L 1.038375 1  C 0.981875 0.930823317307692  0.93325 0.951268028846154  0.892375 0.993167067307693  C 0.851375 1.03481370192308  0.83075 1.08378004807692  0.83075 1.14094951923077  L 0.83075 9.13192908653846  C 0.83075 9.18859375  0.851375 9.23793870192308  0.892375 9.27933293269231  C 0.93375 9.32110576923077  0.982 9.34205528846154  1.038375 9.34205528846154  L 1.230875 9.34205528846154  L 1.230875 9.71813701923077  C 1.230875 9.88270432692308  1.26325 10.0393209134615  1.32075 10.1829387019231  L 1.038375 10.1829387019231  C 0.752875 10.1829387019231  0.508625 10.0799579326923  0.305 9.87424879807692  C 0.101875 9.66790865384615  0 9.42067908653846  0 9.13142427884615  L 0 1.14044471153846  C 0 0.851316105769231  0.101875 0.604212740384616  0.305 0.398125  C 0.5085 0.192415865384615  0.752875 0.0893088942307693  1.038375 0  L 11.42325 0  C 11.70875 0.0893088942307693  11.952875 0.192415865384615  12.1565 0.398125  C 12.359625 0.604338942307692  12.4615 0.851316105769231  12.4615 1.14044471153846  L 12.4615 1.33063100961538  L 11.63075 1.33063100961538  L 11.63075 1.14082331730769  Z " fill-rule="nonzero" fill="#2589ff" stroke="none" transform="matrix(1 0 0 1 1182 63 )" />
  </g>
</svg>