<?xml version="1.0" encoding="utf-8"?>
<svg version="1.1" xmlns:xlink="http://www.w3.org/1999/xlink" width="44px" height="6px" preserveAspectRatio="xMinYMid meet" viewBox="324 539  44 4" xmlns="http://www.w3.org/2000/svg">
  <g transform="matrix(-1 0 0 -1 692 1082 )">
    <path d="M 352.3 527.5  L 346 521.5  L 339.7 527.5  L 352.3 527.5  Z M 349.9 526.5  L 342.1 526.5  L 346 523  L 349.9 526.5  Z M 352.3 532.5  L 346 526.5  L 339.7 532.5  L 352.3 532.5  Z M 349.9 531.5  L 342.1 531.5  L 346 528  L 349.9 531.5  Z " fill-rule="nonzero" fill="#f20201" stroke="none" transform="matrix(6.12303176911189E-17 1 -1 6.12303176911189E-17 887.5 196.5 )" />
    <path d="M 346 532.5  L 346 561.5  " stroke-width="1" stroke="#f20201" fill="none" transform="matrix(6.12303176911189E-17 1 -1 6.12303176911189E-17 887.5 196.5 )" />
  </g>
</svg>