<?xml version="1.0" encoding="utf-8"?>
<svg version="1.1" xmlns:xlink="http://www.w3.org/1999/xlink" width="44px" height="6px" preserveAspectRatio="xMinYMid meet" viewBox="140 669  44 4" xmlns="http://www.w3.org/2000/svg">
  <g transform="matrix(-1 0 0 -1 324 1342 )">
    <path d="M 168.3 656.5  L 162 650.5  L 155.7 656.5  L 168.3 656.5  Z M 165.9 655.5  L 158.1 655.5  L 162 652  L 165.9 655.5  Z M 168.3 661.5  L 162 655.5  L 155.7 661.5  L 168.3 661.5  Z M 165.9 660.5  L 158.1 660.5  L 162 657  L 165.9 660.5  Z " fill-rule="nonzero" fill="#f20201" stroke="none" transform="matrix(6.12303176911189E-17 1 -1 6.12303176911189E-17 832.5 509.5 )" />
    <path d="M 162 661.5  L 162 690.5  " stroke-width="1" stroke="#f20201" fill="none" transform="matrix(6.12303176911189E-17 1 -1 6.12303176911189E-17 832.5 509.5 )" />
  </g>
</svg>