<?xml version="1.0" encoding="utf-8"?>
<svg version="1.1" xmlns:xlink="http://www.w3.org/1999/xlink" width="24.0000000082914px" height="20px" preserveAspectRatio="xMinYMid meet" viewBox="531.999999991709 661  24.0000000082914 18" xmlns="http://www.w3.org/2000/svg">
  <g transform="matrix(-1 0 0 -1 1087.99999999171 1340 )">
    <path d="M 536.3 656.5  L 530 650.5  L 523.7 656.5  L 536.3 656.5  Z M 533.9 655.5  L 526.1 655.5  L 530 652  L 533.9 655.5  Z M 536.3 661.5  L 530 655.5  L 523.7 661.5  L 536.3 661.5  Z M 533.9 660.5  L 526.1 660.5  L 530 657  L 533.9 660.5  Z " fill-rule="nonzero" fill="#f20201" stroke="none" transform="matrix(6.12303176911189E-17 1 -1 6.12303176911189E-17 1200.5 141.5 )" />
    <path d="M 530 661.5  L 530 690.5  " stroke-width="1" stroke="#f20201" fill="none" transform="matrix(6.12303176911189E-17 1 -1 6.12303176911189E-17 1200.5 141.5 )" />
  </g>
</svg>