<?xml version="1.0" encoding="utf-8"?>
<svg version="1.1" xmlns:xlink="http://www.w3.org/1999/xlink" width="44px" height="6px" preserveAspectRatio="xMinYMid meet" viewBox="780 583  44 4" xmlns="http://www.w3.org/2000/svg">
  <g transform="matrix(-1 0 0 -1 1604 1170 )">
    <path d="M 808.3 570.5  L 802 564.5  L 795.7 570.5  L 808.3 570.5  Z M 805.9 569.5  L 798.1 569.5  L 802 566  L 805.9 569.5  Z M 808.3 575.5  L 802 569.5  L 795.7 575.5  L 808.3 575.5  Z M 805.9 574.5  L 798.1 574.5  L 802 571  L 805.9 574.5  Z " fill-rule="nonzero" fill="#f20201" stroke="none" transform="matrix(6.12303176911189E-17 1 -1 6.12303176911189E-17 1386.5 -216.5 )" />
    <path d="M 802 575.5  L 802 604.5  " stroke-width="1" stroke="#f20201" fill="none" transform="matrix(6.12303176911189E-17 1 -1 6.12303176911189E-17 1386.5 -216.5 )" />
  </g>
</svg>