<?xml version="1.0" encoding="utf-8"?>
<svg version="1.1" xmlns:xlink="http://www.w3.org/1999/xlink" width="24.0000000082914px" height="20px" preserveAspectRatio="xMinYMid meet" viewBox="803.999999991709 533  24.0000000082914 18" xmlns="http://www.w3.org/2000/svg">
  <g transform="matrix(-1 0 0 -1 1631.99999999171 1084 )">
    <path d="M 808.3 527.5  L 802 521.5  L 795.7 527.5  L 808.3 527.5  Z M 805.9 526.5  L 798.1 526.5  L 802 523  L 805.9 526.5  Z M 808.3 532.5  L 802 526.5  L 795.7 532.5  L 808.3 532.5  Z M 805.9 531.5  L 798.1 531.5  L 802 528  L 805.9 531.5  Z " fill-rule="nonzero" fill="#f20201" stroke="none" transform="matrix(6.12303176911189E-17 1 -1 6.12303176911189E-17 1343.5 -259.5 )" />
    <path d="M 802 532.5  L 802 561.5  " stroke-width="1" stroke="#f20201" fill="none" transform="matrix(6.12303176911189E-17 1 -1 6.12303176911189E-17 1343.5 -259.5 )" />
  </g>
</svg>