<?xml version="1.0" encoding="utf-8"?>
<svg version="1.1" xmlns:xlink="http://www.w3.org/1999/xlink" width="44px" height="6px" preserveAspectRatio="xMinYMid meet" viewBox="780 669  44 4" xmlns="http://www.w3.org/2000/svg">
  <g transform="matrix(-1 0 0 -1 1604 1342 )">
    <path d="M 808.3 656.5  L 802 650.5  L 795.7 656.5  L 808.3 656.5  Z M 805.9 655.5  L 798.1 655.5  L 802 652  L 805.9 655.5  Z M 808.3 661.5  L 802 655.5  L 795.7 661.5  L 808.3 661.5  Z M 805.9 660.5  L 798.1 660.5  L 802 657  L 805.9 660.5  Z " fill-rule="nonzero" fill="#f20201" stroke="none" transform="matrix(6.12303176911189E-17 1 -1 6.12303176911189E-17 1472.5 -130.5 )" />
    <path d="M 802 661.5  L 802 690.5  " stroke-width="1" stroke="#f20201" fill="none" transform="matrix(6.12303176911189E-17 1 -1 6.12303176911189E-17 1472.5 -130.5 )" />
  </g>
</svg>