<?xml version="1.0" encoding="utf-8"?>
<svg version="1.1" xmlns:xlink="http://www.w3.org/1999/xlink" width="44px" height="6px" preserveAspectRatio="xMinYMid meet" viewBox="140 583  44 4" xmlns="http://www.w3.org/2000/svg">
  <g transform="matrix(-1 0 0 -1 324 1170 )">
    <path d="M 168.3 570.5  L 162 564.5  L 155.7 570.5  L 168.3 570.5  Z M 165.9 569.5  L 158.1 569.5  L 162 566  L 165.9 569.5  Z M 168.3 575.5  L 162 569.5  L 155.7 575.5  L 168.3 575.5  Z M 165.9 574.5  L 158.1 574.5  L 162 571  L 165.9 574.5  Z " fill-rule="nonzero" fill="#f20201" stroke="none" transform="matrix(6.12303176911189E-17 1 -1 6.12303176911189E-17 746.5 423.5 )" />
    <path d="M 162 575.5  L 162 604.5  " stroke-width="1" stroke="#f20201" fill="none" transform="matrix(6.12303176911189E-17 1 -1 6.12303176911189E-17 746.5 423.5 )" />
  </g>
</svg>