<?xml version="1.0" encoding="utf-8"?>
<svg version="1.1" xmlns:xlink="http://www.w3.org/1999/xlink" width="44px" height="6px" preserveAspectRatio="xMinYMid meet" viewBox="508 539  44 4" xmlns="http://www.w3.org/2000/svg">
  <g transform="matrix(-1 0 0 -1 1060 1082 )">
    <path d="M 536.3 527.5  L 530 521.5  L 523.7 527.5  L 536.3 527.5  Z M 533.9 526.5  L 526.1 526.5  L 530 523  L 533.9 526.5  Z M 536.3 532.5  L 530 526.5  L 523.7 532.5  L 536.3 532.5  Z M 533.9 531.5  L 526.1 531.5  L 530 528  L 533.9 531.5  Z " fill-rule="nonzero" fill="#f20201" stroke="none" transform="matrix(6.12303176911189E-17 1 -1 6.12303176911189E-17 1071.5 12.5 )" />
    <path d="M 530 532.5  L 530 561.5  " stroke-width="1" stroke="#f20201" fill="none" transform="matrix(6.12303176911189E-17 1 -1 6.12303176911189E-17 1071.5 12.5 )" />
  </g>
</svg>