<?xml version="1.0" encoding="utf-8"?>
<svg version="1.1" xmlns:xlink="http://www.w3.org/1999/xlink" width="46px" height="6px" preserveAspectRatio="xMinYMid meet" viewBox="968 625  46 4" xmlns="http://www.w3.org/2000/svg">
  <g transform="matrix(-1 0 0 -1 1982 1254 )">
    <path d="M 997.3 613.5  L 991 607.5  L 984.7 613.5  L 997.3 613.5  Z M 994.9 612.5  L 987.1 612.5  L 991 609  L 994.9 612.5  Z M 997.3 618.5  L 991 612.5  L 984.7 618.5  L 997.3 618.5  Z M 994.9 617.5  L 987.1 617.5  L 991 614  L 994.9 617.5  Z " fill-rule="nonzero" fill="#f20201" stroke="none" transform="matrix(6.12303176911189E-17 1 -1 6.12303176911189E-17 1618.5 -362.5 )" />
    <path d="M 991 618.5  L 991 647.5  " stroke-width="1" stroke="#f20201" fill="none" transform="matrix(6.12303176911189E-17 1 -1 6.12303176911189E-17 1618.5 -362.5 )" />
  </g>
</svg>