<?xml version="1.0" encoding="utf-8"?>
<svg version="1.1" xmlns:xlink="http://www.w3.org/1999/xlink" width="44px" height="6px" preserveAspectRatio="xMinYMid meet" viewBox="1156 539  44 4" xmlns="http://www.w3.org/2000/svg">
  <g transform="matrix(-1 0 0 -1 2356 1082 )">
    <path d="M 1184.3 527.5  L 1178 521.5  L 1171.7 527.5  L 1184.3 527.5  Z M 1181.9 526.5  L 1174.1 526.5  L 1178 523  L 1181.9 526.5  Z M 1184.3 532.5  L 1178 526.5  L 1171.7 532.5  L 1184.3 532.5  Z M 1181.9 531.5  L 1174.1 531.5  L 1178 528  L 1181.9 531.5  Z " fill-rule="nonzero" fill="#f20201" stroke="none" transform="matrix(6.12303176911189E-17 1 -1 6.12303176911189E-17 1719.5 -635.5 )" />
    <path d="M 1178 532.5  L 1178 561.5  " stroke-width="1" stroke="#f20201" fill="none" transform="matrix(6.12303176911189E-17 1 -1 6.12303176911189E-17 1719.5 -635.5 )" />
  </g>
</svg>