<?xml version="1.0" encoding="utf-8"?>
<svg version="1.1" xmlns:xlink="http://www.w3.org/1999/xlink" width="44px" height="6px" preserveAspectRatio="xMinYMid meet" viewBox="140 625  44 4" xmlns="http://www.w3.org/2000/svg">
  <g transform="matrix(-1 0 0 -1 324 1254 )">
    <path d="M 168.3 613.5  L 162 607.5  L 155.7 613.5  L 168.3 613.5  Z M 165.9 612.5  L 158.1 612.5  L 162 609  L 165.9 612.5  Z M 168.3 618.5  L 162 612.5  L 155.7 618.5  L 168.3 618.5  Z M 165.9 617.5  L 158.1 617.5  L 162 614  L 165.9 617.5  Z " fill-rule="nonzero" fill="#f20201" stroke="none" transform="matrix(6.12303176911189E-17 1 -1 6.12303176911189E-17 789.5 466.5 )" />
    <path d="M 162 618.5  L 162 647.5  " stroke-width="1" stroke="#f20201" fill="none" transform="matrix(6.12303176911189E-17 1 -1 6.12303176911189E-17 789.5 466.5 )" />
  </g>
</svg>