<?xml version="1.0" encoding="utf-8"?>
<svg version="1.1" xmlns:xlink="http://www.w3.org/1999/xlink" width="44px" height="6px" preserveAspectRatio="xMinYMid meet" viewBox="1156 669  44 4" xmlns="http://www.w3.org/2000/svg">
  <g transform="matrix(-1 0 0 -1 2356 1342 )">
    <path d="M 1184.3 656.5  L 1178 650.5  L 1171.7 656.5  L 1184.3 656.5  Z M 1181.9 655.5  L 1174.1 655.5  L 1178 652  L 1181.9 655.5  Z M 1184.3 661.5  L 1178 655.5  L 1171.7 661.5  L 1184.3 661.5  Z M 1181.9 660.5  L 1174.1 660.5  L 1178 657  L 1181.9 660.5  Z " fill-rule="nonzero" fill="#f20201" stroke="none" transform="matrix(6.12303176911189E-17 1 -1 6.12303176911189E-17 1848.5 -506.5 )" />
    <path d="M 1178 661.5  L 1178 690.5  " stroke-width="1" stroke="#f20201" fill="none" transform="matrix(6.12303176911189E-17 1 -1 6.12303176911189E-17 1848.5 -506.5 )" />
  </g>
</svg>