<?xml version="1.0" encoding="utf-8"?>
<svg version="1.1" xmlns:xlink="http://www.w3.org/1999/xlink" width="24.0000000082914px" height="20px" preserveAspectRatio="xMinYMid meet" viewBox="1179.99999999171 575  24.0000000082914 18" xmlns="http://www.w3.org/2000/svg">
  <g transform="matrix(-1 0 0 -1 2383.99999999171 1168 )">
    <path d="M 1184.3 570.5  L 1178 564.5  L 1171.7 570.5  L 1184.3 570.5  Z M 1181.9 569.5  L 1174.1 569.5  L 1178 566  L 1181.9 569.5  Z M 1184.3 575.5  L 1178 569.5  L 1171.7 575.5  L 1184.3 575.5  Z M 1181.9 574.5  L 1174.1 574.5  L 1178 571  L 1181.9 574.5  Z " fill-rule="nonzero" fill="#f20201" stroke="none" transform="matrix(6.12303176911189E-17 1 -1 6.12303176911189E-17 1762.5 -592.5 )" />
    <path d="M 1178 575.5  L 1178 604.5  " stroke-width="1" stroke="#f20201" fill="none" transform="matrix(6.12303176911189E-17 1 -1 6.12303176911189E-17 1762.5 -592.5 )" />
  </g>
</svg>