<?xml version="1.0" encoding="utf-8"?>
<svg version="1.1" xmlns:xlink="http://www.w3.org/1999/xlink" width="24.0000000082914px" height="20px" preserveAspectRatio="xMinYMid meet" viewBox="1179.99999999171 619  24.0000000082914 18" xmlns="http://www.w3.org/2000/svg">
  <g transform="matrix(-1 0 0 -1 2383.99999999171 1256 )">
    <path d="M 1184.3 613.5  L 1178 607.5  L 1171.7 613.5  L 1184.3 613.5  Z M 1181.9 612.5  L 1174.1 612.5  L 1178 609  L 1181.9 612.5  Z M 1184.3 618.5  L 1178 612.5  L 1171.7 618.5  L 1184.3 618.5  Z M 1181.9 617.5  L 1174.1 617.5  L 1178 614  L 1181.9 617.5  Z " fill-rule="nonzero" fill="#f20201" stroke="none" transform="matrix(6.12303176911189E-17 1 -1 6.12303176911189E-17 1805.5 -549.5 )" />
    <path d="M 1178 618.5  L 1178 647.5  " stroke-width="1" stroke="#f20201" fill="none" transform="matrix(6.12303176911189E-17 1 -1 6.12303176911189E-17 1805.5 -549.5 )" />
  </g>
</svg>