<?xml version="1.0" encoding="utf-8"?>
<svg version="1.1" xmlns:xlink="http://www.w3.org/1999/xlink" width="24.0000000082913px" height="20px" preserveAspectRatio="xMinYMid meet" viewBox="347.999999991709 575  24.0000000082913 18" xmlns="http://www.w3.org/2000/svg">
  <g transform="matrix(-1 0 0 -1 719.999999991709 1168 )">
    <path d="M 352.3 570.5  L 346 564.5  L 339.7 570.5  L 352.3 570.5  Z M 349.9 569.5  L 342.1 569.5  L 346 566  L 349.9 569.5  Z M 352.3 575.5  L 346 569.5  L 339.7 575.5  L 352.3 575.5  Z M 349.9 574.5  L 342.1 574.5  L 346 571  L 349.9 574.5  Z " fill-rule="nonzero" fill="#f20201" stroke="none" transform="matrix(6.12303176911189E-17 1 -1 6.12303176911189E-17 930.5 239.5 )" />
    <path d="M 346 575.5  L 346 604.5  " stroke-width="1" stroke="#f20201" fill="none" transform="matrix(6.12303176911189E-17 1 -1 6.12303176911189E-17 930.5 239.5 )" />
  </g>
</svg>