<?xml version="1.0" encoding="utf-8"?>
<svg version="1.1" xmlns:xlink="http://www.w3.org/1999/xlink" width="46px" height="6px" preserveAspectRatio="xMinYMid meet" viewBox="968 669  46 4" xmlns="http://www.w3.org/2000/svg">
  <g transform="matrix(-1 0 0 -1 1982 1342 )">
    <path d="M 997.3 656.5  L 991 650.5  L 984.7 656.5  L 997.3 656.5  Z M 994.9 655.5  L 987.1 655.5  L 991 652  L 994.9 655.5  Z M 997.3 661.5  L 991 655.5  L 984.7 661.5  L 997.3 661.5  Z M 994.9 660.5  L 987.1 660.5  L 991 657  L 994.9 660.5  Z " fill-rule="nonzero" fill="#f20201" stroke="none" transform="matrix(6.12303176911189E-17 1 -1 6.12303176911189E-17 1661.5 -319.5 )" />
    <path d="M 991 661.5  L 991 690.5  " stroke-width="1" stroke="#f20201" fill="none" transform="matrix(6.12303176911189E-17 1 -1 6.12303176911189E-17 1661.5 -319.5 )" />
  </g>
</svg>