<?xml version="1.0" encoding="utf-8"?>
<svg version="1.1" xmlns:xlink="http://www.w3.org/1999/xlink" width="26.0000000082914px" height="20px" preserveAspectRatio="xMinYMid meet" viewBox="991.999999991709 533  26.0000000082914 18" xmlns="http://www.w3.org/2000/svg">
  <g transform="matrix(-1 0 0 -1 2009.99999999171 1084 )">
    <path d="M 997.3 527.5  L 991 521.5  L 984.7 527.5  L 997.3 527.5  Z M 994.9 526.5  L 987.1 526.5  L 991 523  L 994.9 526.5  Z M 997.3 532.5  L 991 526.5  L 984.7 532.5  L 997.3 532.5  Z M 994.9 531.5  L 987.1 531.5  L 991 528  L 994.9 531.5  Z " fill-rule="nonzero" fill="#f20201" stroke="none" transform="matrix(6.12303176911189E-17 1 -1 6.12303176911189E-17 1532.5 -448.5 )" />
    <path d="M 991 532.5  L 991 561.5  " stroke-width="1" stroke="#f20201" fill="none" transform="matrix(6.12303176911189E-17 1 -1 6.12303176911189E-17 1532.5 -448.5 )" />
  </g>
</svg>