<?xml version="1.0" encoding="utf-8"?>
<svg version="1.1" xmlns:xlink="http://www.w3.org/1999/xlink" width="26.0000000082914px" height="20px" preserveAspectRatio="xMinYMid meet" viewBox="991.999999991709 575  26.0000000082914 18" xmlns="http://www.w3.org/2000/svg">
  <g transform="matrix(-1 0 0 -1 2009.99999999171 1168 )">
    <path d="M 997.3 570.5  L 991 564.5  L 984.7 570.5  L 997.3 570.5  Z M 994.9 569.5  L 987.1 569.5  L 991 566  L 994.9 569.5  Z M 997.3 575.5  L 991 569.5  L 984.7 575.5  L 997.3 575.5  Z M 994.9 574.5  L 987.1 574.5  L 991 571  L 994.9 574.5  Z " fill-rule="nonzero" fill="#f20201" stroke="none" transform="matrix(6.12303176911189E-17 1 -1 6.12303176911189E-17 1575.5 -405.5 )" />
    <path d="M 991 575.5  L 991 604.5  " stroke-width="1" stroke="#f20201" fill="none" transform="matrix(6.12303176911189E-17 1 -1 6.12303176911189E-17 1575.5 -405.5 )" />
  </g>
</svg>