<?xml version="1.0" encoding="utf-8"?>
<svg version="1.1" xmlns:xlink="http://www.w3.org/1999/xlink" width="28px" height="26px" xmlns="http://www.w3.org/2000/svg">
  <g transform="matrix(1 0 0 1 -640 -162 )">
    <path d="M 27.75 5.6875  C 27.75 6.25  27.375 6.625  27 7  C 25.125 5.875  22.875 5.125  20.8125 5.3125  C 18.1875 5.3125  15.9375 6.0625  13.875 7.375  L 1.875 7.375  C 0.75 7.375  0 6.625  0 5.5  L 0 2.6875  C 0 1.75  0.75 0.8125  1.875 1  L 25.875 1  C 27 0.8125  27.75 1.5625  27.75 2.6875  L 27.75 5.6875  Z M 1.875 9.625  L 11.625 9.625  C 10.125 11.5  9.375 13.9375  9.375 16.1875  L 1.875 16.1875  C 0.75 16.1875  0 15.4375  0 14.3125  L 0 11.5  C 0 10.5625  0.75 9.625  1.875 9.625  Z M 9.375 18.4375  L 9.375 18.625  C 9.9375 21.25  11.4375 23.6875  13.6875 25  L 1.875 25  C 0.75 25.1875  0 24.4375  0 23.3125  L 0 20.3125  C 0 19.375  0.75 18.4375  1.875 18.4375  L 9.375 18.4375  Z M 6 3.0625  L 3.1875 3.0625  C 2.625 3.0625  2.25 3.4375  2.25 4  L 2.25 4.375  C 2.25 4.9375  2.625 5.3125  3.1875 5.3125  L 6 5.3125  C 6.5625 5.3125  6.9375 4.9375  6.9375 4.375  L 6.9375 4  C 6.9375 3.4375  6.5625 3.0625  6 3.0625  Z M 6 11.875  L 3.1875 11.875  C 2.625 11.875  2.25 12.25  2.25 12.8125  L 2.25 13.1875  C 2.25 13.75  2.625 14.125  3.1875 14.125  L 6 14.125  C 6.5625 14.125  6.9375 13.75  6.9375 13.1875  L 6.9375 12.8125  C 6.9375 12.25  6.5625 11.875  6 11.875  Z M 6 20.6875  L 3.1875 20.6875  C 2.625 20.6875  2.25 21.0625  2.25 21.625  L 2.25 22  C 2.25 22.5625  2.625 22.9375  3.1875 22.9375  L 6 22.9375  C 6.5625 22.9375  6.9375 22.5625  6.9375 22  L 6.9375 21.625  C 6.9375 21.0625  6.5625 20.6875  6 20.6875  Z " fill-rule="nonzero" fill="#ffffff" stroke="none" transform="matrix(1 0 0 1 640 162 )" />
  </g>
</svg>