<?xml version="1.0" encoding="utf-8"?>
<svg version="1.1" xmlns:xlink="http://www.w3.org/1999/xlink" width="16px" height="16px" xmlns="http://www.w3.org/2000/svg">
  <g transform="matrix(1 0 0 1 -35 -96 )">
    <path d="M 10.2481102109375 11.9353267285156  C 10.2481101933594 12.2467663320313  9.997144296875 12.5007559296875  9.68570469335937 12.5007559296875  C 9.37426508984375 12.5007559296875  9.12329917578125 12.2497900332031  9.12329917578125 11.9383504121094  L 9.12329917578125 5.74886612304688  C 9.12329917578125 5.43742651953125  9.37426507226562 5.18646060546875  9.68570469335937 5.18646060546875  C 9.99714431445313 5.18646060546875  10.2481102109375 5.43742650195313  10.2481102109375 5.74886612304688  L 10.2481102109375 11.9353267285156  Z M 6.87367715820312 11.9353267285156  C 6.873677140625 12.2467663320313  6.62271124414063 12.5007559296875  6.31127162304688 12.5007559296875  C 5.99983201953125 12.5007559296875  5.74886610546875 12.2497900332031  5.74886610546875 11.9383504121094  L 5.74886612304688 5.74886612304688  C 5.74886612304688 5.43742651953125  5.99983201953125 5.18646060546875  6.311271640625 5.18646060546875  C 6.62271124414062 5.18646060546875  6.87367715820312 5.43742650195313  6.87367715820312 5.74886612304688  L 6.87367715820312 11.9353267285156  Z M 15.8751889824219 3.49924408789063  C 15.8751889824219 3.18780446679688  15.6242230859375 2.9368385703125  15.3127834648438 2.9368385703125  L 12.5007559121094 2.9368385703125  L 12.5007559296875 1.81202755273437  C 12.5007559296875 0.880732408203125  11.7508819238281 0.124811017578125  10.8256341464844 0.124811017578125  L 5.18646060546875 0.124811017578125  C 4.2551654609375 0.124811017578125  3.4992440703125 0.880732408203125  3.4992440703125 1.81202755273437  L 3.4992440703125 2.9368385703125  L 0.687216517578125 2.9368385703125  C 0.3757769140625 2.9368385703125  0.124811 3.18780446679687  0.124811 3.49924408789063  C 0.124811 3.81068370898437  0.375776896484375 4.06164960546875  0.687216517578125 4  L 15.3127834648438 4  C 15.6242230683594 4.06164960546875  15.8751889824219 3.81068370898437  15.8751889824219 3.49924408789063  Z M 4.62405510546875 1.81202755273437  C 4.62405510546875 1.5036116328125  4.87804468554687 1.24962203515625  5.18646062304687 1.24962203515625  L 10.8256341464844 1.24962203515625  C 11.1340500664062 1.24962203515625  11.3759449121094 1.49756424804687  11.3759449121094 1.81202755273437  L 11.3759449121094 2.9368385703125  L 4.62405510546875 2.9368385703125  L 4.62405510546875 1.81202755273437  Z M 13.6285906484375 14.1879724472656  C 13.6255669472656 15.1162439082031  12.8696455566406 15.8751889824219  11.9383504121094 15.8751889824219  L 4.06467327148437 15.8751889824219  C 3.13337812695312 15.8751889824219  2.37745673632812 15.1192675917969  2.37745673632812 14.1879724472656  L 2.37745673632812 5.74281873828125  C 2.37745673632812 5.43137913476563  2.6284226328125 5.18041322070313  2.93986225390625 5.18041322070313  C 3.251301875 5.18041322070313  3.50226777148437 5.4313791171875  3.50226777148437 5.74281873828125  L 3.50226777148437 14.1879724472656  C 3.50226777148437 14.4994120507812  3.7562573515625 14.7503779648438  4.0646732890625 14.7503779648438  L 11.9413741132812 14.7503779648438  C 12.2528137167969 14.7503779648438  12.5037796308594 14.4994120683594  12.5037796308594 14.1879724472656  L 12.5037796132812 5.76398454101563  C 12.5037796132812 5.4525449375  12.7547455097656 5.2015790234375  13.0661851308594 5.2015790234375  C 13.3776247519531 5.2015790234375  13.6285906484375 5.45254491992188  13.6285906484375 5.76398454101563  L 13.6285906484375 14.1879724472656  Z " fill-rule="nonzero" fill="#0a92fa" stroke="none" transform="matrix(1 0 0 1 35 96 )" />
  </g>
</svg>