<?xml version="1.0" encoding="utf-8"?>
<svg version="1.1" xmlns:xlink="http://www.w3.org/1999/xlink" width="20px" height="20px" xmlns="http://www.w3.org/2000/svg">
  <g transform="matrix(1 0 0 1 -650 -168 )">
    <path d="M 20 10  C 20 15.0625  15.6875 19.1875  10.4375 19.1875  C 5.1875 19.1875  0.875000000000002 15.0625  0.875000000000002 10  C 0.875000000000002 4.9375  5 0.8125  10.4375 0.8125  C 15.875 0.8125  20 4.9375  20 10  Z M 3.6875 9.8125  C 3.6875 13.5625  6.6875 16.375  10.4375 16.375  C 14.1875 16.375  17.1875 13.5625  17.1875 9.8125  C 17.1875 6.0625  14.1875 3.25  10.4375 3.25  C 6.6875 3.25  3.6875 6.25  3.6875 9.8125  Z " fill-rule="nonzero" fill="#ffffff" stroke="none" transform="matrix(1 0 0 1 650 168 )" />
  </g>
</svg>