<?xml version="1.0" encoding="utf-8"?>
<svg version="1.1" xmlns:xlink="http://www.w3.org/1999/xlink" width="3px" height="12px" xmlns="http://www.w3.org/2000/svg">
  <g transform="matrix(1 0 0 1 -659 -172 )">
    <path d="M 2.75 9.75  C 2.75 10.125  2.75 10.5  2.375 10.6875  C 2.1875 10.875  1.8125 11.0625  1.4375 11.0625  C 1.0625 11.0625  0.6875 10.875  0.5 10.6875  C 0.125000000000004 10.5  0.125000000000004 10.125  0.125000000000004 9.75  C 0.125000000000004 9.375  0.3125 9  0.5 8.8125  C 0.875 8.4375  1.0625 8.4375  1.4375 8.4375  C 1.8125 8.4375  2.1875 8.625  2.375 8.8125  C 2.75 9  2.75 9.375  2.75 9.75  Z M 0.125 2.4375  C -0.0625 1.875  0.125 1.5  0.3125 1.3125  C 0.5 0.937499999999998  0.875000000000004 0.937499999999998  1.4375 0.937499999999998  C 1.8125 0.937499999999998  2.1875 1.125  2.5625 1.3125  C 2.75 1.6875  2.9375 1.875  2.9375 2.4375  C 2.9375 2.8125  2.375 5.625  2.1875 7.5  L 0.875 7.5  C 0.6875 5.4375  0.125 2.8125  0.125 2.4375  Z " fill-rule="nonzero" fill="#ffffff" stroke="none" transform="matrix(1 0 0 1 659 172 )" />
  </g>
</svg>