<?xml version="1.0" encoding="utf-8"?>
<svg version="1.1" xmlns:xlink="http://www.w3.org/1999/xlink" width="60px" height="60px" xmlns="http://www.w3.org/2000/svg">
  <g transform="matrix(1 0 0 1 0 -226 )">
    <path d="M 1 230  A 3 3 0 0 1 4 227 L 56 227  A 3 3 0 0 1 59 230 L 59 282  A 3 3 0 0 1 56 285 L 4 285  A 3 3 0 0 1 1 282 L 1 230  Z " fill-rule="nonzero" fill="#ffffff" stroke="none" />
    <path d="M 0.5 230  A 3.5 3.5 0 0 1 4 226.5 L 56 226.5  A 3.5 3.5 0 0 1 59.5 230 L 59.5 282  A 3.5 3.5 0 0 1 56 285.5 L 4 285.5  A 3.5 3.5 0 0 1 0.5 282 L 0.5 230  Z " stroke-width="1" stroke-dasharray="3,1" stroke="#000000" fill="none" stroke-opacity="0.149019607843137" stroke-dashoffset="0.5" />
  </g>
</svg>