<?xml version="1.0" encoding="utf-8"?>
<svg version="1.1" xmlns:xlink="http://www.w3.org/1999/xlink" width="26px" height="28px" xmlns="http://www.w3.org/2000/svg">
  <g transform="matrix(1 0 0 1 -977 -161 )">
    <path d="M 25 7  L 25 28  L 1 28  L 1 0  L 18.25 0  L 18.25 0.5635  L 18.79425 0.01925  L 25.23075 6.45575  L 24.6865 7  L 25 7  Z M 21.225 7  L 18.25 4.025  L 18.25 7  L 21.225 7  Z M 21.75 24  L 21.75 10.5  L 14.75 10.5  L 14.75 17.5  L 11.25 17.5  L 11.25 8.75  L 14.75 8.75  L 14.75 4  L 4.25 4  L 4.25 24  L 21.75 24  Z M 14.75 19.25  L 14.75 22.75  L 11.25 22.75  L 11.25 19.25  L 14.75 19.25  Z " fill-rule="nonzero" fill="#ffffff" stroke="none" transform="matrix(1 0 0 1 977 161 )" />
  </g>
</svg>