<?xml version="1.0" encoding="utf-8"?>
<svg version="1.1" xmlns:xlink="http://www.w3.org/1999/xlink" width="89px" height="86px" xmlns="http://www.w3.org/2000/svg">
  <g transform="matrix(1 0 0 1 -56 -205 )">
    <path d="M 10.2353041075878 19.3151464686475  C 10.2353041075878 19.3151464686475  7.13157518089161 17.3073617910763  7.13157518089161 17.3073617910763  C 2.14413349323912 25.0238509895782  -0.334335893092877 34.0952837656424  0.0362458173104258 43.2769406867255  C 0.406827527713728 52.4585976078086  3.60830214211913 61.3005888775207  9.20138503906978 68.5896675040733  C 14.7944679360204 75.8787461306258  22.5051011383139 81.2577544851813  31.2752853071358 83.988626050227  C 40.0454694759576 86.7194976152727  49.4454714454553 86.6684184650378  58.1854861350363 83.8423989862368  C 66.9255008246173 81.0163795074359  74.5772756474247 75.5538917130826  80.0908836388191 68.2044609342092  C 85.6044916302135 60.8550301553359  88.7097713203563 51.978774311669  88.9806366016594 42.7936311596913  C 89.2515018829625 33.6084880077136  86.6746794004943 24.5645233727151  81.6037464089349 16.902689955008  C 76.5328134173755 9.24085653730086  69.2162421559772 3.33657866116592  60.6579586437203 0  C 60.6579586437203 0  59.3159179732287 3.44529153367889  59.3159179732287 3.44529153367889  C 67.1633709798137 6.50474226870688  73.8722520631721 11.9186267664573  78.5220058684602 18.9440870886313  C 83.1717596737483 25.9695474108054  85.5345550597925 34.2623433013299  85.2861871733452 42.6845905585762  C 85.0378192868979 51.1068378158225  82.1904528963874 59.2458545732146  77.1347915645664 65.9848595842527  C 72.0791302327453 72.7238645952908  65.0628971623889 77.7326531656668  57.0488058243297 80.3239505096418  C 49.0347144862706 82.9152478536167  40.4154530539044 82.9620784581009  32.3736984920634 80.4580263320685  C 24.3319439302224 77.9539742060361  17.2617362452982 73.021735547547  12.1332013398413 66.3380699200502  C 7.00466643438452 59.6544042925535  4.06909781357307 51.5468070241333  3.72929572519991 43.1277559555834  C 3.38949363682675 34.7087048870335  5.66210696519823 26.3907230295813  10.2353041075878 19.3151464686475  Z " fill-rule="nonzero" fill="#ed7735" stroke="none" transform="matrix(1 0 0 1 56 205 )" />
  </g>
</svg>