<?xml version="1.0" encoding="utf-8"?>
<svg version="1.1" xmlns:xlink="http://www.w3.org/1999/xlink" width="89px" height="89px" xmlns="http://www.w3.org/2000/svg">
  <g transform="matrix(1 0 0 1 -190 -202 )">
    <path d="M 10.2353654855184 22.3439311498075  C 10.2353654855184 22.3439311498075  7.13164108187887 20.3370142285563  7.13164108187887 20.3370142285563  C 1.45051421388054 29.122975629069  -0.953176026511308 39.6297699228677  0.342771568328333 50.0119142792532  C 1.63871916316797 60.3940586356387  6.55142471519262 69.9875838793634  14.2179874797564 77.1074203624492  C 21.8845502443202 84.227256845535  31.8146732378786 88.4180756224125  42.2641601748346 88.9437637618348  C 52.7136471117905 89.469451901257  63.0142275962785 86.2963952618827  71.3566357788158 79.9819306027201  C 79.6990439613532 73.6674659435576  85.5497629191145 64.6154176246981  87.8811283220813 54.4157549402019  C 90.2124937250481 44.2160922557056  88.8754060020344 33.5211075984959  84.1047294621337 24.2093419487727  C 79.3340529222331 14.8975762990495  71.4348827149763 7.56454007172399  61.7946786007337 3.49826036767748  C 52.1544744864912 -0.568019336369031  41.389753905729 -1.10749449987373  31.3913093244414 1.97459214692252  C 31.3913093244414 1.97459214692252  32.4800849998817 5.50664666187587  32.4800849998817 5.50664666187587  C 41.6480838079837 2.68055038863173  51.5187133618244 3.17521837951915  60.3582262905399 6.90376308119026  C 69.1977392192554 10.6323077828614  76.4408245833329 17.3562790291883  80.815260614527 25.8946323722416  C 85.189696645721 34.4329857152948  86.4157282313174 44.2396737483985  84.2780003442651 53.5921774829423  C 82.1402724572129 62.9446812174861  76.7754955068944 71.2448869474328  69.1259877477277 77.0348877459471  C 61.4764799885611 82.8248885444614  52.031445942232 85.7344004618857  42.4498669487309 85.2523746692574  C 32.8682879552298 84.770348876629  23.7629359055664 80.9276121651148  16.7331389598393 74.399131655336  C 9.70334201411213 67.8706511455573  5.19867220313305 59.0739375494946  4.01036290202983 49.5541088811764  C 2.8220536009266 40.0342802128583  5.02609917098627 30.4001518291593  10.2353654855184 22.3439311498075  Z " fill-rule="nonzero" fill="#2cbeff" stroke="none" transform="matrix(1 0 0 1 190 202 )" />
  </g>
</svg>