<?xml version="1.0" encoding="utf-8"?>
<svg version="1.1" xmlns:xlink="http://www.w3.org/1999/xlink" width="89px" height="89px" xmlns="http://www.w3.org/2000/svg">
  <g transform="matrix(1 0 0 1 -56 -202 )">
    <path d="M 44.5 0  C 69.0766716003418 0  89 19.9233283996582  89 44.5  C 89 69.0766716003418  69.0766716003418 89  44.5 89  C 19.9233283996582 89  0 69.0766716003418  0 44.5  C 0 19.9233283996582  19.9233283996582 0  44.5 0  Z M 44.5 3.69606018066406  C 21.9646072387695 3.69606018066406  3.69606018066406 21.9646072387695  3.69606018066406 44.5  C 3.69606018066406 67.0353927612305  21.9646072387695 85.3039398193359  44.5 85.3039398193359  C 67.0353927612305 85.3039398193359  85.3039398193359 67.0353927612305  85.3039398193359 44.5  C 85.3039398193359 21.9646072387695  67.0353927612305 3.69606018066406  44.5 3.69606018066406  Z " fill-rule="nonzero" fill="#044ba9" stroke="none" transform="matrix(1 0 0 1 56 202 )" />
  </g>
</svg>