<?xml version="1.0" encoding="utf-8"?>
<svg version="1.1" xmlns:xlink="http://www.w3.org/1999/xlink" width="86px" height="69px" xmlns="http://www.w3.org/2000/svg">
  <g transform="matrix(1 0 0 1 -325 -222 )">
    <path d="M 10.2110987490468 2.01676836966638  C 10.2110987490468 2.01676836966638  7.11470567189526 0  7.11470567189526 0  C 3.72824113626419 5.27539622148102  1.48325221272568 11.2103271215814  0.526022714791629 17.4180686428892  C -0.431206783142418 23.6258101641971  -0.079195344411281 29.9670558157652  1.55911955044489 36.0286069817583  C 3.19743444530107 42.0901581477513  6.08528785734439 47.7359892657567  10.0345057361316 52.5982132261665  C 13.9837236149188 57.4604371865762  18.9056820466835 61.4299409536616  24.4796638682832 64.2480731229908  C 30.0536456898828 67.06620529232  36.1545641838359 68.6697201503755  42.3848843215236 68.9541369604378  C 48.6152044592113 69.2385537705  54.8351103567213 68.1974916848115  60.6393100605156 65.8987783723098  C 66.4435097643099 63.600065059808  71.7017553428191 60.0952901807441  76.0714101119896 55.6128263907315  C 80.4410648811602 51.1303626007189  83.8240752875235 45.7707974089079  86 39.8833678563381  C 86 39.8833678563381  82.5443751004522 38.5875223171725  82.5443751004522 38.5875223171725  C 80.5491773195436 43.9859564733467  77.4471525512563 48.9003666999785  73.4404301514554 53.0105282386401  C 69.4337077516545 57.1206897773016  64.612199975325 60.3343686206887  59.2900827372283 62.4421565222145  C 53.9679654991316 64.5499444237403  48.264669088701 65.5045403620295  42.5518242300315 65.2437465249212  C 36.838979371362 64.982952687813  31.2447865408008 63.5126223486066  26.1337660272182 60.928557380634  C 21.0227455136357 58.3444924126614  16.5095926284089 54.7046824311351  12.888387161268 50.2463025828585  C 9.26718169412715 45.787922734582  6.61918606773719 40.6110224123413  5.11694547984477 35.0529286997172  C 3.61470489195235 29.494834987093  3.29193058099927 23.6802763570974  4.16965492847802 17.9881346477187  C 5.04737927595677 12.2959929383399  7.10590575311552 6.8540032219897  10.2110987490468 2.01676836966638  Z " fill-rule="nonzero" fill="#2cbeff" stroke="none" transform="matrix(1 0 0 1 325 222 )" />
  </g>
</svg>