<?xml version="1.0" encoding="utf-8"?>
<svg version="1.1" xmlns:xlink="http://www.w3.org/1999/xlink" width="122px" height="94px" xmlns="http://www.w3.org/2000/svg">
  <defs>
    <mask fill="white" id="clip65">
      <path d="M 0 17.3699886171635  C 0 17.3699886171635  0 0  0 0  C 22.9647055679869 0  45.4631009504029 3.07613978980428  64.9078785164641 8.8746616094453  C 84.3526382684484 14.6731845334405  99.9541178005485 22.9586102638391  109.918136723479 32.7781075749953  C 119.882155646409 42.5976070948597  123.804049387922 53.5524069609838  121.232818961596 64.3826975245456  C 118.661588535269 75.2129925055239  109.701642246171 85.4789536888389  95.383381933883 94  C 95.383381933883 94  66.7683807142759 83.1699877336802  66.7683807142759 83.1699877336802  C 76.7911504630236 77.2052561993507  83.0631128653921 70.0190824875469  84.8629759452284 62.4378768843454  C 86.6628390250648 54.8566756985604  83.9175116245978 47.1883144670486  76.9426948157313 40.314664140531  C 69.9678958209417 33.4410160227217  59.0468512414331 27.641217569701  45.4355247592672 23.5822522959522  C 31.8241804630244 19.5232870222035  16.0752983511101 17.3699886171635  0 17.3699886171635  Z " fill-rule="evenodd" />
    </mask>
  </defs>
  <g transform="matrix(1 0 0 1 -1479 -535 )">
    <path d="M 0 17.3699886171635  C 0 17.3699886171635  0 0  0 0  C 22.9647055679869 0  45.4631009504029 3.07613978980428  64.9078785164641 8.8746616094453  C 84.3526382684484 14.6731845334405  99.9541178005485 22.9586102638391  109.918136723479 32.7781075749953  C 119.882155646409 42.5976070948597  123.804049387922 53.5524069609838  121.232818961596 64.3826975245456  C 118.661588535269 75.2129925055239  109.701642246171 85.4789536888389  95.383381933883 94  C 95.383381933883 94  66.7683807142759 83.1699877336802  66.7683807142759 83.1699877336802  C 76.7911504630236 77.2052561993507  83.0631128653921 70.0190824875469  84.8629759452284 62.4378768843454  C 86.6628390250648 54.8566756985604  83.9175116245978 47.1883144670486  76.9426948157313 40.314664140531  C 69.9678958209417 33.4410160227217  59.0468512414331 27.641217569701  45.4355247592672 23.5822522959522  C 31.8241804630244 19.5232870222035  16.0752983511101 17.3699886171635  0 17.3699886171635  Z " fill-rule="nonzero" fill="#93dbff" stroke="none" transform="matrix(1 0 0 1 1479 535 )" />
    <path d="M 0 17.3699886171635  C 0 17.3699886171635  0 0  0 0  C 22.9647055679869 0  45.4631009504029 3.07613978980428  64.9078785164641 8.8746616094453  C 84.3526382684484 14.6731845334405  99.9541178005485 22.9586102638391  109.918136723479 32.7781075749953  C 119.882155646409 42.5976070948597  123.804049387922 53.5524069609838  121.232818961596 64.3826975245456  C 118.661588535269 75.2129925055239  109.701642246171 85.4789536888389  95.383381933883 94  C 95.383381933883 94  66.7683807142759 83.1699877336802  66.7683807142759 83.1699877336802  C 76.7911504630236 77.2052561993507  83.0631128653921 70.0190824875469  84.8629759452284 62.4378768843454  C 86.6628390250648 54.8566756985604  83.9175116245978 47.1883144670486  76.9426948157313 40.314664140531  C 69.9678958209417 33.4410160227217  59.0468512414331 27.641217569701  45.4355247592672 23.5822522959522  C 31.8241804630244 19.5232870222035  16.0752983511101 17.3699886171635  0 17.3699886171635  Z " stroke-width="2" stroke="#ffffff" fill="none" stroke-opacity="0.4" transform="matrix(1 0 0 1 1479 535 )" mask="url(#clip65)" />
  </g>
</svg>