<?xml version="1.0" encoding="utf-8"?>
<svg version="1.1" xmlns:xlink="http://www.w3.org/1999/xlink" width="122px" height="94px" xmlns="http://www.w3.org/2000/svg">
  <g transform="matrix(1 0 0 1 -1479 -569 )">
    <path d="M 0 17.3699886171635  C 0 17.3699886171635  0 13.0274909106955  0 8.68499375640467  C 0 4.3424966021138  0 0  0 0  C 22.9647011144676 0  45.4631054039222 3.07613923762722  64.9078740629449 8.8746616094453  C 84.3526427219676 14.6731839812634  99.9541255942072 22.958609159485  109.918136723479 32.7781075749953  C 117.893737242219 40.6380344921282  121.99812930188 49.2253558557979  122 57.893980875218  C 122.000466386913 60.0551704427276  121.745931667966 62.2214128445362  121.232818961596 64.3826975245456  C 118.661588813614 75.2129891924615  109.701638906032 85.4789581062554  95.383381933883 94  C 95.383381933883 94  66.7683718072374 83.1699877336802  66.7683718072374 83.1699877336802  C 76.7911515764035 77.205258408059  83.0631148138067 70.0190813831927  84.8629759452284 62.4378768843454  C 85.2214913070727 60.9277724111519  85.3996668945379 59.4142095149413  85.3999991092962 57.9041586029234  C 85.40133471833 51.8332737882815  82.5281867521966 45.8191472543923  76.9426948157313 40.314664140531  C 69.9678869139032 33.4410149183676  59.0468501280533 27.6412178457895  45.4355113987095 23.5822522959522  C 31.8241726693657 19.523286746115  16.075293270667 17.3699882836816  0 17.3699886171635  Z " fill-rule="nonzero" fill="#7cd2f5" stroke="none" transform="matrix(1 0 0 1 1479 569 )" />
  </g>
</svg>