<?xml version="1.0" encoding="utf-8"?>
<svg version="1.1" xmlns:xlink="http://www.w3.org/1999/xlink" width="154px" height="65px" xmlns="http://www.w3.org/2000/svg">
  <defs>
    <linearGradient gradientUnits="userSpaceOnUse" x1="77" y1="0" x2="77" y2="65" id="LinearGradient27">
      <stop id="Stop28" stop-color="#04051a" offset="0" />
      <stop id="Stop29" stop-color="#04051a" offset="0.02" />
      <stop id="Stop30" stop-color="#053a4f" offset="0.16" />
      <stop id="Stop31" stop-color="#66ffff" offset="0.49" />
      <stop id="Stop32" stop-color="#053d53" offset="0.83" />
      <stop id="Stop33" stop-color="#04051a" offset="0.99" />
      <stop id="Stop34" stop-color="#04051a" offset="1" />
    </linearGradient>
    <linearGradient gradientUnits="userSpaceOnUse" x1="0" y1="32.5" x2="154" y2="32.5" id="LinearGradient35">
      <stop id="Stop36" stop-color="#04051a" offset="0" />
      <stop id="Stop37" stop-color="#04051a" offset="0.02" />
      <stop id="Stop38" stop-color="#053a4f" offset="0.16" />
      <stop id="Stop39" stop-color="#66ffff" offset="0.49" />
      <stop id="Stop40" stop-color="#053d53" offset="0.83" />
      <stop id="Stop41" stop-color="#04051a" offset="0.99" />
      <stop id="Stop42" stop-color="#04051a" offset="1" />
    </linearGradient>
    <mask fill="white" id="clip43">
      <path d="M 154 11.7061611374408  L 150.678431372549 0  L 148 11.7061611374408  L 148 26.4928909952606  L 143.43137254902 26.4928909952606  L 143.43137254902 29  L 0 29  L 143.43137254902 33.2701421800948  L 143.43137254902 35.4265402843601  L 148 35.4265402843601  L 148 53.2938388625592  L 150.678431372549 65  L 154 53.2938388625592  L 154 11.7061611374408  Z " fill-rule="evenodd" />
    </mask>
  </defs>
  <g transform="matrix(1 0 0 1 -1189 -27 )">
    <path d="M 154 11.7061611374408  L 150.678431372549 0  L 148 11.7061611374408  L 148 26.4928909952606  L 143.43137254902 26.4928909952606  L 143.43137254902 29  L 0 29  L 143.43137254902 33.2701421800948  L 143.43137254902 35.4265402843601  L 148 35.4265402843601  L 148 53.2938388625592  L 150.678431372549 65  L 154 53.2938388625592  L 154 11.7061611374408  Z " fill-rule="nonzero" fill="url(#LinearGradient27)" stroke="none" transform="matrix(1 0 0 1 1189 27 )" />
    <path d="M 154 11.7061611374408  L 150.678431372549 0  L 148 11.7061611374408  L 148 26.4928909952606  L 143.43137254902 26.4928909952606  L 143.43137254902 29  L 0 29  L 143.43137254902 33.2701421800948  L 143.43137254902 35.4265402843601  L 148 35.4265402843601  L 148 53.2938388625592  L 150.678431372549 65  L 154 53.2938388625592  L 154 11.7061611374408  Z " stroke-width="2" stroke="url(#LinearGradient35)" fill="none" transform="matrix(1 0 0 1 1189 27 )" mask="url(#clip43)" />
  </g>
</svg>