<?xml version="1.0" encoding="utf-8"?>
<svg version="1.1" xmlns:xlink="http://www.w3.org/1999/xlink" width="180px" height="180px" xmlns="http://www.w3.org/2000/svg">
  <defs>
    <linearGradient gradientUnits="userSpaceOnUse" x1="144" y1="812" x2="87.3952941176469" y2="968.315789473684" id="LinearGradient69">
      <stop id="Stop70" stop-color="#3aa1ff" offset="0" />
      <stop id="Stop71" stop-color="#3aa1ff" offset="0.59" />
      <stop id="Stop72" stop-color="#f2f2f2" offset="1" />
    </linearGradient>
  </defs>
  <g transform="matrix(1 0 0 1 -54 -812 )">
    <path d="M 143.554617066563 812.501108196567  C 143.703076637503 812.500369401283  143.851538074876 812.5  144 812.5  C 193.429485109856 812.5  233.5 852.570514890144  233.5 902  C 233.5 951.429485109856  193.429485109856 991.5  144 991.5  C 118.330540323224 991.5  93.9052833841388 980.478768663919  76.9220531212663 961.252000176465  L 144.328918081823 902.376580529834  A 0.5 0.5 0 0 0 144.499972106084 901.994718604513 L 143.554617066563 812.501108196567  Z " fill-rule="nonzero" fill="url(#LinearGradient69)" stroke="none" />
    <path d="M 143.554617066563 812.501108196567  C 143.703076637503 812.500369401283  143.851538074876 812.5  144 812.5  C 193.429485109856 812.5  233.5 852.570514890144  233.5 902  C 233.5 951.429485109856  193.429485109856 991.5  144 991.5  C 118.330540323224 991.5  93.9052833841388 980.478768663919  76.9220531212663 961.252000176465  L 144.328918081823 902.376580529834  A 0.5 0.5 0 0 0 144.499972106084 901.994718604513 L 143.554617066563 812.501108196567  Z " stroke-width="1" stroke="#797979" fill="none" />
  </g>
</svg>