<?xml version="1.0" encoding="utf-8"?>
<svg version="1.1" xmlns:xlink="http://www.w3.org/1999/xlink" width="140px" height="140px" xmlns="http://www.w3.org/2000/svg">
  <defs>
    <linearGradient gradientUnits="userSpaceOnUse" x1="144" y1="832" x2="99.9741176470587" y2="953.578947368421" id="LinearGradient73">
      <stop id="Stop74" stop-color="#17eecb" offset="0" />
      <stop id="Stop75" stop-color="#80ffff" offset="0.59" />
      <stop id="Stop76" stop-color="#ffffff" offset="1" />
    </linearGradient>
  </defs>
  <g transform="matrix(1 0 0 1 -74 -832 )">
    <path d="M 142.948962666317 832.507947788807  C 143.299281020745 832.502649374708  143.649636814718 832.5  144 832.5  C 182.38379011324 832.5  213.5 863.61620988676  213.5 902  C 213.5 940.38379011324  182.38379011324 971.5  144 971.5  C 133.377168952255 971.5  122.897970560486 969.064942062298  113.366672928598 964.384688131552  L 144.4472135955 902.22360679775  A 0.5 0.5 0 0 0 144.499875484984 901.988842065067 L 142.948962666317 832.507947788807  Z " fill-rule="nonzero" fill="url(#LinearGradient73)" stroke="none" />
    <path d="M 142.948962666317 832.507947788807  C 143.299281020745 832.502649374708  143.649636814718 832.5  144 832.5  C 182.38379011324 832.5  213.5 863.61620988676  213.5 902  C 213.5 940.38379011324  182.38379011324 971.5  144 971.5  C 133.377168952255 971.5  122.897970560486 969.064942062298  113.366672928598 964.384688131552  L 144.4472135955 902.22360679775  A 0.5 0.5 0 0 0 144.499875484984 901.988842065067 L 142.948962666317 832.507947788807  Z " stroke-width="1" stroke="#797979" fill="none" />
  </g>
</svg>