<?xml version="1.0" encoding="utf-8"?>
<svg version="1.1" xmlns:xlink="http://www.w3.org/1999/xlink" width="100px" height="100px" xmlns="http://www.w3.org/2000/svg">
  <defs>
    <linearGradient gradientUnits="userSpaceOnUse" x1="144" y1="852" x2="112.552941176471" y2="938.842105263158" id="LinearGradient77">
      <stop id="Stop78" stop-color="#f6c022" offset="0" />
      <stop id="Stop79" stop-color="#facd91" offset="0.58" />
      <stop id="Stop80" stop-color="#ffff00" offset="0.8" />
      <stop id="Stop81" stop-color="#ffffff" offset="1" />
    </linearGradient>
  </defs>
  <g transform="matrix(1 0 0 1 -94 -852 )">
    <path d="M 142.972789307421 852.510659347764  C 143.315142299288 852.503553400317  143.657564296723 852.5  144 852.5  C 171.338095116624 852.5  193.5 874.661904883376  193.5 902  C 193.5 926.288832039644  175.883357551556 946.962243146503  151.958407347968 950.856087198705  L 144.498831389903 901.954422820168  L 142.972789307421 852.510659347764  Z " fill-rule="nonzero" fill="url(#LinearGradient77)" stroke="none" />
    <path d="M 142.972789307421 852.510659347764  C 143.315142299288 852.503553400317  143.657564296723 852.5  144 852.5  C 171.338095116624 852.5  193.5 874.661904883376  193.5 902  C 193.5 926.288832039644  175.883357551556 946.962243146503  151.958407347968 950.856087198705  L 144.498831389903 901.954422820168  L 142.972789307421 852.510659347764  Z " stroke-width="1" stroke="#797979" fill="none" />
  </g>
</svg>