<?xml version="1.0" encoding="utf-8"?>
<svg version="1.1" xmlns:xlink="http://www.w3.org/1999/xlink" width="203px" height="50px" xmlns="http://www.w3.org/2000/svg">
  <g transform="matrix(1 0 0 1 -1371 -636 )">
    <path d="M 39.6541749623843 39.9418868084513  C 39.6541749623843 39.9418868084513  39.6541749623843 21.4188689677589  39.6541749623843 21.4188689677589  C 22.8897492793491 15.9705419687737  9.25653517320952 8.60667506781123  0 0  C 0 0  0 18.5230178406924  0 18.5230178406924  C 9.25653517320952 27.1296923564747  22.8897492793491 34.4935598094661  39.6541749623843 39.9418868084513  Z M 203 28.2058705849829  C 203 28.2058705849829  203 9.68285274429048  203 9.68285274429048  C 190.349352300763 17.244581725457  173.925429730839 23.1747582334014  155.228637577195 26.9316265775883  C 155.228637577195 26.9316265775883  155.228637577195 45.4546466263965  155.228637577195 45.4546466263965  C 173.925429730839 41.6977760740938  190.349352300763 35.7675984620915  203 28.2058705849829  Z M 39.6541749623843 39.9418868084513  C 39.6541749623843 39.9418868084513  39.6541749623843 21.4188689677589  39.6541749623843 21.4188689677589  C 56.4186006454195 26.867195966744  75.7799089117538 30.2262943312368  95.9691361308266 31.1892955845633  C 116.158283559028 32.1522747567319  136.53191634877 30.6884816730805  155.228637577195 26.9316265775883  C 155.228637577195 26.9316265775883  155.228637577195 45.4546466263965  155.228637577195 45.4546466263965  C 136.53184542355 49.2115171786993  116.158132842936 50.6753478003192  95.9689144895157 49.7123443388769  C 75.7797670613149 48.7493320449714  56.4185385858524 45.3901917262784  39.6541749623843 39.9418868084513  Z " fill-rule="nonzero" fill="#4d74ff" stroke="none" transform="matrix(1 0 0 1 1371 636 )" />
  </g>
</svg>