<?xml version="1.0" encoding="utf-8"?>
<svg version="1.1" xmlns:xlink="http://www.w3.org/1999/xlink" width="121px" height="86px" xmlns="http://www.w3.org/2000/svg">
  <g transform="matrix(1 0 0 1 -1357 -551 )">
    <path d="M 0 57.8680354143454  L 69.9646535995812 5.26970759238811  C 85.6623102414323 1.79750156543576  102.7294132077 0  120 0  C 120 0  120 18.515473002316  120 18.515473002316  C 102.729474534953 18.515473002316  85.6624328959386 20.3129616003555  69.9648200592684 23.7851425202215  C 54.2671897005259 27.2573410978185  40.3089053742386 32.3224767024416  29.0435270179404 38.6344092465851  C 17.778139900606 44.946355034027  9.47114333712248 52.3564218726938  4.69003235012605 60.3583802708717  C 3.23640150295575 62.7912668705338  2.1190899966489 65.2614377693258  1.34031108796737 67.7527538010603  C 1.34031108796737 67.7527538010603  1.34031108796737 85  1.34031108796737 85  C 0.446412848497592 82.1404099148783  0.000732902134907935 79.2602132576114  0 76.383459857901  C 0 76.383459857901  0 57.8680354143454  0 57.8680354143454  Z M 69.9646535995812 5.26970759238811  L 0 57.8680354143454  C -0.00136014738485125 52.4609688838579  1.56928227401455 47.0659802414144  4.69003235012605 41.8429072685557  C 9.47113457608631 33.8409621136761  17.7781092369795 26.430910725524  29.0434656906872 20.1189715597313  C 40.3088133833589 13.8070478444533  54.2670582849834 8.74191279163431  69.9646535995812 5.26970759238811  Z M 0 57.8680354143454  L 69.9646535995812 5.26970759238811  L 0 57.8680354143454  Z " fill-rule="nonzero" fill="#53dd9e" stroke="none" transform="matrix(1 0 0 1 1357 551 )" />
  </g>
</svg>