<?xml version="1.0" encoding="utf-8"?>
<svg version="1.1" xmlns:xlink="http://www.w3.org/1999/xlink" width="122px" height="128px" xmlns="http://www.w3.org/2000/svg">
  <g transform="matrix(1 0 0 1 -1479 -535 )">
    <path d="M 0 34.5403020245664  C 0 34.5403020245664  0 0  0 0  C 22.9646759652153 0  45.4630556160714 3.05845849064852  64.9078029806131 8.82365265493543  C 84.352554798669 14.588846270219  99.9540885014056 22.8266838394904  109.918078698417 32.5897415573755  C 117.893672709623 40.4044919176761  121.998129523968 48.9423938369986  122 57.5611968848728  C 122 57.5611968848728  122 92.1014989094392  122 92.1014989094392  C 122 92.0886829760454  121.999982185943 92.0758670426516  121.999964371885 92.0630511092578  C 121.999964371885 92.0630511092578  122 92.1014989094392  122 92.1014989094392  C 122.000463165494 94.2502715336085  121.745900284499 96.4041301244913  121.232784173641 98.552990589191  C 121.232784173641 98.552990589191  121.232784173641 85.6617339405036  121.232784173641 85.6617339405036  C 121.232784173641 85.6617339405036  121.232784173641 98.552990589191  121.232784173641 98.552990589191  C 118.661556563137 109.321027424019  109.701548830084 119.527930166229  95.3833041981017 128  C 95.3833041981017 128  95.3833041981017 93.4596979754336  95.3833041981017 93.4596979754336  C 104.795210033578 87.8906961849279  111.891831728997 81.5720633074938  116.380519948532 74.8371980764845  C 114.628266908315 72.2080519433997  112.471536786613 69.6320098030032  109.918078698417 67.1300435819419  C 99.9540885014056 57.3669858640568  84.352554798669 49.1291471967788  64.9078029806131 43.3639535814952  C 45.4630556160714 37.5987599662116  22.9646759652153 34.5403020245664  0 34.5403020245664  Z " fill-rule="nonzero" fill="#80d5ff" stroke="none" transform="matrix(1 0 0 1 1479 535 )" />
  </g>
</svg>