<?xml version="1.0" encoding="utf-8"?>
<svg version="1.1" xmlns:xlink="http://www.w3.org/1999/xlink" width="85px" height="65px" xmlns="http://www.w3.org/2000/svg">
  <g transform="matrix(1 0 0 1 -1393 -569 )">
    <path d="M 20.5724174370649 14.0714019616858  C 28.5520391174374 9.65677386870908  38.4391278985237 6.11419466316161  49.5582577119615 3.68569446654518  C 60.6774451501257 1.25719316724815  72.7666562055625 0  85 0  C 85 0  85 18.4999105980498  85 18.4999105980498  C 72.7667093976177 18.4999105980498  60.6775515342362 19.7570988032353  49.5584039901134 22.1855808056218  C 38.4392165519491 24.6140826562592  28.5520745788076 28.1566646185081  20.5724174370649 32.5713125597356  C 12.5927758096717 36.9859627063243  6.70864738809278 42.1686453280441  3.32202392667298 47.7653095326229  C 2.29240221305546 49.4668647872692  1.5010061748219 51.1944874112893  0.949390709941063 52.936899187511  C 0.949390709941063 52.936899187511  0.949390709941063 65  0.949390709941063 65  C 0.315185506184463 62.9967248689761  -0.000501508713140559 60.978995800653  0 58.9636970403713  C 0 58.9636970403713  0 40.4637864423215  0 40.4637864423215  C 0.000949253980470297 36.6852925818774  1.11340113990574 32.9153290585517  3.32202392667298 29.265398934573  C 6.70864738809278 23.6687347299942  12.5927758096717 18.4860521082744  20.5724174370649 14.0714019616858  Z " fill-rule="nonzero" fill="#53dd80" stroke="none" transform="matrix(1 0 0 1 1393 569 )" />
  </g>
</svg>