<?xml version="1.0" encoding="utf-8"?>
<svg version="1.1" xmlns:xlink="http://www.w3.org/1999/xlink" width="141px" height="41px" xmlns="http://www.w3.org/2000/svg">
  <g transform="matrix(1 0 0 1 -1402 -628 )">
    <path d="M 0 18.7254257353422  C 0 18.7254257353422  0 0  0 0  C 6.42940749202824 6.09049605758364  15.8987649723365 11.3015234198947  27.5429975886789 15.157025211625  C 39.187256596101 19.0125292355999  52.6351963543125 21.3895472800861  66.6582593192487 22.0710158706065  C 66.6582593192487 22.0710158706065  66.6582593192487 40.7964416059487  66.6582593192487 40.7964416059487  C 52.635218346879 40.1149730154283  39.1873005812339 37.7379181389046  27.5430569686083 33.8824230439085  C 15.8987968615578 30.0269190199335  6.42941848831147 24.8159312799658  0 18.7254257353422  Z M 66.6582593192487 22.0710158706065  C 80.681265103512 22.7524799966375  94.8324831516664 21.7166291667706  107.818891308868 19.0581060917304  C 120.805343451203 16.3995606942433  132.213098797534 12.2030779442137  141 6.85202689451969  C 141 6.85202689451969  141 25.5774526298619  141 25.5774526298619  C 132.21313398564 30.928484705476  120.805431421469 35.1249529459151  107.81904085832 37.7835005756469  C 94.8325887159854 40.442045973134  80.6813178856715 41.4779101964691  66.6582593192487 40.7964416059487  C 66.6582593192487 40.7964416059487  66.6582593192487 22.0710158706065  66.6582593192487 22.0710158706065  Z " fill-rule="nonzero" fill="#4d74ff" stroke="none" transform="matrix(1 0 0 1 1402 628 )" />
  </g>
</svg>