<?xml version="1.0" encoding="utf-8"?>
<svg version="1.1" xmlns:xlink="http://www.w3.org/1999/xlink" width="86px" height="102px" xmlns="http://www.w3.org/2000/svg">
  <g transform="matrix(1 0 0 1 -1479 -553 )">
    <path d="M 85 75.6186040487162  C 85 75.6186040487162  85 40.7196760830207  85 40.7196760830207  C 84.9996693507723 42.2366361445539  84.8223280200794 43.7571243978336  84.4654913251149 45.2741381269325  C 84.4654913251149 45.2741381269325  84.4654913251149 80.173066092628  84.4654913251149 80.173066092628  C 84.8223280200794 78.6560540276397  84.9996693507723 77.1355650809806  85 75.6186040487162  Z M 0 34.8989279656955  C 0 34.8989279656955  0 0  0 0  C 16.000022763047 0  31.675162089582 2.16315041843758  45.2227699201953 6.24068752744409  C 58.7703777508086 10.3182243590988  69.6403579383532 16.1445250586712  76.5825078838888 23.0496242603111  C 82.1418431424248 28.5792928143025  85.0013297999939 34.6210148451404  85 40.7196760830207  C 85 40.7196760830207  85 75.6100838026308  85 75.6100838026308  C 84.9996631173349 74.0860380969939  84.820680903488 72.5655602444052  84.465553382448 71.0557593251923  C 84.465553382448 71.0557593251923  84.4654913251149 80.173066092628  84.4654913251149 80.173066092628  C 82.6740556959871 87.788959058091  76.4315223925803 95.007977185846  66.4556731249403 101  C 66.4556731249403 101  66.4556731249403 66.1010720343045  66.4556731249403 66.1010720343045  C 70.547959732196 63.6430298525838  74.0120177936626 60.9785003945095  76.7982812309004 58.1647956278905  C 76.7268177792278 58.0926264809705  76.6548844648906 58.0205505242421  76.5825078838888 57.9485544448206  C 69.6403579383532 51.0434541337737  58.7703777508086 45.2171545436084  45.2227699201953 41.1396177119536  C 31.675162089582 37.0620808802989  16.000022763047 34.8989279656955  0 34.8989279656955  Z M 85 75.6100838026308  L 85 75.6186040487162  L 85 75.6100838026308  Z " fill-rule="nonzero" fill="#80d5ff" stroke="none" transform="matrix(1 0 0 1 1479 553 )" />
  </g>
</svg>