<?xml version="1.0" encoding="utf-8"?>
<svg version="1.1" xmlns:xlink="http://www.w3.org/1999/xlink" width="203px" height="39px" xmlns="http://www.w3.org/2000/svg">
  <g transform="matrix(1 0 0 1 -1371 -646 )">
    <path d="M 174.517961721351 6.70932656653574  C 174.517961721351 6.70932656653574  203 17.4267291437841  203 17.4267291437841  C 190.349364484596 24.9118407898355  173.925439242777 30.7819304419919  155.228645922499 34.5007340732502  C 136.531852602221 38.2195377045084  116.158223371603 39.6685035725823  95.9690041122645 38.7152589382021  C 75.7797848529263 37.7620143038219  56.4185896812995 34.4369480929844  39.6541680350923 29.0438243635874  C 22.889746388885 23.6507006341904  9.25653355616106 16.3614468265427  0 7.84197674975141  C 0 7.84197674975141  32.4179506392877 0  32.4179506392877 0  C 38.8975240731901 5.96362932697174  48.4407716708389 11.0661074841172  60.1758669340046 14.841293985408  C 71.9109621971703 18.6164804866987  85.463807350498 20.9440271826377  99.5962610536761 21.6112984062125  C 113.728714756854 22.2785696297873  127.99025566157 21.2642920945725  141.078012093971 18.6611294707264  C 154.165768526372 16.0579668468802  165.662516306465 11.9489046094846  174.517961721351 6.70932656653574  Z " fill-rule="nonzero" fill="#4d74ff" stroke="none" transform="matrix(1 0 0 1 1371 646 )" />
  </g>
</svg>