<?xml version="1.0" encoding="utf-8"?>
<svg version="1.1" xmlns:xlink="http://www.w3.org/1999/xlink" width="44px" height="20px" xmlns="http://www.w3.org/2000/svg">
  <defs>
    <mask fill="white" id="clip67">
      <path d="M 44 12.2210534554854  C 44 12.2210534554854  11.8992910446123 20  11.8992910446123 20  C 5.95931656924092 14.5233500514074  1.94056777384457 8.62703900590047  0 2.54135360027614  C 0 2.54135360027614  35.6704972563967 0  35.6704972563967 0  C 37.028894725522 4.25997994655015  39.8420179769762 8.38739849147062  44 12.2210534554854  Z " fill-rule="evenodd" />
    </mask>
  </defs>
  <g transform="matrix(1 0 0 1 -1358 -615 )">
    <path d="M 44 12.2210534554854  C 44 12.2210534554854  11.8992910446123 20  11.8992910446123 20  C 5.95931656924092 14.5233500514074  1.94056777384457 8.62703900590047  0 2.54135360027614  C 0 2.54135360027614  35.6704972563967 0  35.6704972563967 0  C 37.028894725522 4.25997994655015  39.8420179769762 8.38739849147062  44 12.2210534554854  Z " fill-rule="nonzero" fill="#ffd982" stroke="none" transform="matrix(1 0 0 1 1358 615 )" />
    <path d="M 44 12.2210534554854  C 44 12.2210534554854  11.8992910446123 20  11.8992910446123 20  C 5.95931656924092 14.5233500514074  1.94056777384457 8.62703900590047  0 2.54135360027614  C 0 2.54135360027614  35.6704972563967 0  35.6704972563967 0  C 37.028894725522 4.25997994655015  39.8420179769762 8.38739849147062  44 12.2210534554854  Z " stroke-width="2" stroke="#ffffff" fill="none" stroke-opacity="0.4" transform="matrix(1 0 0 1 1358 615 )" mask="url(#clip67)" />
  </g>
</svg>