<?xml version="1.0" encoding="utf-8"?>
<svg version="1.1" xmlns:xlink="http://www.w3.org/1999/xlink" width="122px" height="66px" xmlns="http://www.w3.org/2000/svg">
  <defs>
    <mask fill="white" id="clip68">
      <path d="M 37.5538508544739 63.4317423056669  C 37.5538508544739 63.4317423056669  1.36264727878864 66  1.36264727878864 66  C 0.453851800162809 63.1612531470094  0.000744180697445907 60.3020501848948  0 57.4462607283168  C -0.00139610731174884 52.0785850344409  1.5953238933272 46.7229720550675  4.76809245985898 41.5379478029181  C 9.6288838634667 33.5943109519215  18.0743222342078 26.2382539036794  29.5274532608358 19.9723121599641  C 40.9805842874639 13.7063704162488  55.1715167527255 8.6781989757201  71.1307868679512 5.23129980710759  C 87.090056983177 1.78440063849507  104.441588209848 0  122 0  C 122 0  122 4.30793546686027  122 8.61587093372053  C 122 12.9238064005808  122 17.2317418674411  122 17.2317418674411  C 109.70911141288 17.2317417984353  97.5630346553357 18.4808219583291  86.3915454633397 20.8936513489687  C 75.2200562713436 23.3064807396084  65.2864051043931 26.8262012683717  57.2692134970915 31.2123605985289  C 49.2520218897899 35.598519928686  43.340214640588 40.7477575617698  39.9376607694007 46.3083035765803  C 37.7186388170971 49.9346893745568  36.6009487559738 53.6802802746508  36.5999977732391 57.4343979543617  C 36.5994905594647 59.43668476296  36.9166624515634 61.4413972886236  37.5538508544739 63.4317423056669  Z " fill-rule="evenodd" />
    </mask>
  </defs>
  <g transform="matrix(1 0 0 1 -1357 -551 )">
    <path d="M 37.5538508544739 63.4317423056669  C 37.5538508544739 63.4317423056669  1.36264727878864 66  1.36264727878864 66  C 0.453851800162809 63.1612531470094  0.000744180697445907 60.3020501848948  0 57.4462607283168  C -0.00139610731174884 52.0785850344409  1.5953238933272 46.7229720550675  4.76809245985898 41.5379478029181  C 9.6288838634667 33.5943109519215  18.0743222342078 26.2382539036794  29.5274532608358 19.9723121599641  C 40.9805842874639 13.7063704162488  55.1715167527255 8.6781989757201  71.1307868679512 5.23129980710759  C 87.090056983177 1.78440063849507  104.441588209848 0  122 0  C 122 0  122 4.30793546686027  122 8.61587093372053  C 122 12.9238064005808  122 17.2317418674411  122 17.2317418674411  C 109.70911141288 17.2317417984353  97.5630346553357 18.4808219583291  86.3915454633397 20.8936513489687  C 75.2200562713436 23.3064807396084  65.2864051043931 26.8262012683717  57.2692134970915 31.2123605985289  C 49.2520218897899 35.598519928686  43.340214640588 40.7477575617698  39.9376607694007 46.3083035765803  C 37.7186388170971 49.9346893745568  36.6009487559738 53.6802802746508  36.5999977732391 57.4343979543617  C 36.5994905594647 59.43668476296  36.9166624515634 61.4413972886236  37.5538508544739 63.4317423056669  Z " fill-rule="nonzero" fill="#5af3b8" stroke="none" transform="matrix(1 0 0 1 1357 551 )" />
    <path d="M 37.5538508544739 63.4317423056669  C 37.5538508544739 63.4317423056669  1.36264727878864 66  1.36264727878864 66  C 0.453851800162809 63.1612531470094  0.000744180697445907 60.3020501848948  0 57.4462607283168  C -0.00139610731174884 52.0785850344409  1.5953238933272 46.7229720550675  4.76809245985898 41.5379478029181  C 9.6288838634667 33.5943109519215  18.0743222342078 26.2382539036794  29.5274532608358 19.9723121599641  C 40.9805842874639 13.7063704162488  55.1715167527255 8.6781989757201  71.1307868679512 5.23129980710759  C 87.090056983177 1.78440063849507  104.441588209848 0  122 0  C 122 0  122 4.30793546686027  122 8.61587093372053  C 122 12.9238064005808  122 17.2317418674411  122 17.2317418674411  C 109.70911141288 17.2317417984353  97.5630346553357 18.4808219583291  86.3915454633397 20.8936513489687  C 75.2200562713436 23.3064807396084  65.2864051043931 26.8262012683717  57.2692134970915 31.2123605985289  C 49.2520218897899 35.598519928686  43.340214640588 40.7477575617698  39.9376607694007 46.3083035765803  C 37.7186388170971 49.9346893745568  36.6009487559738 53.6802802746508  36.5999977732391 57.4343979543617  C 36.5994905594647 59.43668476296  36.9166624515634 61.4413972886236  37.5538508544739 63.4317423056669  Z " stroke-width="2" stroke="#ffffff" fill="none" stroke-opacity="0.4" transform="matrix(1 0 0 1 1357 551 )" mask="url(#clip68)" />
  </g>
</svg>