<?xml version="1.0" encoding="utf-8"?>
<svg version="1.1" xmlns:xlink="http://www.w3.org/1999/xlink" width="16px" height="16px" xmlns="http://www.w3.org/2000/svg">
  <g transform="matrix(1 0 0 1 -132 -7 )">
    <path d="M 1.23076923076923 6  L 1.23076923076923 14.8571428571429  L 14.7692307692308 14.8571428571429  L 14.7692307692308 6  L 1.23076923076923 6  Z M 4.83653846153846 4.20535714285714  C 4.89423076923077 4.15178571428571  4.92307692307692 4.08333333333333  4.92307692307692 4  L 4.92307692307692 1.42857142857143  C 4.92307692307692 1.34523809523809  4.89423076923077 1.27678571428571  4.83653846153846 1.22321428571429  C 4.77884615384615 1.16964285714286  4.70512820512821 1.14285714285714  4.61538461538462 1.14285714285714  L 4 1.14285714285714  C 3.91025641025641 1.14285714285714  3.83653846153846 1.16964285714286  3.77884615384615 1.22321428571429  C 3.72115384615385 1.27678571428571  3.69230769230769 1.34523809523809  3.69230769230769 1.42857142857143  L 3.69230769230769 4  C 3.69230769230769 4.08333333333333  3.72115384615385 4.15178571428571  3.77884615384615 4.20535714285714  C 3.83653846153846 4.25892857142857  3.91025641025641 4.28571428571429  4 4.28571428571429  L 4.61538461538462 4.28571428571429  C 4.70512820512821 4.28571428571429  4.77884615384615 4.25892857142857  4.83653846153846 4.20535714285714  Z M 12.2211538461538 4.20535714285714  C 12.2788461538462 4.15178571428571  12.3076923076923 4.08333333333333  12.3076923076923 4  L 12.3076923076923 1.42857142857143  C 12.3076923076923 1.34523809523809  12.2788461538462 1.27678571428571  12.2211538461538 1.22321428571429  C 12.1634615384615 1.16964285714286  12.0897435897436 1.14285714285714  12 1.14285714285714  L 11.3846153846154 1.14285714285714  C 11.2948717948718 1.14285714285714  11.2211538461538 1.16964285714286  11.1634615384615 1.22321428571429  C 11.1057692307692 1.27678571428571  11.0769230769231 1.34523809523809  11.0769230769231 1.42857142857143  L 11.0769230769231 4  C 11.0769230769231 4.08333333333333  11.1057692307692 4.15178571428571  11.1634615384615 4.20535714285714  C 11.2211538461538 4.25892857142857  11.2948717948718 4.28571428571429  11.3846153846154 4.28571428571429  L 12 4.28571428571429  C 12.0897435897436 4.28571428571429  12.1634615384615 4.25892857142857  12.2211538461538 4.20535714285714  Z M 15.6346153846154 2.625  C 15.8782051282051 2.85119047619048  16 3.11904761904762  16 3.42857142857143  L 16 14.8571428571429  C 16 15.1666666666667  15.8782051282051 15.4345238095238  15.6346153846154 15.6607142857143  C 15.3910256410256 15.8869047619048  15.1025641025641 16  14.7692307692308 16  L 1.23076923076923 16  C 0.897435897435898 16  0.608974358974359 15.8869047619048  0.365384615384615 15.6607142857143  C 0.121794871794872 15.4345238095238  0 15.1666666666667  0 14.8571428571429  L 0 3.42857142857143  C 0 3.11904761904762  0.121794871794872 2.85119047619048  0.365384615384615 2.625  C 0.608974358974359 2.39880952380952  0.897435897435898 2.28571428571429  1.23076923076923 2.28571428571429  L 2.46153846153846 2.28571428571429  L 2.46153846153846 1.42857142857143  C 2.46153846153846 1.03571428571429  2.61217948717949 0.699404761904761  2.91346153846154 0.419642857142858  C 3.21474358974359 0.139880952380953  3.57692307692308 0  4 0  L 4.61538461538462 0  C 5.03846153846154 0  5.40064102564103 0.139880952380953  5.70192307692308 0.419642857142858  C 6.00320512820513 0.699404761904761  6.15384615384615 1.03571428571429  6.15384615384615 1.42857142857143  L 6.15384615384615 2.28571428571429  L 9.84615384615385 2.28571428571429  L 9.84615384615385 1.42857142857143  C 9.84615384615385 1.03571428571429  9.99679487179487 0.699404761904761  10.2980769230769 0.419642857142858  C 10.599358974359 0.139880952380953  10.9615384615385 0  11.3846153846154 0  L 12 0  C 12.4230769230769 0  12.7852564102564 0.139880952380953  13.0865384615385 0.419642857142858  C 13.3878205128205 0.699404761904761  13.5384615384615 1.03571428571429  13.5384615384615 1.42857142857143  L 13.5384615384615 2.28571428571429  L 14.7692307692308 2.28571428571429  C 15.1025641025641 2.28571428571429  15.3910256410256 2.39880952380952  15.6346153846154 2.625  Z " fill-rule="nonzero" fill="#555555" stroke="none" transform="matrix(1 0 0 1 132 7 )" />
  </g>
</svg>