<?xml version="1.0" encoding="utf-8"?>
<svg version="1.1" xmlns:xlink="http://www.w3.org/1999/xlink" width="817px" height="94px" xmlns="http://www.w3.org/2000/svg">
  <g transform="matrix(1 0 0 1 -749 -654 )">
    <path d="M 0.441192411924019 40.3333333333334  L 30.4422764227642 16.3333333333334  L 56.9138211382114 0.333333333333371  L 86.0325203252033 9  L 113.386449864499 26.3333333333334  L 141.622764227642 35.6666666666666  L 169.859078590786 46.3333333333334  L 197.213008130081 40.3333333333334  L 224.566937669377 35.6666666666666  L 252.80325203252 30.3333333333334  L 282.804336043361 23  L 310.158265582656 16.3333333333334  L 336.629810298103 9  L 365.748509485095 16.3333333333334  L 393.10243902439 30.3333333333334  L 423.10352303523 46.3333333333334  L 449.575067750678 61  L 476.928997289973 57  L 506.930081300813 46  L 534.284010840109 46  L 563.4027100271 46.3333333333334  L 589.874254742547 53.6666666666666  L 618.992953929539 61  L 646.346883468835 57  L 672.818428184282 53.6666666666666  L 701.054742547426 40.3333333333334  L 729.291056910569 46.3333333333334  L 759.292140921409 61  L 786.646070460705 77.6666666666666  L 813.117615176152 90.3333333333334  " stroke-width="2" stroke="#0a92fa" fill="none" transform="matrix(1 0 0 1 750 655 )" />
  </g>
</svg>