<?xml version="1.0" encoding="utf-8"?>
<svg version="1.1" xmlns:xlink="http://www.w3.org/1999/xlink" width="813px" height="146px" xmlns="http://www.w3.org/2000/svg">
  <defs>
    <linearGradient gradientUnits="userSpaceOnUse" x1="406.5" y1="193.666666666667" x2="406.5" y2="38.9999999999999" id="LinearGradient7371">
      <stop id="Stop7372" stop-color="#ffffff" stop-opacity="0" offset="0" />
      <stop id="Stop7373" stop-color="#80ffff" stop-opacity="0.2" offset="1" />
    </linearGradient>
  </defs>
  <g transform="matrix(1 0 0 1 -751 -655 )">
    <path d="M 811.678048780488 90  L 811.678151859571 90.1222716063588  L 812.118699186992 90.3333333333334  L 811 90.306145793799  L 811 146  L 1.3219512195122 146  C 1.3219512195122 146  1.3219512195137 79.9111111111124  1.3219512195122 41.3333333333334  C 1.3219512195122 40.9965111432324  1.35294080537807 40.6835653765726  1.41268213496075 40.3932112448967  L 0.440650406503965 40.3333333333334  L 1.92854713997396 39.1415949051025  C 2.32433936413374 38.5540366449878  2.89950630450322 38.1129597769959  3.61128062470349 37.793800990126  L 30.4048780487805 16.3333333333334  L 56.8439024390244 0.333333333333371  L 85.9268292682927 9  L 113.247154471545 26.3333333333334  L 141.448780487805 35.6666666666666  L 169.650406504065 46.3333333333334  L 196.970731707317 40.3333333333334  L 224.291056910569 35.6666666666666  L 252.492682926829 30.3333333333334  L 282.456910569106 23  L 309.777235772358 16.3333333333334  L 336.216260162602 9  L 365.29918699187 16.3333333333334  L 392.619512195122 30.3333333333334  L 422.583739837398 46.3333333333334  L 449.022764227642 61  L 476.343089430894 57  L 506.307317073171 46  L 533.627642276423 46  L 562.710569105691 46.3333333333334  L 589.149593495935 53.6666666666666  L 618.232520325203 61  L 645.552845528455 57  L 671.991869918699 53.6666666666666  L 700.193495934959 40.3333333333334  L 728.395121951219 46.3333333333334  L 758.359349593496 61  L 785.679674796748 77.6666666666666  L 811.384132593659 89.9816630826492  L 811.678048780488 90  Z " fill-rule="nonzero" fill="url(#LinearGradient7371)" stroke="none" transform="matrix(1 0 0 1 751 655 )" />
  </g>
</svg>