<?xml version="1.0" encoding="utf-8"?>
<svg version="1.1" xmlns:xlink="http://www.w3.org/1999/xlink" width="1108px" height="129px" xmlns="http://www.w3.org/2000/svg">
  <g transform="matrix(1 0 0 1 -225 -282 )">
    <path d="M 1105 126  L 0 126  L 48 126  L 97 126  L 145 126  L 196 126  L 244 126  L 295 108  L 345 97  L 392 78  L 440 66  L 489 58  L 536 48  L 581 28  L 628 17  L 675 12  L 722 0  L 769 17  L 818 28  L 863 43  L 910 73  L 959 108  L 1006 126  L 1055 126  L 1105 126  Z " fill-rule="nonzero" fill="#0a92fa" stroke="none" fill-opacity="0.149019607843137" transform="matrix(1 0 0 1 226 283 )" />
    <path d="M 0 126  L 48 126  L 97 126  L 145 126  L 196 126  L 244 126  L 295 108  L 345 97  L 392 78  L 440 66  L 489 58  L 536 48  L 581 28  L 628 17  L 675 12  L 722 0  L 769 17  L 818 28  L 863 43  L 910 73  L 959 108  L 1006 126  L 1055 126  L 1105 126  " stroke-width="2" stroke="#0a92fa" fill="none" transform="matrix(1 0 0 1 226 283 )" />
  </g>
</svg>