<?xml version="1.0" encoding="utf-8"?>
<svg version="1.1" xmlns:xlink="http://www.w3.org/1999/xlink" width="222px" height="222px" xmlns="http://www.w3.org/2000/svg">
  <g transform="matrix(1 0 0 1 -133 -366 )">
    <path d="M 111 0  C 172.303607812089 0  222 49.6963921879115  222 111  C 222 172.303607812089  172.303607812089 222  111 222  C 49.6963921879115 222  0 172.303607812089  0 111  C 0 49.6963921879115  49.6963921879115 0  111 0  Z M 111 9.21938606862272  C 54.7881214270431 9.21938606862272  9.21938606862272 54.7881214270431  9.21938606862272 111  C 9.21938606862272 167.211878572957  54.7881214270431 212.780613931377  111 212.780613931377  C 167.211878572957 212.780613931377  212.780613931377 167.211878572957  212.780613931377 111  C 212.780613931377 54.7881214270431  167.211878572957 9.21938606862272  111 9.21938606862272  Z " fill-rule="nonzero" fill="#044ba9" stroke="none" transform="matrix(1 0 0 1 133 366 )" />
  </g>
</svg>