<?xml version="1.0" encoding="utf-8"?>
<svg version="1.1" xmlns:xlink="http://www.w3.org/1999/xlink" width="222px" height="222px" xmlns="http://www.w3.org/2000/svg">
  <g transform="matrix(1 0 0 1 -133 -366 )">
    <path d="M 25.5309116605066 55.7343001714298  C 25.5309116605066 55.7343001714298  17.7890373053608 50.7282826824663  17.7890373053608 50.7282826824663  C 3.61813657844359 72.6438268500372  -2.37758514478101 98.8517856502992  0.855003237852696 124.748819887575  C 4.08759162048641 150.645854124851  16.3417560311546 174.575771024929  35.4650923652351 192.335363151278  C 54.5884286993156 210.094955277627  79.3579489753827 220.548458294108  105.422961334981 221.859725338509  C 131.487973694579 223.170992382911  157.18155647611 215.25617694537  177.990709470754 199.505489818021  C 198.799862465398 183.754802690672  213.393790652173 161.175536097562  219.209106601147 135.733680862077  C 225.02442255012 110.291825626592  221.689214971367 83.6144481670346  209.78932517521 60.3873473328936  C 197.889435379053 37.1602464987526  178.185887221626 18.8688527631767  154.1395353861 8.72599777106067  C 130.093183550574 -1.41685722105533  103.241858056987 -2.76251437047155  78.3019176407415 4.92538715299774  C 78.3019176407415 4.92538715299774  81.0177401120645 13.7356804374881  81.0177401120645 13.7356804374881  C 103.886231521038 6.68631669973307  128.507352430618 7.92020764329496  150.556474567414 17.2206225171263  C 172.60559670421 26.5210373909576  190.672618623594 43.2931903874136  201.584133218258 64.5911054678385  C 212.495647812922 85.8890205482634  215.553838959016 110.350646878028  210.221528948616 133.679364058575  C 204.889218938216 157.008081239123  191.50741575877 177.71196519472  172.426621123546 192.154439096632  C 153.345826488321 206.596912998544  129.786303361523 213.854347219535  105.886184973239 212.651990748035  C 81.9860665849551 211.449634276535  59.2738401239972 201.864380906241  41.7388410009474 185.579856488591  C 24.2038418778977 169.295332070941  12.9674744842195 147.352967820088  10.0033771264115 123.606878332822  C 7.03927976860343 99.8607888455566  12.5370114152691 75.8295922030714  25.5309116605066 55.7343001714298  Z " fill-rule="nonzero" fill="#2cbeff" stroke="none" transform="matrix(1 0 0 1 133 366 )" />
  </g>
</svg>