<?xml version="1.0" encoding="utf-8"?>
<svg version="1.1" xmlns:xlink="http://www.w3.org/1999/xlink" width="720px" height="153px" xmlns="http://www.w3.org/2000/svg">
  <defs>
    <linearGradient gradientUnits="userSpaceOnUse" x1="360" y1="0" x2="360" y2="153" id="LinearGradient1899">
      <stop id="Stop1900" stop-color="#17eecb" offset="0" />
      <stop id="Stop1901" stop-color="#ffffff" offset="1" />
    </linearGradient>
    <mask fill="white" id="clip1902">
      <path d="M 0.234837983018281 152.634812588402  L 0 10  L 25.2 10  L 87.6 0.695454545454543  L 144.6 13.9090909090909  L 214.2 22.95  L 268.2 10.0840909090909  L 333.6 21.5590909090909  L 393.6 30.6  L 457.2 34.7727272727273  L 514.8 24.0511363636364  L 567 11.8227272727273  L 634.8 29.5568181818182  L 690 38  L 718 38  L 718 152.634812588402  L 551.851195633339 152.634812588402  L 413.947106220759 152.634812588402  L 276.043016808179 152.634812588402  L 138.138927395598 152.634812588402  L 0.234837983018281 152.634812588402  Z " fill-rule="evenodd" />
    </mask>
  </defs>
  <g transform="matrix(1 0 0 1 -84 -503 )">
    <path d="M 0.234837983018281 152.634812588402  L 0 10  L 25.2 10  L 87.6 0.695454545454543  L 144.6 13.9090909090909  L 214.2 22.95  L 268.2 10.0840909090909  L 333.6 21.5590909090909  L 393.6 30.6  L 457.2 34.7727272727273  L 514.8 24.0511363636364  L 567 11.8227272727273  L 634.8 29.5568181818182  L 690 38  L 718 38  L 718 152.634812588402  L 551.851195633339 152.634812588402  L 413.947106220759 152.634812588402  L 276.043016808179 152.634812588402  L 138.138927395598 152.634812588402  L 0.234837983018281 152.634812588402  Z " fill-rule="nonzero" fill="url(#LinearGradient1899)" stroke="none" transform="matrix(1 0 0 1 84 503 )" />
    <path d="M 0.234837983018281 152.634812588402  L 0 10  L 25.2 10  L 87.6 0.695454545454543  L 144.6 13.9090909090909  L 214.2 22.95  L 268.2 10.0840909090909  L 333.6 21.5590909090909  L 393.6 30.6  L 457.2 34.7727272727273  L 514.8 24.0511363636364  L 567 11.8227272727273  L 634.8 29.5568181818182  L 690 38  L 718 38  L 718 152.634812588402  L 551.851195633339 152.634812588402  L 413.947106220759 152.634812588402  L 276.043016808179 152.634812588402  L 138.138927395598 152.634812588402  L 0.234837983018281 152.634812588402  Z " stroke-width="2" stroke="#17eecb" fill="none" transform="matrix(1 0 0 1 84 503 )" mask="url(#clip1902)" />
  </g>
</svg>