<?xml version="1.0" encoding="utf-8"?>
<svg version="1.1" xmlns:xlink="http://www.w3.org/1999/xlink" width="142px" height="142px" xmlns="http://www.w3.org/2000/svg">
  <g transform="matrix(1 0 0 1 -1144 -130 )">
    <path d="M 1215 130  C 1254.76 130  1286 161.24  1286 201  C 1286 240.76  1254.76 272  1215 272  C 1175.24 272  1144 240.76  1144 201  C 1144 161.24  1175.24 130  1215 130  Z " fill-rule="nonzero" fill="#ffffff" stroke="none" />
    <path d="M 1215 130.5  C 1254.48 130.5  1285.5 161.52  1285.5 201  C 1285.5 240.48  1254.48 271.5  1215 271.5  C 1175.52 271.5  1144.5 240.48  1144.5 201  C 1144.5 161.52  1175.52 130.5  1215 130.5  Z " stroke-width="1" stroke="#797979" fill="none" />
  </g>
</svg>