<?xml version="1.0" encoding="utf-8"?>
<svg version="1.1" xmlns:xlink="http://www.w3.org/1999/xlink" width="154px" height="65px" xmlns="http://www.w3.org/2000/svg">
  <defs>
    <linearGradient gradientUnits="userSpaceOnUse" x1="77" y1="0" x2="77" y2="65" id="LinearGradient1">
      <stop id="Stop2" stop-color="#04051a" offset="0" />
      <stop id="Stop3" stop-color="#04051a" offset="0.02" />
      <stop id="Stop4" stop-color="#053a4f" offset="0.16" />
      <stop id="Stop5" stop-color="#66ffff" offset="0.49" />
      <stop id="Stop6" stop-color="#053d53" offset="0.83" />
      <stop id="Stop7" stop-color="#04051a" offset="0.99" />
      <stop id="Stop8" stop-color="#04051a" offset="1" />
    </linearGradient>
    <mask fill="white" id="clip9">
      <path d="M 154 11.7061611374408  L 150.678431372549 0  L 148 11.7061611374408  L 148 26.4928909952606  L 143.43137254902 26.4928909952606  L 143.43137254902 29  L 0 29  L 143.43137254902 33.2701421800948  L 143.43137254902 35.4265402843601  L 148 35.4265402843601  L 148 53.2938388625592  L 150.678431372549 65  L 154 53.2938388625592  L 154 11.7061611374408  Z " fill-rule="evenodd" />
    </mask>
  </defs>
  <g transform="matrix(1 0 0 1 -1118 -27 )">
    <path d="M 154 11.7061611374408  L 150.678431372549 0  L 148 11.7061611374408  L 148 26.4928909952606  L 143.43137254902 26.4928909952606  L 143.43137254902 29  L 0 29  L 143.43137254902 33.2701421800948  L 143.43137254902 35.4265402843601  L 148 35.4265402843601  L 148 53.2938388625592  L 150.678431372549 65  L 154 53.2938388625592  L 154 11.7061611374408  Z " fill-rule="nonzero" fill="url(#LinearGradient1)" stroke="none" transform="matrix(1 0 0 1 1118 27 )" />
    <path d="M 154 11.7061611374408  L 150.678431372549 0  L 148 11.7061611374408  L 148 26.4928909952606  L 143.43137254902 26.4928909952606  L 143.43137254902 29  L 0 29  L 143.43137254902 33.2701421800948  L 143.43137254902 35.4265402843601  L 148 35.4265402843601  L 148 53.2938388625592  L 150.678431372549 65  L 154 53.2938388625592  L 154 11.7061611374408  Z " stroke-width="2" stroke="#ffffff" fill="none" transform="matrix(1 0 0 1 1118 27 )" mask="url(#clip9)" />
  </g>
</svg>