<?xml version="1.0" encoding="utf-8"?>
<svg version="1.1" xmlns:xlink="http://www.w3.org/1999/xlink" width="26px" height="20px" xmlns="http://www.w3.org/2000/svg">
  <g transform="matrix(1 0 0 1 -86 -321 )">
    <path d="M 17.6463174288013 8.87719920381724  C 17.6429542061302 8.48142780060956  17.2961887278567 8.16235154542926  16.8698733419147 8.1627541764918  C 16.4443108251174 8.1643202286997  16.1005740094674 8.48566423071289  16.1018439259855 8.88075014009488  C 16.10435792005 9.27444847764287  16.4488428728311 9.59237177525534  16.8729196767317 9.59237177525534  C 16.8747091383748 9.59237177525534  16.8764985945968 9.59236599219047  16.8782880128721 9.59235442616584  C 17.3026551153412 9.59079120969245  17.6458997718111 9.27117687783682  17.6463174288013 8.87719920381724  Z M 24.6136600450523 11.029766685161  L 24.6144250056315 11.029056509557  L 23.0653616765889 11.029056509557  C 23.0671198720445 10.9419397229994  23.0515603624717 10.8552686884366  23.0194635189059 10.7733903015508  L 19.9228668028962 3.24615085305296  C 19.8070211903648 2.9677590295995  19.5176027692463 2.78504925526006  19.1961457393403 2.78737203373374  L 16.098019081255 2.78737203373374  C 15.9098365824618 2.78737203373374  15.7277738310539 2.85128859544484  15.5862544505229 2.96704857824507  L 14.6606413145615 3.73120648042833  L 12.0673945583266 0.5623658057536  C 11.8730345596145 0.329934498734061  11.546223599704 0.230204021341401  11.2412274481094 0.310250514605932  L 5.04497413193886 1.98131328543291  C 4.75899322345713 2.0559676723678  4.54415464533308 2.27583414455892  4.4919011697506 2.54732988320803  L 2.94283784070796 10.9069048686437  C 2.93962347891864 10.9475674052586  2.93962347891864 10.9883939729421  2.94283784070796 11.029056509557  L 1.38612482220434 11.029056509557  C 1.36324943101224 11.0271636242082  1.34029470701672 11.026215778012  1.31732863056143 11.026215778012  C 0.889355365954177 11.026215778012  0.542414485750489 11.3483094333736  0.542414485750489 11.7456320928233  C 0.542414485750489 12.142954752273  0.889355365954177 12.4650484076345  1.31732863056143 12.4650484076345  C 1.34029470701672 12.4650484076345  1.36324943101224 12.4641005614383  1.38612482220434 12.4622076760896  L 2.6253754770716 12.4622076760896  L 4.48272151729686 16.2851277526563  C 4.48272151729686 16.5493161650068  4.83001769911504 16.7630815268954  5.25916560418343 16.7630815268954  L 5.39992000321802 16.7630815268954  C 5.30812366693483 16.9931811218687  5.26069554625905 17.236774208672  5.25916560418343 17.4817876661026  C 5.26085220339376 18.6699009709995  6.29878236637674 19.6322275321982  7.57855123760252 19.6322275321982  C 7.57982686487143 19.6322275321982  7.5811024919252 19.6322265552035  7.58237811745776 19.6322246012151  C 7.58365374299116 19.6322265552035  7.58492937004327 19.6322275321982  7.58620499731301 19.6322275321982  C 8.86597386853878 19.6322275321982  9.90390403152177 18.6699009709995  9.9055906307321 17.4817876661026  C 9.90415921872361 17.2364962525527  9.8567903706641 16.9933044640636  9.76560119227675 16.7630815268954  L 16.2418333435237 16.7630815268954  C 16.1487420021118 16.9929823579508  16.0995568918741 17.2361956380734  16.0964891391794 17.4817876661026  C 16.0952082637245 17.510992658823  16.0945676271009 17.540218824865  16.0945676271009 17.5694480167408  C 16.0945676271009 18.7258899509414  17.0778963675791 19.6761114414302  18.3225505084473 19.7224179515632  C 18.3560482814306 19.7237656602295  18.3895735634383 19.7244397515994  18.4231027768866 19.7244397515994  C 19.7057551309697 19.7244397515994  20.7455503086646 18.7591126635538  20.7455503086646 17.568321353397  C 20.7455503086646 17.5394680730783  20.7449264555535 17.5106176995026  20.7436791263073 17.4817876661026  C 20.7420026849712 17.2364543862783  20.6943747438349 16.9932613214274  20.6029247272727 16.7630815268954  L 20.7436791263073 16.7630815268954  C 21.1567626709574 16.7630815268954  21.5201232131939 16.5493161650068  21.5201232131939 16.2851277526563  L 23.3789991954948 12.4629178516936  L 24.618249850362 12.4629178516936  C 24.6411252415541 12.4648107370424  24.6640799655497 12.4657585832386  24.6870460420049 12.4657585832386  C 25.1150193066122 12.4657585832386  25.4619601868159 12.143664927877  25.4619601868159 11.7463422684273  C 25.4619601868159 11.3490196089776  25.1150193066122 11.0269259536161  24.6870460420049 11.0269259536161  C 24.6640799655497 11.0269259536161  24.6411252415541 11.0278737998123  24.618249850362 11.029766685161  L 24.6136600450523 11.029766685161  Z M 4.4919011697506 11  L 5.93769360740145 3.23194718561878  L 11.1578457618665 1.8215219102838  L 13.9331552695093 5.19276500124837  C 14.0639650555109 5.35113602518934  14.2597972646822 5.45269232113629  14.474753697506 5.47186727605626  C 14.6889451697506 5.48607096290953  14.9000767578439 5.42357477182567  15.0653101882542 5.29645186284573  L 16.3871775687852 4.22194357089356  L 18.6591371166533 4.22194357089356  L 21.4627504794851 11  L 4.4919011697506 11  Z M 7.59002780691875 18.1976530640553  C 7.16087990185036 18.1976530640553  6.81281875945294 17.8759397481066  6.81281875945294 17.4789469248481  C 6.81281875945294 17.0812439259855  7.16087990185036 16.760240785641  7.5892628463395 16.7602408050601  C 8.01764579082864 16.7602408050601  8.36570693322606 17.0819541210087  8.36570693322606 17.4789469248481  C 8.36570693322606 17.8759397481066  8.01841075140788 18.1976530640553  7.5892628463395 18.1976530640553  Z M 18.4189366709574 18.1976530640553  L 18.4311761866452 18.1976530640553  C 18.0030501628616 18.2043792518276  17.6500322468848 17.8877696262783  17.6424925840708 17.4903098704469  C 17.6424352241533 17.4867366654072  17.6424065430004 17.4831631131798  17.6424065430004 17.4795895113523  C 17.6424065430004 17.0861131494433  17.9829067328403 16.7656350915925  18.4066971552695 16.7602408050601  C 18.411032033597 16.7601733182525  18.4153674451999 16.7601395730699  18.4197029329898 16.7601395730699  C 18.8475438856724 16.7601395730699  19.1945970207758 17.0817477678342  19.1953807578439 17.4789469248481  C 19.1953807578439 17.8759397481066  18.8480845760257 18.1976530640553  18.4189366709574 18.1976530640553  Z M 21.6738820884956 12.4636280467168  L 20.2938770345937 15  L 5.71432248270314 15  L 4.32666773934031 12.4636280467168  L 21.6738820884956 12.4636280467168  Z M 12.0008421930813 7.66136433545094  L 10.4517788849558 6.22466225205981  C 10.1495587254278 5.94455021706169  9.66009259396074 5.94455021706168  9.35787243443282 6.22466225205981  L 7.80421927916331 7.66136433545094  C 7.63958218117972 7.79747010343303  7.54541163641745 7.99238563654766  7.54541163641745 8.19704807591668  C 7.54541163641745 8.37426636510336  7.61607764600515 8.54521101930927  7.74378668222043 8.6769273531778  C 7.89132289406535 8.82910374603417  8.10149494004848 8.91599807469699  8.32202905372577 8.91599807469699  C 8.54184527377907 8.91599807469699  8.75140248800706 8.82966654456516  8.89889071118262 8.67834770438594  L 9.89794092035398 7.7536882320304  L 10.8977561110217 8.67834770438594  C 11.2015295616118 8.96017663569635  11.693510723635 8.96112885822871  11.9985472904264 8.68047827003634  C 12.3030051777957 8.39995562460121  12.3045350989541 7.9433073515133  12.0008421930813 7.66136433545094  Z " fill-rule="nonzero" fill="#00ffff" stroke="none" transform="matrix(1 0 0 1 86 321 )" />
  </g>
</svg>