<?xml version="1.0" encoding="utf-8"?>
<svg version="1.1" xmlns:xlink="http://www.w3.org/1999/xlink" width="160px" height="65px" xmlns="http://www.w3.org/2000/svg">
  <defs>
    <linearGradient gradientUnits="userSpaceOnUse" x1="80" y1="0" x2="80" y2="65" id="LinearGradient10">
      <stop id="Stop11" stop-color="#ffffff" stop-opacity="0.996078431372549" offset="0" />
      <stop id="Stop12" stop-color="#04051a" offset="0.02" />
      <stop id="Stop13" stop-color="#053a4f" offset="0.16" />
      <stop id="Stop14" stop-color="#66ffff" offset="0.49" />
      <stop id="Stop15" stop-color="#053d53" offset="0.83" />
      <stop id="Stop16" stop-color="#04051a" offset="0.99" />
      <stop id="Stop17" stop-color="#04051a" offset="1" />
    </linearGradient>
    <mask fill="white" id="clip18">
      <path d="M 0 11.7061611374408  L 3.45098039215691 0  L 6 11.7061611374408  L 6 26.4928909952607  L 10.9803921568628 26.4928909952607  L 10.9803921568628 29  L 160 29  L 10.9803921568628 33.2701421800948  L 10.9803921568628 35.4265402843601  L 6 35.4265402843601  L 6 53.2938388625592  L 3.45098039215691 65  L 0 53.2938388625592  L 0 31.3333333333358  L 0 11.7061611374408  Z " fill-rule="evenodd" />
    </mask>
  </defs>
  <g transform="matrix(1 0 0 1 -638 -28 )">
    <path d="M 0 11.7061611374408  L 3.45098039215691 0  L 6 11.7061611374408  L 6 26.4928909952607  L 10.9803921568628 26.4928909952607  L 10.9803921568628 29  L 160 29  L 10.9803921568628 33.2701421800948  L 10.9803921568628 35.4265402843601  L 6 35.4265402843601  L 6 53.2938388625592  L 3.45098039215691 65  L 0 53.2938388625592  L 0 31.3333333333358  L 0 11.7061611374408  Z " fill-rule="nonzero" fill="url(#LinearGradient10)" stroke="none" transform="matrix(1 0 0 1 638 28 )" />
    <path d="M 0 11.7061611374408  L 3.45098039215691 0  L 6 11.7061611374408  L 6 26.4928909952607  L 10.9803921568628 26.4928909952607  L 10.9803921568628 29  L 160 29  L 10.9803921568628 33.2701421800948  L 10.9803921568628 35.4265402843601  L 6 35.4265402843601  L 6 53.2938388625592  L 3.45098039215691 65  L 0 53.2938388625592  L 0 31.3333333333358  L 0 11.7061611374408  Z " stroke-width="2" stroke="#ffffff" fill="none" transform="matrix(1 0 0 1 638 28 )" mask="url(#clip18)" />
  </g>
</svg>