<?xml version="1.0" encoding="utf-8"?>
<svg version="1.1" xmlns:xlink="http://www.w3.org/1999/xlink" width="70px" height="168px" xmlns="http://www.w3.org/2000/svg">
  <g transform="matrix(1 0 0 1 -73 -439 )">
    <path d="M 69.3125 133.75390625  C 69.33203125 152.6015625  53.98046875 167.953125  35.11328125 167.953125  C 16.24609375 167.953125  0.9140625 152.6015625  0.9140625 133.75390625  C 0.9140625 123.63671875  5.26953125 114.28125  13 107.7578125  L 13 22.62109375  C 12.92578125 10.39453125  22.88671875 0.433593750000002  35.11328125 0.433593750000002  C 47.33984375 0.433593750000002  57.30078125 10.39453125  57 22.62109375  L 57 107.7578125  C 64.9765625 114.28125  69.3125 123.63671875  69.3125 133.75390625  Z M 48 22.62109375  C 48.43359375 15.27734375  42.45703125 9.30078125  35.11328125 9.30078125000001  C 27.76953125 9.30078125000001  21.79296875 15.27734375  22 22.62109375  L 22 112.11328125  L 20.015625 113.44140625  C 13.51171875 118.28515625  9.78125 125.6875  9.78125 133.734375  C 9.78125 147.69921875  21.1484375 159.06640625  35.11328125 159.06640625  C 49.078125 159.06640625  60.4453125 147.69921875  60.4453125 133.734375  C 60.4453125 125.6875  56.71484375 118.28515625  50.2109375 113.44140625  L 48 112.11328125  L 48 22.62109375  Z " fill-rule="nonzero" fill="#06b666" stroke="none" transform="matrix(1 0 0 1 73 439 )" />
  </g>
</svg>