<?xml version="1.0" encoding="utf-8"?>
<svg version="1.1" xmlns:xlink="http://www.w3.org/1999/xlink" width="23px" height="47px" xmlns="http://www.w3.org/2000/svg">
  <g transform="matrix(1 0 0 1 -135 -479 )">
    <path d="M 22.37109375 4.84765625  C 22.37109375 7.2890625  20.37890625 9.28125  17.9375 10  L 5.359375 10  C 2.91796875000001 9.28125  0.92578125 7.2890625  0.92578125 4.84765625  C 0.92578125 2.40625  2.91796875000001 0.414062500000007  5.359375 1  L 17.9375 1  C 20.37890625 0.414062500000007  22.37109375 2.40625  22.37109375 4.84765625  Z M 22.37109375 17.34765625  C 22.37109375 19.7890625  20.37890625 21.78125  17.9375 22  L 5.359375 22  C 2.91796875000001 21.78125  0.92578125 19.7890625  0.92578125 17.34765625  C 0.92578125 14.90625  2.91796875000001 12.9140625  5.359375 13  L 17.9375 13  C 20.37890625 12.9140625  22.37109375 14.90625  22.37109375 17.34765625  Z M 22.37109375 29.84765625  C 22.37109375 32.2890625  20.37890625 34.28125  17.9375 34  L 5.359375 34  C 2.91796875000001 34.28125  0.92578125 32.2890625  0.92578125 29.84765625  C 0.92578125 27.40625  2.91796875000001 25.4140625  5.359375 25  L 17.9375 25  C 20.37890625 25.4140625  22.37109375 27.40625  22.37109375 29.84765625  Z M 22.37109375 42.34765625  C 22.37109375 44.7890625  20.37890625 46.78125  17.9375 46  L 5.359375 46  C 2.91796875000001 46.78125  0.92578125 44.7890625  0.92578125 42.34765625  C 0.92578125 39.90625  2.91796875000001 37.9140625  5.359375 38  L 17.9375 38  C 20.37890625 37.9140625  22.37109375 39.90625  22.37109375 42.34765625  Z " fill-rule="nonzero" fill="#06b666" stroke="none" transform="matrix(1 0 0 1 135 479 )" />
  </g>
</svg>