<?xml version="1.0" encoding="utf-8"?>
<svg version="1.1" xmlns:xlink="http://www.w3.org/1999/xlink" width="160px" height="65px" xmlns="http://www.w3.org/2000/svg">
  <defs>
    <linearGradient gradientUnits="userSpaceOnUse" x1="80" y1="0" x2="80" y2="65" id="LinearGradient5612">
      <stop id="Stop5613" stop-color="#04051a" offset="0" />
      <stop id="Stop5614" stop-color="#04051a" offset="0.02" />
      <stop id="Stop5615" stop-color="#053a4f" offset="0.16" />
      <stop id="Stop5616" stop-color="#66ffff" offset="0.49" />
      <stop id="Stop5617" stop-color="#053d53" offset="0.83" />
      <stop id="Stop5618" stop-color="#04051a" offset="0.99" />
      <stop id="Stop5619" stop-color="#04051a" offset="1" />
    </linearGradient>
    <linearGradient gradientUnits="userSpaceOnUse" x1="0" y1="32.5" x2="160" y2="32.5" id="LinearGradient5620">
      <stop id="Stop5621" stop-color="#04051a" offset="0" />
      <stop id="Stop5622" stop-color="#04051a" offset="0.02" />
      <stop id="Stop5623" stop-color="#053a4f" offset="0.16" />
      <stop id="Stop5624" stop-color="#66ffff" offset="0.49" />
      <stop id="Stop5625" stop-color="#053d53" offset="0.83" />
      <stop id="Stop5626" stop-color="#04051a" offset="0.99" />
      <stop id="Stop5627" stop-color="#04051a" offset="1" />
    </linearGradient>
    <mask fill="white" id="clip5628">
      <path d="M 160 11.7061611374408  L 156.549019607843 0  L 154 11.7061611374408  L 154 26.4928909952606  L 149.019607843137 26.4928909952606  L 149.019607843137 29  L 0 29  L 149.019607843137 33.2701421800948  L 149.019607843137 35.4265402843601  L 154 35.4265402843601  L 154 53.2938388625592  L 156.549019607843 65  L 160 53.2938388625592  L 160 11.7061611374408  Z " fill-rule="evenodd" />
    </mask>
  </defs>
  <g transform="matrix(1 0 0 1 -1098 -25 )">
    <path d="M 160 11.7061611374408  L 156.549019607843 0  L 154 11.7061611374408  L 154 26.4928909952606  L 149.019607843137 26.4928909952606  L 149.019607843137 29  L 0 29  L 149.019607843137 33.2701421800948  L 149.019607843137 35.4265402843601  L 154 35.4265402843601  L 154 53.2938388625592  L 156.549019607843 65  L 160 53.2938388625592  L 160 11.7061611374408  Z " fill-rule="nonzero" fill="url(#LinearGradient5612)" stroke="none" transform="matrix(1 0 0 1 1098 25 )" />
    <path d="M 160 11.7061611374408  L 156.549019607843 0  L 154 11.7061611374408  L 154 26.4928909952606  L 149.019607843137 26.4928909952606  L 149.019607843137 29  L 0 29  L 149.019607843137 33.2701421800948  L 149.019607843137 35.4265402843601  L 154 35.4265402843601  L 154 53.2938388625592  L 156.549019607843 65  L 160 53.2938388625592  L 160 11.7061611374408  Z " stroke-width="2" stroke="url(#LinearGradient5620)" fill="none" transform="matrix(1 0 0 1 1098 25 )" mask="url(#clip5628)" />
  </g>
</svg>