<?xml version="1.0" encoding="utf-8"?>
<svg version="1.1" xmlns:xlink="http://www.w3.org/1999/xlink" width="160px" height="65px" xmlns="http://www.w3.org/2000/svg">
  <defs>
    <linearGradient gradientUnits="userSpaceOnUse" x1="80" y1="0" x2="80" y2="65" id="LinearGradient5629">
      <stop id="Stop5630" stop-color="#04051a" offset="0" />
      <stop id="Stop5631" stop-color="#04051a" offset="0.02" />
      <stop id="Stop5632" stop-color="#053a4f" offset="0.16" />
      <stop id="Stop5633" stop-color="#66ffff" offset="0.49" />
      <stop id="Stop5634" stop-color="#053d53" offset="0.83" />
      <stop id="Stop5635" stop-color="#04051a" offset="0.99" />
      <stop id="Stop5636" stop-color="#04051a" offset="1" />
    </linearGradient>
    <linearGradient gradientUnits="userSpaceOnUse" x1="0" y1="32.5" x2="160" y2="32.5" id="LinearGradient5637">
      <stop id="Stop5638" stop-color="#04051a" offset="0" />
      <stop id="Stop5639" stop-color="#04051a" offset="0.02" />
      <stop id="Stop5640" stop-color="#053a4f" offset="0.16" />
      <stop id="Stop5641" stop-color="#66ffff" offset="0.49" />
      <stop id="Stop5642" stop-color="#053d53" offset="0.83" />
      <stop id="Stop5643" stop-color="#04051a" offset="0.99" />
      <stop id="Stop5644" stop-color="#04051a" offset="1" />
    </linearGradient>
    <mask fill="white" id="clip5645">
      <path d="M 0 11.7061611374408  L 3.45098039215689 0  L 6 11.7061611374408  L 6 26.4928909952606  L 10.9803921568628 26.4928909952606  L 10.9803921568628 29  L 160 29  L 10.9803921568628 33.2701421800948  L 10.9803921568628 35.4265402843601  L 6 35.4265402843601  L 6 53.2938388625592  L 3.45098039215689 65  L 0 53.2938388625592  L 0 11.7061611374408  Z " fill-rule="evenodd" />
    </mask>
  </defs>
  <g transform="matrix(1 0 0 1 -1581 -25 )">
    <path d="M 0 11.7061611374408  L 3.45098039215689 0  L 6 11.7061611374408  L 6 26.4928909952606  L 10.9803921568628 26.4928909952606  L 10.9803921568628 29  L 160 29  L 10.9803921568628 33.2701421800948  L 10.9803921568628 35.4265402843601  L 6 35.4265402843601  L 6 53.2938388625592  L 3.45098039215689 65  L 0 53.2938388625592  L 0 11.7061611374408  Z " fill-rule="nonzero" fill="url(#LinearGradient5629)" stroke="none" transform="matrix(1 0 0 1 1581 25 )" />
    <path d="M 0 11.7061611374408  L 3.45098039215689 0  L 6 11.7061611374408  L 6 26.4928909952606  L 10.9803921568628 26.4928909952606  L 10.9803921568628 29  L 160 29  L 10.9803921568628 33.2701421800948  L 10.9803921568628 35.4265402843601  L 6 35.4265402843601  L 6 53.2938388625592  L 3.45098039215689 65  L 0 53.2938388625592  L 0 11.7061611374408  Z " stroke-width="2" stroke="url(#LinearGradient5637)" fill="none" transform="matrix(1 0 0 1 1581 25 )" mask="url(#clip5645)" />
  </g>
</svg>