<?xml version="1.0" encoding="utf-8"?>
<svg version="1.1" xmlns:xlink="http://www.w3.org/1999/xlink" width="217px" height="202px" xmlns="http://www.w3.org/2000/svg">
  <g transform="matrix(1 0 0 1 -1215 -422 )">
    <path d="M 37.219815340909 189  L 137.575163398692 189  L 179.780184659091 189.528963414634  C 182.971995738636 189.528963414634  185.559659090909 192.114009146341  185.559659090909 195.302591463415  C 185.559659090909 198.491173780488  182.971995738636 201.076219512195  179.780184659091 201  L 129.871212121211 201  L 37.219815340909 201  C 34.0280042613638 201.076219512195  31.440340909091 198.491173780488  31.440340909091 195.302591463415  C 31.440340909091 192.114009146341  34.0280042613638 189.528963414634  37.219815340909 189  Z M 0.616477272727252 108.698170731707  C 0.616477272727252 49.1759146341463  48.9174715909091 0.923780487804891  108.5 0.923780487804891  C 168.082528409091 0.923780487804891  216.383522727273 49.1759146341463  216.383522727273 108.698170731707  C 216.383522727273 125.910510670732  212.336349431818 142.555880335366  204.680857599432 157.565003810976  C 203.231750710227 160.406398628049  199.751351207386 161.53572027439  196.907464488637 160.088079268293  C 194.063192471591 158.640823170732  192.932727272727 155.163559451219  194.381834161932 152.322549542683  C 200.355113636364 140.611707317073  203.865951704546 127.788479420732  204.65388671875 114  L 185.559659090909 114  C 182.367848011364 114.471798780488  179.780184659091 111.886753048781  179.780184659091 108.698170731707  C 179.780184659091 105.509588414634  182.367848011364 102.924542682927  185.559659090909 103  L 204.65388671875 103  C 203.33154296875 80.601387195122  194.391851917613 60.3259451219511  180.395120738636 44.656318597561  L 167.337746803977 57.7000990853659  C 165.080669389204 59.954893292683  161.421491477273 59.954893292683  159.1644140625 57.7000990853659  C 156.907336647727 55.4453048780488  156.907336647727 51.7898285060976  159.1644140625 49.5350342987804  L 172.198670099432 36.5135785060976  C 156.569430042613 22.7392416158536  136.431814630682 13.9510099085366  114 12.6415510670732  L 114 31.7164634146342  C 114.279474431818 34.9050457317074  111.691811079545 37.4900914634147  108.5 37.4900914634147  C 105.308188920455 37.4900914634147  102.720525568182 34.9050457317074  103 31.7164634146342  L 103 12.6415510670732  C 80.4722460937501 13.9567835365854  60.2548739346591 22.8158384146341  44.5971218039772 36.6944855182928  L 58.1079918323862 50.1920731707318  C 60.3650692471592 52.4468673780488  60.3650692471592 56.10234375  58.1079918323862 58.3571379573171  C 55.8509144176137 60.6119321646341  52.191736505682 60.6119321646341  49.934659090909 58.3571379573171  L 36.4234037642045 44.859550304878  C 22.5310884232954 60.5018483231707  13.6626775568182 80.6983841463415  12.3461132812499 103  L 31.440340909091 103  C 34.6321519886362 102.924542682927  37.219815340909 105.509588414634  37.219815340909 108.698170731707  C 37.219815340909 111.886753048781  34.6321519886362 114.471798780488  31.440340909091 114  L 12.3457279829545 114  C 13.1286541193181 127.692252286585  16.5944122869321 140.426181402439  22.4894762073864 152.069664634146  C 23.9304918323862 154.914908536585  22.7892382812502 158.388323170732  19.9411132812502 159.827496189024  C 17.0926029829548 161.267054115854  13.6156711647725 160.126955030488  12.1750408380681 157.281711128049  C 4.61202059659081 142.344950457317  0.616477272727252 125.801196646341  0.616477272727252 108.698170731707  Z " fill-rule="nonzero" fill="#06b666" stroke="none" transform="matrix(1 0 0 1 1215 422 )" />
  </g>
</svg>