<?xml version="1.0" encoding="utf-8"?>
<svg version="1.1" xmlns:xlink="http://www.w3.org/1999/xlink" width="25px" height="24px" xmlns="http://www.w3.org/2000/svg">
  <g transform="matrix(1 0 0 1 -1069 -463 )">
    <path d="M 8.928 11.834666640625  L 0.552666679687498 11.834666640625  C 0.552666679687498 15.2913333203125  4.10866669921875 17.60533328125  7.26933333984375 16.204  L 10.38 14.8266666601562  C 9.41807289368047 14.1416665938409  8.87091404555009 13.0141877479092  8.928 11.834666640625  Z M 15.2246666601563 14.014  C 14.5401818997569 14.9763241709806  13.4128987826014 15.5240124335358  12.2333333203125 15.467333359375  L 12.2333333203125 23.843333359375  C 15.688666640625 23.843333359375  18.0026666601563 20.2860000390625  16.6026666796875 17.1260000195312  L 15.2246666601563 14.014  Z M 14.412 9.1713333203125  L 14.4113333203125 9.1726666796875  C 15.373503037907 9.85721992257424  15.9209551536904 10.9845341157126  15.864 12.1640000195313  L 24.2406666796875 12.1640000195313  C 24.2406666796875 8.70733333984375  20.6846666601562 6.39333337890625  17.524666640625 7.793333359375  L 14.412 9.1713333203125  Z M 9.568666640625 9.983333359375  C 10.2535484704074 9.02090722888487  11.381503450357 8.47363925837734  12.5613333398437 8.531333359375  L 12.5613333398437 0.154666679687502  C 9.10533333984375 0.154666679687502  6.7913333203125 3.71066669921875  8.191333359375 6.87133333984375  L 9.568666640625 9.983333359375  Z " fill-rule="nonzero" fill="#247396" stroke="none" transform="matrix(1 0 0 1 1069 463 )" />
  </g>
</svg>