<?xml version="1.0" encoding="utf-8"?>
<svg version="1.1" xmlns:xlink="http://www.w3.org/1999/xlink" width="8px" height="8px" xmlns="http://www.w3.org/2000/svg">
  <g transform="matrix(1 0 0 1 -1077 -471 )">
    <path d="M 6.41133332031249 1.1726666796875  C 5.86972156175247 0.784368843785039  5.22706864444346 0.561582501289038  4.56133333984376 0.531333359375001  C 3.38165816207445 0.47349342960517  2.25383641444976 1.02081868590902  1.5693333203125 1.983333359375  C 1.14795147730432 2.57119223356781  0.922183355223744 3.27671759200839  0.92399998046875 3.99999998046875  C 0.92399998046875 5.1659999609375  1.49866662109375 6.19733333984375  2.3806666796875 6.82666666015625  L 2.38199998046875 6.82666666015626  C 2.9687695339899 7.24821064755546  3.67350865851281 7.47402576599462  4.39599999999999 7.472  C 5.56266666015625 7.472  6.59533333984375 6.897333359375  7.22399998046875 6.014  C 7.64400308662947 5.42649480543042  7.86944458317677 4.72219410785854  7.86866664062499 3.99999998046875  C 7.87033133673914 2.87694138190325  7.3270216118817 1.82288075190381  6.41133332031249 1.1726666796875  Z " fill-rule="nonzero" fill="#247396" stroke="none" transform="matrix(1 0 0 1 1077 471 )" />
  </g>
</svg>