<?xml version="1.0" encoding="utf-8"?>
<svg version="1.1" xmlns:xlink="http://www.w3.org/1999/xlink" width="33px" height="32px" xmlns="http://www.w3.org/2000/svg">
  <g transform="matrix(1 0 0 1 -1065 -459 )">
    <path d="M 6.96510910532359 28.041980798113  C 6.96510910532359 28.3136679156049  7.09069662206009 28.5700984426962  7.3053333203125 28.7366666796875  C 9.95520677465244 30.6364671441955  13.1354760554081 31.6547317175312  16.396 31.647333359375  C 25.0233333203125 31.647333359375  32.0433333203125 24.6280000390625  32.0433333203125 15.9999999804688  C 32.0433333203125 7.371999921875  25.0233333203125 0.352666660156251  16.396 0.352666660156251  C 7.7686666796875 0.352666660156251  0.749333359375001 7.37199998046875  0.749333359375001 15.9999999804688  C 0.746758002139021 19.8446344532811  2.16218267645581 23.5551692336875  4.724666640625 26.421333359375  C 4.89135704163269 26.6077571729578  5.12958761653433 26.714319333062  5.37966666015625 26.714319333062  C 5.86493312101337 26.714319333062  6.25831931353079 26.3209331405446  6.25831931353079 25.8356666796875  C 6.25831931353079 25.6195849916135  6.17869611419675 25.4110801599076  6.0346666796875 25.25  C 3.76057613602415 22.7057944900159  2.50445715846087 19.4123986376934  2.5066666796875 15.9999999804688  C 2.5066666796875 8.3413333203125  8.73733333984375 2.11066666015625  16.3953333203125 2.11066666015625  C 24.0539999804687 2.11066666015625  30.284666640625 8.3413333203125  30.284666640625 15.9999999804688  C 30.284666640625 23.658666640625  24.0539999804687 29.8893333007813  16.3953333203125 29.889333359375  C 13.48 29.889333359375  10.69 28.9960000390625  8.3266666796875 27.306666640625  C 8.18338935611027 27.2127043566372  8.01578217279539 27.1626474582692  7.84444244516734 27.1626474582692  C 7.35880005155386 27.1626474582692  6.96510910532359 27.5563384044995  6.96510910532359 28.041980798113  Z " fill-rule="nonzero" fill="#22f0e8" stroke="none" transform="matrix(1 0 0 1 1065 459 )" />
  </g>
</svg>