<?xml version="1.0" encoding="utf-8"?>
<svg version="1.1" xmlns:xlink="http://www.w3.org/1999/xlink" width="55px" height="39px" xmlns="http://www.w3.org/2000/svg">
  <g transform="matrix(1 0 0 1 -1332 -578 )">
    <path d="M 54 1.82812501904296  C 54.5089285522461 0.853124999999997  53.6495535714286 0  52.6674106951032 0  C 51.6852678187779 0  50.8258928379604 0.853125  50.8258928379604 1.82812501904297  L 50.8258928379604 3  L 27.5 3  C 18.0468749808175 2.43749998095703  10.3124999808175 10.115624980957  10.3124999808175 19.5  C 10.3124999808175 21.69375  10.6808035522461 23.643749980957  11.4174106951032 25.593750019043  L 4.17410716203962 25.593750019043  L 4.17410716203962 24.984375  C 4.17410716203962 24.009374980957  3.3147321812221 23.15625  2.33258930489676 23.15625  C 1.35044642857143 23.15625  0.491071447753906 24.009374980957  1 24.984375  L 1 37.171874980957  C 0.491071447753906 38.146875  1.35044642857143 38.999999980957  2.33258930489676 38.999999980957  C 3.3147321812221 38.999999980957  4.17410716203962 38.146875  4.17410716203962 37.171874980957  L 4.17410716203962 36  L 27.5 36  C 36.9531250191825 36.562500019043  44.6875000191825 28.884375019043  44.6875000191825 19.5  C 44.6875000191825 17.30625  44.3191964477539 15.356250019043  43.5825893048968 13.406249980957  L 50.8258928379604 13.406249980957  L 50.8258928379604 14.015625  C 50.8258928379604 14.990625019043  51.6852678187779 15.84375  52.6674106951032 15.84375  C 53.6495535714286 15.84375  54.5089285522461 14.990625019043  54 14.015625  L 54 1.82812501904296  Z M 37.321428590611 19.5  C 37.321428590611 24.862500019043  32.9017857334682 29.250000019043  27.5 29.250000019043  C 22.0982142665318 29.250000019043  17.678571409389 24.862500019043  17.678571409389 19.5  C 17.678571409389 14.137499980957  22.0982142665318 9.74999998095703  27.5 9.74999998095703  C 32.9017857334682 9.74999998095703  37.321428590611 14.137499980957  37.321428590611 19.5  Z " fill-rule="nonzero" fill="#ffffff" stroke="none" transform="matrix(1 0 0 1 1332 578 )" />
  </g>
</svg>