<?xml version="1.0" encoding="utf-8"?>
<svg version="1.1" xmlns:xlink="http://www.w3.org/1999/xlink" width="43px" height="30px" xmlns="http://www.w3.org/2000/svg">
  <g transform="matrix(1 0 0 1 -1049 -454 )">
    <path d="M 0 28.288666640625  C 0 28.77333328125  0.393333359375 29.1673333007812  0.8786666796875 29.167333359375  C 1.364 29.167333359375  1.75733333984375 28.7733333398437  2 28.288666640625  L 2 3.78866666015625  C 1.75806866102993 2.79301789676577  2.56501791629702 1.98606864149867  3.5606666796875 2  L 41.7459999804688 2  C 41.7459999804688 1.9853333203125  41.7459999804688 1.9853333203125  41.7459999804688 1.9853333203125  C 42.2312741770578 1.9853333203125  42.624666640625 1.5919408567453  42.624666640625 1.10666666015625  C 42.624666640625 0.621392463567199  42.2312741770578 0.228  41.7459999804688 0.228  L 3.5606666796875 0.228000000000002  C 1.59492647108334 0.22983766040403  0.00183767993528061 1.82292645155209  0 3.78866666015625  L 0 28.288666640625  Z " fill-rule="nonzero" fill="#22f0e8" stroke="none" transform="matrix(1 0 0 1 1049 454 )" />
  </g>
</svg>