<?xml version="1.0" encoding="utf-8"?>
<svg version="1.1" xmlns:xlink="http://www.w3.org/1999/xlink" width="16px" height="16px" xmlns="http://www.w3.org/2000/svg">
  <g transform="matrix(1 0 0 1 -1352 -590 )">
    <path d="M 13.625 7.24999999999999  L 13.625 7.12500001953125  L 14.6250000195313 6.125  C 15.0000000195312 5.75  15.0000000195312 5.12499998046875  14.6250000195313 4.74999998046875  C 14.2500000195313 4.37499998046875  13.625 4.37499998046875  13.25 4.74999998046875  L 10.8750000195313 7.12500001953125  L 9.00000001953125 7.12500001953125  L 9.00000001953125 5.25000001953125  L 11.375 2.87499998046875  C 11.75 2.49999998046875  11.75 1.8749999609375  11.375 1.50000001953125  C 11 1.125000078125  10.3749999804688 1.12500001953125  9.99999998046875 1.50000001953125  L 9.00000001953125 2.49999998046875  L 9.00000001953125 1.625  C 9.00000001953125 1.12500001953125  8.5000000390625 0.62499998046875  8 0.62499998046875  C 7.49999996093749 0.62499998046875  6.99999998046875 1.1249999609375  6.99999998046875 1.625  L 6.99999998046875 2.49999998046875  L 6.00000001953125 1.50000001953125  C 5.62500001953125 1.12500001953125  5 1.12500001953125  4.625 1.50000001953125  C 4.25 1.87500001953125  4.25 2.5000000390625  4.625 2.87499998046875  L 6.99999998046875 5.25000001953125  L 6.99999998046875 7.12500001953125  L 5.12499998046875 7.12500001953125  L 2.75 4.74999998046875  C 2.375 4.37499998046875  1.74999998046875 4.37499998046875  1.37499998046875 4.74999998046875  C 0.999999980468747 5.12499998046875  0.999999980468747 5.75  1.37499998046875 6.125  L 2.375 7.12500001953125  L 1.50000001953125 7.12500001953125  C 1.0000000390625 7.12500001953125  0.499999999999996 7.625  0.499999999999996 8.12499998046875  C 0.499999999999996 8.6249999609375  0.999999980468747 9.125  1.50000001953125 9.125  L 2.375 9.125  L 1.37499998046875 10.1250000195313  C 1.25 10.25  1.1249999609375 10.625  1.12500001953125 10.8750000195313  C 1.12500001953125 11.375  1.625 11.8750000390625  2.12499998046875 11.8749999804688  C 2.375 11.8749999804688  2.6249999609375 11.75  2.87499998046875 11.6250000195313  L 5.25000001953125 9.24999998046876  L 7.12500001953125 9.24999998046876  L 7.12500001953125 11.1249999804688  L 4.74999998046875 13.5000000195313  C 4.37499998046875 13.8750000195313  4.37499998046875 14.5000000390625  4.74999998046875 14.8749999804688  C 5.12499998046875 15.2499999804688  5.75 15.2499999804688  6.125 14.8749999804688  L 7.12500001953125 13.8750000195313  L 7.12500001953125 14.75  C 7.12500001953125 15.2499999804688  7.625 15.7500000195313  8.12499998046875 15.7500000195313  C 8.6249999609375 15.7500000195313  9.125 15.2500000390625  9.125 14.75  L 9.125 13.8750000195313  L 10.1250000195313 14.8749999804688  C 10.3750000390625 15.125  10.625 15.125  10.8750000195313 15.125  C 11.1250000390625 15.125  11.375 15.0000000195313  11.6250000195312 14.8749999804688  C 12.0000000195312 14.4999999804688  12.0000000195312 13.8749999609375  11.6250000195312 13.5000000195313  L 9.24999998046875 11.1249999804688  L 9.24999998046875 9.24999998046875  L 11.1249999804688 9.24999998046875  L 13.5000000195312 11.6250000195312  C 13.7500000390625 11.8750000390625  14 11.8750000390625  14.2500000195312 11.8749999804688  C 14.5000000390625 11.8749999804688  14.75 11.75  15.0000000195312 11.6250000195312  C 15.3750000195312 11.2500000195312  15.3750000195312 10.625  15.0000000195312 10.25  L 14 9.24999998046875  L 14.8749999804687 9.24999998046875  C 15.3749999609375 9.24999998046875  15.875 8.75  15.875 8.25000001953124  C 15.875 7.75000003906249  15.3750000195312 7.24999999999999  14.8749999804687 7.24999999999999  L 13.625 7.24999999999999  Z " fill-rule="nonzero" fill="#22f0e8" stroke="none" transform="matrix(1 0 0 1 1352 590 )" />
  </g>
</svg>