<?xml version="1.0" encoding="utf-8"?>
<svg version="1.1" xmlns:xlink="http://www.w3.org/1999/xlink" width="36px" height="20px" xmlns="http://www.w3.org/2000/svg">
  <g transform="matrix(1 0 0 1 -1711 -387 )">
    <path d="M 34.1222222167969 8.67777778320313  L 31.9888888671875 8.67777778320313  L 31.9888888671875 7.75555556640625  C 31.9888888671875 7.14190585145526  31.4914274981541 6.64444446056078  30.8777777832031 6.64444443359375  L 28 6.64444443359375  C 27.6581110845026 6.65133567587344  27.3384389272428 6.81527011457025  27.1333333496094 7.0888888671875  C 25.8393923383858 3.16179097426929  22.1713996024346 0.508389858413683  18.036622558737 0.508389858413683  C 15.4922424247025 0.508389858413683  13.0524283646859 1.52080099640677  11.2555555664062 3.32222221679687  C 10.2488375401241 4.34048369224704  9.48866807814005 5.57575907841043  9.03333334960938 6.93333334960938  C 8.82432023538595 6.68237172340924  8.51547834271968 6.53607820188347  8.1888888671875 6.53333334960938  L 5.3 6.53333334960938  C 4.68635028504901 6.53333334960938  4.18888889415453 7.03079471864276  4.1888888671875 7.64444443359375  L 4.1888888671875 8.56666665039063  L 1.75555556640625 8.56666665039063  C 1.14190583238669 8.56666665039063  0.64444443359375 9.06412804918357  0.64444443359375 9.67777778320313  L 0.64444443359375 10.3222222167969  C 0.64444443359375 10.9358719508164  1.14190583238669 11.4333333496094  1.75555556640625 11.4333333496094  L 4.1888888671875 11.4333333496094  L 4.1888888671875 12.3555555664062  C 4.18888889415453 12.9692052813572  4.68635028504901 13.4666666503906  5.3 13.4666666503906  L 8.15555556640625 13.4666666503906  C 8.45089220726964 13.4683741534326  8.73475684689548 13.3524294402355  8.94444443359375 13.1444444335938  C 10.2466809171027 17.0648810434107  13.9133860860786 19.7106209910712  18.0444444335938 19.7106209910712  C 22.1755027811089 19.7106209910712  25.8422079500848 17.0648810434107  27.1444444335937 13.1444444335937  C 27.349550021714 13.4180631995601  27.6692222000397 13.5819976398238  28.0111111328125 13.5888888671875  L 30.8777777832031 13.5888888671875  C 31.4914274790855 13.5888888402205  31.9888888402205 13.0914274790855  31.9888888671875 12.4777777832031  L 31.9888888671875 11.5555555664062  L 34.1222222167969 11.5555555664062  C 34.7358719508164 11.5555555664062  35.2333333496094 11.0580941676133  35.2333333496094 10.4444444335937  L 35.2333333496094 9.8  C 35.2333703871686 9.79629642062015  35.2333889062954 9.79259267919852  35.2333889062954 9.78888891462668  C 35.2333889062954 9.17523918060712  34.7359275075025 8.67777778181418  34.1222777734829 8.67777778181418  Z M 26.6 10.1111111328125  C 26.5938786252076 14.8582221129519  22.7471109801394 18.7049897580201  18 18.7111111328125  C 13.2503511514552 18.7111111328125  9.4 14.8607599813573  9.4 10.1111111328125  C 9.4 5.36146228426768  13.2503511514552 1.5111111328125  18 1.5111111328125  C 22.7496488485448 1.5111111328125  26.6 5.36146228426768  26.6 10.1111111328125  Z " fill-rule="nonzero" fill="#ffffff" stroke="none" transform="matrix(1 0 0 1 1711 387 )" />
  </g>
</svg>