<?xml version="1.0" encoding="utf-8"?>
<svg version="1.1" xmlns:xlink="http://www.w3.org/1999/xlink" width="16px" height="16px" xmlns="http://www.w3.org/2000/svg">
  <g transform="matrix(1 0 0 1 -1721 -389 )">
    <path d="M 15.7777777832031 8.12222221679687  C 15.7777777832031 3.82667415956103  12.2955480572358 0.344444433593747  8 0.34444443359375  C 3.70445194276416 0.344444433593747  0.222222216796876 3.82667415956103  0.222222216796876 8.12222221679687  C 0.222222216796876 12.4177702740327  3.70445194276416 15.9  8 15.9  C 12.2955480572358 15.9  15.7777777832031 12.4177702740327  15.7777777832031 8.12222221679687  Z M 3.17777778320312 5.33333334960938  L 3.17777778320312 4.1111111328125  C 3.17777778320312 3.8349687578971  3.40163540828773 3.6111111328125  3.67777778320313 3.6111111328125  L 11.8888888671875 3.6111111328125  C 11.9073387267843 3.60904801479293  11.9258891723617 3.60801405408843  11.9444540255824 3.60801405408843  C 12.2205964004978 3.60801405408843  12.4444540255824 3.83187167917303  12.4444540255824 4.10801405408843  C 12.4444540255824 4.10904642108995  12.4444508282375 4.11007878561588  12.4444444335938 4.1111111328125  L 12.4444444335938 5.33333334960938  C 12.4444444335938 5.60947572452477  12.2205868085092 5.83333334960938  11.9444444335938 5.83333334960938  L 3.67777778320313 5.83333334960938  C 3.40163540828773 5.83333334960938  3.17777778320312 5.60947572452477  3.17777778320312 5.33333334960938  Z M 3.46666665039063 8.9111111328125  L 3.46666665039063 8.96666665039062  C 2.88369940846545 8.96666665039062  2.41111108398438 8.49407832590955  2.41111108398438 7.91111108398437  C 2.41111108398438 7.3281438420592  2.88369940846545 6.85555551757813  3.46666665039062 6.85555551757813  C 4.0496338923158 6.85555551757813  4.52222221679688 7.3281438420592  4.52222221679688 7.91111108398437  C 4.49264677242893 8.47227589947019  4.02860970415704 8.91188995962976  3.46666665039063 8.9111111328125  Z M 13.6666666503906 10.2444444335937  L 13.6666666503906 10.3  L 13.6666666503906 10.5  C 13.6668350704648 10.5037013609251  13.6669193131549 10.5074060727053  13.6669193131549 10.5111112633912  C 13.6669193131549 10.6461141962461  13.557477812416 10.755555696985  13.4224748795612 10.755555696985  L 13.0666666503906 10.7555555664063  C 13.00028544467 11.1365009100101  12.8483214239688 11.4974154716971  12.6222222167969 11.8111111328125  L 12.8777777832031 12.0666666503906  C 12.9261363351116 12.1108714399736  12.9536819370697 12.1733708561856  12.9536819370697 12.2388888916016  C 12.9536819370697 12.3044069270175  12.9261363351116 12.3669063432295  12.8777777832031 12.4111111328125  L 12.7333333496094 12.5555555664062  C 12.6871518383944 12.6044906989094  12.6228413685579 12.6322259229966  12.5555555664062 12.6322259229966  C 12.4882697642546 12.6322259229966  12.423959294418 12.6044906989094  12.3777777832031 12.5555555664062  L 12.1333333496094 12.3  C 11.8222852941513 12.5307777283176  11.4602194362037 12.6832265053223  11.0777777832031 12.7444444335937  L 11.0777777832031 13  C 11.0777779137819 13.1352555956192  10.968336413043 13.2446970963581  10.8333334801881 13.2446970963581  C 10.8296282895022 13.2446970963581  10.825923577722 13.2446128536679  10.8222222167969 13.2444444335937  L 10.6222222167969 13.2444444335937  C 10.487219283942 13.2444444335937  10.3777777832031 13.1350029328549  10.3777777832031 13  L 10.3777777832031 12.6444444335937  C 9.99471977664285 12.585392917052  9.63215137310678 12.4327325419121  9.32222221679688 12.2  L 9.06666665039063 12.4555555664063  C 9.02048514053966 12.5044906831984  8.95617468139094 12.5322258971268  8.88888889160157 12.5322258971268  C 8.8216031018122 12.5322258971268  8.75729264266349 12.5044906831984  8.71111113281251 12.4555555664063  L 8.57777778320314 12.3111111328125  C 8.52941923129465 12.2669063432295  8.50187362933652 12.2044069270175  8.50187362933652 12.1388888916016  C 8.50187362933652 12.0733708561856  8.52941923129465 12.0108714399736  8.57777778320313 11.9666666503906  L 8.82222221679688 11.7111111328125  C 8.59502077001862 11.3992118110456  8.44637553462564 11.0371272731713  8.38888886718751 10.6555555664062  L 8 10.6555555664062  C 7.85886055793945 10.6555555664062  7.74444443359376 10.5411394420605  7.74444443359375 10.4  L 7.74444443359376 10.2  C 7.77094213734258 10.0808619886952  7.87798557734287 9.9970888652954  8 10  L 8.35555556640625 10  C 8.41086597891007 9.61783047986993  8.55971888690495 9.25524003199418  8.7888888671875 8.94444443359374  L 8.54444443359375 8.68888886718749  C 8.49550931680158 8.64270735733651  8.4677741028732 8.5783968981878  8.4677741028732 8.51111110839843  C 8.4677741028732 8.44382531860906  8.49550931680158 8.37951485946034  8.54444443359375 8.33333334960937  L 8.67777778320313 8.19999999999999  C 8.72395929441804 8.15106486749682  8.78826976425456 8.12332964340967  8.85555556640625 8.12332964340967  C 8.92284136855794 8.12332964340967  8.98715183839445 8.15106486749682  9.03333334960937 8.19999999999999  L 9.2888888671875 8.44444443359374  C 9.59968446558793 8.21527445331119  9.96227491346368 8.06642154531631  10.3444444335937 8.01111113281248  L 10.3444444335937 7.65555556640624  C 10.3444444335937 7.52055263355139  10.4538859343326 7.41111113281249  10.5888888671875 7.41111113281249  L 10.7888888671875 7.41111113281249  C 10.7925902281126 7.41094271273836  10.7962949398928 7.41085847004818  10.8000001305787 7.41085847004818  C 10.9350030634336 7.41085847004818  11.0444445641725 7.52029997078708  11.0444445641725 7.65530290364194  L 11.0444444335937 8.01111113281248  C 11.4260161360219 8.06859778570128  11.7881006735537 8.2172430042043  12.1 8.44444443359374  L 12.3444444335937 8.19999999999999  C 12.3906259448087 8.15106486749682  12.4549364146452 8.12332964340967  12.5222222167969 8.12332964340967  C 12.5895080189486 8.12332964340967  12.6538184887851 8.15106486749682  12.7 8.19999999999999  L 12.8444444335937 8.33333334960937  C 12.8933795503859 8.37951485946035  12.9211147643143 8.44382531860905  12.9211147643143 8.51111110839843  C 12.9211147643143 8.5783968981878  12.8933795503859 8.64270735733651  12.8444444335937 8.68888886718749  L 12.5888888671875 8.94444443359374  C 12.8170788997851 9.2569621536032  12.9692558062636 9.61838227932186  13.0333333496094 10  L 13.3888888671875 10  C 13.3999383983262 9.99847854090165  13.4110791080168 9.99771513546767  13.4222328955427 9.99771513546767  C 13.5572358283976 9.99771513546767  13.6666773291365 10.1071566362066  13.6666773291365 10.2421595690614  C 13.6666773291365 10.2429212030494  13.6666737695156 10.2436828328784  13.6666666503906 10.2444444335937  Z " fill-rule="nonzero" fill="#ffffff" stroke="none" transform="matrix(1 0 0 1 1721 389 )" />
  </g>
</svg>