<?xml version="1.0" encoding="utf-8"?>
<svg version="1.1" xmlns:xlink="http://www.w3.org/1999/xlink" width="10px" height="11px" xmlns="http://www.w3.org/2000/svg">
  <g transform="matrix(1 0 0 1 -1740 -382 )">
    <path d="M 9.75555556640625 5.35555556640625  C 9.74944697554506 2.78689774112455  7.6686578252817 0.706108590861184  5.1 0.699999999999999  C 3.54814814453125 0.700000000000003  6.65185185546876 0.699999999999999  5.1 0.699999999999999  C 2.52880765868397 0.699999999999999  0.444444433593755 2.78436322509021  0.444444433593755 5.35555556640625  C 0.444444433593755 7.92674790772228  2.52880765868397 10.0111111328125  5.1 10.0111111328125  C 7.67119234131604 10.0111111328125  9.75555556640625 7.92674790772228  9.75555556640625 5.35555556640625  Z M 2.24444443359374 3.6111111328125  L 2.24444443359374 3.07777778320313  C 2.24444443359374 2.86300034364836  2.41855591005461 2.6888888671875  2.63333330078125 2.6888888671875  L 7.26666665039063 2.6888888671875  C 7.477092764632 2.69490346540488  7.64453039994333 2.8672657465966  7.64444443359375 3.07777778320313  L 7.64444443359375 3.6111111328125  C 7.64444440662672 3.8197520222319  7.47530753981003 3.98888886718751  7.26666665039063 3.9888888671875  L 2.63333334960937 3.9888888671875  C 2.42282133142754 3.98897483428504  2.25045905771589 3.82153722788153  2.24444443359374 3.6111111328125  Z M 3.04434521908743 5.20000000790997  C 3.04434521908743 5.54360510421755  2.76582730873638 5.82216742831604  2.42222221679687 5.82222221679688  C 2.0828711892601 5.82227632695911  1.80605984742895 5.55040805450104  1.8 5.2111111328125  C 1.79993385831417 5.2074077936344  1.79990078549368 5.20370393768667  1.79990078549368 5.20000000790997  C 1.79990078549368 4.85635616656715  2.07847916094773 4.5777777911131  2.42212300229055 4.5777777911131  C 2.76576684363338 4.5777777911131  3.04434521908743 4.85635616656715  3.04434521908743 5.20000000790997  Z M 8.43333334960938 6.66666665039063  L 8.3888888671875 6.72222221679688  C 8.38917411815388 6.72591927206974  8.38931690230527 6.72962594042034  8.38931690230527 6.73333398381334  C 8.38931690230527 6.81310844168512  8.3246469265833 6.87777841740709  8.24487246871153 6.87777841740709  L 8.03333334960937 6.87777778320313  C 7.99999466768539 7.09948034171481  7.91218807087313 7.30945262020402  7.77777778320312 7.48888886718751  L 7.93333334960938 7.64444443359375  C 7.98695066601109 7.70033053794247  7.98695066601109 7.78855832924505  7.93333334960937 7.84444443359376  L 7.84444443359376 7.93333334960938  C 7.78855832924503 7.9869506660111  7.70033053794247 7.98695066601109  7.64444443359375 7.93333334960938  L 7.4888888671875 7.77777778320313  C 7.30945262020401 7.91218807087313  7.09948034171479 7.9999946676854  6.87777778320313 8.03333334960938  L 6.87777778320313 8.24444443359376  C 6.87777778320313 8.32421889146553  6.81310780748115 8.3888888671875  6.73333334960937 8.3888888671875  L 6.61111113281251 8.3888888671875  C 6.53133662611261 8.38888886718751  6.46666665039064 8.32421889146553  6.46666665039064 8.24444443359376  L 6.46666665039063 8.03333334960938  C 6.24095550828928 8.00224800320263  6.02684682971984 7.91431050571824  5.84444443359375 7.77777778320313  L 5.7 7.93333334960938  C 5.64039961026771 7.98839288514452  5.54848925691979 7.98839288514452  5.48888886718751 7.93333334960938  L 5.4111111328125 7.84444443359376  C 5.35749381641079 7.78855832924505  5.35749381641079 7.70033053794247  5.4111111328125 7.64444443359375  L 5.55555556640625 7.48888886718751  C 5.42114527873625 7.30945262020402  5.33333868192398 7.09948034171481  5.3 6.87777778320313  L 5.0888888671875 6.87777778320313  C 5.00868637419795 6.87777841740709  4.94401639847597 6.81310844168512  4.94401639847597 6.73333398381334  C 4.94401639847597 6.7296259404203  4.94415918262737 6.72591927206977  4.94444443359374 6.72222221679688  L 4.94444443359375 6.66666665039063  C 4.94444443359375 6.58689219251885  5.00911440931573 6.52222221679688  5.0888888671875 6.52222221679688  L 5.3 6.52222221679688  C 5.33108534640675 6.29651107469552  5.41902284389114 6.08240239612608  5.55555556640625 5.9  L 5.4111111328125 5.75555556640625  C 5.35605159727736 5.69595517667396  5.35605159727736 5.60404482332604  5.4111111328125 5.54444443359375  L 5.48888886718751 5.46666665039062  C 5.54848925691979 5.41160711485548  5.64039961026771 5.41160711485548  5.7 5.46666665039062  L 5.84444443359375 5.6111111328125  C 6.02684682971984 5.47457841029739  6.24095550828928 5.386640912813  6.46666665039063 5.35555556640625  L 6.46666665039064 5.14444443359375  C 6.46666665039064 5.06466997572197  6.53133662611261 4.99999999999999  6.61111108398438 4.99999999999999  L 6.77777778320313 5.00000000000001  C 6.8575522410749 5.00000000000001  6.92222221679688 5.06466997572198  6.92222221679688 5.14444443359375  L 6.92222221679688 5.35555556640625  C 7.14392479237666 5.38889424056431  7.35389708852205 5.47670083774427  7.53333334960937 5.6111111328125  L 7.6888888671875 5.46666665039063  C 7.74477497153621 5.41304933398892  7.8330027628388 5.41304933398892  7.8888888671875 5.46666665039062  L 7.97777778320312 5.54444443359375  C 8.03283731873826 5.60404482332604  8.03283731873826 5.69595517667396  7.97777778320312 5.75555556640625  L 7.82222221679687 5.9  C 7.95875493931199 6.08240239612608  8.04669243679638 6.29651107469552  8.07777778320312 6.52222221679688  L 8.2888888671875 6.52222221679688  C 8.3686633738874 6.52222221679687  8.43333334960938 6.58689219251884  8.43333334960938 6.66666665039062  Z " fill-rule="nonzero" fill="#ffffff" stroke="none" transform="matrix(1 0 0 1 1740 382 )" />
  </g>
</svg>