<?xml version="1.0" encoding="utf-8"?>
<svg version="1.1" xmlns:xlink="http://www.w3.org/1999/xlink" width="26px" height="20px" xmlns="http://www.w3.org/2000/svg">
  <g transform="matrix(1 0 0 1 -1730 -381 )">
    <path d="M 1.73333335021327 16.8777356948877  C 1.72962959921779 16.8777356948877  1.72592586150737 16.8777497244268  1.72222221679687 16.8777777832031  C 0.906084396692872 16.8778008526941  0.244486205437102 17.5394177453858  0.244486205437102 18.3555555658159  C 0.244486205437102 19.1717096991177  0.906109855338386 19.833333349019  1.72226398864023 19.833333349019  C 2.53841812194207 19.833333349019  3.20004177184335 19.1717096991177  3.20004177184335 18.3555555658159  C 3.20004177184335 18.3518518158153  3.20002784779717 18.3481480789017  3.2 18.3444444335938  C 3.2000000006039 17.5343847211822  2.54335097430942 16.8777356948877  1.73333335021327 16.8777356948877  Z M 25.4222222167969 6.0111111328125  C 25.4222222167969 5.7349687578971  25.1983645917123 5.5111111328125  24.9222222167969 5.5111111328125  L 23.1222222167969 5.5111111328125  L 23.1222222167969 5.2  C 23.1222222167969 4.71521671659663  22.7292277169971 4.32222221679688  22.2444444335937 4.32222221679688  L 21.0222222167969 4.32222221679688  C 20.7924678182617 4.32189662334453  20.5722375231674 4.41399293656421  20.4111111328125 4.57777778320312  C 20.1406672925191 3.74563271354402  19.6847557514982 2.98578015630654  19.0777777832031 2.35555556640625  C 16.8791092704671 0.163045508693072  13.3208907295329 0.163045508693072  11.1222222167969 2.35555556640625  C 10.5152442485018 2.98578015630654  10.0593327074809 3.74563271354402  9.78888886718751 4.57777778320312  C 9.62776247683259 4.41399293656421  9.40753218173827 4.32189662334453  9.17777778320314 4.32222221679688  L 7.95555556640626 4.32222221679688  C 7.4707722830029 4.32222221679688  7.07777778320314 4.71521671659663  7.07777778320314 5.2  C 7.07777778320314 4.61481481119792  7.07777778320314 5.78518518880209  7.07777778320314 5.2  L 7.07777778320314 5.5111111328125  L 5.74444443359376 5.5111111328125  C 5.47265079180656 5.5171524869066  5.25548843192142 5.7392503648297  5.25555556640627 6.0111111328125  L 5.25555556640627 6.7  C 5.25548843192142 6.97186076798281  5.47265079180656 7.19395864590591  5.74444443359376 7.2  L 7.07777778320314 7.2  L 7.07777778320314 7.5111111328125  C 7.07777781017016 7.99589439714731  7.47077230207146 8.3888888671875  7.95555556640626 8.3888888671875  L 9.17777778320313 8.3888888671875  C 9.40753217463336 8.38921447351153  9.62776246870818 8.29711817831471  9.7888888671875 8.13333334960938  C 10.5113158462095 10.4563343961389  12.6610907791721 12.0391114641191  15.0938329772269 12.0391114641191  C 16.594708120977 12.0391114641191  18.0317279345631 11.4318482363093  19.0777777832031 10.3555555664062  C 19.6872698776346 9.72725979802422  20.1435523120236 8.96678908518222  20.4111111328125 8.13333334960938  C 20.5722375312918 8.29711817831471  20.7924678253667 8.38921447351153  21.0222222167969 8.3888888671875  L 22.2444444335938 8.3888888671875  C 22.7292276979285 8.3888888671875  23.1222221898298 7.9958943971473  23.1222222167969 7.5111111328125  L 23.1222222167969 7.2  L 24.9222222167969 7.2  C 25.1983645917123 7.2  25.4222222167969 6.9761423749154  25.4222222167969 6.7  L 25.4222222167969 6.0111111328125  Z M 20.0333333496094 6.35555556640625  C 20.0333333226423 9.0801603221586  17.8246047557524 11.2888888671875  15.1 11.2888888671875  C 12.3753952251791 11.2888888671875  10.1666666503906 9.08016029239905  10.1666666503906 6.35555551757812  C 10.1666666503906 3.6309507427572  12.3753952251791 1.42222216796875  15.1 1.42222216796875  C 17.8246047748209 1.42222216796875  20.0333333496094 3.6309507427572  20.0333333496094 6.35555551757812  Z " fill-rule="nonzero" fill="#ffffff" stroke="none" transform="matrix(1 0 0 1 1730 381 )" />
  </g>
</svg>