<?xml version="1.0" encoding="utf-8"?>
<svg version="1.1" xmlns:xlink="http://www.w3.org/1999/xlink" width="43px" height="28px" xmlns="http://www.w3.org/2000/svg">
  <g transform="matrix(1 0 0 1 -1052 -461 )">
    <path d="M 25.1739999804688 12.9559999804688  L 17.5526666796875 12.9559999804688  C 17.067333359375 12.9559999804688  16.6740000195312 13.3493333203125  16.6740000195313 13.834666640625  C 16.6706082038685 15.7500207692763  17.6394018181652 17.5362261709233  19.2466666601563 18.5779999804688  C 20.8502835848766 19.6244630107644  22.8751451747006 19.7863615839021  24.624666640625 19.008  L 27.3133333203125 17.8173333398437  C 27.640819552854 17.9977670057066  27.9907470555287 18.1340616414366  28.3539999804688 18.2226666796875  L 28.3539999804688 25.8439999804688  C 28.3539999804688 26.3299999804687  28.7473333203125 26.722666640625  29.232666640625 26.722666640625  C 31.1474985881234 26.7261191871838  32.9331300194456 25.7572283567741  33.974 24.15  C 35.0218824521103 22.5466636688776  35.1840777404305 20.520979978922  34.404666640625 18.7713333398437  L 33.2139999804687 16.081333359375  C 33.3939999804687 15.7540000195312  33.5293333203125 15.4053333398438  33.6173333398438 15.043333359375  L 41.24 15.043333359375  C 41.726 15.043333359375  42.1186666601563 14.6500000195312  42.1186666601563 14.164666640625  C 42.1186666601563 12.2426666601562  41.1566666796875 10.4693333203125  39.5460000195313 9.421333359375  C 37.935333359375 8.3733333984375  35.924 8.21200001953125  34.1679999804688 8.99066666015625  L 31.4773333203125 10.182  C 31.1504149011037 10.0026797907608  30.8014587639709 9.86686257246979  30.4393333203125 9.77800001953125  L 30.4393333203125 2.1546666796875  C 30.4393333203125 1.669333359375  30.0453333007813 1.27600001953125  29.5606666601563 1.27600001953125  C 27.6456606898472 1.27256777706813  25.859837979492 2.24142617688343  24.8186666796875 3.84866666015625  C 23.7711456275065 5.45212650932888  23.6089653680714 7.47762222548628  24.3879999804688 9.2273333203125  L 25.5780000195313 11.916  C 25.3984972332355 12.2435377925982  25.26267501854 12.5931790969861  25.1739999804688 12.9559999804688  Z M 25.8646666601563 16.5366666796875  L 23.9126666796875 17.401333359375  C 22.7068811781696 17.9390717581632  21.3105191281159 17.8275837462554  20.205333359375 17.1053333203125  C 19.3575763885861 16.5561227043034  18.7569368404845 15.6984419526495  18.5306666796875 14.7139999804687  L 25.1053333203125 14.7139999804687  C 25.2159999804687 15.3739999804687  25.478 15.9973333007812  25.8646666601563 16.5366666796875  Z M 32.798 19.4826666796875  C 33.335903705234 20.6889559221804  33.2241587560291 22.0858933789259  32.5013333398437 23.191333359375  C 31.9524894801812 24.03885842742  31.0953134176607 24.6394794115349  30.111333359375 24.8659999804688  L 30.111333359375 18.2899999804687  C 30.76894610916 18.1791495894929  31.3924389399412 17.9191708767229  31.934 17.5300000195312  L 32.798 19.4826666796875  Z M 32.9266666601562 11.4619999804688  L 34.88 10.597333359375  C 36.0861899211645 10.0601760163546  37.482560068376 10.1718956678959  38.588 10.8940000195313  C 39.4356080659096 11.4433649956061  40.036200551 12.3009785438283  40.2626666796875 13.285333359375  L 33.6866666796875 13.285333359375  C 33.5761887494003 12.6274085362128  33.3161806831321 12.0036172548598  32.9266666601562 11.4619999804688  Z M 29.520666640625 11.4086666601562  C 30.9021844711118 11.4775253510489  31.9874988611036 12.616768376622  31.989333359375 13.9999999804688  C 31.989333359375 14.0359999804687  31.989333359375 14.0719999804687  31.986666640625 14.107333359375  L 31.9853333398437 14.1233333203125  C 31.9636131464083 14.619821196213  31.7980020898686 15.0992825832331  31.5086666796875 15.5033333203125  C 30.9989009602009 16.2158845699002  30.1647673589867 16.6240562864367  29.289333359375 16.5893333203125  L 29.2719999804687 16.5893333203125  C 28.7757018908484 16.5676551493274  28.2965355068061 16.4015225208111  27.8933333398438 16.111333359375  C 27.8846666796875 16.105333359375  27.8766666992187 16.0986666796875  27.867333359375 16.093333359375  C 27.1682188466733 15.5818060717819  26.7699641098268 14.7555462344721  26.805333359375 13.89  L 26.8059999804687 13.8746666601562  C 26.8282465964844 13.3774440664381  26.9948047832545 12.8974600302163  27.285333359375 12.493333359375  C 27.7947939888768 11.7808551477531  28.6288195524012 11.3728642552146  29.504 11.4079999804687  L 29.520666640625 11.4086666601562  Z M 25.995333359375 8.515333359375  C 25.4581829830533 7.3089150551472  25.5698978359427 5.91235383617214  26.2920000195313 4.8066666796875  C 26.8410212265297 3.95944290517816  27.698157791153 3.35908867048986  28.682 3.1326666796875  L 28.682 9.7086666796875  C 28.0247329697721 9.81921483397912  27.4014868557655 10.0787296762953  26.8599999804688 10.4673333398437  L 25.995333359375 8.515333359375  Z M 10.956666640625 0.0273333398437519  L 1.81733333984375 0.0273333398437519  C 1.3320591432547 0.0273333398437519  0.938666679687501 0.420725803410949  0.938666679687501 0.906000000000001  C 0.938666679687501 1.39127419658906  1.3320591432547 1.78466666015625  1.81733333984375 1.78466666015625  L 10.956666640625 1.78466666015625  C 11.4419408372141 1.78466666015625  11.8353333007812 1.39127419658906  11.8353333007812 0.906000000000001  C 11.8353333007812 0.420725803410949  11.4419408372141 0.0273333398437519  10.956666640625 0.0273333398437519  Z M 10.956666640625 13.1213333203125  L 1.81733333984375 13.1213333203125  C 1.3320591432547 13.1213333203125  0.938666679687497 13.5147257838797  0.938666679687497 13.9999999804688  C 0.938666679687497 14.4852741770578  1.3320591432547 14.878666640625  1.81733333984375 14.878666640625  L 10.956666640625 14.878666640625  C 11.4419408372141 14.878666640625  11.8353333007813 14.4852741770578  11.8353333007813 13.9999999804688  C 11.8353333007813 13.5147257838797  11.4419408372141 13.1213333203125  10.956666640625 13.1213333203125  Z M 10.956666640625 21.8500000195313  L 1.81733333984375 21.8500000195313  C 1.3320591432547 21.8500000195313  0.938666679687501 22.2433924830984  0.938666679687501 22.7286666796875  C 0.938666679687501 23.2139408762766  1.3320591432547 23.6073333398438  1.81733333984375 23.6073333398438  L 10.956666640625 23.6073333398438  C 11.4419408372141 23.6073333398438  11.8353333007812 23.2139408762766  11.8353333007812 22.7286666796875  C 11.8353333007812 22.2433924830984  11.4419408372141 21.8500000195313  10.956666640625 21.8500000195313  Z M 10.956666640625 17.4859999804687  L 1.81733333984375 17.4859999804687  C 1.34536835401363 17.5043883882393  0.972234067918563 17.8923436010485  0.972234067918563 18.3646666699219  C 0.972234067918563 18.8369897387952  1.34536835401363 19.2249449516044  1.81733333984375 19.243333359375  L 10.956666640625 19.243333359375  C 11.4419408533943 19.243333359375  11.8353333300781 18.8499408826912  11.8353333300781 18.3646666699219  C 11.8353333300781 17.8793924571526  11.4419408533943 17.4859999804687  10.956666640625 17.4859999804687  Z M 10.956666640625 26.2146666796875  L 1.81733333984375 26.2146666796875  C 1.33205906918863 26.2146666796875  0.938666605621439 26.6080591432547  0.938666605621439 27.0933333398438  C 0.938666605621439 27.5786075364328  1.33205906918863 27.972  1.81733326577769 27.972  L 10.956666640625 27.972  C 11.4419409112801 27.972  11.8353333748473 27.5786075364328  11.8353333748473 27.0933333398438  C 11.8353333748473 26.6080591432547  11.4419409112801 26.2146666796875  10.9566667146911 26.2146666796875  Z M 11.8350000534528 9.6353333203125  C 11.8350000534528 9.15018924956469  11.4418106764676 8.75685069311349  10.956666640625 8.75666666015625  L 9.96000001953125 8.75666666015625  C 9.4747258229422 8.75666666015625  9.081333359375 9.15005912372345  9.081333359375 9.6353333203125  C 9.081333359375 10.1206075169016  9.4747258229422 10.5139999804688  9.96000001953125 10.5139999804688  L 10.9560000195313 10.5139999804688  C 11.4416075615818 10.5140000436872  11.8350000534528 10.1206075518162  11.8350000534528 9.6353333203125  Z M 1.81733333984375 10.5139999804687  L 7.03133333984375 10.5139999804688  C 7.5166075364328 10.5139999804688  7.91 10.1206075169016  7.91 9.6353333203125  C 7.91 9.15005912372345  7.5166075364328 8.75666666015625  7.03133333984375 8.75666666015625  L 1.81733333984375 8.75666666015625  C 1.3320591432547 8.75666666015625  0.938666679687501 9.15005912372345  0.938666679687501 9.6353333203125  C 0.938666679687501 10.1206075169016  1.3320591432547 10.5139999804688  1.81733333984375 10.5139999804688  Z M 10.956666640625 4.392  L 1.81733333984375 4.392  C 1.3320591432547 4.392  0.938666679687499 4.7853924635672  0.938666679687499 5.27066666015625  C 0.938666679687499 5.7559408567453  1.3320591432547 6.1493333203125  1.81733333984375 6.1493333203125  L 10.956666640625 6.1493333203125  C 11.4419408372141 6.1493333203125  11.8353333007813 5.7559408567453  11.8353333007813 5.27066666015625  C 11.8353333007813 4.7853924635672  11.4419408372141 4.392  10.956666640625 4.392  Z " fill-rule="nonzero" fill="#22f0e8" stroke="none" transform="matrix(1 0 0 1 1052 461 )" />
  </g>
</svg>