<?xml version="1.0" encoding="utf-8"?>
<svg version="1.1" xmlns:xlink="http://www.w3.org/1999/xlink" width="22px" height="12px" xmlns="http://www.w3.org/2000/svg">
  <g transform="matrix(1 0 0 1 -1735 -401 )">
    <path d="M 21.1666666503906 5.27777778320312  C 21.1547693642095 5.01035035021818  20.9343584645443 4.79973548814649  20.6666666503906 4.8  L 18.8111111328125 4.8  L 18.8111111328125 4.4888888671875  C 18.8111111058455 4.00410560285269  18.4181166139442 3.6111111328125  17.9333333496094 3.6111111328125  L 16.7111111328125 3.6111111328125  C 16.4429215796974 3.61017235982447  16.1906705473044 3.73836550236958  16.0333333496094 3.95555556640625  C 15.7702981099855 3.0929804148872  15.3012389682668 2.30740169913341  14.6666666503906 1.66666665039062  C 12.4718068828984 -0.52456567375355  8.91708198428907 -0.524565673753543  6.72222221679687 1.66666665039062  C 6.10478565728573 2.29077445105456  5.64404750029397 3.05232512805527  5.37777778320313 3.8888888671875  C 5.21715452633922 3.70717963621377  4.98695903261741 3.60217819352332  4.74444443359375 3.6  L 3.51111113281249 3.6  C 3.02632784940913 3.6  2.63333334960937 3.99299449979976  2.63333334960937 4.47777778320313  L 2.63333334960937 4.7888888671875  L 1.05555556640625 4.7888888671875  C 0.783761905468221 4.7949301951454  0.566599516491312 5.01702808063926  0.566666650390623 5.2888888671875  L 0.566666650390623 5.97777778320312  C 0.566599516491312 6.24963856975137  0.783761905468221 6.47173645524523  1.05555556640625 6.47777778320312  L 2.63333334960937 6.47777778320312  L 2.63333334960937 6.7888888671875  C 2.63932507713613 7.27116849371598  3.02883150628402 7.66067492286387  3.5111111328125 7.66666665039062  L 4.74444443359374 7.66666665039062  C 4.98695903261741 7.6644884568673  5.21715452633923 7.55948701417685  5.37777778320312 7.37777778320312  C 5.64404750029397 8.21434152233535  6.10478565728573 8.97589219933605  6.72222221679687 9.6  C 7.76837478144402 10.6772282884035  9.20604045336015 11.2850908184545  10.7076582389016 11.2850908184545  C 13.1667522296624 11.2850908184545  15.3332694769992 9.66845154727574  16.0333333496094 7.3111111328125  C 16.1941539871459 7.52418331493944  16.4441944405768 7.65125304854818  16.7111111328125 7.65555556640625  L 17.9333333496094 7.65555556640626  C 18.4156129761379 7.6495638388795  18.8051194052858 7.26005740973161  18.8111111328125 6.77777778320312  L 18.8111111328125 6.46666665039062  L 20.6666666503906 6.46666665039062  C 20.942809025306 6.46666665039062  21.1666666503906 6.24280902530602  21.1666666503906 5.96666665039062  L 21.1666666503906 5.27777778320312  Z M 15.6 5.64444443359375  C 15.6 8.36904920841468  13.3912714252115 10.5777777832031  10.6666666503906 10.5777777832031  C 7.9420618755697 10.5777777832031  5.73333330078125 8.36904920841468  5.73333330078125 5.64444443359375  C 5.73333330078125 2.91983965877283  7.9420618755697 0.711111083984378  10.6666666503906 0.711111083984378  C 13.3912714252115 0.711111083984378  15.6 2.91983965877283  15.6 5.64444443359375  Z " fill-rule="nonzero" fill="#ffffff" stroke="none" transform="matrix(1 0 0 1 1735 401 )" />
  </g>
</svg>