<?xml version="1.0" encoding="utf-8"?>
<svg version="1.1" xmlns:xlink="http://www.w3.org/1999/xlink" width="10px" height="10px" xmlns="http://www.w3.org/2000/svg">
  <g transform="matrix(1 0 0 1 -1741 -402 )">
    <path d="M 9.32222221679688 4.65555556640625  C 9.31611362593569 2.08689774112455  7.23532447567232 0.00610859086118509  4.66666665039062 0  C 2.09547430907459 0  0.0111110839843747 2.08436322509021  0.0111110839843747 4.65555556640625  C 0.0111110839843747 7.22674790772228  2.09547430907459 9.31111113281249  4.66666665039063 9.31111113281249  C 7.23785899170666 9.31111113281249  9.32222221679688 7.22674790772228  9.32222221679688 4.65555556640625  Z M 1.84444443359374 2.95555556640624  L 1.81111113281249 2.36666665039062  C 1.81111113281248 2.15802576097121  1.98024797776809 1.98888889415452  2.1888888671875 1.9888888671875  L 6.8888888671875 1.9888888671875  C 7.09940090379403 1.98880290083791  7.27176318498574 2.15624053614924  7.27777778320312 2.36666665039063  L 7.27777778320312 2.91111113281249  C 7.27873163250481 2.92219753123254  7.27920921636989 2.93331976073183  7.27920921636989 2.94444711704042  C 7.27920921636989 3.15922450776704  7.10509773990902 3.33333598422792  6.89032034918239 3.33333598422792  C 6.8898431873054 3.33333598422792  6.88936602583185 3.33333510602025  6.8888888671875 3.33333334960938  L 2.22222221679687 3.33333334960938  C 2.01358130830889 3.33333334960938  1.84444443359374 3.16419647489421  1.84444443359374 2.95555556640624  Z M 2.0111111328125 5.1111111328125  L 1.97777778320312 5.12222221679687  C 1.63417269126361 5.12216742831604  1.35565478091257 4.84360510421755  1.35565478091257 4.50000000790997  C 1.35565478091257 4.15635616656714  1.63423315636661 3.87777779111309  1.97787699770944 3.87777779111309  C 2.32152083905227 3.87777779111309  2.60009921450632 4.15635616656714  2.60009921450632 4.50000000790997  C 2.60009921450632 4.50370393768683  2.60006614168583 4.50740779363423  2.59999999999999 4.5111111328125  C 2.59430839458448 4.83581239855943  2.3356493058912 5.09935185712855  2.0111111328125 5.1111111328125  Z M 7.96666665039063 5.9111111328125  L 7.95555556640625 6.02222221679688  C 7.95555556640625 6.10199667466865  7.89088559068428 6.16666665039062  7.8111111328125 6.16666665039062  L 7.59999999999999 6.16666665039062  C 7.56891465359325 6.39237779249198  7.48097715610886 6.60648647106141  7.34444443359374 6.7888888671875  L 7.48888886718749 6.93333334960937  C 7.54394837265065 6.99293373233915  7.54394837265065 7.08484405086397  7.48888886718749 7.14444443359375  L 7.41111113281249 7.22222221679687  C 7.35151074308021 7.27728175233202  7.25960038973228 7.27728175233202  7.19999999999999 7.22222221679687  L 7.05555556640624 7.07777778320312  C 6.87315317028016 7.21431050571823  6.65904449171072 7.30224800320264  6.43333334960937 7.33333334960938  L 6.43333334960937 7.54444443359376  C 6.43333334960937 7.62421889146554  6.36866337388739 7.68888886718752  6.28888891601562 7.68888886718752  L 6.17777778320312 7.68888886718751  C 6.09800332533135 7.68888886718751  6.03333334960937 7.62421889146553  6.03333334960936 7.54444443359375  L 6.03333334960936 7.33333334960938  C 5.807622207508 7.30224800320264  5.59351352893858 7.21431050571823  5.41111113281249 7.07777778320312  L 5.26666665039062 7.22222221679687  C 5.20706626766084 7.27728172226003  5.11515594913601 7.27728172226003  5.05555556640624 7.22222221679687  L 4.96666665039061 7.14444443359375  C 4.91160714492746 7.08484405086397  4.91160714492746 6.99293373233915  4.96666665039061 6.93333334960937  L 5.12222221679687 6.7888888671875  C 4.98568949428175 6.60648647106141  4.89775199679736 6.39237779249198  4.86666665039062 6.16666665039062  L 4.66666665039062 6.16666665039062  C 4.58689219251885 6.16666665039062  4.52222221679688 6.10199667466865  4.52222221679688 6.02222221679688  L 4.52222221679688 5.9111111328125  C 4.52222221679687 5.8313366261126  4.58689219251885 5.76666665039063  4.66666665039062 5.76666665039063  L 4.87777778320312 5.76666665039062  C 4.90886312960987 5.54095550828927  4.99680062709426 5.32684682971983  5.13333334960937 5.14444443359375  L 4.97777778320312 5  C 4.92271824766799 4.94039961026771  4.92271824766798 4.84848925691978  4.97777778320312 4.7888888671875  L 5.06666665039062 4.7  C 5.12626704012291 4.64494046446485  5.21817739347084 4.64494046446485  5.27777778320313 4.7  L 5.42222221679688 4.85555556640625  C 5.60462461292296 4.71902284389113  5.81873329149239 4.63108534640674  6.04444443359375 4.59999999999999  L 6.04444443359375 4.3888888671875  C 6.04444443359375 4.30911440931573  6.10911440931572 4.24444443359375  6.1888888671875 4.24444443359375  L 6.3 4.24444443359375  C 6.37977445787178 4.24444443359375  6.44444443359375 4.30911440931573  6.44444443359375 4.3888888671875  L 6.44444443359375 4.59999999999999  C 6.67015557569511 4.63108534640674  6.88426425426454 4.71902284389113  7.06666665039062 4.85555556640625  L 7.21111113281249 4.7  C 7.27071151554227 4.64494049453683  7.3626218340671 4.64494049453683  7.42222221679688 4.7  L 7.5 4.78888886718749  C 7.55505953553515 4.84848925691978  7.55505953553515 4.94039961026771  7.5 5  L 7.35555556640625 5.14444443359375  C 7.49208828892137 5.32684682971983  7.58002578640576 5.54095550828927  7.6111111328125 5.76666665039062  L 7.82222221679688 5.76666665039063  C 7.90199667466867 5.76666665039063  7.96666665039064 5.8313366261126  7.96666665039064 5.91111108398437  Z " fill-rule="nonzero" fill="#ffffff" stroke="none" transform="matrix(1 0 0 1 1741 402 )" />
  </g>
</svg>