<?xml version="1.0" encoding="utf-8"?>
<svg version="1.1" xmlns:xlink="http://www.w3.org/1999/xlink" width="50px" height="44px" xmlns="http://www.w3.org/2000/svg">
  <g transform="matrix(1 0 0 1 -1491 -404 )">
    <path d="M 50 18.25  C 50 15.486328125  47.763671875 13.25  45 13.25  L 42.5 13.25  C 42.177734375 13.25  41.865234375 13.279296875  41.5576171875 13.337890625  C 40.546875 11.9365234375  38.896484375 10.75  37.5 11  L 25 11  L 25 3.25  C 25 1.8681640625  23.8818359375 0.75  22.5 1  L 10 1  C 8.6181640625 0.75  7.5 1.8681640625  7.5 3.25  L 7.5 10.75  C 6.1572265625 10.75  4.580078125 11.84375  3.564453125 13.1767578125  C 3.3154296875 13.103515625  3.0517578125 13.064453125  2.7783203125 13.064453125  C 1.2451171875 13.0595703125  0 14.3046875  0 15.837890625  L 0 32.9228515625  C 0 34.4560546875  1.2451171875 35.701171875  2.7783203125 35.701171875  C 2.94921875 35.701171875  3.1103515625 35.69140625  3.2568359375 35.6669921875  C 4.150390625 37.2587890625  5.703125 38.71875  7.1435546875 38.71875  L 7.265625 38.71875  L 5 43  L 42.5 43  L 40 38.2451171875  L 39.8974609375 38.2451171875  C 40.1123046875 38.1279296875  40.3173828125 37.9912109375  40.517578125 37.8349609375  C 41.1279296875 38.0986328125  41.796875 38.2451171875  42.5 38.2451171875  L 45 38.2451171875  C 47.763671875 38.2451171875  50 36.0087890625  50 33.2451171875  L 50 18.25  Z M 17.5 5.75  C 17.5 4.3681640625  18.6181640625 3.25  20 3.25  C 21.3818359375 3.25  22.5 4.3681640625  22.5 5.75  C 22.5 7.1318359375  21.3818359375 8.25  20 8.25  C 18.6181640625 8.25  17.5 7.1318359375  17.5 5.75  Z M 10 5.75  C 10 4.3681640625  11.1181640625 3.25  12.5 3.25  C 13.8818359375 3.25  15 4.3681640625  15 5.75  C 15 7.1318359375  13.8818359375 8.25  12.5 8.25  C 11.1181640625 8.25  10 7.1318359375  10 5.75  Z M 37.5 33  L 37.5 35  L 7.5 35  L 7.5 33  L 37.5 33  Z M 37.5 28  L 37.5 30  L 7.5 30  L 7.5 28  L 37.5 28  Z M 37.5 23  L 37.5 25  L 7.5 25  L 7.5 23  L 37.5 23  Z M 37.5 19  L 37.5 21  L 7.5 21  L 7.5 19  L 37.5 19  Z M 37.5 14  L 37.5 16  L 7.5 16  L 7.5 14  L 37.5 14  Z " fill-rule="nonzero" fill="#ffffff" stroke="none" transform="matrix(1 0 0 1 1491 404 )" />
  </g>
</svg>