<?xml version="1.0" encoding="utf-8"?>
<svg version="1.1" xmlns:xlink="http://www.w3.org/1999/xlink" width="720px" height="167px" xmlns="http://www.w3.org/2000/svg">
  <defs>
    <linearGradient gradientUnits="userSpaceOnUse" x1="360" y1="0" x2="360" y2="167" id="LinearGradient5653">
      <stop id="Stop5654" stop-color="#17eecb" offset="0" />
      <stop id="Stop5655" stop-color="#ffffff" offset="1" />
    </linearGradient>
    <mask fill="white" id="clip5656">
      <path d="M 0.234837983018281 166.601396746817  L 0 11  L 25.2 11  L 87.6 0.759090909090906  L 144.6 15.1818181818182  L 214.2 25.05  L 268.2 11.0068181818182  L 333.6 23.5318181818182  L 393.6 33.4  L 457.2 37.9545454545455  L 514.8 26.2518939393939  L 567 12.9045454545454  L 634.8 32.2613636363636  L 690 41  L 718 41  L 718 166.601396746817  L 551.851195633339 166.601396746817  L 413.947106220759 166.601396746817  L 276.043016808179 166.601396746817  L 138.138927395598 166.601396746817  L 0.234837983018281 166.601396746817  Z " fill-rule="evenodd" />
    </mask>
  </defs>
  <g transform="matrix(1 0 0 1 -84 -828 )">
    <path d="M 0.234837983018281 166.601396746817  L 0 11  L 25.2 11  L 87.6 0.759090909090906  L 144.6 15.1818181818182  L 214.2 25.05  L 268.2 11.0068181818182  L 333.6 23.5318181818182  L 393.6 33.4  L 457.2 37.9545454545455  L 514.8 26.2518939393939  L 567 12.9045454545454  L 634.8 32.2613636363636  L 690 41  L 718 41  L 718 166.601396746817  L 551.851195633339 166.601396746817  L 413.947106220759 166.601396746817  L 276.043016808179 166.601396746817  L 138.138927395598 166.601396746817  L 0.234837983018281 166.601396746817  Z " fill-rule="nonzero" fill="url(#LinearGradient5653)" stroke="none" transform="matrix(1 0 0 1 84 828 )" />
    <path d="M 0.234837983018281 166.601396746817  L 0 11  L 25.2 11  L 87.6 0.759090909090906  L 144.6 15.1818181818182  L 214.2 25.05  L 268.2 11.0068181818182  L 333.6 23.5318181818182  L 393.6 33.4  L 457.2 37.9545454545455  L 514.8 26.2518939393939  L 567 12.9045454545454  L 634.8 32.2613636363636  L 690 41  L 718 41  L 718 166.601396746817  L 551.851195633339 166.601396746817  L 413.947106220759 166.601396746817  L 276.043016808179 166.601396746817  L 138.138927395598 166.601396746817  L 0.234837983018281 166.601396746817  Z " stroke-width="2" stroke="#17eecb" fill="none" transform="matrix(1 0 0 1 84 828 )" mask="url(#clip5656)" />
  </g>
</svg>