<?xml version="1.0" encoding="utf-8"?>
<svg version="1.1" xmlns:xlink="http://www.w3.org/1999/xlink" width="55px" height="44px" xmlns="http://www.w3.org/2000/svg">
  <g transform="matrix(1 0 0 1 -1754 -588 )">
    <path d="M 54.7279349190848 42.5403420138889  C 54.7279924665179 41.9288107638889  54.2299769810268 41.4330659722222  53.6156581333705 41.4330659722222  L 51.5021135602679 41.4330659722222  L 51.5021135602679 38.1109513888889  C 51.5021135602679 37.4991909722222  51.0041556222098 37.0034461805556  50.3897792271205 37.0034461805556  L 45.9403843470982 37.0034461805556  C 45.3260079520089 37.0034461805556  44.8280500139509 37.4991909722222  44.8280500139509 38.1109513888889  L 44.8280500139509 41.4330659722222  L 42.5225272042411 41.4330659722222  C 41.9811209542411 37.6816649305555  38.732510811942 34.7885503472222  34.8167532784598 34.7885503472222  L 33.0369838169643 34.7885503472222  C 33.0369838169643 34.7885503472222  33.0287545340402 27.4497170138889  33.0137346540179 27.3768993055556  C 33.1467843191964 25.7351493055556  32.5853515625 24.0475086805556  31.3265014648438 22.7942534722222  L 25.4469377790179 16.9407065972222  L 32.4086233956473 10.0099045138889  C 32.7445954444909 9.67585043210274  33.0279696326466 9.29320116062902  33.249161202567 8.87489930555556  L 40.1561767578125 8.87489930555556  C 40.7706107003348 8.87489930555556  41.2685686383929 8.37909722222222  41.2685686383929 7.76745138888889  L 41.2685686383929 6.66023263888889  L 43.8640729631696 6.66023263888889  L 43.8640729631696 7.76934201388889  C 43.8640872236107 8.16498718277596  44.0761343070033 8.53056557801047  44.4203264508929 8.72834722222222  L 48.2765799386161 10.9447326388889  C 48.4456495215598 11.042024842237  48.6374940349146 11.0932260774104  48.8327758789062 11.0931753472222  C 49.0248692103795 11.0931753472222  49.2168474469866 11.0436753472222  49.3889142717634 10.9447326388889  L 53.2451677594866 8.72828993055555  C 53.7772513253348 8.42252430555556  53.959561593192 7.74516493055556  53.6523158482143 7.21556076388889  C 53.3451276506696 6.68589930555555  52.6646868024554 6.50434201388889  52.1328334263393 6.81022222222222  L 48.8327758789062 8.70686284722222  L 46.0888567243304 7.12979513888889  L 46.0888567243304 3.97543055555556  L 48.8327758789062 2.39836284722223  L 52.1328334263393 4.29511805555556  C 52.6649169921875 4.60099826388889  53.3452427455357 4.41944097222222  53.6523158482143 3.88983680555556  C 53.959561593192 3.36011805555556  53.7772513253348 2.68281597222223  53.2451677594866 2.37705034722223  L 49.3889142717634 0.160607638888892  C 49.0447759257636 -0.0372795753660725  48.6207182846159 -0.0372795753660708  48.2765799386161 0.160607638888892  L 44.4203264508929 2.37705034722223  C 44.0761251914139 2.57485087742482  43.8640785345885 2.94045037711338  43.8640729631696 3.33611284722223  L 43.8640729631696 4.44522222222223  L 41.2685686383929 4.44522222222223  L 41.2685686383929 3.33777430555556  C 41.2685686383929 2.72612847222223  40.7706107003348 2.23038368055556  40.1561767578125 2.23038368055556  L 30.5974330357143 2.23038368055556  C 28.9442679268973 1.66955555555556  27.03916015625 2.04361284722223  25.7229928152902 3.35381597222223  L 17.6304425920759 11.4105711805556  C 14.6349836077009 11.9386284722222  12.3520193917411 14.5474045138889  12.3520193917411 17.6789670138889  C 12.3520193917411 19.7738940972222  13.3738891601562 21.6354722222222  14.9471208844866 22.7965451388889  C 15.1477904932868 23.0863223962998  15.3744593391364 23.3573730672276  15.6243390764509 23.6063628472222  L 21.7163103376116 29.6711440972222  L 21.7163103376116 34.7885503472222  L 20.3560616629464 34.7885503472222  C 16.4403616768973 34.7885503472222  13.1918090820313 37.6816076388889  12.6502877371652 41.4330659722222  L 10.3447073800223 41.4330659722222  L 10.3447073800223 38.1109513888889  C 10.3447073800223 37.4991909722222  9.84674944196429 37.0034461805556  9.23225795200893 37.0034461805556  L 4.78286307198661 37.0034461805556  C 4.16848667689732 37.0034461805556  3.67047119140625 37.4991909722222  3.67047119140625 38.1109513888889  L 3.67047119140625 41.4330659722222  L 1.55698416573661 41.4330659722222  C 0.942607770647321 41.4330659722222  0.444649832589286 41.9288107638889  0.444649832589286 42.5403420138889  C 0.444649832589286 43.1521024305556  0.942607770647321 43.6478472222222  1.55698416573661 43  L 53.6156005859375 43  C 54.2299769810268 43.6478472222222  54.7279349190848 43.1521024305556  54.7279349190848 42.5403420138889  Z M 33.2245884486607 4.44527951388889  L 39.0437273297991 4.44527951388889  L 39.0437273297991 6.66017534722222  L 33.7904523577009 6.66017534722222  C 33.7868268694196 5.89676388888889  33.5980137416295 5.13421180555556  33.2245884486607 4.44527951388889  Z M 8.11992361886161 41.4330659722222  L 5.89519740513393 41.4330659722222  L 5.89519740513393 39.2182274305556  L 8.11998116629464 39.2182274305556  L 8.11998116629464 41.4330659722222  Z M 20.6014439174107 11.5849670138889  L 27.2959368024554 4.91999826388889  C 27.7686889648437 4.44940451388889  28.3970493861607 4.19021701388889  29.0656354631696 4.19021701388889  C 29.7342790876116 4.19021701388889  30.3626395089286 4.44934722222223  30.835391671317 4.91999826388889  C 31.8112234933036 5.89149305555556  31.8112234933036 7.47222743055556  30.835391671317 8.44383680555556  L 24.4504464285714 14.8006336805556  C 23.6669381277902 13.2681388888889  22.2795270647321 12.0918263888889  20.6014439174107 11.5849670138889  Z M 18.7477835518973 21.8318107638889  C 16.4476702008929 21.8318107638889  14.5764578683036 19.9688003472222  14.5764578683036 17.6789670138889  C 14.5764578683036 15.3891336805556  16.4477277483259 13.5261232638889  18.7477835518973 13.5261232638889  C 21.0478969029018 13.5261232638889  22.9191667829241 15.3891909722222  22.9191667829241 17.6789670138889  C 22.9191667829241 19.9687430555556  21.0478969029018 21.8318107638889  18.7477835518973 21.8318107638889  Z M 24.6406982421875 29.4502274305556  L 19.1953299386161 24.0292326388889  C 21.887744140625 23.8429201388889  24.1259940011161 21.9914253472222  24.8749162946429 19.5037065972222  L 29.7533272879464 24.3604357638889  C 31.1628365652902 25.7637378472222  31.1628365652902 28.0469826388889  29.7533272879464 29.4502274305556  C 29.0703543526786 30.1300503472222  28.1626586914063 30.5043368055556  27.1969552176339 30.5043368055556  C 26.2313668387277 30.5043368055556  25.3234985351563 30.1300503472222  24.6406982421875 29.4502274305556  Z M 27.197012765067 32.7168836805556  C 28.4769827706473 32.7166545138889  29.7560895647321 32.3002013888889  30.8122000558036 31.4700451388889  L 30.8122000558036 34.7888368055555  L 23.9409790039063 34.7888368055555  L 23.9409790039063 31.7314097222222  C 24.9217023577009 32.3876284722222  26.0590122767857 32.7168836805556  27.197012765067 32.7168836805556  Z M 40.2668980189732 41  L 14.905859375 41  C 15.4226928710938 38.9087951388889  17.6700352260045 37.0034461805555  20.3560616629464 37  L 34.8166957310268 37  C 37.5025495256696 37.0034461805555  39.7498918805804 38.9088524305556  40.2668980189732 41  Z M 49.2774448939732 39.2182274305555  L 49.2774448939732 41.4330659722222  L 47.0526611328125 41.4330659722222  L 47.0526611328125 39.2182274305555  L 49.2774448939732 39.2182274305555  Z " fill-rule="nonzero" fill="#ffffff" stroke="none" transform="matrix(1 0 0 1 1754 588 )" />
  </g>
</svg>