<?xml version="1.0" encoding="utf-8"?>
<svg version="1.1" xmlns:xlink="http://www.w3.org/1999/xlink" width="142px" height="142px" xmlns="http://www.w3.org/2000/svg">
  <g transform="matrix(1 0 0 1 -634 -137 )">
    <path d="M 705 137  C 744.76 137  776 168.24  776 208  C 776 247.76  744.76 279  705 279  C 665.24 279  634 247.76  634 208  C 634 168.24  665.24 137  705 137  Z " fill-rule="nonzero" fill="#96d56c" stroke="none" />
    <path d="M 705 137.5  C 744.48 137.5  775.5 168.52  775.5 208  C 775.5 247.48  744.48 278.5  705 278.5  C 665.52 278.5  634.5 247.48  634.5 208  C 634.5 168.52  665.52 137.5  705 137.5  Z " stroke-width="1" stroke="#797979" fill="none" />
  </g>
</svg>