<?xml version="1.0" encoding="utf-8"?>
<svg version="1.1" xmlns:xlink="http://www.w3.org/1999/xlink" width="180px" height="180px" xmlns="http://www.w3.org/2000/svg">
  <defs>
    <linearGradient gradientUnits="userSpaceOnUse" x1="2099" y1="585" x2="1941" y2="556" id="LinearGradient5664">
      <stop id="Stop5665" stop-color="#d9001b" offset="0" />
      <stop id="Stop5666" stop-color="#f59a23" offset="0.07" />
      <stop id="Stop5667" stop-color="#ffff80" offset="0.33" />
      <stop id="Stop5668" stop-color="#95f204" offset="1" />
    </linearGradient>
  </defs>
  <g transform="matrix(1 0 0 1 -1928 -481 )">
    <path d="M 1932.83469462139 598.515827603726  C 1929.96292414008 589.627305136332  1928.5 580.342980417292  1928.5 571  C 1928.5 521.570514890144  1968.57051489014 481.5  2018 481.5  C 2067.42948510986 481.5  2107.5 521.570514890144  2107.5 571  C 2107.5 580.357034487564  2106.03267172026 589.65514867447  2103.15241561519 598.555691315995  L 2018.15659761526 570.525155618235  A 0.5 0.5 0 0 0 2017.84362468128 570.525082365358 L 1932.83469462877 598.515827626564  Z " fill-rule="nonzero" fill="url(#LinearGradient5664)" stroke="none" />
    <path d="M 1932.83469462139 598.515827603726  C 1929.96292414008 589.627305136332  1928.5 580.342980417292  1928.5 571  C 1928.5 521.570514890144  1968.57051489014 481.5  2018 481.5  C 2067.42948510986 481.5  2107.5 521.570514890144  2107.5 571  C 2107.5 580.357034487564  2106.03267172026 589.65514867447  2103.15241561519 598.555691315995  L 2018.15659761526 570.525155618235  A 0.5 0.5 0 0 0 2017.84362468128 570.525082365358 L 1932.83469462877 598.515827626564  Z " stroke-width="1" stroke="#797979" fill="none" />
  </g>
</svg>