<?xml version="1.0" encoding="utf-8"?>
<svg version="1.1" xmlns:xlink="http://www.w3.org/1999/xlink" width="180px" height="180px" xmlns="http://www.w3.org/2000/svg">
  <defs>
    <linearGradient gradientUnits="userSpaceOnUse" x1="2007" y1="806" x2="1950.39529411765" y2="962.315789473684" id="LinearGradient1922">
      <stop id="Stop1923" stop-color="#3aa1ff" offset="0" />
      <stop id="Stop1924" stop-color="#3aa1ff" offset="0.59" />
      <stop id="Stop1925" stop-color="#f2f2f2" offset="1" />
    </linearGradient>
  </defs>
  <g transform="matrix(1 0 0 1 -1917 -806 )">
    <path d="M 2006.55461706656 806.501108196567  C 2006.7030766375 806.500369401283  2006.85153807488 806.5  2007 806.5  C 2056.42948510986 806.5  2096.5 846.570514890144  2096.5 896  C 2096.5 945.429485109856  2056.42948510986 985.5  2007 985.5  C 1981.33054032322 985.5  1956.90528338414 974.478768663919  1939.92205312127 955.252000176465  L 2007.32891808182 896.376580529834  A 0.5 0.5 0 0 0 2007.49997210608 895.994718604513 L 2006.55461706656 806.501108196567  Z " fill-rule="nonzero" fill="url(#LinearGradient1922)" stroke="none" />
    <path d="M 2006.55461706656 806.501108196567  C 2006.7030766375 806.500369401283  2006.85153807488 806.5  2007 806.5  C 2056.42948510986 806.5  2096.5 846.570514890144  2096.5 896  C 2096.5 945.429485109856  2056.42948510986 985.5  2007 985.5  C 1981.33054032322 985.5  1956.90528338414 974.478768663919  1939.92205312127 955.252000176465  L 2007.32891808182 896.376580529834  A 0.5 0.5 0 0 0 2007.49997210608 895.994718604513 L 2006.55461706656 806.501108196567  Z " stroke-width="1" stroke="#797979" fill="none" />
  </g>
</svg>