<?xml version="1.0" encoding="utf-8"?>
<svg version="1.1" xmlns:xlink="http://www.w3.org/1999/xlink" width="140px" height="140px" xmlns="http://www.w3.org/2000/svg">
  <defs>
    <linearGradient gradientUnits="userSpaceOnUse" x1="2007" y1="826" x2="1962.97411764706" y2="947.578947368421" id="LinearGradient1926">
      <stop id="Stop1927" stop-color="#17eecb" offset="0" />
      <stop id="Stop1928" stop-color="#80ffff" offset="0.59" />
      <stop id="Stop1929" stop-color="#ffffff" offset="1" />
    </linearGradient>
  </defs>
  <g transform="matrix(1 0 0 1 -1937 -826 )">
    <path d="M 2005.94896266632 826.507947788807  C 2006.29928102075 826.502649374708  2006.64963681472 826.5  2007 826.5  C 2045.38379011324 826.5  2076.5 857.61620988676  2076.5 896  C 2076.5 934.38379011324  2045.38379011324 965.5  2007 965.5  C 1996.37716895226 965.5  1985.89797056049 963.064942062298  1976.3666729286 958.384688131552  L 2007.4472135955 896.22360679775  A 0.5 0.5 0 0 0 2007.49987548498 895.988842065067 L 2005.94896266632 826.507947788807  Z " fill-rule="nonzero" fill="url(#LinearGradient1926)" stroke="none" />
    <path d="M 2005.94896266632 826.507947788807  C 2006.29928102075 826.502649374708  2006.64963681472 826.5  2007 826.5  C 2045.38379011324 826.5  2076.5 857.61620988676  2076.5 896  C 2076.5 934.38379011324  2045.38379011324 965.5  2007 965.5  C 1996.37716895226 965.5  1985.89797056049 963.064942062298  1976.3666729286 958.384688131552  L 2007.4472135955 896.22360679775  A 0.5 0.5 0 0 0 2007.49987548498 895.988842065067 L 2005.94896266632 826.507947788807  Z " stroke-width="1" stroke="#797979" fill="none" />
  </g>
</svg>