<?xml version="1.0" encoding="utf-8"?>
<svg version="1.1" xmlns:xlink="http://www.w3.org/1999/xlink" width="100px" height="100px" xmlns="http://www.w3.org/2000/svg">
  <defs>
    <linearGradient gradientUnits="userSpaceOnUse" x1="2007" y1="846" x2="1975.55294117647" y2="932.842105263158" id="LinearGradient1930">
      <stop id="Stop1931" stop-color="#f6c022" offset="0" />
      <stop id="Stop1932" stop-color="#facd91" offset="0.58" />
      <stop id="Stop1933" stop-color="#ffff00" offset="0.8" />
      <stop id="Stop1934" stop-color="#ffffff" offset="1" />
    </linearGradient>
  </defs>
  <g transform="matrix(1 0 0 1 -1957 -846 )">
    <path d="M 2005.97278930742 846.510659347764  C 2006.31514229929 846.503553400317  2006.65756429672 846.5  2007 846.5  C 2034.33809511662 846.5  2056.5 868.661904883376  2056.5 896  C 2056.5 920.288832039644  2038.88335755156 940.962243146504  2014.95840734797 944.856087198705  L 2007.4988313899 895.954422820167  L 2005.97278930742 846.510659347764  Z " fill-rule="nonzero" fill="url(#LinearGradient1930)" stroke="none" />
    <path d="M 2005.97278930742 846.510659347764  C 2006.31514229929 846.503553400317  2006.65756429672 846.5  2007 846.5  C 2034.33809511662 846.5  2056.5 868.661904883376  2056.5 896  C 2056.5 920.288832039644  2038.88335755156 940.962243146504  2014.95840734797 944.856087198705  L 2007.4988313899 895.954422820167  L 2005.97278930742 846.510659347764  Z " stroke-width="1" stroke="#797979" fill="none" />
  </g>
</svg>