<?xml version="1.0" encoding="utf-8"?>
<svg version="1.1" xmlns:xlink="http://www.w3.org/1999/xlink" width="51px" height="38px" xmlns="http://www.w3.org/2000/svg">
  <g transform="matrix(1 0 0 1 -1049 -456 )">
    <path d="M 0.878666596786141 2.78866657725489  C 0.878666596786141 2.78888883145306  0.878666624419928 2.78911108565246  1 2.78933333984375  L 1 35.211333359375  C 0.878666624419927 35.2115556135695  0.878666596786141 35.2117778677625  0.878666596786141 35.2120001219639  C 0.878666596786141 36.6928596239856  2.07914041507688 37.8933334422764  3.55999991709864 37.8933334422764  L 47.6393333398438 37.893333359375  C 49.1203006775786 37.8929652270586  50.3206667059106 36.6923007428642  50 35.211333359375  L 50 2.78933333984375  C 50.3206667154101 2.78911111327196  50.320666743037 2.78888888673491  50.320666743037 2.78866666015625  C 50.320666743037 1.30780715813449  49.1201929247463 0.107333339843748  47.6393334227245 0.107333339843748  L 3.5606666796875 0.10733333984375  C 2.07914041507688 0.107333256942391  0.878666596786141 1.30780707523313  0.878666596786141 2.78866657725489  Z " fill-rule="nonzero" fill="#e6e6e6" stroke="none" transform="matrix(1 0 0 1 1049 456 )" />
  </g>
</svg>