<?xml version="1.0" encoding="utf-8"?>
<svg version="1.1" xmlns:xlink="http://www.w3.org/1999/xlink" width="19px" height="26px" xmlns="http://www.w3.org/2000/svg">
  <g transform="matrix(1 0 0 1 -646 -318 )">
    <path d="M 9.51411232421875 2.93980555273438  C 9.3058695813519 3.2019722109375  9.08248188136889 3.48725  8.84704709876019 3.79311110546875  C 7.87854875164842 5.04684796418623  6.9507360257886 6.33458372778611  6.06519927267323 7.65411110546875  C 5.3468478180197 8.72877776367187  4.70215579441236 9.76877776367187  4.15005435589334 10.7560555527344  C 2.83795290930706 13.1018333417969  2.11409422172215 15.0370277636719  2.11409419752038 16.3446111054688  C 2.11409419752038 20.7581111054688  5.43186593665081 24.3273333164063  9.51445652173913 24.3273333417969  C 13.5967029093071 24.3273333417969  16.9148188459579 20.7581111308594  16.9148188459579 16.3446111054688  C 16.9148188459579 15.0373888945312  16.190960158373 13.1018333164062  14.8788586875849 10.7560555527344  C 14.3267572490659 9.76877776367187  13.6820652012568 8.72877776367187  12.963713770805 7.65411110546875  C 12.0781770176897 6.33458372778611  11.1503642918298 5.04684796418623  10.1818659447181 3.79311110546875  C 9.96135481537673 3.50689699217385  9.73876378645174 3.22245351610775  9.51411232421875 2.93980555273438  Z M 9.51445652173913 25.9783333417969  C 4.55380433975883 25.9783333417969  0.540742742866851 21.6605277890625  0.540742742866848 16.3446111054688  C 0.540742742866848 14.6636388945313  1.3492753515625 12.5020277636719  2.79286230808424 9.92044444726563  C 3.36802534349524 8.892  4.03543476647418 7.81516665820313  4.7768478180197 6.70655555273438  C 5.68295104723621 5.35615794050088  6.63234684886201 4.03831142165309  7.62340579441236 2.7552777890625  C 8.01756724626614 2.24342242053266  8.4184875775302 1.73733654535907  8.82605073539402 1.23716665820313  L 8.92242754161005 1.12088889453125  L 9.51445652173913 0.410944447265627  L 10.1064855018682 1.12088889453125  L 10.2028623080842 1.23716665820313  C 10.2789311459749 1.33069444726563  10.3677354857337 1.43938886914063  10.4672101422385 1.56288889453125  C 10.7504891304348 1.91461110546875  11.066123193784 2.31472223632813  11.4055072490659 2.7552777890625  C 12.3965661946162 4.03831142165309  13.3459619962421 5.35615794050088  14.2520652254586 6.70655555273438  C 14.9934782770041 7.81516665820313  15.6605434782609 8.892  16.236050735394 9.92044444726563  C 17.6796376919158 12.5020277890625  18.4881703006114 14.6636388945313  18.4881703006114 16.3446111054688  C 18.4881703006114 21.6605277636719  14.4747645061991 25.9783333164063  9.51445652173913 25.9783333417969  Z " fill-rule="nonzero" fill="#00ffff" stroke="none" transform="matrix(1 0 0 1 646 318 )" />
  </g>
</svg>