<?xml version="1.0" encoding="utf-8"?>
<svg version="1.1" xmlns:xlink="http://www.w3.org/1999/xlink" width="20px" height="11px" xmlns="http://www.w3.org/2000/svg">
  <g transform="matrix(1 0 0 1 -645 -319 )">
    <path d="M 17.4604166748047 7.03583333984375  C 16.2104166992188 7.03583336914063  15.1982638916016 5.80875001953125  15.1982638916016 4.29749999023438  C 15.1982638916016 3.60458331054688  15.5805555664062 2.78124998046875  16.2190972167969 1.83333333007813  C 16.5207577446864 1.38731416854866  16.843511148053 0.96244826632963  17.1857638916016 0.560833320312501  L 17.4600694335938 0.245416660156251  L 17.7347222167969 0.560833320312501  L 17.8208333251953 0.662083320312501  C 18.131261394356 1.03370384489605  18.4251859304515 1.42466056461481  18.7013888916016 1.83333333007812  C 18.9088829391967 2.13744645685066  19.1000112109151 2.45712241687415  19.2736111083984 2.7904166796875  C 19.5607638916016 3.35  19.7222222167969 3.84916666015625  19.7222222167969 4.29749999023438  C 19.7222222167969 5.80874999023438  18.7104166503906 7.03583331054688  17.4604166748047 7.03583333984375  Z M 17.4642361083984 1.5875  C 17.2435558969256 1.85649717409903  17.0340431431717 2.13836598492318  16.8364583251953 2.4320833203125  C 16.309375 3.21416665039063  15.9920138916016 3.89791666015625  15.9920138916016 4.29749999023438  C 15.9920138916016 5.285  16.6503472167969 6.08333331054688  17.4604166748047 6.08333333984375  C 18.2701388916016 6.08333333984375  18.9284722412109 5.285  18.9284722167969 4.29749999023438  C 18.9284722167969 4.06458333007813  18.8145833251953 3.71208333007812  18.5975694335937 3.28874999023437  C 18.4417699139571 2.9904615033352  18.2703610087079 2.70433155639392  18.084375 2.4320833203125  C 17.8871341421281 2.14074069442541  17.6802556290728 1.85898745523361  17.4642361083984 1.5875  Z M 1.94305556640625 10.6545833398438  C 1.02222224121094 10.6545833398438  0.277777783203125 9.75166666015625  0.277777783203125 8.6404166796875  C 0.277777783203125 8.122083359375  0.547916674804688 7.54041666992187  1 6.86916666992188  C 1.20856017020982 6.56083335629564  1.43172980916432 6.26715370813015  1.66840278320313 5.98958333984375  L 1.94270832519531 5.67374999023437  L 2.21736110839844 5.98958333984375  C 2.45390500437094 6.26703078122248  2.67695834789243 6.56057083252934  2.88541667480469 6.86875000976562  C 3.03923610839844 7.09708334960937  3.17361110839844 7.32000001953125  3.28402778320313 7.53541666015625  C 3.490625 7.93833333007812  3.60798610839844 8.30124998046875  3.60798610839844 8.6404166796875  C 3.60798610839844 9.75166668945313  2.86354167480469 10.6545833398438  1.94305556640625 10.6545833398438  Z M 1.94270832519531 7.01708333984375  C 1.83020759572431 7.16308088675705  1.72170095519767 7.31343843247758  1.61736110839844 7.46791666015625  C 1.27708332519531 7.97333333984375  1.07152778320312 8.41541665039063  1.07152778320312 8.6404166796875  C 1.07152778320312 9.22791666992187  1.4625 9.7025  1.94305556640625 9.7025  C 2.42326389160156 9.7025  2.81458334960937 9.22791666992187  2.81458332519531 8.6404166796875  C 2.81458332519531 8.5166666796875  2.74409721679687 8.3  2.60798610839844 8.03416666015625  C 2.50487819247631 7.83686127896925  2.3914565601385 7.64759327663325  2.26840278320312 7.4675  C 2.16394315828954 7.31315638927791  2.0553207173522 7.16293781520612  1.94270832519531 7.01708333984375  Z " fill-rule="nonzero" fill="#00ffff" stroke="none" transform="matrix(1 0 0 1 645 319 )" />
  </g>
</svg>