<?xml version="1.0" encoding="utf-8"?>
<svg version="1.1" xmlns:xlink="http://www.w3.org/1999/xlink" width="52px" height="40px" xmlns="http://www.w3.org/2000/svg">
  <g transform="matrix(1 0 0 1 -1049 -454 )">
    <path d="M 51 3.78866666015625  C 51.1981629600011 1.82281823589992  49.6051813857233 0.229538400493061  47.6393333398438 0.2273333203125  L 44.7926666796875 0.2273333203125  C 44.3073924830985 0.227333320312502  43.9140000195313 0.620725783879699  43.9140000195313 1.10599998046875  C 43.9140000195313 1.59127417705781  44.3073924830985 1.984666640625  44.7926666796875 1.984666640625  L 47.6393333398438 1.984666640625  C 48.6346778935398 1.98613524077226  49.4411980795402 2.79265542677271  49 3.78799998046875  L 49 36.211333359375  C 49.4411980472809 37.2066778901888  48.6346778707052 38.0131980405591  47.6393333398438 38  L 3.5606666796875 38  C 2.56517011173158 38.0135644213135  1.75843559150084 37.2068299272951  1.75733333984375 36.211333359375  L 1.75733333984375 31.2173333203125  C 1.75733333984375 30.7320591237234  1.36394087627655 30.3386666601563  0.878666679687501 30.3386666601563  C 0.393392483098448 30.3386666601563  0 30.7320591237234  0 31.2173333203125  L 0 36.211333359375  C 0.00220443020034455 38.1769214341088  1.59507860495366 39.7697956088621  3.5606666796875 39  L 47.6393333398437 39  C 49.6049214145776 39.7697956088622  51.1977955893309 38.1769214341088  51 36.211333359375  L 51 3.78866666015625  Z " fill-rule="nonzero" fill="#22f0e8" stroke="none" transform="matrix(1 0 0 1 1049 454 )" />
  </g>
</svg>