<?xml version="1.0" encoding="utf-8"?>
<svg version="1.1" xmlns:xlink="http://www.w3.org/1999/xlink" width="160px" height="65px" xmlns="http://www.w3.org/2000/svg">
  <defs>
    <linearGradient gradientUnits="userSpaceOnUse" x1="80" y1="0" x2="80" y2="65" id="LinearGradient1865">
      <stop id="Stop1866" stop-color="#04051a" offset="0" />
      <stop id="Stop1867" stop-color="#04051a" offset="0.02" />
      <stop id="Stop1868" stop-color="#053a4f" offset="0.16" />
      <stop id="Stop1869" stop-color="#66ffff" offset="0.49" />
      <stop id="Stop1870" stop-color="#053d53" offset="0.83" />
      <stop id="Stop1871" stop-color="#04051a" offset="0.99" />
      <stop id="Stop1872" stop-color="#04051a" offset="1" />
    </linearGradient>
    <linearGradient gradientUnits="userSpaceOnUse" x1="0" y1="32.5" x2="160" y2="32.5" id="LinearGradient1873">
      <stop id="Stop1874" stop-color="#04051a" offset="0" />
      <stop id="Stop1875" stop-color="#04051a" offset="0.02" />
      <stop id="Stop1876" stop-color="#053a4f" offset="0.16" />
      <stop id="Stop1877" stop-color="#66ffff" offset="0.49" />
      <stop id="Stop1878" stop-color="#053d53" offset="0.83" />
      <stop id="Stop1879" stop-color="#04051a" offset="0.99" />
      <stop id="Stop1880" stop-color="#04051a" offset="1" />
    </linearGradient>
    <mask fill="white" id="clip1881">
      <path d="M 160 11.7061611374408  L 156.549019607843 0  L 154 11.7061611374408  L 154 26.4928909952606  L 149.019607843137 26.4928909952606  L 149.019607843137 29  L 0 29  L 149.019607843137 33.2701421800948  L 149.019607843137 35.4265402843601  L 154 35.4265402843601  L 154 53.2938388625592  L 156.549019607843 65  L 160 53.2938388625592  L 160 11.7061611374408  Z " fill-rule="evenodd" />
    </mask>
  </defs>
  <g transform="matrix(1 0 0 1 -1098 -25 )">
    <path d="M 160 11.7061611374408  L 156.549019607843 0  L 154 11.7061611374408  L 154 26.4928909952606  L 149.019607843137 26.4928909952606  L 149.019607843137 29  L 0 29  L 149.019607843137 33.2701421800948  L 149.019607843137 35.4265402843601  L 154 35.4265402843601  L 154 53.2938388625592  L 156.549019607843 65  L 160 53.2938388625592  L 160 11.7061611374408  Z " fill-rule="nonzero" fill="url(#LinearGradient1865)" stroke="none" transform="matrix(1 0 0 1 1098 25 )" />
    <path d="M 160 11.7061611374408  L 156.549019607843 0  L 154 11.7061611374408  L 154 26.4928909952606  L 149.019607843137 26.4928909952606  L 149.019607843137 29  L 0 29  L 149.019607843137 33.2701421800948  L 149.019607843137 35.4265402843601  L 154 35.4265402843601  L 154 53.2938388625592  L 156.549019607843 65  L 160 53.2938388625592  L 160 11.7061611374408  Z " stroke-width="2" stroke="url(#LinearGradient1873)" fill="none" transform="matrix(1 0 0 1 1098 25 )" mask="url(#clip1881)" />
  </g>
</svg>