<?xml version="1.0" encoding="utf-8"?>
<svg version="1.1" xmlns:xlink="http://www.w3.org/1999/xlink" width="160px" height="65px" xmlns="http://www.w3.org/2000/svg">
  <defs>
    <linearGradient gradientUnits="userSpaceOnUse" x1="80" y1="0" x2="80" y2="65" id="LinearGradient1882">
      <stop id="Stop1883" stop-color="#04051a" offset="0" />
      <stop id="Stop1884" stop-color="#04051a" offset="0.02" />
      <stop id="Stop1885" stop-color="#053a4f" offset="0.16" />
      <stop id="Stop1886" stop-color="#66ffff" offset="0.49" />
      <stop id="Stop1887" stop-color="#053d53" offset="0.83" />
      <stop id="Stop1888" stop-color="#04051a" offset="0.99" />
      <stop id="Stop1889" stop-color="#04051a" offset="1" />
    </linearGradient>
    <linearGradient gradientUnits="userSpaceOnUse" x1="0" y1="32.5" x2="160" y2="32.5" id="LinearGradient1890">
      <stop id="Stop1891" stop-color="#04051a" offset="0" />
      <stop id="Stop1892" stop-color="#04051a" offset="0.02" />
      <stop id="Stop1893" stop-color="#053a4f" offset="0.16" />
      <stop id="Stop1894" stop-color="#66ffff" offset="0.49" />
      <stop id="Stop1895" stop-color="#053d53" offset="0.83" />
      <stop id="Stop1896" stop-color="#04051a" offset="0.99" />
      <stop id="Stop1897" stop-color="#04051a" offset="1" />
    </linearGradient>
    <mask fill="white" id="clip1898">
      <path d="M 0 11.7061611374408  L 3.45098039215689 0  L 6 11.7061611374408  L 6 26.4928909952606  L 10.9803921568628 26.4928909952606  L 10.9803921568628 29  L 160 29  L 10.9803921568628 33.2701421800948  L 10.9803921568628 35.4265402843601  L 6 35.4265402843601  L 6 53.2938388625592  L 3.45098039215689 65  L 0 53.2938388625592  L 0 11.7061611374408  Z " fill-rule="evenodd" />
    </mask>
  </defs>
  <g transform="matrix(1 0 0 1 -1581 -25 )">
    <path d="M 0 11.7061611374408  L 3.45098039215689 0  L 6 11.7061611374408  L 6 26.4928909952606  L 10.9803921568628 26.4928909952606  L 10.9803921568628 29  L 160 29  L 10.9803921568628 33.2701421800948  L 10.9803921568628 35.4265402843601  L 6 35.4265402843601  L 6 53.2938388625592  L 3.45098039215689 65  L 0 53.2938388625592  L 0 11.7061611374408  Z " fill-rule="nonzero" fill="url(#LinearGradient1882)" stroke="none" transform="matrix(1 0 0 1 1581 25 )" />
    <path d="M 0 11.7061611374408  L 3.45098039215689 0  L 6 11.7061611374408  L 6 26.4928909952606  L 10.9803921568628 26.4928909952606  L 10.9803921568628 29  L 160 29  L 10.9803921568628 33.2701421800948  L 10.9803921568628 35.4265402843601  L 6 35.4265402843601  L 6 53.2938388625592  L 3.45098039215689 65  L 0 53.2938388625592  L 0 11.7061611374408  Z " stroke-width="2" stroke="url(#LinearGradient1890)" fill="none" transform="matrix(1 0 0 1 1581 25 )" mask="url(#clip1898)" />
  </g>
</svg>