<?xml version="1.0" encoding="utf-8"?>
<svg version="1.1" xmlns:xlink="http://www.w3.org/1999/xlink" width="77px" height="84px" xmlns="http://www.w3.org/2000/svg">
  <defs>
    <linearGradient gradientUnits="userSpaceOnUse" x1="-9.21059479196442" y1="19.752184273377" x2="86.2105947919644" y2="64.247815726623" id="LinearGradient5596">
      <stop id="Stop5597" stop-color="#22f0e8" offset="0" />
      <stop id="Stop5598" stop-color="#22f0e8" offset="0.4" />
      <stop id="Stop5599" stop-color="#051919" offset="1" />
    </linearGradient>
    <mask fill="white" id="clip5600">
      <path d="M 77 18.5345121320211  L 75.4598744470361 19.5697695596575  C 68.3257966187151 8.90510635977148  56.1520592681846 2  42.0910294802926 2  C 19.6424804241366 2  2.00433473715679 19.5999999999999  2.00433473715679 42  C 2.00433473715679 64.4000000000001  19.6424804241366 82  42.0910294802926 82  C 54.5890759153118 82  65.5960826370501 76.5446780779555  72.8983833054176 67.8429094962216  L 74.3096489941016 69.0267570825743  C 66.3121571731971 78.5193810879164  54.5192559024171 84  42.0910294802926 84  C 18.8447957936486 84  0 65.1959594928933  0 42  C 0 18.8040405071067  18.8447957936486 0  42.0910294802926 0  C 56.0924804814038 0  69.1773600333172 6.94726470561659  77 18.5345121320211  Z " fill-rule="evenodd" />
    </mask>
  </defs>
  <g transform="matrix(1 0 0 1 -113 -127 )">
    <path d="M 77 18.5345121320211  L 75.4598744470361 19.5697695596575  C 68.3257966187151 8.90510635977148  56.1520592681846 2  42.0910294802926 2  C 19.6424804241366 2  2.00433473715679 19.5999999999999  2.00433473715679 42  C 2.00433473715679 64.4000000000001  19.6424804241366 82  42.0910294802926 82  C 54.5890759153118 82  65.5960826370501 76.5446780779555  72.8983833054176 67.8429094962216  L 74.3096489941016 69.0267570825743  C 66.3121571731971 78.5193810879164  54.5192559024171 84  42.0910294802926 84  C 18.8447957936486 84  0 65.1959594928933  0 42  C 0 18.8040405071067  18.8447957936486 0  42.0910294802926 0  C 56.0924804814038 0  69.1773600333172 6.94726470561659  77 18.5345121320211  Z " fill-rule="nonzero" fill="#ffffff" stroke="none" fill-opacity="0" transform="matrix(1 0 0 1 113 127 )" />
    <path d="M 77 18.5345121320211  L 75.4598744470361 19.5697695596575  C 68.3257966187151 8.90510635977148  56.1520592681846 2  42.0910294802926 2  C 19.6424804241366 2  2.00433473715679 19.5999999999999  2.00433473715679 42  C 2.00433473715679 64.4000000000001  19.6424804241366 82  42.0910294802926 82  C 54.5890759153118 82  65.5960826370501 76.5446780779555  72.8983833054176 67.8429094962216  L 74.3096489941016 69.0267570825743  C 66.3121571731971 78.5193810879164  54.5192559024171 84  42.0910294802926 84  C 18.8447957936486 84  0 65.1959594928933  0 42  C 0 18.8040405071067  18.8447957936486 0  42.0910294802926 0  C 56.0924804814038 0  69.1773600333172 6.94726470561659  77 18.5345121320211  Z " stroke-width="2" stroke="url(#LinearGradient5596)" fill="none" transform="matrix(1 0 0 1 113 127 )" mask="url(#clip5600)" />
  </g>
</svg>