<?xml version="1.0" encoding="utf-8"?>
<svg version="1.1" xmlns:xlink="http://www.w3.org/1999/xlink" width="16px" height="20px" xmlns="http://www.w3.org/2000/svg">
  <g transform="matrix(1 0 0 1 -415 -163 )">
    <path d="M 8.34472222656245 2.26138888671875  C 8.17666667968751 2.46305554687501  7.99638888671871 2.6825  7.80638888671876 2.91777777343751  C 7.02479372940047 3.88219074168171  6.27603258221541 4.87275671368161  5.56138888671876 5.88777777343751  C 4.98166666015629 6.71444443359374  4.46138888671874 7.51444443359375  4.01583333984377 8.27388888671874  C 2.95694445312495 10.0783333398437  2.3727777929688 11.5669444335938  2.37277777343752 12.5727777734375  C 2.37277777343752 15.9677777734375  5.05027777343753 18.7133333203125  8.34500000000003 18.7133333398438  C 11.639444453125 18.7133333398438  14.3172222265625 15.9677777929687  14.3172222265625 12.5727777734375  C 14.3172222265625 11.5672222265625  13.7330555664063 10.0783333203125  12.6741666601563 8.27388888671874  C 12.2286111132812 7.51444443359375  11.7083333203125 6.71444443359374  11.1286111132813 5.88777777343751  C 10.4139674177846 4.87275671368161  9.66520627059947 3.88219074168171  8.88361111328129 2.91777777343751  C 8.70565476328647 2.69761307090297  8.5260198978383 2.47881039700596  8.34472222656245 2.26138888671875  Z M 8.34500000000003 19.9833333398437  C 4.34166666015631 19.9833333398437  1.103055546875 16.661944453125  1.103055546875 12.5727777734375  C 1.103055546875 11.2797222265625  1.75555554687503 9.61694443359374  2.92055554687499 7.63111111328124  C 3.38472220703125 6.84  3.92333332031251 6.01166666015624  4.52166666015626 5.15888888671876  C 5.25290786268181 4.12012149269299  6.01908693066059 3.10639340127162  6.8188888867187 2.119444453125  C 7.13698409347796 1.7257095542559  7.46053383449805 1.33641272719927  7.78944445312504 0.951666660156263  L 7.86722222656249 0.862222226562494  L 8.34500000000003 0.316111113281238  L 8.82277777343745 0.862222226562494  L 8.90055554687501 0.951666660156263  C 8.96194443359377 1.02361111328125  9.03361109374998 1.10722220703124  9.11388888671877 1.2022222265625  C 9.34249999999997 1.47277777343751  9.59722222656251 1.78055556640626  9.87111111328124 2.119444453125  C 10.6709130693395 3.10639340127162  11.4370921373181 4.12012149269299  12.1683333398438 5.15888888671876  C 12.7666666796875 6.01166666015624  13.305 6.84  13.7694444531249 7.63111111328124  C 14.934444453125 9.616944453125  15.5869444531251 11.2797222265625  15.5869444531251 12.5727777734375  C 15.5869444531251 16.6619444335938  12.3480555664063 19.9833333203125  8.34500000000003 19.9833333398437  Z M 8.34500000000003 17.7772222265625  C 5.55444445312503 17.7772222265625  3.29250000000002 15.5072222265625  3.29250000000002 12.706944453125  C 3.29250000000002 9.90694445312499  5.9183333398438 11.3247222265625  8.34500000000003 12.706944453125  C 10.7816666601562 14.095  13.3975 9.90694445312499  13.3975 12.706944453125  C 13.3975 15.5072222265625  11.1352777734375 17.7772222265625  8.34472222656245 17.7772222265625  Z M 13.9683333398438 5.3572222265625  C 12.968333359375 5.35722224609376  12.1586111132813 4.5391666796875  12.1586111132813 3.53166666015625  C 12.1586111132813 3.06972220703125  12.464444453125 2.52083332031251  12.9752777734375 1.88888888671875  C 13.2166061957491 1.59154277903244  13.4748089184425 1.30829884421976  13.7486111132813 1.040555546875  L 13.968055546875 0.830277773437501  L 14.1877777734375 1.040555546875  L 14.2566666601563 1.10805554687499  C 14.5050091154848 1.35580256326404  14.7401487443612 1.61644037640988  14.9611111132813 1.88888888671875  C 15.1271063513574 2.09163097123377  15.2800089687321 2.3047482779161  15.4188888867187 2.526944453125  C 15.6486111132813 2.90000000000001  15.7777777734375 3.2327777734375  15.7777777734375 3.53166666015625  C 15.7777777734375 4.53916666015624  14.9683333203125 5.35722220703124  13.9683333398438 5.3572222265625  Z M 13.9713888867187 1.72499999999999  C 13.7948447175405 1.90433144939936  13.6272345145373 2.0922439899488  13.4691666601562 2.288055546875  C 13.0475 2.80944443359374  12.7936111132813 3.2652777734375  12.7936111132813 3.53166666015625  C 12.7936111132813 4.19  13.3202777734375 4.72222220703125  13.9683333398438 4.72222222656251  C 14.6161111132812 4.72222222656251  15.1427777929688 4.19  15.1427777734375 3.53166666015625  C 15.1427777734375 3.37638888671876  15.0516666601562 3.14138888671874  14.878055546875 2.85916666015626  C 14.7534159311657 2.66030766889014  14.6162888069663 2.46955437092927  14.4675 2.288055546875  C 14.3097073137025 2.09382712961693  14.1442045032583 1.90599163682239  13.9713888867187 1.72499999999999  Z M 1.55444445312503 7.76972222656249  C 0.817777792968741 7.76972222656249  0.222222226562508 7.16777777343751  0.222222226562508 6.426944453125  C 0.222222226562508 6.08138890625  0.43833333984378 5.69361111328124  0.799999999999955 5.24611111328124  C 0.966848136167869 5.04055557086375  1.14538384733146 4.84476913875343  1.33472222656246 4.65972222656251  L 1.55416666015628 4.44916666015624  L 1.77388888671874 4.65972222656251  C 1.96312400349677 4.84468718748167  2.14156667831389 5.04038055501957  2.30833333984378 5.24583333984376  C 2.43138888671876 5.39805556640624  2.53888888671872 5.54666667968749  2.62722222656248 5.69027777343749  C 2.79250000000002 5.95888888671874  2.88638888671881 6.20083332031251  2.88638888671881 6.426944453125  C 2.88638888671881 7.16777779296876  2.29083333984374 7.76972222656249  1.55444445312503 7.76972222656249  Z M 1.55416666015628 5.34472222656251  C 1.46416607657943 5.44205392450471  1.37736076415808 5.54229228831838  1.29388888671872 5.6452777734375  C 1.02166666015626 5.9822222265625  0.857222226562499 6.27694443359374  0.857222226562499 6.426944453125  C 0.857222226562499 6.81861111328124  1.16999999999996 7.13499999999999  1.55444445312503 7.13499999999999  C 1.93861111328124 7.13499999999999  2.25166667968745 6.81861111328124  2.25166666015627 6.426944453125  C 2.25166666015627 6.34444445312499  2.19527777343751 6.19999999999999  2.08638888671874 6.0227777734375  C 2.00390255398099 5.89124085264618  1.91316524811077 5.76506218442216  1.81472222656248 5.64500000000001  C 1.7311545266316 5.5421042595186  1.64425657388176 5.44195854347075  1.55416666015628 5.34472222656251  Z " fill-rule="nonzero" fill="#174a8e" stroke="none" transform="matrix(1 0 0 1 415 163 )" />
  </g>
</svg>