<?xml version="1.0" encoding="utf-8"?>
<svg version="1.1" xmlns:xlink="http://www.w3.org/1999/xlink" width="19px" height="22px" xmlns="http://www.w3.org/2000/svg">
  <g transform="matrix(1 0 0 1 -44 -267 )">
    <path d="M 17.4705636160714 8.2578125  C 16.8158482142857 8.2171875  14.2865792410714 8.2552734375  14.2865792410714 8.2552734375  C 13.6008510044643 8.2552734375  12.0812220982143 8.2984375  10.9406389508929 8.22734375  C 10.4582170758929 8.196875  10.9819893973214 7.2345703125  11.0991489955357 6.9349609375  C 11.3886021205357 6.180859375  12.3189871651786 2.0294921875  12.5567522321429 0.95546875  C 12.5946568080357 0.787890625  12.4671595982143 0.625390625  12.2569614955357 0.564453124999999  C 11.77109375 0.424804687499999  11.2197544642857 0.452734374999999  10.7786830357143 0.919921874999999  L 1.254296875 11.8708984375  C 0.992410714285713 12.1400390625  1.35767299107143 12.5158203125  1.76428571428572 12.5158203125  L 6.43688616071428 12.5158203125  C 6.75735212053571 12.5158203125  7.99441964285714 12.366015625  8.19772600446429 12.5919921875  C 8.38724888392857 12.7748046875  8.02198660714286 13.3435546875  7.94962332589286 13.5466796875  C 7.07437220982143 15.778515625  4.10747767857143 18.967578125  3.64228515625 21.359375  C 3.61127232142857 21.5091796875  3.62505580357143 21.603125  4.27287946428571 21.4990234375  C 5.13779296875 21.3568359375  5.82007533482143 21.0521484375  6.61607142857143 20.4580078125  C 9.92755301339286 17.982421875  18.0873744419643 9.3470703125  18.3699358258929 8.9966796875  C 18.6904017857143 8.603125  18.4664202008929 8.3162109375  17.4705636160714 8.2578125  Z " fill-rule="nonzero" fill="#ffffff" stroke="none" fill-opacity="0.996078431372549" transform="matrix(1 0 0 1 44 267 )" />
  </g>
</svg>