<?xml version="1.0" encoding="utf-8"?>
<svg version="1.1" xmlns:xlink="http://www.w3.org/1999/xlink" width="17px" height="22px" xmlns="http://www.w3.org/2000/svg">
  <g transform="matrix(1 0 0 1 -43 -267 )">
    <path d="M 16.5877704326923 9.694921875  C 16.8533954326923 9.4181640625  16.5180438701923 9.0423828125  16.1262469951923 9.0423828125  L 13.0549579326923 9.0423828125  C 12.3942157451923 9.0423828125  10.5282001201923 9.288671875  9.89734074519231 8.9890625  C 9.7711688701923 8.6462890625  10.1795673076923 8.02421875  10.2891376201923 7.7220703125  C 10.6112079326923 6.8537109375  10.9199969951923 5.9955078125  11.2420673076923 5.114453125  L 12.6166766826923 1.326171875  C 12.7992938701923 0.83359375  11.9559344951923 0.6177734375  11.6073016826923 0.9935546875  L 0.494215745192308 12.6580078125  C 0.241871995192308 12.9271484375  0.593825120192308 13.3029296875  0.985621995192308 13.3029296875  L 5.48796574519231 13.3029296875  C 5.79675480769231 13.3029296875  6.98874699519231 13.153125  7.18464543269231 13.3791015625  C 7.36726262019231 13.5619140625  7.01530949519231 14.1306640625  6.94558293269231 14.3337890625  C 6.10554387019231 16.5630859375  5.29206730769231 18.794921875  4.47859074519231 21.0267578125  C 4.29597355769231 21.5193359375  5.13933293269231 21.73515625  5.48796574519231 21.359375  L 16.5877704326923 9.694921875  Z " fill-rule="nonzero" fill="#ffffff" stroke="none" fill-opacity="0.996078431372549" transform="matrix(1 0 0 1 43 267 )" />
  </g>
</svg>