<?xml version="1.0" encoding="utf-8"?>
<svg version="1.1" xmlns:xlink="http://www.w3.org/1999/xlink" width="12px" height="8px" xmlns="http://www.w3.org/2000/svg">
  <g transform="matrix(1 0 0 1 -729 -122 )">
    <path d="M 11.6666666536458 0.307692307692308  L 11.6666666536458 8  L 0 8  L 0 1.84615385817308  C 0 0.996485019722915  0.746192078658157 0.307692327606422  1.66666665364583 0.307692307692308  L 11.6666666536458 0.307692307692308  Z M 7.50000001302083 3.38461537259615  C 7.49999999144721 2.53494653414599  6.75380790832101 1.84615385817308  5.83333333333333 1.84615385817308  C 4.91260358791061 1.84615384014423  4.16641149846564 2.53494653809343  4.16641149846564 3.384615390625  C 4.16641149846564 4.23428424315657  4.91260358791061 4.92307694110577  5.83307817815314 4.92307694110577  C 5.83947858231946 4.92314037389493  5.84562416767918 4.92317210004815  5.85176980109383 4.92317210004815  C 6.76211915654038 4.92317210004815  7.50010312140633 4.24195613247958  7.50010312140633 3.40163365052892  C 7.50010312140633 3.39596075814624  7.50006875140701 3.39028791012173  7.50000001302083 3.38461537259615  Z " fill-rule="nonzero" fill="#00c69c" stroke="none" transform="matrix(1 0 0 1 729 122 )" />
  </g>
</svg>