<?xml version="1.0" encoding="utf-8"?>
<svg version="1.1" xmlns:xlink="http://www.w3.org/1999/xlink" width="60px" height="60px" xmlns="http://www.w3.org/2000/svg">
  <g transform="matrix(1 0 0 1 -712 -107 )">
    <path d="M 742 108  C 758.24 108  771 120.76  771 137  C 771 153.24  758.24 166  742 166  C 725.76 166  713 153.24  713 137  C 713 120.76  725.76 108  742 108  Z " fill-rule="nonzero" fill="#70b603" stroke="none" fill-opacity="0.0980392156862745" />
    <path d="M 742 108  C 758.24 108  771 120.76  771 137  C 771 153.24  758.24 166  742 166  C 725.76 166  713 153.24  713 137  C 713 120.76  725.76 108  742 108  Z " stroke-width="2" stroke="#5cffff" fill="none" />
  </g>
</svg>