<?xml version="1.0" encoding="utf-8"?>
<svg version="1.1" xmlns:xlink="http://www.w3.org/1999/xlink" width="12px" height="8px" xmlns="http://www.w3.org/2000/svg">
  <g transform="matrix(1 0 0 1 -743 -122 )">
    <path d="M 11.9999999869792 1.84615385817308  L 11.9999999869792 8  L 0.333333346354166 8  L 0.333333346354166 0.307692307692308  L 10.3333333463542 0.307692307692308  C 11.2538079213418 0.307692327606422  11.9999999869792 0.996485019722915  11.9999999869792 1.84615385817308  Z M 7.83333334635417 3.38461537259615  C 7.83333332478054 2.53494653414599  7.08714124165434 1.84615385817308  6.16666666666667 1.84615385817308  C 5.24593692124395 1.84615384014423  4.49974483179898 2.53494653809343  4.49974483179898 3.384615390625  C 4.49974483179898 4.23428424315657  5.24593692124395 4.92307694110577  6.16641151148648 4.92307694110577  C 6.17281191565279 4.92314037389493  6.17895750101251 4.92317210004815  6.18510313442715 4.92317210004815  C 7.09545248987371 4.92317210004815  7.83343645473965 4.24195613247958  7.83343645473965 3.40163365052892  C 7.83343645473965 3.39596075814641  7.83340208474034 3.39028791012157  7.83333334635417 3.38461537259615  Z " fill-rule="nonzero" fill="#00c69c" stroke="none" transform="matrix(1 0 0 1 743 122 )" />
  </g>
</svg>