<?xml version="1.0" encoding="utf-8"?>
<svg version="1.1" xmlns:xlink="http://www.w3.org/1999/xlink" width="25px" height="40px" xmlns="http://www.w3.org/2000/svg">
  <g transform="matrix(1 0 0 1 -1034 -254 )">
    <path d="M 1046.5 255  C 1052.94 255  1058 263.36  1058 274  C 1058 284.64  1052.94 293  1046.5 293  C 1040.06 293  1035 284.64  1035 274  C 1035 263.36  1040.06 255  1046.5 255  Z " fill-rule="nonzero" fill="#70b603" stroke="none" fill-opacity="0.674509803921569" />
    <path d="M 1046.5 255  C 1052.94 255  1058 263.36  1058 274  C 1058 284.64  1052.94 293  1046.5 293  C 1040.06 293  1035 284.64  1035 274  C 1035 263.36  1040.06 255  1046.5 255  Z " stroke-width="2" stroke="#70b603" fill="none" />
  </g>
</svg>