<?xml version="1.0" encoding="utf-8"?>
<svg version="1.1" xmlns:xlink="http://www.w3.org/1999/xlink" width="30px" height="30px" xmlns="http://www.w3.org/2000/svg">
  <g transform="matrix(1 0 0 1 -907 -54 )">
    <path d="M 922 55  C 929.84 55  936 61.16  936 69  C 936 76.84  929.84 83  922 83  C 914.16 83  908 76.84  908 69  C 908 61.16  914.16 55  922 55  Z " fill-rule="nonzero" fill="#70b603" stroke="none" fill-opacity="0.8" />
    <path d="M 922 55  C 929.84 55  936 61.16  936 69  C 936 76.84  929.84 83  922 83  C 914.16 83  908 76.84  908 69  C 908 61.16  914.16 55  922 55  Z " stroke-width="2" stroke="#029076" fill="none" />
  </g>
</svg>