<?xml version="1.0" encoding="utf-8"?>
<svg version="1.1" xmlns:xlink="http://www.w3.org/1999/xlink" width="7px" height="5px" xmlns="http://www.w3.org/2000/svg">
  <defs>
    <mask fill="white" id="clip2462">
      <path d="M 3.56605504587151 4.30642201834866  C 2.17155963302753 4.30642201834866  0.336697247706525 3.71926605504592  0.336697247706525 2.91192660550462  C 0.336697247706525 2.17798165137617  2.17155963302753 0.783486238532134  3.56605504587151 0.783486238532134  C 4.96055045871549 0.783486238532134  6.06146788990827 2.17798165137617  6.06146788990827 2.91192660550462  C 6.06146788990827 3.71926605504592  4.96055045871549 4.30642201834866  3.56605504587151 4.30642201834866  Z " fill-rule="evenodd" />
    </mask>
  </defs>
  <g transform="matrix(1 0 0 1 -1149 -305 )">
    <path d="M 3.56605504587151 4.30642201834866  C 2.17155963302753 4.30642201834866  0.336697247706525 3.71926605504592  0.336697247706525 2.91192660550462  C 0.336697247706525 2.17798165137617  2.17155963302753 0.783486238532134  3.56605504587151 0.783486238532134  C 4.96055045871549 0.783486238532134  6.06146788990827 2.17798165137617  6.06146788990827 2.91192660550462  C 6.06146788990827 3.71926605504592  4.96055045871549 4.30642201834866  3.56605504587151 4.30642201834866  Z " fill-rule="nonzero" fill="#ffffff" stroke="none" transform="matrix(1 0 0 1 1149 305 )" />
    <path d="M 3.56605504587151 4.30642201834866  C 2.17155963302753 4.30642201834866  0.336697247706525 3.71926605504592  0.336697247706525 2.91192660550462  C 0.336697247706525 2.17798165137617  2.17155963302753 0.783486238532134  3.56605504587151 0.783486238532134  C 4.96055045871549 0.783486238532134  6.06146788990827 2.17798165137617  6.06146788990827 2.91192660550462  C 6.06146788990827 3.71926605504592  4.96055045871549 4.30642201834866  3.56605504587151 4.30642201834866  Z " stroke-width="1.46788990825688" stroke="#e35020" fill="none" transform="matrix(1 0 0 1 1149 305 )" mask="url(#clip2462)" />
  </g>
</svg>