<?xml version="1.0" encoding="utf-8"?>
<svg version="1.1" xmlns:xlink="http://www.w3.org/1999/xlink" width="6px" height="11px" xmlns="http://www.w3.org/2000/svg">
  <defs>
    <mask fill="white" id="clip8167">
      <path d="M 0.627217252976379 2.11804294104974  C 0.627217252976379 1.38409798692129  1.28776771169191 0.7235475282057  2.02171266582036 0.7235475282057  C 2.02171266582036 0.7235475282057  4.39480109564761 0.7235475282057  4.39480109564761 0.7235475282057  C 5.20214054518874 0.7235475282057  5.78929650849159 1.38409798692129  5.78929650849159 2.11804294104974  C 5.78929650849159 2.11804294104974  5.78929650849159 8.67461760940904  5.78929650849159 8.67461760940904  C 5.78929650849159 9.48195705895034  5.20214054518874 10.0691130222531  4.39480109564761 10.0691130222531  C 4.39480109564761 10.0691130222531  2.02171266582036 10.0691130222531  2.02171266582036 10.0691130222531  C 1.28776771169191 10.0691130222531  0.627217252976379 9.48195705895034  0.627217252976379 8.67461760940904  C 0.627217252976379 8.67461760940904  0.627217252976379 2.11804294104974  0.627217252976379 2.11804294104974  Z " fill-rule="evenodd" />
    </mask>
  </defs>
  <g transform="matrix(1 0 0 1 -1124 -307 )">
    <path d="M 0.627217252976379 2.11804294104974  C 0.627217252976379 1.38409798692129  1.28776771169191 0.7235475282057  2.02171266582036 0.7235475282057  C 2.02171266582036 0.7235475282057  4.39480109564761 0.7235475282057  4.39480109564761 0.7235475282057  C 5.20214054518874 0.7235475282057  5.78929650849159 1.38409798692129  5.78929650849159 2.11804294104974  C 5.78929650849159 2.11804294104974  5.78929650849159 8.67461760940904  5.78929650849159 8.67461760940904  C 5.78929650849159 9.48195705895034  5.20214054518874 10.0691130222531  4.39480109564761 10.0691130222531  C 4.39480109564761 10.0691130222531  2.02171266582036 10.0691130222531  2.02171266582036 10.0691130222531  C 1.28776771169191 10.0691130222531  0.627217252976379 9.48195705895034  0.627217252976379 8.67461760940904  C 0.627217252976379 8.67461760940904  0.627217252976379 2.11804294104974  0.627217252976379 2.11804294104974  Z " fill-rule="nonzero" fill="#deb887" stroke="none" transform="matrix(1 0 0 1 1124 307 )" />
    <path d="M 0.627217252976379 2.11804294104974  C 0.627217252976379 1.38409798692129  1.28776771169191 0.7235475282057  2.02171266582036 0.7235475282057  C 2.02171266582036 0.7235475282057  4.39480109564761 0.7235475282057  4.39480109564761 0.7235475282057  C 5.20214054518874 0.7235475282057  5.78929650849159 1.38409798692129  5.78929650849159 2.11804294104974  C 5.78929650849159 2.11804294104974  5.78929650849159 8.67461760940904  5.78929650849159 8.67461760940904  C 5.78929650849159 9.48195705895034  5.20214054518874 10.0691130222531  4.39480109564761 10.0691130222531  C 4.39480109564761 10.0691130222531  2.02171266582036 10.0691130222531  2.02171266582036 10.0691130222531  C 1.28776771169191 10.0691130222531  0.627217252976379 9.48195705895034  0.627217252976379 8.67461760940904  C 0.627217252976379 8.67461760940904  0.627217252976379 2.11804294104974  0.627217252976379 2.11804294104974  Z " stroke-width="0.489296125709464" stroke="#deb887" fill="none" transform="matrix(1 0 0 1 1124 307 )" mask="url(#clip8167)" />
  </g>
</svg>