<?xml version="1.0" encoding="utf-8"?>
<svg version="1.1" xmlns:xlink="http://www.w3.org/1999/xlink" width="3px" height="3px" xmlns="http://www.w3.org/2000/svg">
  <defs>
    <mask fill="white" id="clip8162">
      <path d="M 0.597859454810987 2.85993871032645  C 0.597859454810987 2.85993871032645  0.597859454810987 0.780428262150622  0.597859454810987 0.780428262150622  C 0.597859454810987 0.780428262150622  2.38379192133539 0.780428262150622  2.38379192133539 0.780428262150622  C 2.38379192133539 0.780428262150622  2.38379192133539 2.85993871032645  2.38379192133539 2.85993871032645  C 2.38379192133539 2.85993871032645  0.597859454810987 2.85993871032645  0.597859454810987 2.85993871032645  Z " fill-rule="evenodd" />
    </mask>
  </defs>
  <g transform="matrix(1 0 0 1 -1152 -296 )">
    <path d="M 0.597859454810987 2.85993871032645  C 0.597859454810987 2.85993871032645  0.597859454810987 0.780428262150622  0.597859454810987 0.780428262150622  C 0.597859454810987 0.780428262150622  2.38379192133539 0.780428262150622  2.38379192133539 0.780428262150622  C 2.38379192133539 0.780428262150622  2.38379192133539 2.85993871032645  2.38379192133539 2.85993871032645  C 2.38379192133539 2.85993871032645  0.597859454810987 2.85993871032645  0.597859454810987 2.85993871032645  Z " fill-rule="nonzero" fill="#9e9f9f" stroke="none" transform="matrix(1 0 0 1 1152 296 )" />
    <path d="M 0.597859454810987 2.85993871032645  C 0.597859454810987 2.85993871032645  0.597859454810987 0.780428262150622  0.597859454810987 0.780428262150622  C 0.597859454810987 0.780428262150622  2.38379192133539 0.780428262150622  2.38379192133539 0.780428262150622  C 2.38379192133539 0.780428262150622  2.38379192133539 2.85993871032645  2.38379192133539 2.85993871032645  C 2.38379192133539 2.85993871032645  0.597859454810987 2.85993871032645  0.597859454810987 2.85993871032645  Z " stroke-width="0.489296125709464" stroke="#9e9f9f" fill="none" transform="matrix(1 0 0 1 1152 296 )" mask="url(#clip8162)" />
  </g>
</svg>