<?xml version="1.0" encoding="utf-8"?>
<svg version="1.1" xmlns:xlink="http://www.w3.org/1999/xlink" width="4px" height="5px" xmlns="http://www.w3.org/2000/svg">
  <defs>
    <mask fill="white" id="clip2014">
      <path d="M 2.29999999999995 4.20733944954128  C 1.56605504587151 4.20733944954128  0.244954128440327 3.62018348623855  0.244954128440327 2.8862385321101  C 0.244954128440327 2.15229357798165  1.56605504587151 0.831192660550471  2.29999999999995 0.831192660550471  C 3.0339449541284 0.831192660550471  3.62110091743114 2.15229357798165  3.62110091743114 2.8862385321101  C 3.62110091743114 3.62018348623855  3.0339449541284 4.20733944954128  2.29999999999995 4.20733944954128  Z " fill-rule="evenodd" />
    </mask>
  </defs>
  <g transform="matrix(1 0 0 1 -215 -393 )">
    <path d="M 2.29999999999995 4.20733944954128  C 1.56605504587151 4.20733944954128  0.244954128440327 3.62018348623855  0.244954128440327 2.8862385321101  C 0.244954128440327 2.15229357798165  1.56605504587151 0.831192660550471  2.29999999999995 0.831192660550471  C 3.0339449541284 0.831192660550471  3.62110091743114 2.15229357798165  3.62110091743114 2.8862385321101  C 3.62110091743114 3.62018348623855  3.0339449541284 4.20733944954128  2.29999999999995 4.20733944954128  Z " fill-rule="nonzero" fill="#000000" stroke="none" transform="matrix(1 0 0 1 215 393 )" />
    <path d="M 2.29999999999995 4.20733944954128  C 1.56605504587151 4.20733944954128  0.244954128440327 3.62018348623855  0.244954128440327 2.8862385321101  C 0.244954128440327 2.15229357798165  1.56605504587151 0.831192660550471  2.29999999999995 0.831192660550471  C 3.0339449541284 0.831192660550471  3.62110091743114 2.15229357798165  3.62110091743114 2.8862385321101  C 3.62110091743114 3.62018348623855  3.0339449541284 4.20733944954128  2.29999999999995 4.20733944954128  Z " stroke-width="1.46788990825688" stroke="#000000" fill="none" transform="matrix(1 0 0 1 215 393 )" mask="url(#clip2014)" />
  </g>
</svg>