<?xml version="1.0" encoding="utf-8"?>
<svg version="1.1" xmlns:xlink="http://www.w3.org/1999/xlink" width="7px" height="4px" xmlns="http://www.w3.org/2000/svg">
  <defs>
    <mask fill="white" id="clip8208">
      <path d="M 4.06880733944945 3.78348623853213  C 2.67431192660547 3.78348623853213  0.839449541284466 3.19633027522937  0.839449541284466 2.3889908256881  C 0.839449541284466 1.65504587155965  2.67431192660547 0.260550458715613  4.06880733944945 0.260550458715613  C 5.46330275229343 0.260550458715613  6.56422018348621 1.65504587155965  6.56422018348621 2.3889908256881  C 6.56422018348621 3.19633027522937  5.46330275229343 3.78348623853213  4.06880733944945 3.78348623853213  Z " fill-rule="evenodd" />
    </mask>
  </defs>
  <g transform="matrix(1 0 0 1 -1148 -216 )">
    <path d="M 4.06880733944945 3.78348623853213  C 2.67431192660547 3.78348623853213  0.839449541284466 3.19633027522937  0.839449541284466 2.3889908256881  C 0.839449541284466 1.65504587155965  2.67431192660547 0.260550458715613  4.06880733944945 0.260550458715613  C 5.46330275229343 0.260550458715613  6.56422018348621 1.65504587155965  6.56422018348621 2.3889908256881  C 6.56422018348621 3.19633027522937  5.46330275229343 3.78348623853213  4.06880733944945 3.78348623853213  Z " fill-rule="nonzero" fill="#ffffff" stroke="none" transform="matrix(1 0 0 1 1148 216 )" />
    <path d="M 4.06880733944945 3.78348623853213  C 2.67431192660547 3.78348623853213  0.839449541284466 3.19633027522937  0.839449541284466 2.3889908256881  C 0.839449541284466 1.65504587155965  2.67431192660547 0.260550458715613  4.06880733944945 0.260550458715613  C 5.46330275229343 0.260550458715613  6.56422018348621 1.65504587155965  6.56422018348621 2.3889908256881  C 6.56422018348621 3.19633027522937  5.46330275229343 3.78348623853213  4.06880733944945 3.78348623853213  Z " stroke-width="1.46788990825688" stroke="#e35020" fill="none" transform="matrix(1 0 0 1 1148 216 )" mask="url(#clip8208)" />
  </g>
</svg>