<?xml version="1.0" encoding="utf-8"?>
<svg version="1.1" xmlns:xlink="http://www.w3.org/1999/xlink" width="31px" height="18px" xmlns="http://www.w3.org/2000/svg">
  <defs>
    <mask fill="white" id="clip4293">
      <path d="M 15.6571864167483 17.4782873341796  C 7.36360843509692 17.4782873341796  0.366666794260709 13.6617735727118  0.366666794260709 9.03792036170262  C 0.366666794260709 4.34067265528057  7.36360843509692 0.279510830957975  15.6571864167483 0.279510830957975  C 23.9507643983998 0.279510830957975  30.6296634809685 4.34067265528057  30.6296634809685 9.03792036170262  C 30.6296634809685 13.6617735727118  23.9507643983998 17.4782873341796  15.6571864167483 17.4782873341796  Z " fill-rule="evenodd" />
    </mask>
  </defs>
  <g transform="matrix(1 0 0 1 -1138 -293 )">
    <path d="M 15.6571864167483 17.4782873341796  C 7.36360843509692 17.4782873341796  0.366666794260709 13.6617735727118  0.366666794260709 9.03792036170262  C 0.366666794260709 4.34067265528057  7.36360843509692 0.279510830957975  15.6571864167483 0.279510830957975  C 23.9507643983998 0.279510830957975  30.6296634809685 4.34067265528057  30.6296634809685 9.03792036170262  C 30.6296634809685 13.6617735727118  23.9507643983998 17.4782873341796  15.6571864167483 17.4782873341796  Z " fill-rule="nonzero" fill="#ffdead" stroke="none" transform="matrix(1 0 0 1 1138 293 )" />
    <path d="M 15.6571864167483 17.4782873341796  C 7.36360843509692 17.4782873341796  0.366666794260709 13.6617735727118  0.366666794260709 9.03792036170262  C 0.366666794260709 4.34067265528057  7.36360843509692 0.279510830957975  15.6571864167483 0.279510830957975  C 23.9507643983998 0.279510830957975  30.6296634809685 4.34067265528057  30.6296634809685 9.03792036170262  C 30.6296634809685 13.6617735727118  23.9507643983998 17.4782873341796  15.6571864167483 17.4782873341796  Z " stroke-width="0.489296125709464" stroke="#ffdead" fill="none" transform="matrix(1 0 0 1 1138 293 )" mask="url(#clip4293)" />
  </g>
</svg>