<?xml version="1.0" encoding="utf-8"?>
<svg version="1.1" xmlns:xlink="http://www.w3.org/1999/xlink" width="18px" height="4px" xmlns="http://www.w3.org/2000/svg">
  <defs>
    <mask fill="white" id="clip2529">
      <path d="M 0.834556702517602 3.81406715069346  C 0.834556702517602 3.81406715069346  0.834556702517602 0.927217252976362  0.834556702517602 0.927217252976362  C 0.834556702517602 0.927217252976362  17.225993756198 0.927217252976362  17.225993756198 0.927217252976362  C 17.225993756198 0.927217252976362  17.225993756198 3.81406715069346  17.225993756198 3.81406715069346  C 17.225993756198 3.81406715069346  0.834556702517602 3.81406715069346  0.834556702517602 3.81406715069346  Z " fill-rule="evenodd" />
    </mask>
  </defs>
  <g transform="matrix(1 0 0 1 -1144 -206 )">
    <path d="M 0.834556702517602 3.81406715069346  C 0.834556702517602 3.81406715069346  0.834556702517602 0.927217252976362  0.834556702517602 0.927217252976362  C 0.834556702517602 0.927217252976362  17.225993756198 0.927217252976362  17.225993756198 0.927217252976362  C 17.225993756198 0.927217252976362  17.225993756198 3.81406715069346  17.225993756198 3.81406715069346  C 17.225993756198 3.81406715069346  0.834556702517602 3.81406715069346  0.834556702517602 3.81406715069346  Z " fill-rule="nonzero" fill="#dcdcdd" stroke="none" transform="matrix(1 0 0 1 1144 206 )" />
    <path d="M 0.834556702517602 3.81406715069346  C 0.834556702517602 3.81406715069346  0.834556702517602 0.927217252976362  0.834556702517602 0.927217252976362  C 0.834556702517602 0.927217252976362  17.225993756198 0.927217252976362  17.225993756198 0.927217252976362  C 17.225993756198 0.927217252976362  17.225993756198 3.81406715069346  17.225993756198 3.81406715069346  C 17.225993756198 3.81406715069346  0.834556702517602 3.81406715069346  0.834556702517602 3.81406715069346  Z " stroke-width="0.489296125709464" stroke="#dcdcdd" fill="none" transform="matrix(1 0 0 1 1144 206 )" mask="url(#clip2529)" />
  </g>
</svg>