<?xml version="1.0" encoding="utf-8"?>
<svg version="1.1" xmlns:xlink="http://www.w3.org/1999/xlink" width="3px" height="3px" xmlns="http://www.w3.org/2000/svg">
  <defs>
    <mask fill="white" id="clip2437">
      <path d="M 0.728134684168936 2.54067265528056  C 0.728134684168936 2.54067265528056  0.728134684168936 0.461162207104735  0.728134684168936 0.461162207104735  C 0.728134684168936 0.461162207104735  2.51406715069334 0.461162207104735  2.51406715069334 0.461162207104735  C 2.51406715069334 0.461162207104735  2.51406715069334 2.54067265528056  2.51406715069334 2.54067265528056  C 2.51406715069334 2.54067265528056  0.728134684168936 2.54067265528056  0.728134684168936 2.54067265528056  Z " fill-rule="evenodd" />
    </mask>
  </defs>
  <g transform="matrix(1 0 0 1 -1146 -378 )">
    <path d="M 0.728134684168936 2.54067265528056  C 0.728134684168936 2.54067265528056  0.728134684168936 0.461162207104735  0.728134684168936 0.461162207104735  C 0.728134684168936 0.461162207104735  2.51406715069334 0.461162207104735  2.51406715069334 0.461162207104735  C 2.51406715069334 0.461162207104735  2.51406715069334 2.54067265528056  2.51406715069334 2.54067265528056  C 2.51406715069334 2.54067265528056  0.728134684168936 2.54067265528056  0.728134684168936 2.54067265528056  Z " fill-rule="nonzero" fill="#9e9f9f" stroke="none" transform="matrix(1 0 0 1 1146 378 )" />
    <path d="M 0.728134684168936 2.54067265528056  C 0.728134684168936 2.54067265528056  0.728134684168936 0.461162207104735  0.728134684168936 0.461162207104735  C 0.728134684168936 0.461162207104735  2.51406715069334 0.461162207104735  2.51406715069334 0.461162207104735  C 2.51406715069334 0.461162207104735  2.51406715069334 2.54067265528056  2.51406715069334 2.54067265528056  C 2.51406715069334 2.54067265528056  0.728134684168936 2.54067265528056  0.728134684168936 2.54067265528056  Z " stroke-width="0.489296125709464" stroke="#9e9f9f" fill="none" transform="matrix(1 0 0 1 1146 378 )" mask="url(#clip2437)" />
  </g>
</svg>