<?xml version="1.0" encoding="utf-8"?>
<svg version="1.1" xmlns:xlink="http://www.w3.org/1999/xlink" width="2px" height="3px" xmlns="http://www.w3.org/2000/svg">
  <defs>
    <mask fill="white" id="clip2409">
      <path d="M 0.100611748389156 2.54067265528056  C 0.100611748389156 2.54067265528056  0.100611748389156 0.461162207104735  0.100611748389156 0.461162207104735  C 0.100611748389156 0.461162207104735  1.88654421491356 0.461162207104735  1.88654421491356 0.461162207104735  C 1.88654421491356 0.461162207104735  1.88654421491356 2.54067265528056  1.88654421491356 2.54067265528056  C 1.88654421491356 2.54067265528056  0.100611748389156 2.54067265528056  0.100611748389156 2.54067265528056  Z " fill-rule="evenodd" />
    </mask>
  </defs>
  <g transform="matrix(1 0 0 1 -1152 -378 )">
    <path d="M 0.100611748389156 2.54067265528056  C 0.100611748389156 2.54067265528056  0.100611748389156 0.461162207104735  0.100611748389156 0.461162207104735  C 0.100611748389156 0.461162207104735  1.88654421491356 0.461162207104735  1.88654421491356 0.461162207104735  C 1.88654421491356 0.461162207104735  1.88654421491356 2.54067265528056  1.88654421491356 2.54067265528056  C 1.88654421491356 2.54067265528056  0.100611748389156 2.54067265528056  0.100611748389156 2.54067265528056  Z " fill-rule="nonzero" fill="#9e9f9f" stroke="none" transform="matrix(1 0 0 1 1152 378 )" />
    <path d="M 0.100611748389156 2.54067265528056  C 0.100611748389156 2.54067265528056  0.100611748389156 0.461162207104735  0.100611748389156 0.461162207104735  C 0.100611748389156 0.461162207104735  1.88654421491356 0.461162207104735  1.88654421491356 0.461162207104735  C 1.88654421491356 0.461162207104735  1.88654421491356 2.54067265528056  1.88654421491356 2.54067265528056  C 1.88654421491356 2.54067265528056  0.100611748389156 2.54067265528056  0.100611748389156 2.54067265528056  Z " stroke-width="0.489296125709464" stroke="#9e9f9f" fill="none" transform="matrix(1 0 0 1 1152 378 )" mask="url(#clip2409)" />
  </g>
</svg>