<?xml version="1.0" encoding="utf-8"?>
<svg version="1.1" xmlns:xlink="http://www.w3.org/1999/xlink" width="38px" height="38px" xmlns="http://www.w3.org/2000/svg">
  <defs>
    <mask fill="white" id="clip2051">
      <path d="M 18.8596330275229 37.3963302752294  C 8.95137614678896 37.3963302752294  0.877981651376103 29.3229357798165  0.877981651376103 19.3412844036697  C 0.877981651376103 9.35963302752293  8.95137614678896 0.552293577981629  18.8596330275229 0.552293577981629  C 28.8412844036697 0.552293577981629  37.648623853211 9.35963302752293  37.648623853211 19.3412844036697  C 37.648623853211 29.3229357798165  28.8412844036697 37.3963302752294  18.8596330275229 37.3963302752294  Z " fill-rule="evenodd" />
    </mask>
  </defs>
  <g transform="matrix(1 0 0 1 -425 -661 )">
    <path d="M 18.8596330275229 37.3963302752294  C 8.95137614678896 37.3963302752294  0.877981651376103 29.3229357798165  0.877981651376103 19.3412844036697  C 0.877981651376103 9.35963302752293  8.95137614678896 0.552293577981629  18.8596330275229 0.552293577981629  C 28.8412844036697 0.552293577981629  37.648623853211 9.35963302752293  37.648623853211 19.3412844036697  C 37.648623853211 29.3229357798165  28.8412844036697 37.3963302752294  18.8596330275229 37.3963302752294  Z " fill-rule="nonzero" fill="#000000" stroke="none" transform="matrix(1 0 0 1 425 661 )" />
    <path d="M 18.8596330275229 37.3963302752294  C 8.95137614678896 37.3963302752294  0.877981651376103 29.3229357798165  0.877981651376103 19.3412844036697  C 0.877981651376103 9.35963302752293  8.95137614678896 0.552293577981629  18.8596330275229 0.552293577981629  C 28.8412844036697 0.552293577981629  37.648623853211 9.35963302752293  37.648623853211 19.3412844036697  C 37.648623853211 29.3229357798165  28.8412844036697 37.3963302752294  18.8596330275229 37.3963302752294  Z " stroke-width="1.46788990825688" stroke="#000000" fill="none" transform="matrix(1 0 0 1 425 661 )" mask="url(#clip2051)" />
  </g>
</svg>