<?xml version="1.0" encoding="utf-8"?>
<svg version="1.1" xmlns:xlink="http://www.w3.org/1999/xlink" width="18px" height="16px" xmlns="http://www.w3.org/2000/svg">
  <defs>
    <mask fill="white" id="clip2013">
      <path d="M 11.4633027522935 6.34862385321105  C 11.4633027522935 6.34862385321105  0.60091743119267 15.0825688073395  0.60091743119267 15.0825688073395  C 0.60091743119267 15.0825688073395  10.9495412844037 5.54128440366975  10.9495412844037 5.54128440366975  C 10.9495412844037 5.54128440366975  14.1788990825688 2.82568807339453  14.9128440366973 0.40366972477068  C 14.9128440366973 0.40366972477068  15.3532110091743 -0.403669724770623  16.0871559633027 0.40366972477068  C 16.0871559633027 0.40366972477068  17.4816513761468 2.09174311926608  17.4816513761468 2.09174311926608  C 17.4816513761468 2.09174311926608  18.1422018348624 3.19266055045875  16.9678899082569 3.19266055045875  C 16.9678899082569 3.19266055045875  14.2522935779816 3.9266055045872  11.4633027522935 6.34862385321105  Z " fill-rule="evenodd" />
    </mask>
  </defs>
  <g transform="matrix(1 0 0 1 -204 -386 )">
    <path d="M 11.4633027522935 6.34862385321105  C 11.4633027522935 6.34862385321105  0.60091743119267 15.0825688073395  0.60091743119267 15.0825688073395  C 0.60091743119267 15.0825688073395  10.9495412844037 5.54128440366975  10.9495412844037 5.54128440366975  C 10.9495412844037 5.54128440366975  14.1788990825688 2.82568807339453  14.9128440366973 0.40366972477068  C 14.9128440366973 0.40366972477068  15.3532110091743 -0.403669724770623  16.0871559633027 0.40366972477068  C 16.0871559633027 0.40366972477068  17.4816513761468 2.09174311926608  17.4816513761468 2.09174311926608  C 17.4816513761468 2.09174311926608  18.1422018348624 3.19266055045875  16.9678899082569 3.19266055045875  C 16.9678899082569 3.19266055045875  14.2522935779816 3.9266055045872  11.4633027522935 6.34862385321105  Z " fill-rule="nonzero" fill="#000000" stroke="none" transform="matrix(1 0 0 1 204 386 )" />
    <path d="M 11.4633027522935 6.34862385321105  C 11.4633027522935 6.34862385321105  0.60091743119267 15.0825688073395  0.60091743119267 15.0825688073395  C 0.60091743119267 15.0825688073395  10.9495412844037 5.54128440366975  10.9495412844037 5.54128440366975  C 10.9495412844037 5.54128440366975  14.1788990825688 2.82568807339453  14.9128440366973 0.40366972477068  C 14.9128440366973 0.40366972477068  15.3532110091743 -0.403669724770623  16.0871559633027 0.40366972477068  C 16.0871559633027 0.40366972477068  17.4816513761468 2.09174311926608  17.4816513761468 2.09174311926608  C 17.4816513761468 2.09174311926608  18.1422018348624 3.19266055045875  16.9678899082569 3.19266055045875  C 16.9678899082569 3.19266055045875  14.2522935779816 3.9266055045872  11.4633027522935 6.34862385321105  Z " stroke-width="1.46788990825688" stroke="#000000" fill="none" transform="matrix(1 0 0 1 204 386 )" mask="url(#clip2013)" />
  </g>
</svg>