<?xml version="1.0" encoding="utf-8"?>
<svg version="1.1" xmlns:xlink="http://www.w3.org/1999/xlink" width="3px" height="3px" xmlns="http://www.w3.org/2000/svg">
  <defs>
    <mask fill="white" id="clip8209">
      <path d="M 2.3892965084915 0.32721725297634  C 2.75626898555583 0.474006243802023  2.90305797638143 0.76758422545339  2.68287449014292 0.98776771169193  C 2.68287449014292 1.06116220710476  2.60947999473001 1.06116220710476  2.60947999473001 1.13455670251761  C 2.60947999473001 1.13455670251761  0.383180555728586 2.33333320573931  0.383180555728586 2.33333320573931  C 0.383180555728586 2.33333320573931  0.823547528205609 0.76758422545339  0.823547528205609 0.76758422545339  C 0.823547528205609 0.694189730040534  0.896942023618521 0.620795234627707  0.970336519031207 0.547400739214851  C 1.19052000526972 0.32721725297634  1.94892953601448 0.253822757563483  2.3892965084915 0.32721725297634  Z " fill-rule="evenodd" />
    </mask>
  </defs>
  <g transform="matrix(1 0 0 1 -1150 -217 )">
    <path d="M 2.3892965084915 0.32721725297634  C 2.75626898555583 0.474006243802023  2.90305797638143 0.76758422545339  2.68287449014292 0.98776771169193  C 2.68287449014292 1.06116220710476  2.60947999473001 1.06116220710476  2.60947999473001 1.13455670251761  C 2.60947999473001 1.13455670251761  0.383180555728586 2.33333320573931  0.383180555728586 2.33333320573931  C 0.383180555728586 2.33333320573931  0.823547528205609 0.76758422545339  0.823547528205609 0.76758422545339  C 0.823547528205609 0.694189730040534  0.896942023618521 0.620795234627707  0.970336519031207 0.547400739214851  C 1.19052000526972 0.32721725297634  1.94892953601448 0.253822757563483  2.3892965084915 0.32721725297634  Z " fill-rule="nonzero" fill="#e35020" stroke="none" transform="matrix(1 0 0 1 1150 217 )" />
    <path d="M 2.3892965084915 0.32721725297634  C 2.75626898555583 0.474006243802023  2.90305797638143 0.76758422545339  2.68287449014292 0.98776771169193  C 2.68287449014292 1.06116220710476  2.60947999473001 1.06116220710476  2.60947999473001 1.13455670251761  C 2.60947999473001 1.13455670251761  0.383180555728586 2.33333320573931  0.383180555728586 2.33333320573931  C 0.383180555728586 2.33333320573931  0.823547528205609 0.76758422545339  0.823547528205609 0.76758422545339  C 0.823547528205609 0.694189730040534  0.896942023618521 0.620795234627707  0.970336519031207 0.547400739214851  C 1.19052000526972 0.32721725297634  1.94892953601448 0.253822757563483  2.3892965084915 0.32721725297634  Z " stroke-width="0.489296125709464" stroke="#e35020" fill="none" transform="matrix(1 0 0 1 1150 217 )" mask="url(#clip8209)" />
  </g>
</svg>