<?xml version="1.0" encoding="utf-8"?>
<svg version="1.1" xmlns:xlink="http://www.w3.org/1999/xlink" width="32px" height="32px" xmlns="http://www.w3.org/2000/svg">
  <defs>
    <mask fill="white" id="clip3534">
      <path d="M 16.1764524717943 31.6782873341797  C 7.6626910039044 31.6782873341797  0.518960372242333 24.8525992607852  0.518960372242333 16.3388377928953  C 0.518960372242333 7.8250763250054  7.6626910039044 0.68134569334336  16.1764524717943 0.68134569334336  C 24.6902139396842 0.68134569334336  31.5159020130787 7.8250763250054  31.5159020130787 16.3388377928953  C 31.5159020130787 24.8525992607852  24.6902139396842 31.6782873341797  16.1764524717943 31.6782873341797  Z " fill-rule="evenodd" />
    </mask>
  </defs>
  <g transform="matrix(1 0 0 1 -1006 -373 )">
    <path d="M 16.1764524717943 31.6782873341797  C 7.6626910039044 31.6782873341797  0.518960372242333 24.8525992607852  0.518960372242333 16.3388377928953  C 0.518960372242333 7.8250763250054  7.6626910039044 0.68134569334336  16.1764524717943 0.68134569334336  C 24.6902139396842 0.68134569334336  31.5159020130787 7.8250763250054  31.5159020130787 16.3388377928953  C 31.5159020130787 24.8525992607852  24.6902139396842 31.6782873341797  16.1764524717943 31.6782873341797  Z " fill-rule="nonzero" fill="#deb887" stroke="none" transform="matrix(1 0 0 1 1006 373 )" />
    <path d="M 16.1764524717943 31.6782873341797  C 7.6626910039044 31.6782873341797  0.518960372242333 24.8525992607852  0.518960372242333 16.3388377928953  C 0.518960372242333 7.8250763250054  7.6626910039044 0.68134569334336  16.1764524717943 0.68134569334336  C 24.6902139396842 0.68134569334336  31.5159020130787 7.8250763250054  31.5159020130787 16.3388377928953  C 31.5159020130787 24.8525992607852  24.6902139396842 31.6782873341797  16.1764524717943 31.6782873341797  Z " stroke-width="0.489296125709464" stroke="#deb887" fill="none" transform="matrix(1 0 0 1 1006 373 )" mask="url(#clip3534)" />
  </g>
</svg>