<?xml version="1.0" encoding="utf-8"?>
<svg version="1.1" xmlns:xlink="http://www.w3.org/1999/xlink" width="4px" height="4px" xmlns="http://www.w3.org/2000/svg">
  <defs>
    <mask fill="white" id="clip3541">
      <path d="M 1.39418973004047 3.22507632500538  C 1.02721725297624 3.00489283876686  0.880428262150559 2.49113137087693  1.1006117483891 2.12415889381271  C 1.1006117483891 2.12415889381271  1.17400624380195 2.05076439839991  1.17400624380195 2.05076439839991  C 1.17400624380195 2.05076439839991  3.18012219656492 0.264831931875449  3.18012219656492 0.264831931875449  C 3.18012219656492 0.264831931875449  2.73975522408787 2.56452586628978  2.73975522408787 2.56452586628978  C 2.73975522408787 2.7113148571155  2.73975522408787 2.7847093525283  2.66636072867502 2.93149834335401  C 2.44617724243651 3.29847082041823  1.76116220710469 3.37186531583109  1.39418973004047 3.22507632500538  Z " fill-rule="evenodd" />
    </mask>
  </defs>
  <g transform="matrix(1 0 0 1 -1029 -388 )">
    <path d="M 1.39418973004047 3.22507632500538  C 1.02721725297624 3.00489283876686  0.880428262150559 2.49113137087693  1.1006117483891 2.12415889381271  C 1.1006117483891 2.12415889381271  1.17400624380195 2.05076439839991  1.17400624380195 2.05076439839991  C 1.17400624380195 2.05076439839991  3.18012219656492 0.264831931875449  3.18012219656492 0.264831931875449  C 3.18012219656492 0.264831931875449  2.73975522408787 2.56452586628978  2.73975522408787 2.56452586628978  C 2.73975522408787 2.7113148571155  2.73975522408787 2.7847093525283  2.66636072867502 2.93149834335401  C 2.44617724243651 3.29847082041823  1.76116220710469 3.37186531583109  1.39418973004047 3.22507632500538  Z " fill-rule="nonzero" fill="#e35020" stroke="none" transform="matrix(1 0 0 1 1029 388 )" />
    <path d="M 1.39418973004047 3.22507632500538  C 1.02721725297624 3.00489283876686  0.880428262150559 2.49113137087693  1.1006117483891 2.12415889381271  C 1.1006117483891 2.12415889381271  1.17400624380195 2.05076439839991  1.17400624380195 2.05076439839991  C 1.17400624380195 2.05076439839991  3.18012219656492 0.264831931875449  3.18012219656492 0.264831931875449  C 3.18012219656492 0.264831931875449  2.73975522408787 2.56452586628978  2.73975522408787 2.56452586628978  C 2.73975522408787 2.7113148571155  2.73975522408787 2.7847093525283  2.66636072867502 2.93149834335401  C 2.44617724243651 3.29847082041823  1.76116220710469 3.37186531583109  1.39418973004047 3.22507632500538  Z " stroke-width="0.489296125709464" stroke="#e35020" fill="none" transform="matrix(1 0 0 1 1029 388 )" mask="url(#clip3541)" />
  </g>
</svg>