<?xml version="1.0" encoding="utf-8"?>
<svg version="1.1" xmlns:xlink="http://www.w3.org/1999/xlink" width="16px" height="14px" xmlns="http://www.w3.org/2000/svg">
  <defs>
    <mask fill="white" id="clip4238">
      <path d="M 0.982568807339476 0.315596330275241  C 0.982568807339476 0.315596330275241  15.2211009174312 2.9577981651376  15.2211009174312 2.9577981651376  C 15.2211009174312 2.9577981651376  15.2211009174312 8.60917431192661  15.2211009174312 8.60917431192661  C 15.2211009174312 8.60917431192661  0.982568807339476 13.6733944954129  0.982568807339476 13.6733944954129  C 0.982568807339476 13.6733944954129  0.982568807339476 0.315596330275241  0.982568807339476 0.315596330275241  Z " fill-rule="evenodd" />
    </mask>
  </defs>
  <g transform="matrix(1 0 0 1 -1162 -388 )">
    <path d="M 0.982568807339476 0.315596330275241  C 0.982568807339476 0.315596330275241  15.2211009174312 2.9577981651376  15.2211009174312 2.9577981651376  C 15.2211009174312 2.9577981651376  15.2211009174312 8.60917431192661  15.2211009174312 8.60917431192661  C 15.2211009174312 8.60917431192661  0.982568807339476 13.6733944954129  0.982568807339476 13.6733944954129  C 0.982568807339476 13.6733944954129  0.982568807339476 0.315596330275241  0.982568807339476 0.315596330275241  Z " fill-rule="nonzero" fill="#007fcc" stroke="none" transform="matrix(1 0 0 1 1162 388 )" />
    <path d="M 0.982568807339476 0.315596330275241  C 0.982568807339476 0.315596330275241  15.2211009174312 2.9577981651376  15.2211009174312 2.9577981651376  C 15.2211009174312 2.9577981651376  15.2211009174312 8.60917431192661  15.2211009174312 8.60917431192661  C 15.2211009174312 8.60917431192661  0.982568807339476 13.6733944954129  0.982568807339476 13.6733944954129  C 0.982568807339476 13.6733944954129  0.982568807339476 0.315596330275241  0.982568807339476 0.315596330275241  Z " stroke-width="1.46788990825688" stroke="#007fcc" fill="none" transform="matrix(1 0 0 1 1162 388 )" mask="url(#clip4238)" />
  </g>
</svg>