<?xml version="1.0" encoding="utf-8"?>
<svg version="1.1" xmlns:xlink="http://www.w3.org/1999/xlink" width="6px" height="10px" xmlns="http://www.w3.org/2000/svg">
  <defs>
    <mask fill="white" id="clip2415">
      <path d="M 0.229052115361583 1.41712550985704  C 0.229052115361583 0.683180555728597  0.889602574077117 0.0226300970130069  1.62354752820556 0.0226300970130069  C 1.62354752820556 0.0226300970130069  3.99663595803281 0.0226300970130069  3.99663595803281 0.0226300970130069  C 4.80397540757394 0.0226300970130069  5.39113137087679 0.683180555728597  5.39113137087679 1.41712550985704  C 5.39113137087679 1.41712550985704  5.39113137087679 7.97370017821635  5.39113137087679 7.97370017821635  C 5.39113137087679 8.78103962775765  4.80397540757394 9.36819559106038  3.99663595803281 9.36819559106038  C 3.99663595803281 9.36819559106038  1.62354752820556 9.36819559106038  1.62354752820556 9.36819559106038  C 0.889602574077117 9.36819559106038  0.229052115361583 8.78103962775765  0.229052115361583 7.97370017821635  C 0.229052115361583 7.97370017821635  0.229052115361583 1.41712550985704  0.229052115361583 1.41712550985704  Z " fill-rule="evenodd" />
    </mask>
  </defs>
  <g transform="matrix(1 0 0 1 -1174 -389 )">
    <path d="M 0.229052115361583 1.41712550985704  C 0.229052115361583 0.683180555728597  0.889602574077117 0.0226300970130069  1.62354752820556 0.0226300970130069  C 1.62354752820556 0.0226300970130069  3.99663595803281 0.0226300970130069  3.99663595803281 0.0226300970130069  C 4.80397540757394 0.0226300970130069  5.39113137087679 0.683180555728597  5.39113137087679 1.41712550985704  C 5.39113137087679 1.41712550985704  5.39113137087679 7.97370017821635  5.39113137087679 7.97370017821635  C 5.39113137087679 8.78103962775765  4.80397540757394 9.36819559106038  3.99663595803281 9.36819559106038  C 3.99663595803281 9.36819559106038  1.62354752820556 9.36819559106038  1.62354752820556 9.36819559106038  C 0.889602574077117 9.36819559106038  0.229052115361583 8.78103962775765  0.229052115361583 7.97370017821635  C 0.229052115361583 7.97370017821635  0.229052115361583 1.41712550985704  0.229052115361583 1.41712550985704  Z " fill-rule="nonzero" fill="#deb887" stroke="none" transform="matrix(1 0 0 1 1174 389 )" />
    <path d="M 0.229052115361583 1.41712550985704  C 0.229052115361583 0.683180555728597  0.889602574077117 0.0226300970130069  1.62354752820556 0.0226300970130069  C 1.62354752820556 0.0226300970130069  3.99663595803281 0.0226300970130069  3.99663595803281 0.0226300970130069  C 4.80397540757394 0.0226300970130069  5.39113137087679 0.683180555728597  5.39113137087679 1.41712550985704  C 5.39113137087679 1.41712550985704  5.39113137087679 7.97370017821635  5.39113137087679 7.97370017821635  C 5.39113137087679 8.78103962775765  4.80397540757394 9.36819559106038  3.99663595803281 9.36819559106038  C 3.99663595803281 9.36819559106038  1.62354752820556 9.36819559106038  1.62354752820556 9.36819559106038  C 0.889602574077117 9.36819559106038  0.229052115361583 8.78103962775765  0.229052115361583 7.97370017821635  C 0.229052115361583 7.97370017821635  0.229052115361583 1.41712550985704  0.229052115361583 1.41712550985704  Z " stroke-width="0.489296125709464" stroke="#deb887" fill="none" transform="matrix(1 0 0 1 1174 389 )" mask="url(#clip2415)" />
  </g>
</svg>