<?xml version="1.0" encoding="utf-8"?>
<svg version="1.1" xmlns:xlink="http://www.w3.org/1999/xlink" width="17px" height="14px" xmlns="http://www.w3.org/2000/svg">
  <defs>
    <mask fill="white" id="clip6222">
      <path d="M 16.5770642201833 0.634862385321128  C 16.5770642201833 0.634862385321128  0.0633027522935663 3.27706422018349  0.0633027522935663 3.27706422018349  C 0.0633027522935663 3.27706422018349  0.0633027522935663 8.9284403669725  0.0633027522935663 8.9284403669725  C 0.0633027522935663 8.9284403669725  16.5770642201833 13.9926605504588  16.5770642201833 13.9926605504588  C 16.5770642201833 13.9926605504588  16.5770642201833 0.634862385321128  16.5770642201833 0.634862385321128  Z " fill-rule="evenodd" />
    </mask>
  </defs>
  <g transform="matrix(1 0 0 1 -1126 -306 )">
    <path d="M 16.5770642201833 0.634862385321128  C 16.5770642201833 0.634862385321128  0.0633027522935663 3.27706422018349  0.0633027522935663 3.27706422018349  C 0.0633027522935663 3.27706422018349  0.0633027522935663 8.9284403669725  0.0633027522935663 8.9284403669725  C 0.0633027522935663 8.9284403669725  16.5770642201833 13.9926605504588  16.5770642201833 13.9926605504588  C 16.5770642201833 13.9926605504588  16.5770642201833 0.634862385321128  16.5770642201833 0.634862385321128  Z " fill-rule="nonzero" fill="#007fcc" stroke="none" transform="matrix(1 0 0 1 1126 306 )" />
    <path d="M 16.5770642201833 0.634862385321128  C 16.5770642201833 0.634862385321128  0.0633027522935663 3.27706422018349  0.0633027522935663 3.27706422018349  C 0.0633027522935663 3.27706422018349  0.0633027522935663 8.9284403669725  0.0633027522935663 8.9284403669725  C 0.0633027522935663 8.9284403669725  16.5770642201833 13.9926605504588  16.5770642201833 13.9926605504588  C 16.5770642201833 13.9926605504588  16.5770642201833 0.634862385321128  16.5770642201833 0.634862385321128  Z " stroke-width="1.46788990825688" stroke="#007fcc" fill="none" transform="matrix(1 0 0 1 1126 306 )" mask="url(#clip6222)" />
  </g>
</svg>