<?xml version="1.0" encoding="utf-8"?>
<svg version="1.1" xmlns:xlink="http://www.w3.org/1999/xlink" width="29px" height="16px" xmlns="http://www.w3.org/2000/svg">
  <defs>
    <mask fill="white" id="clip8153">
      <path d="M 14.6571864167483 15.582874490143  C 7.17094788463805 15.582874490143  0.907951197930288 12.2067277011521  0.907951197930288 8.02324146262004  C 0.907951197930288 3.76636072867507  7.17094788463805 0.145565876829551  14.6571864167483 0.145565876829551  C 22.0700304534455 0.145565876829551  28.0883790772987 3.76636072867507  28.0883790772987 8.02324146262004  C 28.0883790772987 12.2067277011521  22.0700304534455 15.582874490143  14.6571864167483 15.582874490143  Z " fill-rule="evenodd" />
    </mask>
  </defs>
  <g transform="matrix(1 0 0 1 -1139 -294 )">
    <path d="M 14.6571864167483 15.582874490143  C 7.17094788463805 15.582874490143  0.907951197930288 12.2067277011521  0.907951197930288 8.02324146262004  C 0.907951197930288 3.76636072867507  7.17094788463805 0.145565876829551  14.6571864167483 0.145565876829551  C 22.0700304534455 0.145565876829551  28.0883790772987 3.76636072867507  28.0883790772987 8.02324146262004  C 28.0883790772987 12.2067277011521  22.0700304534455 15.582874490143  14.6571864167483 15.582874490143  Z " fill-rule="nonzero" fill="#ffffff" stroke="none" transform="matrix(1 0 0 1 1139 294 )" />
    <path d="M 14.6571864167483 15.582874490143  C 7.17094788463805 15.582874490143  0.907951197930288 12.2067277011521  0.907951197930288 8.02324146262004  C 0.907951197930288 3.76636072867507  7.17094788463805 0.145565876829551  14.6571864167483 0.145565876829551  C 22.0700304534455 0.145565876829551  28.0883790772987 3.76636072867507  28.0883790772987 8.02324146262004  C 28.0883790772987 12.2067277011521  22.0700304534455 15.582874490143  14.6571864167483 15.582874490143  Z " stroke-width="0.489296125709464" stroke="#ffffff" fill="none" transform="matrix(1 0 0 1 1139 294 )" mask="url(#clip8153)" />
  </g>
</svg>