<?xml version="1.0" encoding="utf-8"?>
<svg version="1.1" xmlns:xlink="http://www.w3.org/1999/xlink" width="7px" height="7px" xmlns="http://www.w3.org/2000/svg">
  <defs>
    <mask fill="white" id="clip3568">
      <path d="M 3.83027522935774 6.09541284403679  C 2.65596330275224 6.09541284403679  0.89449541284398 5.14128440366983  0.89449541284398 3.8935779816515  C 0.89449541284398 2.71926605504598  2.65596330275224 0.957798165137717  3.83027522935774 0.957798165137717  C 5.07798165137609 0.957798165137717  6.03211009174308 2.71926605504598  6.03211009174308 3.8935779816515  C 6.03211009174308 5.14128440366983  5.07798165137609 6.09541284403679  3.83027522935774 6.09541284403679  Z " fill-rule="evenodd" />
    </mask>
  </defs>
  <g transform="matrix(1 0 0 1 -1024 -393 )">
    <path d="M 3.83027522935774 6.09541284403679  C 2.65596330275224 6.09541284403679  0.89449541284398 5.14128440366983  0.89449541284398 3.8935779816515  C 0.89449541284398 2.71926605504598  2.65596330275224 0.957798165137717  3.83027522935774 0.957798165137717  C 5.07798165137609 0.957798165137717  6.03211009174308 2.71926605504598  6.03211009174308 3.8935779816515  C 6.03211009174308 5.14128440366983  5.07798165137609 6.09541284403679  3.83027522935774 6.09541284403679  Z " fill-rule="nonzero" fill="#ffffff" stroke="none" transform="matrix(1 0 0 1 1024 393 )" />
    <path d="M 3.83027522935774 6.09541284403679  C 2.65596330275224 6.09541284403679  0.89449541284398 5.14128440366983  0.89449541284398 3.8935779816515  C 0.89449541284398 2.71926605504598  2.65596330275224 0.957798165137717  3.83027522935774 0.957798165137717  C 5.07798165137609 0.957798165137717  6.03211009174308 2.71926605504598  6.03211009174308 3.8935779816515  C 6.03211009174308 5.14128440366983  5.07798165137609 6.09541284403679  3.83027522935774 6.09541284403679  Z " stroke-width="1.46788990825688" stroke="#e35020" fill="none" transform="matrix(1 0 0 1 1024 393 )" mask="url(#clip3568)" />
  </g>
</svg>