<?xml version="1.0" encoding="utf-8"?>
<svg version="1.1" xmlns:xlink="http://www.w3.org/1999/xlink" width="37px" height="38px" xmlns="http://www.w3.org/2000/svg">
  <defs>
    <mask fill="white" id="clip1967">
      <path d="M 18.059633027523 37.7064220183486  C 8.15137614678895 37.7064220183486  0.0779816513761489 29.6330275229358  0.0779816513761489 19.651376146789  C 0.0779816513761489 9.66972477064223  8.15137614678895 0.86238532110093  18.059633027523 0.86238532110093  C 28.0412844036697 0.86238532110093  36.8486238532111 9.66972477064223  36.8486238532111 19.651376146789  C 36.8486238532111 29.6330275229358  28.0412844036697 37.7064220183486  18.059633027523 37.7064220183486  Z " fill-rule="evenodd" />
    </mask>
  </defs>
  <g transform="matrix(1 0 0 1 -198 -376 )">
    <path d="M 18.059633027523 37.7064220183486  C 8.15137614678895 37.7064220183486  0.0779816513761489 29.6330275229358  0.0779816513761489 19.651376146789  C 0.0779816513761489 9.66972477064223  8.15137614678895 0.86238532110093  18.059633027523 0.86238532110093  C 28.0412844036697 0.86238532110093  36.8486238532111 9.66972477064223  36.8486238532111 19.651376146789  C 36.8486238532111 29.6330275229358  28.0412844036697 37.7064220183486  18.059633027523 37.7064220183486  Z " fill-rule="nonzero" fill="#000000" stroke="none" transform="matrix(1 0 0 1 198 376 )" />
    <path d="M 18.059633027523 37.7064220183486  C 8.15137614678895 37.7064220183486  0.0779816513761489 29.6330275229358  0.0779816513761489 19.651376146789  C 0.0779816513761489 9.66972477064223  8.15137614678895 0.86238532110093  18.059633027523 0.86238532110093  C 28.0412844036697 0.86238532110093  36.8486238532111 9.66972477064223  36.8486238532111 19.651376146789  C 36.8486238532111 29.6330275229358  28.0412844036697 37.7064220183486  18.059633027523 37.7064220183486  Z " stroke-width="1.46788990825688" stroke="#000000" fill="none" transform="matrix(1 0 0 1 198 376 )" mask="url(#clip1967)" />
  </g>
</svg>