<?xml version="1.0" encoding="utf-8"?>
<svg version="1.1" xmlns:xlink="http://www.w3.org/1999/xlink" width="4px" height="3px" xmlns="http://www.w3.org/2000/svg">
  <defs>
    <mask fill="white" id="clip4297">
      <path d="M 0.87308881260924 1.05749248233411  C 1.16666679426066 0.837308996095544  1.99847082041811 0.837308996095544  2.29204880206953 1.05749248233411  C 2.36544329748244 1.05749248233411  2.36544329748244 1.13088697774691  2.43883779289513 1.13088697774691  C 2.43883779289513 1.13088697774691  3.6131497195006 2.69663595803286  3.6131497195006 2.69663595803286  C 3.6131497195006 2.69663595803286  1.16666679426066 2.10947999473012  1.16666679426066 2.10947999473012  C 1.09327229884775 2.10947999473012  0.946483308022152 2.03608549931727  0.87308881260924 1.96269100390441  C 0.50611633554513 1.81590201307876  0.50611633554513 1.27767596857262  0.87308881260924 1.05749248233411  Z " fill-rule="evenodd" />
    </mask>
  </defs>
  <g transform="matrix(1 0 0 1 -1158 -305 )">
    <path d="M 0.87308881260924 1.05749248233411  C 1.16666679426066 0.837308996095544  1.99847082041811 0.837308996095544  2.29204880206953 1.05749248233411  C 2.36544329748244 1.05749248233411  2.36544329748244 1.13088697774691  2.43883779289513 1.13088697774691  C 2.43883779289513 1.13088697774691  3.6131497195006 2.69663595803286  3.6131497195006 2.69663595803286  C 3.6131497195006 2.69663595803286  1.16666679426066 2.10947999473012  1.16666679426066 2.10947999473012  C 1.09327229884775 2.10947999473012  0.946483308022152 2.03608549931727  0.87308881260924 1.96269100390441  C 0.50611633554513 1.81590201307876  0.50611633554513 1.27767596857262  0.87308881260924 1.05749248233411  Z " fill-rule="nonzero" fill="#e35020" stroke="none" transform="matrix(1 0 0 1 1158 305 )" />
    <path d="M 0.87308881260924 1.05749248233411  C 1.16666679426066 0.837308996095544  1.99847082041811 0.837308996095544  2.29204880206953 1.05749248233411  C 2.36544329748244 1.05749248233411  2.36544329748244 1.13088697774691  2.43883779289513 1.13088697774691  C 2.43883779289513 1.13088697774691  3.6131497195006 2.69663595803286  3.6131497195006 2.69663595803286  C 3.6131497195006 2.69663595803286  1.16666679426066 2.10947999473012  1.16666679426066 2.10947999473012  C 1.09327229884775 2.10947999473012  0.946483308022152 2.03608549931727  0.87308881260924 1.96269100390441  C 0.50611633554513 1.81590201307876  0.50611633554513 1.27767596857262  0.87308881260924 1.05749248233411  Z " stroke-width="0.489296125709464" stroke="#e35020" fill="none" transform="matrix(1 0 0 1 1158 305 )" mask="url(#clip4297)" />
  </g>
</svg>