<?xml version="1.0" encoding="utf-8"?>
<svg version="1.1" xmlns:xlink="http://www.w3.org/1999/xlink" width="3px" height="4px" xmlns="http://www.w3.org/2000/svg">
  <defs>
    <mask fill="white" id="clip5387">
      <path d="M 0.434556702517597 3.63425063693205  C 0.434556702517597 3.63425063693205  0.434556702517597 0.16024477591219  0.434556702517597 0.16024477591219  C 0.434556702517597 0.16024477591219  2.07370017821634 0.16024477591219  2.07370017821634 0.16024477591219  C 2.07370017821634 0.16024477591219  2.07370017821634 3.63425063693205  2.07370017821634 3.63425063693205  C 2.07370017821634 3.63425063693205  0.434556702517597 3.63425063693205  0.434556702517597 3.63425063693205  Z " fill-rule="evenodd" />
    </mask>
  </defs>
  <g transform="matrix(1 0 0 1 -1016 -381 )">
    <path d="M 0.434556702517597 3.63425063693205  C 0.434556702517597 3.63425063693205  0.434556702517597 0.16024477591219  0.434556702517597 0.16024477591219  C 0.434556702517597 0.16024477591219  2.07370017821634 0.16024477591219  2.07370017821634 0.16024477591219  C 2.07370017821634 0.16024477591219  2.07370017821634 3.63425063693205  2.07370017821634 3.63425063693205  C 2.07370017821634 3.63425063693205  0.434556702517597 3.63425063693205  0.434556702517597 3.63425063693205  Z " fill-rule="nonzero" fill="#9e9f9f" stroke="none" transform="matrix(1 0 0 1 1016 381 )" />
    <path d="M 0.434556702517597 3.63425063693205  C 0.434556702517597 3.63425063693205  0.434556702517597 0.16024477591219  0.434556702517597 0.16024477591219  C 0.434556702517597 0.16024477591219  2.07370017821634 0.16024477591219  2.07370017821634 0.16024477591219  C 2.07370017821634 0.16024477591219  2.07370017821634 3.63425063693205  2.07370017821634 3.63425063693205  C 2.07370017821634 3.63425063693205  0.434556702517597 3.63425063693205  0.434556702517597 3.63425063693205  Z " stroke-width="0.489296125709464" stroke="#9e9f9f" fill="none" transform="matrix(1 0 0 1 1016 381 )" mask="url(#clip5387)" />
  </g>
</svg>