<?xml version="1.0" encoding="utf-8"?>
<svg version="1.1" xmlns:xlink="http://www.w3.org/1999/xlink" width="4px" height="3px" xmlns="http://www.w3.org/2000/svg">
  <defs>
    <mask fill="white" id="clip4249">
      <path d="M 1.40519890435235 2.88562678372097  C 0.964831931875324 2.73883779289531  0.818042941049498 2.44525981124389  1.11162092270092 2.22507632500538  C 1.11162092270092 2.15168182959252  1.18501541811384 2.15168182959252  1.18501541811384 2.15168182959252  C 1.18501541811384 2.15168182959252  3.41131485711526 0.879510830957997  3.41131485711526 0.879510830957997  C 3.41131485711526 0.879510830957997  2.89755338922532 2.51865430665674  2.89755338922532 2.51865430665674  C 2.89755338922532 2.5920488020696  2.89755338922532 2.66544329748245  2.82415889381264 2.66544329748245  C 2.6039754075739 2.95902127913382  1.77217138141646 3.03241577454668  1.40519890435235 2.88562678372097  Z " fill-rule="evenodd" />
    </mask>
  </defs>
  <g transform="matrix(1 0 0 1 -1161 -382 )">
    <path d="M 1.40519890435235 2.88562678372097  C 0.964831931875324 2.73883779289531  0.818042941049498 2.44525981124389  1.11162092270092 2.22507632500538  C 1.11162092270092 2.15168182959252  1.18501541811384 2.15168182959252  1.18501541811384 2.15168182959252  C 1.18501541811384 2.15168182959252  3.41131485711526 0.879510830957997  3.41131485711526 0.879510830957997  C 3.41131485711526 0.879510830957997  2.89755338922532 2.51865430665674  2.89755338922532 2.51865430665674  C 2.89755338922532 2.5920488020696  2.89755338922532 2.66544329748245  2.82415889381264 2.66544329748245  C 2.6039754075739 2.95902127913382  1.77217138141646 3.03241577454668  1.40519890435235 2.88562678372097  Z " fill-rule="nonzero" fill="#e35020" stroke="none" transform="matrix(1 0 0 1 1161 382 )" />
    <path d="M 1.40519890435235 2.88562678372097  C 0.964831931875324 2.73883779289531  0.818042941049498 2.44525981124389  1.11162092270092 2.22507632500538  C 1.11162092270092 2.15168182959252  1.18501541811384 2.15168182959252  1.18501541811384 2.15168182959252  C 1.18501541811384 2.15168182959252  3.41131485711526 0.879510830957997  3.41131485711526 0.879510830957997  C 3.41131485711526 0.879510830957997  2.89755338922532 2.51865430665674  2.89755338922532 2.51865430665674  C 2.89755338922532 2.5920488020696  2.89755338922532 2.66544329748245  2.82415889381264 2.66544329748245  C 2.6039754075739 2.95902127913382  1.77217138141646 3.03241577454668  1.40519890435235 2.88562678372097  Z " stroke-width="0.489296125709464" stroke="#e35020" fill="none" transform="matrix(1 0 0 1 1161 382 )" mask="url(#clip4249)" />
  </g>
</svg>