<?xml version="1.0" encoding="utf-8"?>
<svg version="1.1" xmlns:xlink="http://www.w3.org/1999/xlink" width="28px" height="28px" xmlns="http://www.w3.org/2000/svg">
  <defs>
    <mask fill="white" id="clip3565">
      <path d="M 14.1544341231705 27.674617609409  C 6.81498458188605 27.674617609409  0.551987895178115 21.7296634809687  0.551987895178115 14.3168194442715  C 0.551987895178115 6.97736990298705  6.81498458188605 0.714373216279114  14.1544341231705 0.714373216279114  C 21.5672781598677 0.714373216279114  27.5122322883081 6.97736990298705  27.5122322883081 14.3168194442715  C 27.5122322883081 21.7296634809687  21.5672781598677 27.674617609409  14.1544341231705 27.674617609409  Z " fill-rule="evenodd" />
    </mask>
  </defs>
  <g transform="matrix(1 0 0 1 -1008 -375 )">
    <path d="M 14.1544341231705 27.674617609409  C 6.81498458188605 27.674617609409  0.551987895178115 21.7296634809687  0.551987895178115 14.3168194442715  C 0.551987895178115 6.97736990298705  6.81498458188605 0.714373216279114  14.1544341231705 0.714373216279114  C 21.5672781598677 0.714373216279114  27.5122322883081 6.97736990298705  27.5122322883081 14.3168194442715  C 27.5122322883081 21.7296634809687  21.5672781598677 27.674617609409  14.1544341231705 27.674617609409  Z " fill-rule="nonzero" fill="#ffdead" stroke="none" transform="matrix(1 0 0 1 1008 375 )" />
    <path d="M 14.1544341231705 27.674617609409  C 6.81498458188605 27.674617609409  0.551987895178115 21.7296634809687  0.551987895178115 14.3168194442715  C 0.551987895178115 6.97736990298705  6.81498458188605 0.714373216279114  14.1544341231705 0.714373216279114  C 21.5672781598677 0.714373216279114  27.5122322883081 6.97736990298705  27.5122322883081 14.3168194442715  C 27.5122322883081 21.7296634809687  21.5672781598677 27.674617609409  14.1544341231705 27.674617609409  Z " stroke-width="0.489296125709464" stroke="#ffdead" fill="none" transform="matrix(1 0 0 1 1008 375 )" mask="url(#clip3565)" />
  </g>
</svg>