<?xml version="1.0" encoding="utf-8"?>
<svg version="1.1" xmlns:xlink="http://www.w3.org/1999/xlink" width="4px" height="4px" xmlns="http://www.w3.org/2000/svg">
  <defs>
    <mask fill="white" id="clip2068">
      <path d="M 2.09999999999997 3.89724770642198  C 1.36605504587152 3.89724770642198  0.0449541284403381 3.31009174311924  0.0449541284403381 2.5761467889908  C 0.0449541284403381 1.84220183486235  1.36605504587152 0.52110091743117  2.09999999999997 0.52110091743117  C 2.83394495412841 0.52110091743117  3.42110091743115 1.84220183486235  3.42110091743115 2.5761467889908  C 3.42110091743115 3.31009174311924  2.83394495412841 3.89724770642198  2.09999999999997 3.89724770642198  Z " fill-rule="evenodd" />
    </mask>
  </defs>
  <g transform="matrix(1 0 0 1 -443 -678 )">
    <path d="M 2.09999999999997 3.89724770642198  C 1.36605504587152 3.89724770642198  0.0449541284403381 3.31009174311924  0.0449541284403381 2.5761467889908  C 0.0449541284403381 1.84220183486235  1.36605504587152 0.52110091743117  2.09999999999997 0.52110091743117  C 2.83394495412841 0.52110091743117  3.42110091743115 1.84220183486235  3.42110091743115 2.5761467889908  C 3.42110091743115 3.31009174311924  2.83394495412841 3.89724770642198  2.09999999999997 3.89724770642198  Z " fill-rule="nonzero" fill="#000000" stroke="none" transform="matrix(1 0 0 1 443 678 )" />
    <path d="M 2.09999999999997 3.89724770642198  C 1.36605504587152 3.89724770642198  0.0449541284403381 3.31009174311924  0.0449541284403381 2.5761467889908  C 0.0449541284403381 1.84220183486235  1.36605504587152 0.52110091743117  2.09999999999997 0.52110091743117  C 2.83394495412841 0.52110091743117  3.42110091743115 1.84220183486235  3.42110091743115 2.5761467889908  C 3.42110091743115 3.31009174311924  2.83394495412841 3.89724770642198  2.09999999999997 3.89724770642198  Z " stroke-width="1.46788990825688" stroke="#000000" fill="none" transform="matrix(1 0 0 1 443 678 )" mask="url(#clip2068)" />
  </g>
</svg>