<?xml version="1.0" encoding="utf-8"?>
<svg version="1.1" xmlns:xlink="http://www.w3.org/1999/xlink" width="3px" height="4px" xmlns="http://www.w3.org/2000/svg">
  <defs>
    <mask fill="white" id="clip9252">
      <path d="M 2.49388366445487 0.160244775912133  C 2.86085614151909 0.380428262150645  3.00764513234478 0.820795234627724  2.78746164610627 1.18776771169195  C 2.71406715069341 1.26116220710475  2.71406715069341 1.26116220710475  2.64067265528055 1.3345567025176  C 2.64067265528055 1.3345567025176  0.707951197930413 3.12048916904206  0.707951197930413 3.12048916904206  C 0.707951197930413 3.12048916904206  1.07492367499464 0.747400739214868  1.07492367499464 0.747400739214868  C 1.07492367499464 0.600611748389156  1.14831817040749 0.527217252976357  1.22171266582032 0.380428262150645  C 1.44189615205886 0.0868502804992772  2.12691118739065 -0.0599387103264348  2.49388366445487 0.160244775912133  Z " fill-rule="evenodd" />
    </mask>
  </defs>
  <g transform="matrix(1 0 0 1 -1019 -397 )">
    <path d="M 2.49388366445487 0.160244775912133  C 2.86085614151909 0.380428262150645  3.00764513234478 0.820795234627724  2.78746164610627 1.18776771169195  C 2.71406715069341 1.26116220710475  2.71406715069341 1.26116220710475  2.64067265528055 1.3345567025176  C 2.64067265528055 1.3345567025176  0.707951197930413 3.12048916904206  0.707951197930413 3.12048916904206  C 0.707951197930413 3.12048916904206  1.07492367499464 0.747400739214868  1.07492367499464 0.747400739214868  C 1.07492367499464 0.600611748389156  1.14831817040749 0.527217252976357  1.22171266582032 0.380428262150645  C 1.44189615205886 0.0868502804992772  2.12691118739065 -0.0599387103264348  2.49388366445487 0.160244775912133  Z " fill-rule="nonzero" fill="#e35020" stroke="none" transform="matrix(1 0 0 1 1019 397 )" />
    <path d="M 2.49388366445487 0.160244775912133  C 2.86085614151909 0.380428262150645  3.00764513234478 0.820795234627724  2.78746164610627 1.18776771169195  C 2.71406715069341 1.26116220710475  2.71406715069341 1.26116220710475  2.64067265528055 1.3345567025176  C 2.64067265528055 1.3345567025176  0.707951197930413 3.12048916904206  0.707951197930413 3.12048916904206  C 0.707951197930413 3.12048916904206  1.07492367499464 0.747400739214868  1.07492367499464 0.747400739214868  C 1.07492367499464 0.600611748389156  1.14831817040749 0.527217252976357  1.22171266582032 0.380428262150645  C 1.44189615205886 0.0868502804992772  2.12691118739065 -0.0599387103264348  2.49388366445487 0.160244775912133  Z " stroke-width="0.489296125709464" stroke="#e35020" fill="none" transform="matrix(1 0 0 1 1019 397 )" mask="url(#clip9252)" />
  </g>
</svg>