<?xml version="1.0" encoding="utf-8"?>
<svg version="1.1" xmlns:xlink="http://www.w3.org/1999/xlink" width="6px" height="11px" xmlns="http://www.w3.org/2000/svg">
  <defs>
    <mask fill="white" id="clip2508">
      <path d="M 0.229052115361583 2.21345578508644  C 0.229052115361583 1.47951083095799  0.889602574077117 0.818960372242401  1.62354752820556 0.818960372242401  C 1.62354752820556 0.818960372242401  3.99663595803281 0.818960372242401  3.99663595803281 0.818960372242401  C 4.80397540757394 0.818960372242401  5.39113137087679 1.47951083095799  5.39113137087679 2.21345578508644  C 5.39113137087679 2.21345578508644  5.39113137087679 8.77003045344574  5.39113137087679 8.77003045344574  C 5.39113137087679 9.57736990298702  4.80397540757394 10.1645258662898  3.99663595803281 10.1645258662898  C 3.99663595803281 10.1645258662898  1.62354752820556 10.1645258662898  1.62354752820556 10.1645258662898  C 0.889602574077117 10.1645258662898  0.229052115361583 9.57736990298702  0.229052115361583 8.77003045344574  C 0.229052115361583 8.77003045344574  0.229052115361583 2.21345578508644  0.229052115361583 2.21345578508644  Z " fill-rule="evenodd" />
    </mask>
  </defs>
  <g transform="matrix(1 0 0 1 -1174 -217 )">
    <path d="M 0.229052115361583 2.21345578508644  C 0.229052115361583 1.47951083095799  0.889602574077117 0.818960372242401  1.62354752820556 0.818960372242401  C 1.62354752820556 0.818960372242401  3.99663595803281 0.818960372242401  3.99663595803281 0.818960372242401  C 4.80397540757394 0.818960372242401  5.39113137087679 1.47951083095799  5.39113137087679 2.21345578508644  C 5.39113137087679 2.21345578508644  5.39113137087679 8.77003045344574  5.39113137087679 8.77003045344574  C 5.39113137087679 9.57736990298702  4.80397540757394 10.1645258662898  3.99663595803281 10.1645258662898  C 3.99663595803281 10.1645258662898  1.62354752820556 10.1645258662898  1.62354752820556 10.1645258662898  C 0.889602574077117 10.1645258662898  0.229052115361583 9.57736990298702  0.229052115361583 8.77003045344574  C 0.229052115361583 8.77003045344574  0.229052115361583 2.21345578508644  0.229052115361583 2.21345578508644  Z " fill-rule="nonzero" fill="#deb887" stroke="none" transform="matrix(1 0 0 1 1174 217 )" />
    <path d="M 0.229052115361583 2.21345578508644  C 0.229052115361583 1.47951083095799  0.889602574077117 0.818960372242401  1.62354752820556 0.818960372242401  C 1.62354752820556 0.818960372242401  3.99663595803281 0.818960372242401  3.99663595803281 0.818960372242401  C 4.80397540757394 0.818960372242401  5.39113137087679 1.47951083095799  5.39113137087679 2.21345578508644  C 5.39113137087679 2.21345578508644  5.39113137087679 8.77003045344574  5.39113137087679 8.77003045344574  C 5.39113137087679 9.57736990298702  4.80397540757394 10.1645258662898  3.99663595803281 10.1645258662898  C 3.99663595803281 10.1645258662898  1.62354752820556 10.1645258662898  1.62354752820556 10.1645258662898  C 0.889602574077117 10.1645258662898  0.229052115361583 9.57736990298702  0.229052115361583 8.77003045344574  C 0.229052115361583 8.77003045344574  0.229052115361583 2.21345578508644  0.229052115361583 2.21345578508644  Z " stroke-width="0.489296125709464" stroke="#deb887" fill="none" transform="matrix(1 0 0 1 1174 217 )" mask="url(#clip2508)" />
  </g>
</svg>