<?xml version="1.0" encoding="utf-8"?>
<svg version="1.1" xmlns:xlink="http://www.w3.org/1999/xlink" width="3px" height="3px" xmlns="http://www.w3.org/2000/svg">
  <defs>
    <mask fill="white" id="clip6190">
      <path d="M 2.3892965084915 0.530886977746945  C 2.75626898555583 0.677675968572601  2.90305797638143 0.971253950224025  2.68287449014292 1.19143743646254  C 2.68287449014292 1.26483193187539  2.60947999473001 1.26483193187539  2.60947999473001 1.33822642728819  C 2.60947999473001 1.33822642728819  0.383180555728586 2.53700293050991  0.383180555728586 2.53700293050991  C 0.383180555728586 2.53700293050991  0.823547528205609 0.971253950224025  0.823547528205609 0.971253950224025  C 0.823547528205609 0.897859454811169  0.896942023618521 0.824464959398313  0.970336519031207 0.751070463985457  C 1.19052000526972 0.530886977746945  1.94892953601448 0.457492482334089  2.3892965084915 0.530886977746945  Z " fill-rule="evenodd" />
    </mask>
  </defs>
  <g transform="matrix(1 0 0 1 -1150 -388 )">
    <path d="M 2.3892965084915 0.530886977746945  C 2.75626898555583 0.677675968572601  2.90305797638143 0.971253950224025  2.68287449014292 1.19143743646254  C 2.68287449014292 1.26483193187539  2.60947999473001 1.26483193187539  2.60947999473001 1.33822642728819  C 2.60947999473001 1.33822642728819  0.383180555728586 2.53700293050991  0.383180555728586 2.53700293050991  C 0.383180555728586 2.53700293050991  0.823547528205609 0.971253950224025  0.823547528205609 0.971253950224025  C 0.823547528205609 0.897859454811169  0.896942023618521 0.824464959398313  0.970336519031207 0.751070463985457  C 1.19052000526972 0.530886977746945  1.94892953601448 0.457492482334089  2.3892965084915 0.530886977746945  Z " fill-rule="nonzero" fill="#e35020" stroke="none" transform="matrix(1 0 0 1 1150 388 )" />
    <path d="M 2.3892965084915 0.530886977746945  C 2.75626898555583 0.677675968572601  2.90305797638143 0.971253950224025  2.68287449014292 1.19143743646254  C 2.68287449014292 1.26483193187539  2.60947999473001 1.26483193187539  2.60947999473001 1.33822642728819  C 2.60947999473001 1.33822642728819  0.383180555728586 2.53700293050991  0.383180555728586 2.53700293050991  C 0.383180555728586 2.53700293050991  0.823547528205609 0.971253950224025  0.823547528205609 0.971253950224025  C 0.823547528205609 0.897859454811169  0.896942023618521 0.824464959398313  0.970336519031207 0.751070463985457  C 1.19052000526972 0.530886977746945  1.94892953601448 0.457492482334089  2.3892965084915 0.530886977746945  Z " stroke-width="0.489296125709464" stroke="#e35020" fill="none" transform="matrix(1 0 0 1 1150 388 )" mask="url(#clip6190)" />
  </g>
</svg>