<?xml version="1.0" encoding="utf-8"?>
<svg version="1.1" xmlns:xlink="http://www.w3.org/1999/xlink" width="4px" height="3px" xmlns="http://www.w3.org/2000/svg">
  <defs>
    <mask fill="white" id="clip2493">
      <path d="M 2.88654421491356 0.850153032792832  C 3.25351669197789 0.996942023618487  3.40030568280349 1.29052000526991  3.18012219656498 1.51070349150842  C 3.18012219656498 1.58409798692128  3.10672770115207 1.58409798692128  3.10672770115207 1.65749248233408  C 3.10672770115207 1.65749248233408  0.880428262150645 2.8562689855558  0.880428262150645 2.8562689855558  C 0.880428262150645 2.8562689855558  1.32079523462767 1.29052000526991  1.32079523462767 1.29052000526991  C 1.32079523462767 1.21712550985706  1.39418973004058 1.1437310144442  1.46758422545327 1.07033651903134  C 1.68776771169178 0.850153032792832  2.44617724243653 0.776758537379976  2.88654421491356 0.850153032792832  Z " fill-rule="evenodd" />
    </mask>
  </defs>
  <g transform="matrix(1 0 0 1 -1150 -306 )">
    <path d="M 2.88654421491356 0.850153032792832  C 3.25351669197789 0.996942023618487  3.40030568280349 1.29052000526991  3.18012219656498 1.51070349150842  C 3.18012219656498 1.58409798692128  3.10672770115207 1.58409798692128  3.10672770115207 1.65749248233408  C 3.10672770115207 1.65749248233408  0.880428262150645 2.8562689855558  0.880428262150645 2.8562689855558  C 0.880428262150645 2.8562689855558  1.32079523462767 1.29052000526991  1.32079523462767 1.29052000526991  C 1.32079523462767 1.21712550985706  1.39418973004058 1.1437310144442  1.46758422545327 1.07033651903134  C 1.68776771169178 0.850153032792832  2.44617724243653 0.776758537379976  2.88654421491356 0.850153032792832  Z " fill-rule="nonzero" fill="#e35020" stroke="none" transform="matrix(1 0 0 1 1150 306 )" />
    <path d="M 2.88654421491356 0.850153032792832  C 3.25351669197789 0.996942023618487  3.40030568280349 1.29052000526991  3.18012219656498 1.51070349150842  C 3.18012219656498 1.58409798692128  3.10672770115207 1.58409798692128  3.10672770115207 1.65749248233408  C 3.10672770115207 1.65749248233408  0.880428262150645 2.8562689855558  0.880428262150645 2.8562689855558  C 0.880428262150645 2.8562689855558  1.32079523462767 1.29052000526991  1.32079523462767 1.29052000526991  C 1.32079523462767 1.21712550985706  1.39418973004058 1.1437310144442  1.46758422545327 1.07033651903134  C 1.68776771169178 0.850153032792832  2.44617724243653 0.776758537379976  2.88654421491356 0.850153032792832  Z " stroke-width="0.489296125709464" stroke="#e35020" fill="none" transform="matrix(1 0 0 1 1150 306 )" mask="url(#clip2493)" />
  </g>
</svg>