<?xml version="1.0" encoding="utf-8"?>
<svg version="1.1" xmlns:xlink="http://www.w3.org/1999/xlink" width="4px" height="3px" xmlns="http://www.w3.org/2000/svg">
  <defs>
    <mask fill="white" id="clip8199">
      <path d="M 0.375841106187181 0.534556702517591  C 0.669419087838605 0.314373216279051  1.50122311399605 0.314373216279051  1.79480109564747 0.534556702517591  C 1.86819559106038 0.534556702517591  1.86819559106038 0.607951197930447  1.94159008647307 0.607951197930447  C 1.94159008647307 0.607951197930447  3.11590201307854 2.17370017821636  3.11590201307854 2.17370017821636  C 3.11590201307854 2.17370017821636  0.669419087838605 1.5865442149136  0.669419087838605 1.5865442149136  C 0.596024592425692 1.5865442149136  0.449235601600094 1.51314971950077  0.375841106187181 1.43975522408792  C 0.00886862912307151 1.29296623326223  0.00886862912307151 0.754740188756131  0.375841106187181 0.534556702517591  Z " fill-rule="evenodd" />
    </mask>
  </defs>
  <g transform="matrix(1 0 0 1 -1158 -216 )">
    <path d="M 0.375841106187181 0.534556702517591  C 0.669419087838605 0.314373216279051  1.50122311399605 0.314373216279051  1.79480109564747 0.534556702517591  C 1.86819559106038 0.534556702517591  1.86819559106038 0.607951197930447  1.94159008647307 0.607951197930447  C 1.94159008647307 0.607951197930447  3.11590201307854 2.17370017821636  3.11590201307854 2.17370017821636  C 3.11590201307854 2.17370017821636  0.669419087838605 1.5865442149136  0.669419087838605 1.5865442149136  C 0.596024592425692 1.5865442149136  0.449235601600094 1.51314971950077  0.375841106187181 1.43975522408792  C 0.00886862912307151 1.29296623326223  0.00886862912307151 0.754740188756131  0.375841106187181 0.534556702517591  Z " fill-rule="nonzero" fill="#e35020" stroke="none" transform="matrix(1 0 0 1 1158 216 )" />
    <path d="M 0.375841106187181 0.534556702517591  C 0.669419087838605 0.314373216279051  1.50122311399605 0.314373216279051  1.79480109564747 0.534556702517591  C 1.86819559106038 0.534556702517591  1.86819559106038 0.607951197930447  1.94159008647307 0.607951197930447  C 1.94159008647307 0.607951197930447  3.11590201307854 2.17370017821636  3.11590201307854 2.17370017821636  C 3.11590201307854 2.17370017821636  0.669419087838605 1.5865442149136  0.669419087838605 1.5865442149136  C 0.596024592425692 1.5865442149136  0.449235601600094 1.51314971950077  0.375841106187181 1.43975522408792  C 0.00886862912307151 1.29296623326223  0.00886862912307151 0.754740188756131  0.375841106187181 0.534556702517591  Z " stroke-width="0.489296125709464" stroke="#e35020" fill="none" transform="matrix(1 0 0 1 1158 216 )" mask="url(#clip8199)" />
  </g>
</svg>