<?xml version="1.0" encoding="utf-8"?>
<svg version="1.1" xmlns:xlink="http://www.w3.org/1999/xlink" width="28px" height="17px" xmlns="http://www.w3.org/2000/svg">
  <defs>
    <mask fill="white" id="clip2523">
      <path d="M 14.1599387103265 16.0599387103265  C 6.67370017821622 16.0599387103265  0.410703491508457 12.6837919213357  0.410703491508457 8.50030568280354  C 0.410703491508457 4.24342494885857  6.67370017821622 0.62263009701303  14.1599387103265 0.62263009701303  C 21.5727827470237 0.62263009701303  27.5911313708768 4.24342494885857  27.5911313708768 8.50030568280354  C 27.5911313708768 12.6837919213357  21.5727827470237 16.0599387103265  14.1599387103265 16.0599387103265  Z " fill-rule="evenodd" />
    </mask>
  </defs>
  <g transform="matrix(1 0 0 1 -1139 -204 )">
    <path d="M 14.1599387103265 16.0599387103265  C 6.67370017821622 16.0599387103265  0.410703491508457 12.6837919213357  0.410703491508457 8.50030568280354  C 0.410703491508457 4.24342494885857  6.67370017821622 0.62263009701303  14.1599387103265 0.62263009701303  C 21.5727827470237 0.62263009701303  27.5911313708768 4.24342494885857  27.5911313708768 8.50030568280354  C 27.5911313708768 12.6837919213357  21.5727827470237 16.0599387103265  14.1599387103265 16.0599387103265  Z " fill-rule="nonzero" fill="#ffffff" stroke="none" transform="matrix(1 0 0 1 1139 204 )" />
    <path d="M 14.1599387103265 16.0599387103265  C 6.67370017821622 16.0599387103265  0.410703491508457 12.6837919213357  0.410703491508457 8.50030568280354  C 0.410703491508457 4.24342494885857  6.67370017821622 0.62263009701303  14.1599387103265 0.62263009701303  C 21.5727827470237 0.62263009701303  27.5911313708768 4.24342494885857  27.5911313708768 8.50030568280354  C 27.5911313708768 12.6837919213357  21.5727827470237 16.0599387103265  14.1599387103265 16.0599387103265  Z " stroke-width="0.489296125709464" stroke="#ffffff" fill="none" transform="matrix(1 0 0 1 1139 204 )" mask="url(#clip2523)" />
  </g>
</svg>