<?xml version="1.0" encoding="utf-8"?>
<svg version="1.1" xmlns:xlink="http://www.w3.org/1999/xlink" width="6px" height="10px" xmlns="http://www.w3.org/2000/svg">
  <defs>
    <mask fill="white" id="clip6284">
      <path d="M 0.129969546554321 1.59510716123322  C 0.129969546554321 0.861162207104769  0.790520005269855 0.200611748389179  1.5244649593983 0.200611748389179  C 1.5244649593983 0.200611748389179  3.89755338922555 0.200611748389179  3.89755338922555 0.200611748389179  C 4.70489283876668 0.200611748389179  5.29204880206953 0.861162207104769  5.29204880206953 1.59510716123322  C 5.29204880206953 1.59510716123322  5.29204880206953 8.15168182959252  5.29204880206953 8.15168182959252  C 5.29204880206953 8.95902127913382  4.70489283876668 9.54617724243656  3.89755338922555 9.54617724243656  C 3.89755338922555 9.54617724243656  1.5244649593983 9.54617724243656  1.5244649593983 9.54617724243656  C 0.790520005269855 9.54617724243656  0.129969546554321 8.95902127913382  0.129969546554321 8.15168182959252  C 0.129969546554321 8.15168182959252  0.129969546554321 1.59510716123322  0.129969546554321 1.59510716123322  Z " fill-rule="evenodd" />
    </mask>
  </defs>
  <g transform="matrix(1 0 0 1 -1124 -218 )">
    <path d="M 0.129969546554321 1.59510716123322  C 0.129969546554321 0.861162207104769  0.790520005269855 0.200611748389179  1.5244649593983 0.200611748389179  C 1.5244649593983 0.200611748389179  3.89755338922555 0.200611748389179  3.89755338922555 0.200611748389179  C 4.70489283876668 0.200611748389179  5.29204880206953 0.861162207104769  5.29204880206953 1.59510716123322  C 5.29204880206953 1.59510716123322  5.29204880206953 8.15168182959252  5.29204880206953 8.15168182959252  C 5.29204880206953 8.95902127913382  4.70489283876668 9.54617724243656  3.89755338922555 9.54617724243656  C 3.89755338922555 9.54617724243656  1.5244649593983 9.54617724243656  1.5244649593983 9.54617724243656  C 0.790520005269855 9.54617724243656  0.129969546554321 8.95902127913382  0.129969546554321 8.15168182959252  C 0.129969546554321 8.15168182959252  0.129969546554321 1.59510716123322  0.129969546554321 1.59510716123322  Z " fill-rule="nonzero" fill="#deb887" stroke="none" transform="matrix(1 0 0 1 1124 218 )" />
    <path d="M 0.129969546554321 1.59510716123322  C 0.129969546554321 0.861162207104769  0.790520005269855 0.200611748389179  1.5244649593983 0.200611748389179  C 1.5244649593983 0.200611748389179  3.89755338922555 0.200611748389179  3.89755338922555 0.200611748389179  C 4.70489283876668 0.200611748389179  5.29204880206953 0.861162207104769  5.29204880206953 1.59510716123322  C 5.29204880206953 1.59510716123322  5.29204880206953 8.15168182959252  5.29204880206953 8.15168182959252  C 5.29204880206953 8.95902127913382  4.70489283876668 9.54617724243656  3.89755338922555 9.54617724243656  C 3.89755338922555 9.54617724243656  1.5244649593983 9.54617724243656  1.5244649593983 9.54617724243656  C 0.790520005269855 9.54617724243656  0.129969546554321 8.95902127913382  0.129969546554321 8.15168182959252  C 0.129969546554321 8.15168182959252  0.129969546554321 1.59510716123322  0.129969546554321 1.59510716123322  Z " stroke-width="0.489296125709464" stroke="#deb887" fill="none" transform="matrix(1 0 0 1 1124 218 )" mask="url(#clip6284)" />
  </g>
</svg>