<?xml version="1.0" encoding="utf-8"?>
<svg version="1.1" xmlns:xlink="http://www.w3.org/1999/xlink" width="17px" height="4px" xmlns="http://www.w3.org/2000/svg">
  <defs>
    <mask fill="white" id="clip2486">
      <path d="M 0.331804408939661 3.33700293050998  C 0.331804408939661 3.33700293050998  0.331804408939661 0.450153032792855  0.331804408939661 0.450153032792855  C 0.331804408939661 0.450153032792855  16.7232414626201 0.450153032792855  16.7232414626201 0.450153032792855  C 16.7232414626201 0.450153032792855  16.7232414626201 3.33700293050998  16.7232414626201 3.33700293050998  C 16.7232414626201 3.33700293050998  0.331804408939661 3.33700293050998  0.331804408939661 3.33700293050998  Z " fill-rule="evenodd" />
    </mask>
  </defs>
  <g transform="matrix(1 0 0 1 -1145 -296 )">
    <path d="M 0.331804408939661 3.33700293050998  C 0.331804408939661 3.33700293050998  0.331804408939661 0.450153032792855  0.331804408939661 0.450153032792855  C 0.331804408939661 0.450153032792855  16.7232414626201 0.450153032792855  16.7232414626201 0.450153032792855  C 16.7232414626201 0.450153032792855  16.7232414626201 3.33700293050998  16.7232414626201 3.33700293050998  C 16.7232414626201 3.33700293050998  0.331804408939661 3.33700293050998  0.331804408939661 3.33700293050998  Z " fill-rule="nonzero" fill="#dcdcdd" stroke="none" transform="matrix(1 0 0 1 1145 296 )" />
    <path d="M 0.331804408939661 3.33700293050998  C 0.331804408939661 3.33700293050998  0.331804408939661 0.450153032792855  0.331804408939661 0.450153032792855  C 0.331804408939661 0.450153032792855  16.7232414626201 0.450153032792855  16.7232414626201 0.450153032792855  C 16.7232414626201 0.450153032792855  16.7232414626201 3.33700293050998  16.7232414626201 3.33700293050998  C 16.7232414626201 3.33700293050998  0.331804408939661 3.33700293050998  0.331804408939661 3.33700293050998  Z " stroke-width="0.489296125709464" stroke="#dcdcdd" fill="none" transform="matrix(1 0 0 1 1145 296 )" mask="url(#clip2486)" />
  </g>
</svg>