<?xml version="1.0" encoding="utf-8"?>
<svg version="1.1" xmlns:xlink="http://www.w3.org/1999/xlink" width="4px" height="3px" xmlns="http://www.w3.org/2000/svg">
  <defs>
    <mask fill="white" id="clip2403">
      <path d="M 0.375841106187181 0.738226427288282  C 0.669419087838605 0.518042941049714  1.50122311399605 0.518042941049714  1.79480109564747 0.738226427288282  C 1.86819559106038 0.738226427288282  1.86819559106038 0.811620922701081  1.94159008647307 0.811620922701081  C 1.94159008647307 0.811620922701081  3.11590201307854 2.37736990298703  3.11590201307854 2.37736990298703  C 3.11590201307854 2.37736990298703  0.669419087838605 1.79021393968429  0.669419087838605 1.79021393968429  C 0.596024592425692 1.79021393968429  0.449235601600094 1.71681944427144  0.375841106187181 1.64342494885858  C 0.00886862912307151 1.49663595803293  0.00886862912307151 0.958409913526793  0.375841106187181 0.738226427288282  Z " fill-rule="evenodd" />
    </mask>
  </defs>
  <g transform="matrix(1 0 0 1 -1158 -387 )">
    <path d="M 0.375841106187181 0.738226427288282  C 0.669419087838605 0.518042941049714  1.50122311399605 0.518042941049714  1.79480109564747 0.738226427288282  C 1.86819559106038 0.738226427288282  1.86819559106038 0.811620922701081  1.94159008647307 0.811620922701081  C 1.94159008647307 0.811620922701081  3.11590201307854 2.37736990298703  3.11590201307854 2.37736990298703  C 3.11590201307854 2.37736990298703  0.669419087838605 1.79021393968429  0.669419087838605 1.79021393968429  C 0.596024592425692 1.79021393968429  0.449235601600094 1.71681944427144  0.375841106187181 1.64342494885858  C 0.00886862912307151 1.49663595803293  0.00886862912307151 0.958409913526793  0.375841106187181 0.738226427288282  Z " fill-rule="nonzero" fill="#e35020" stroke="none" transform="matrix(1 0 0 1 1158 387 )" />
    <path d="M 0.375841106187181 0.738226427288282  C 0.669419087838605 0.518042941049714  1.50122311399605 0.518042941049714  1.79480109564747 0.738226427288282  C 1.86819559106038 0.738226427288282  1.86819559106038 0.811620922701081  1.94159008647307 0.811620922701081  C 1.94159008647307 0.811620922701081  3.11590201307854 2.37736990298703  3.11590201307854 2.37736990298703  C 3.11590201307854 2.37736990298703  0.669419087838605 1.79021393968429  0.669419087838605 1.79021393968429  C 0.596024592425692 1.79021393968429  0.449235601600094 1.71681944427144  0.375841106187181 1.64342494885858  C 0.00886862912307151 1.49663595803293  0.00886862912307151 0.958409913526793  0.375841106187181 0.738226427288282  Z " stroke-width="0.489296125709464" stroke="#e35020" fill="none" transform="matrix(1 0 0 1 1158 387 )" mask="url(#clip2403)" />
  </g>
</svg>