<?xml version="1.0" encoding="utf-8"?>
<svg version="1.1" xmlns:xlink="http://www.w3.org/1999/xlink" width="6px" height="10px" xmlns="http://www.w3.org/2000/svg">
  <defs>
    <mask fill="white" id="clip2414">
      <path d="M 0.129969546554321 1.79877688600385  C 0.129969546554321 1.0648319318754  0.790520005269855 0.404281473159813  1.5244649593983 0.404281473159813  C 1.5244649593983 0.404281473159813  3.89755338922555 0.404281473159813  3.89755338922555 0.404281473159813  C 4.70489283876668 0.404281473159813  5.29204880206953 1.0648319318754  5.29204880206953 1.79877688600385  C 5.29204880206953 1.79877688600385  5.29204880206953 8.35535155436315  5.29204880206953 8.35535155436315  C 5.29204880206953 9.16269100390446  4.70489283876668 9.74984696720719  3.89755338922555 9.74984696720719  C 3.89755338922555 9.74984696720719  1.5244649593983 9.74984696720719  1.5244649593983 9.74984696720719  C 0.790520005269855 9.74984696720719  0.129969546554321 9.16269100390446  0.129969546554321 8.35535155436315  C 0.129969546554321 8.35535155436315  0.129969546554321 1.79877688600385  0.129969546554321 1.79877688600385  Z " fill-rule="evenodd" />
    </mask>
  </defs>
  <g transform="matrix(1 0 0 1 -1124 -389 )">
    <path d="M 0.129969546554321 1.79877688600385  C 0.129969546554321 1.0648319318754  0.790520005269855 0.404281473159813  1.5244649593983 0.404281473159813  C 1.5244649593983 0.404281473159813  3.89755338922555 0.404281473159813  3.89755338922555 0.404281473159813  C 4.70489283876668 0.404281473159813  5.29204880206953 1.0648319318754  5.29204880206953 1.79877688600385  C 5.29204880206953 1.79877688600385  5.29204880206953 8.35535155436315  5.29204880206953 8.35535155436315  C 5.29204880206953 9.16269100390446  4.70489283876668 9.74984696720719  3.89755338922555 9.74984696720719  C 3.89755338922555 9.74984696720719  1.5244649593983 9.74984696720719  1.5244649593983 9.74984696720719  C 0.790520005269855 9.74984696720719  0.129969546554321 9.16269100390446  0.129969546554321 8.35535155436315  C 0.129969546554321 8.35535155436315  0.129969546554321 1.79877688600385  0.129969546554321 1.79877688600385  Z " fill-rule="nonzero" fill="#deb887" stroke="none" transform="matrix(1 0 0 1 1124 389 )" />
    <path d="M 0.129969546554321 1.79877688600385  C 0.129969546554321 1.0648319318754  0.790520005269855 0.404281473159813  1.5244649593983 0.404281473159813  C 1.5244649593983 0.404281473159813  3.89755338922555 0.404281473159813  3.89755338922555 0.404281473159813  C 4.70489283876668 0.404281473159813  5.29204880206953 1.0648319318754  5.29204880206953 1.79877688600385  C 5.29204880206953 1.79877688600385  5.29204880206953 8.35535155436315  5.29204880206953 8.35535155436315  C 5.29204880206953 9.16269100390446  4.70489283876668 9.74984696720719  3.89755338922555 9.74984696720719  C 3.89755338922555 9.74984696720719  1.5244649593983 9.74984696720719  1.5244649593983 9.74984696720719  C 0.790520005269855 9.74984696720719  0.129969546554321 9.16269100390446  0.129969546554321 8.35535155436315  C 0.129969546554321 8.35535155436315  0.129969546554321 1.79877688600385  0.129969546554321 1.79877688600385  Z " stroke-width="0.489296125709464" stroke="#deb887" fill="none" transform="matrix(1 0 0 1 1124 389 )" mask="url(#clip2414)" />
  </g>
</svg>