<?xml version="1.0" encoding="utf-8"?>
<svg version="1.1" xmlns:xlink="http://www.w3.org/1999/xlink" width="6px" height="10px" xmlns="http://www.w3.org/2000/svg">
  <defs>
    <mask fill="white" id="clip6242">
      <path d="M 0.726299821783641 1.73639156490293  C 0.726299821783641 1.00244661077448  1.38685028049917 0.341896152058894  2.12079523462762 0.341896152058894  C 2.12079523462762 0.341896152058894  4.49388366445487 0.341896152058894  4.49388366445487 0.341896152058894  C 5.301223113996 0.341896152058894  5.88837907729885 1.00244661077448  5.88837907729885 1.73639156490293  C 5.88837907729885 1.73639156490293  5.88837907729885 8.29296623326223  5.88837907729885 8.29296623326223  C 5.88837907729885 9.10030568280354  5.301223113996 9.68746164610627  4.49388366445487 9.68746164610627  C 4.49388366445487 9.68746164610627  2.12079523462762 9.68746164610627  2.12079523462762 9.68746164610627  C 1.38685028049917 9.68746164610627  0.726299821783641 9.10030568280354  0.726299821783641 8.29296623326223  C 0.726299821783641 8.29296623326223  0.726299821783641 1.73639156490293  0.726299821783641 1.73639156490293  Z " fill-rule="evenodd" />
    </mask>
  </defs>
  <g transform="matrix(1 0 0 1 -1174 -307 )">
    <path d="M 0.726299821783641 1.73639156490293  C 0.726299821783641 1.00244661077448  1.38685028049917 0.341896152058894  2.12079523462762 0.341896152058894  C 2.12079523462762 0.341896152058894  4.49388366445487 0.341896152058894  4.49388366445487 0.341896152058894  C 5.301223113996 0.341896152058894  5.88837907729885 1.00244661077448  5.88837907729885 1.73639156490293  C 5.88837907729885 1.73639156490293  5.88837907729885 8.29296623326223  5.88837907729885 8.29296623326223  C 5.88837907729885 9.10030568280354  5.301223113996 9.68746164610627  4.49388366445487 9.68746164610627  C 4.49388366445487 9.68746164610627  2.12079523462762 9.68746164610627  2.12079523462762 9.68746164610627  C 1.38685028049917 9.68746164610627  0.726299821783641 9.10030568280354  0.726299821783641 8.29296623326223  C 0.726299821783641 8.29296623326223  0.726299821783641 1.73639156490293  0.726299821783641 1.73639156490293  Z " fill-rule="nonzero" fill="#deb887" stroke="none" transform="matrix(1 0 0 1 1174 307 )" />
    <path d="M 0.726299821783641 1.73639156490293  C 0.726299821783641 1.00244661077448  1.38685028049917 0.341896152058894  2.12079523462762 0.341896152058894  C 2.12079523462762 0.341896152058894  4.49388366445487 0.341896152058894  4.49388366445487 0.341896152058894  C 5.301223113996 0.341896152058894  5.88837907729885 1.00244661077448  5.88837907729885 1.73639156490293  C 5.88837907729885 1.73639156490293  5.88837907729885 8.29296623326223  5.88837907729885 8.29296623326223  C 5.88837907729885 9.10030568280354  5.301223113996 9.68746164610627  4.49388366445487 9.68746164610627  C 4.49388366445487 9.68746164610627  2.12079523462762 9.68746164610627  2.12079523462762 9.68746164610627  C 1.38685028049917 9.68746164610627  0.726299821783641 9.10030568280354  0.726299821783641 8.29296623326223  C 0.726299821783641 8.29296623326223  0.726299821783641 1.73639156490293  0.726299821783641 1.73639156490293  Z " stroke-width="0.489296125709464" stroke="#deb887" fill="none" transform="matrix(1 0 0 1 1174 307 )" mask="url(#clip6242)" />
  </g>
</svg>