<?xml version="1.0" encoding="utf-8"?>
<svg version="1.1" xmlns:xlink="http://www.w3.org/1999/xlink" width="6px" height="7px" xmlns="http://www.w3.org/2000/svg">
  <defs>
    <mask fill="white" id="clip9243">
      <path d="M 3.00091743119265 6.04036697247716  C 1.82660550458715 6.04036697247716  0.0651376146788891 5.0862385321102  0.0651376146788891 3.83853211009188  C 0.0651376146788891 2.66422018348635  1.82660550458715 0.902752293578089  3.00091743119265 0.902752293578089  C 4.248623853211 0.902752293578089  5.20275229357799 2.66422018348635  5.20275229357799 3.83853211009188  C 5.20275229357799 5.0862385321102  4.248623853211 6.04036697247716  3.00091743119265 6.04036697247716  Z " fill-rule="evenodd" />
    </mask>
  </defs>
  <g transform="matrix(1 0 0 1 -1028 -387 )">
    <path d="M 3.00091743119265 6.04036697247716  C 1.82660550458715 6.04036697247716  0.0651376146788891 5.0862385321102  0.0651376146788891 3.83853211009188  C 0.0651376146788891 2.66422018348635  1.82660550458715 0.902752293578089  3.00091743119265 0.902752293578089  C 4.248623853211 0.902752293578089  5.20275229357799 2.66422018348635  5.20275229357799 3.83853211009188  C 5.20275229357799 5.0862385321102  4.248623853211 6.04036697247716  3.00091743119265 6.04036697247716  Z " fill-rule="nonzero" fill="#ffffff" stroke="none" transform="matrix(1 0 0 1 1028 387 )" />
    <path d="M 3.00091743119265 6.04036697247716  C 1.82660550458715 6.04036697247716  0.0651376146788891 5.0862385321102  0.0651376146788891 3.83853211009188  C 0.0651376146788891 2.66422018348635  1.82660550458715 0.902752293578089  3.00091743119265 0.902752293578089  C 4.248623853211 0.902752293578089  5.20275229357799 2.66422018348635  5.20275229357799 3.83853211009188  C 5.20275229357799 5.0862385321102  4.248623853211 6.04036697247716  3.00091743119265 6.04036697247716  Z " stroke-width="1.46788990825688" stroke="#e35020" fill="none" transform="matrix(1 0 0 1 1028 387 )" mask="url(#clip9243)" />
  </g>
</svg>