<?xml version="1.0" encoding="utf-8"?>
<svg version="1.1" xmlns:xlink="http://www.w3.org/1999/xlink" width="18px" height="14px" xmlns="http://www.w3.org/2000/svg">
  <defs>
    <mask fill="white" id="clip4332">
      <path d="M 17.0798165137612 0.111926605504607  C 17.0798165137612 0.111926605504607  0.566055045871508 2.754128440367  0.566055045871508 2.754128440367  C 0.566055045871508 2.754128440367  0.566055045871508 8.40550458715597  0.566055045871508 8.40550458715597  C 0.566055045871508 8.40550458715597  17.0798165137612 13.4697247706422  17.0798165137612 13.4697247706422  C 17.0798165137612 13.4697247706422  17.0798165137612 0.111926605504607  17.0798165137612 0.111926605504607  Z " fill-rule="evenodd" />
    </mask>
  </defs>
  <g transform="matrix(1 0 0 1 -1125 -217 )">
    <path d="M 17.0798165137612 0.111926605504607  C 17.0798165137612 0.111926605504607  0.566055045871508 2.754128440367  0.566055045871508 2.754128440367  C 0.566055045871508 2.754128440367  0.566055045871508 8.40550458715597  0.566055045871508 8.40550458715597  C 0.566055045871508 8.40550458715597  17.0798165137612 13.4697247706422  17.0798165137612 13.4697247706422  C 17.0798165137612 13.4697247706422  17.0798165137612 0.111926605504607  17.0798165137612 0.111926605504607  Z " fill-rule="nonzero" fill="#007fcc" stroke="none" transform="matrix(1 0 0 1 1125 217 )" />
    <path d="M 17.0798165137612 0.111926605504607  C 17.0798165137612 0.111926605504607  0.566055045871508 2.754128440367  0.566055045871508 2.754128440367  C 0.566055045871508 2.754128440367  0.566055045871508 8.40550458715597  0.566055045871508 8.40550458715597  C 0.566055045871508 8.40550458715597  17.0798165137612 13.4697247706422  17.0798165137612 13.4697247706422  C 17.0798165137612 13.4697247706422  17.0798165137612 0.111926605504607  17.0798165137612 0.111926605504607  Z " stroke-width="1.46788990825688" stroke="#007fcc" fill="none" transform="matrix(1 0 0 1 1125 217 )" mask="url(#clip4332)" />
  </g>
</svg>