<?xml version="1.0" encoding="utf-8"?>
<svg version="1.1" xmlns:xlink="http://www.w3.org/1999/xlink" width="28px" height="17px" xmlns="http://www.w3.org/2000/svg">
  <defs>
    <mask fill="white" id="clip2400">
      <path d="M 14.1599387103265 16.2636084350971  C 6.67370017821622 16.2636084350971  0.410703491508457 12.8874616461063  0.410703491508457 8.70397540757415  C 0.410703491508457 4.44709467362918  6.67370017821622 0.826299821783664  14.1599387103265 0.826299821783664  C 21.5727827470237 0.826299821783664  27.5911313708768 4.44709467362918  27.5911313708768 8.70397540757415  C 27.5911313708768 12.8874616461063  21.5727827470237 16.2636084350971  14.1599387103265 16.2636084350971  Z " fill-rule="evenodd" />
    </mask>
  </defs>
  <g transform="matrix(1 0 0 1 -1139 -375 )">
    <path d="M 14.1599387103265 16.2636084350971  C 6.67370017821622 16.2636084350971  0.410703491508457 12.8874616461063  0.410703491508457 8.70397540757415  C 0.410703491508457 4.44709467362918  6.67370017821622 0.826299821783664  14.1599387103265 0.826299821783664  C 21.5727827470237 0.826299821783664  27.5911313708768 4.44709467362918  27.5911313708768 8.70397540757415  C 27.5911313708768 12.8874616461063  21.5727827470237 16.2636084350971  14.1599387103265 16.2636084350971  Z " fill-rule="nonzero" fill="#ffffff" stroke="none" transform="matrix(1 0 0 1 1139 375 )" />
    <path d="M 14.1599387103265 16.2636084350971  C 6.67370017821622 16.2636084350971  0.410703491508457 12.8874616461063  0.410703491508457 8.70397540757415  C 0.410703491508457 4.44709467362918  6.67370017821622 0.826299821783664  14.1599387103265 0.826299821783664  C 21.5727827470237 0.826299821783664  27.5911313708768 4.44709467362918  27.5911313708768 8.70397540757415  C 27.5911313708768 12.8874616461063  21.5727827470237 16.2636084350971  14.1599387103265 16.2636084350971  Z " stroke-width="0.489296125709464" stroke="#ffffff" fill="none" transform="matrix(1 0 0 1 1139 375 )" mask="url(#clip2400)" />
  </g>
</svg>