<?xml version="1.0" encoding="utf-8"?>
<svg version="1.1" xmlns:xlink="http://www.w3.org/1999/xlink" width="4px" height="4px" xmlns="http://www.w3.org/2000/svg">
  <defs>
    <mask fill="white" id="clip3539">
      <path d="M 0.805198904352437 0.875841106187352  C 1.0987768860038 0.508868629123128  1.78379192133559 0.508868629123128  2.07736990298699 0.875841106187352  C 2.15076439839982 0.875841106187352  2.15076439839982 0.949235601600208  2.22415889381267 0.949235601600208  C 2.22415889381267 0.949235601600208  3.25168182959249 3.3223240314274  3.25168182959249 3.3223240314274  C 3.25168182959249 3.3223240314274  1.0987768860038 2.36819559106044  1.0987768860038 2.36819559106044  C 0.951987895178121 2.29480109564759  0.878593399765265 2.22140660023479  0.805198904352437 2.14801210482193  C 0.438226427288214 1.85443412317056  0.438226427288214 1.16941908783878  0.805198904352437 0.875841106187352  Z " fill-rule="evenodd" />
    </mask>
  </defs>
  <g transform="matrix(1 0 0 1 -1026 -395 )">
    <path d="M 0.805198904352437 0.875841106187352  C 1.0987768860038 0.508868629123128  1.78379192133559 0.508868629123128  2.07736990298699 0.875841106187352  C 2.15076439839982 0.875841106187352  2.15076439839982 0.949235601600208  2.22415889381267 0.949235601600208  C 2.22415889381267 0.949235601600208  3.25168182959249 3.3223240314274  3.25168182959249 3.3223240314274  C 3.25168182959249 3.3223240314274  1.0987768860038 2.36819559106044  1.0987768860038 2.36819559106044  C 0.951987895178121 2.29480109564759  0.878593399765265 2.22140660023479  0.805198904352437 2.14801210482193  C 0.438226427288214 1.85443412317056  0.438226427288214 1.16941908783878  0.805198904352437 0.875841106187352  Z " fill-rule="nonzero" fill="#e35020" stroke="none" transform="matrix(1 0 0 1 1026 395 )" />
    <path d="M 0.805198904352437 0.875841106187352  C 1.0987768860038 0.508868629123128  1.78379192133559 0.508868629123128  2.07736990298699 0.875841106187352  C 2.15076439839982 0.875841106187352  2.15076439839982 0.949235601600208  2.22415889381267 0.949235601600208  C 2.22415889381267 0.949235601600208  3.25168182959249 3.3223240314274  3.25168182959249 3.3223240314274  C 3.25168182959249 3.3223240314274  1.0987768860038 2.36819559106044  1.0987768860038 2.36819559106044  C 0.951987895178121 2.29480109564759  0.878593399765265 2.22140660023479  0.805198904352437 2.14801210482193  C 0.438226427288214 1.85443412317056  0.438226427288214 1.16941908783878  0.805198904352437 0.875841106187352  Z " stroke-width="0.489296125709464" stroke="#e35020" fill="none" transform="matrix(1 0 0 1 1026 395 )" mask="url(#clip3539)" />
  </g>
</svg>