<?xml version="1.0" encoding="utf-8"?>
<svg version="1.1" xmlns:xlink="http://www.w3.org/1999/xlink" width="35px" height="32px" xmlns="http://www.w3.org/2000/svg">
  <defs>
    <mask fill="white" id="clip2446">
      <path d="M 0.301834862385249 16.0642201834862  C 0.301834862385249 7.62385321100919  7.05412844036687 0.13761467889907  15.421100917431 0.13761467889907  C 15.421100917431 0.13761467889907  19.6045871559631 0.13761467889907  19.6045871559631 0.13761467889907  C 27.9715596330273 0.13761467889907  34.7238532110091 7.62385321100919  34.7238532110091 16.0642201834862  C 34.7238532110091 24.4311926605504  27.9715596330273 31.1834862385321  19.6045871559631 31.1834862385321  C 19.6045871559631 31.1834862385321  15.421100917431 31.1834862385321  15.421100917431 31.1834862385321  C 7.05412844036687 31.1834862385321  0.301834862385249 24.4311926605504  0.301834862385249 16.0642201834862  Z " fill-rule="evenodd" />
    </mask>
  </defs>
  <g transform="matrix(1 0 0 1 -1136 -293 )">
    <path d="M 0.301834862385249 16.0642201834862  C 0.301834862385249 7.62385321100919  7.05412844036687 0.13761467889907  15.421100917431 0.13761467889907  C 15.421100917431 0.13761467889907  19.6045871559631 0.13761467889907  19.6045871559631 0.13761467889907  C 27.9715596330273 0.13761467889907  34.7238532110091 7.62385321100919  34.7238532110091 16.0642201834862  C 34.7238532110091 24.4311926605504  27.9715596330273 31.1834862385321  19.6045871559631 31.1834862385321  C 19.6045871559631 31.1834862385321  15.421100917431 31.1834862385321  15.421100917431 31.1834862385321  C 7.05412844036687 31.1834862385321  0.301834862385249 24.4311926605504  0.301834862385249 16.0642201834862  Z " fill-rule="nonzero" fill="#007fcc" stroke="none" transform="matrix(1 0 0 1 1136 293 )" />
    <path d="M 0.301834862385249 16.0642201834862  C 0.301834862385249 7.62385321100919  7.05412844036687 0.13761467889907  15.421100917431 0.13761467889907  C 15.421100917431 0.13761467889907  19.6045871559631 0.13761467889907  19.6045871559631 0.13761467889907  C 27.9715596330273 0.13761467889907  34.7238532110091 7.62385321100919  34.7238532110091 16.0642201834862  C 34.7238532110091 24.4311926605504  27.9715596330273 31.1834862385321  19.6045871559631 31.1834862385321  C 19.6045871559631 31.1834862385321  15.421100917431 31.1834862385321  15.421100917431 31.1834862385321  C 7.05412844036687 31.1834862385321  0.301834862385249 24.4311926605504  0.301834862385249 16.0642201834862  Z " stroke-width="1.46788990825688" stroke="#007fcc" fill="none" transform="matrix(1 0 0 1 1136 293 )" mask="url(#clip2446)" />
  </g>
</svg>