<?xml version="1.0" encoding="utf-8"?>
<svg version="1.1" xmlns:xlink="http://www.w3.org/1999/xlink" width="6px" height="4px" xmlns="http://www.w3.org/2000/svg">
  <defs>
    <mask fill="white" id="clip8198">
      <path d="M 3.50366972477059 3.77064220183487  C 2.10917431192661 3.77064220183487  0.274311926605606 3.18348623853211  0.274311926605606 2.37614678899084  C 0.274311926605606 1.64220183486239  2.10917431192661 0.247706422018354  3.50366972477059 0.247706422018354  C 4.89816513761457 0.247706422018354  5.99908256880735 1.64220183486239  5.99908256880735 2.37614678899084  C 5.99908256880735 3.18348623853211  4.89816513761457 3.77064220183487  3.50366972477059 3.77064220183487  Z " fill-rule="evenodd" />
    </mask>
  </defs>
  <g transform="matrix(1 0 0 1 -1156 -215 )">
    <path d="M 3.50366972477059 3.77064220183487  C 2.10917431192661 3.77064220183487  0.274311926605606 3.18348623853211  0.274311926605606 2.37614678899084  C 0.274311926605606 1.64220183486239  2.10917431192661 0.247706422018354  3.50366972477059 0.247706422018354  C 4.89816513761457 0.247706422018354  5.99908256880735 1.64220183486239  5.99908256880735 2.37614678899084  C 5.99908256880735 3.18348623853211  4.89816513761457 3.77064220183487  3.50366972477059 3.77064220183487  Z " fill-rule="nonzero" fill="#ffffff" stroke="none" transform="matrix(1 0 0 1 1156 215 )" />
    <path d="M 3.50366972477059 3.77064220183487  C 2.10917431192661 3.77064220183487  0.274311926605606 3.18348623853211  0.274311926605606 2.37614678899084  C 0.274311926605606 1.64220183486239  2.10917431192661 0.247706422018354  3.50366972477059 0.247706422018354  C 4.89816513761457 0.247706422018354  5.99908256880735 1.64220183486239  5.99908256880735 2.37614678899084  C 5.99908256880735 3.18348623853211  4.89816513761457 3.77064220183487  3.50366972477059 3.77064220183487  Z " stroke-width="1.46788990825688" stroke="#e35020" fill="none" transform="matrix(1 0 0 1 1156 215 )" mask="url(#clip8198)" />
  </g>
</svg>