<?xml version="1.0" encoding="utf-8"?>
<svg version="1.1" xmlns:xlink="http://www.w3.org/1999/xlink" width="7px" height="5px" xmlns="http://www.w3.org/2000/svg">
  <defs>
    <mask fill="white" id="clip8107">
      <path d="M 4.07064220183474 4.12844036697248  C 2.67614678899076 4.12844036697248  0.841284403669761 3.54128440366975  0.841284403669761 2.73394495412845  C 0.841284403669761 2  2.67614678899076 0.605504587155963  4.07064220183474 0.605504587155963  C 5.46513761467872 0.605504587155963  6.56605504587151 2  6.56605504587151 2.73394495412845  C 6.56605504587151 3.54128440366975  5.46513761467872 4.12844036697248  4.07064220183474 4.12844036697248  Z " fill-rule="evenodd" />
    </mask>
  </defs>
  <g transform="matrix(1 0 0 1 -1159 -382 )">
    <path d="M 4.07064220183474 4.12844036697248  C 2.67614678899076 4.12844036697248  0.841284403669761 3.54128440366975  0.841284403669761 2.73394495412845  C 0.841284403669761 2  2.67614678899076 0.605504587155963  4.07064220183474 0.605504587155963  C 5.46513761467872 0.605504587155963  6.56605504587151 2  6.56605504587151 2.73394495412845  C 6.56605504587151 3.54128440366975  5.46513761467872 4.12844036697248  4.07064220183474 4.12844036697248  Z " fill-rule="nonzero" fill="#ffffff" stroke="none" transform="matrix(1 0 0 1 1159 382 )" />
    <path d="M 4.07064220183474 4.12844036697248  C 2.67614678899076 4.12844036697248  0.841284403669761 3.54128440366975  0.841284403669761 2.73394495412845  C 0.841284403669761 2  2.67614678899076 0.605504587155963  4.07064220183474 0.605504587155963  C 5.46513761467872 0.605504587155963  6.56605504587151 2  6.56605504587151 2.73394495412845  C 6.56605504587151 3.54128440366975  5.46513761467872 4.12844036697248  4.07064220183474 4.12844036697248  Z " stroke-width="1.46788990825688" stroke="#e35020" fill="none" transform="matrix(1 0 0 1 1159 382 )" mask="url(#clip8107)" />
  </g>
</svg>