<?xml version="1.0" encoding="utf-8"?>
<svg version="1.1" xmlns:xlink="http://www.w3.org/1999/xlink" width="16px" height="6px" xmlns="http://www.w3.org/2000/svg">
  <defs>
    <mask fill="white" id="clip3542">
      <path d="M 0.746483308022164 5.05993871032655  C 0.746483308022164 5.05993871032655  0.746483308022164 0.705198904352585  0.746483308022164 0.705198904352585  C 0.746483308022164 0.705198904352585  15.3030579763815 0.705198904352585  15.3030579763815 0.705198904352585  C 15.3030579763815 0.705198904352585  15.3030579763815 5.05993871032655  15.3030579763815 5.05993871032655  C 15.3030579763815 5.05993871032655  0.746483308022164 5.05993871032655  0.746483308022164 5.05993871032655  Z " fill-rule="evenodd" />
    </mask>
  </defs>
  <g transform="matrix(1 0 0 1 -1014 -380 )">
    <path d="M 0.746483308022164 5.05993871032655  C 0.746483308022164 5.05993871032655  0.746483308022164 0.705198904352585  0.746483308022164 0.705198904352585  C 0.746483308022164 0.705198904352585  15.3030579763815 0.705198904352585  15.3030579763815 0.705198904352585  C 15.3030579763815 0.705198904352585  15.3030579763815 5.05993871032655  15.3030579763815 5.05993871032655  C 15.3030579763815 5.05993871032655  0.746483308022164 5.05993871032655  0.746483308022164 5.05993871032655  Z " fill-rule="nonzero" fill="#dcdcdd" stroke="none" transform="matrix(1 0 0 1 1014 380 )" />
    <path d="M 0.746483308022164 5.05993871032655  C 0.746483308022164 5.05993871032655  0.746483308022164 0.705198904352585  0.746483308022164 0.705198904352585  C 0.746483308022164 0.705198904352585  15.3030579763815 0.705198904352585  15.3030579763815 0.705198904352585  C 15.3030579763815 0.705198904352585  15.3030579763815 5.05993871032655  15.3030579763815 5.05993871032655  C 15.3030579763815 5.05993871032655  0.746483308022164 5.05993871032655  0.746483308022164 5.05993871032655  Z " stroke-width="0.489296125709464" stroke="#dcdcdd" fill="none" transform="matrix(1 0 0 1 1014 380 )" mask="url(#clip3542)" />
  </g>
</svg>