<?xml version="1.0" encoding="utf-8"?>
<svg version="1.1" xmlns:xlink="http://www.w3.org/1999/xlink" width="18px" height="16px" xmlns="http://www.w3.org/2000/svg">
  <defs>
    <mask fill="white" id="clip7770">
      <path d="M 11.2633027522936 7.03853211009181  C 11.2633027522936 7.03853211009181  0.400917431192624 15.7724770642202  0.400917431192624 15.7724770642202  C 0.400917431192624 15.7724770642202  10.7495412844036 6.23119266055051  10.7495412844036 6.23119266055051  C 10.7495412844036 6.23119266055051  13.9788990825688 3.51559633027529  14.7128440366972 1.09357798165144  C 14.7128440366972 1.09357798165144  15.1532110091743 0.286238532110133  15.8871559633027 1.09357798165144  C 15.8871559633027 1.09357798165144  17.2816513761468 2.78165137614684  17.2816513761468 2.78165137614684  C 17.2816513761468 2.78165137614684  17.9422018348624 3.88256880733951  16.7678899082568 3.88256880733951  C 16.7678899082568 3.88256880733951  14.0522935779816 4.61651376146796  11.2633027522936 7.03853211009181  Z " fill-rule="evenodd" />
    </mask>
  </defs>
  <g transform="matrix(1 0 0 1 -433 -671 )">
    <path d="M 11.2633027522936 7.03853211009181  C 11.2633027522936 7.03853211009181  0.400917431192624 15.7724770642202  0.400917431192624 15.7724770642202  C 0.400917431192624 15.7724770642202  10.7495412844036 6.23119266055051  10.7495412844036 6.23119266055051  C 10.7495412844036 6.23119266055051  13.9788990825688 3.51559633027529  14.7128440366972 1.09357798165144  C 14.7128440366972 1.09357798165144  15.1532110091743 0.286238532110133  15.8871559633027 1.09357798165144  C 15.8871559633027 1.09357798165144  17.2816513761468 2.78165137614684  17.2816513761468 2.78165137614684  C 17.2816513761468 2.78165137614684  17.9422018348624 3.88256880733951  16.7678899082568 3.88256880733951  C 16.7678899082568 3.88256880733951  14.0522935779816 4.61651376146796  11.2633027522936 7.03853211009181  Z " fill-rule="nonzero" fill="#000000" stroke="none" transform="matrix(1 0 0 1 433 671 )" />
    <path d="M 11.2633027522936 7.03853211009181  C 11.2633027522936 7.03853211009181  0.400917431192624 15.7724770642202  0.400917431192624 15.7724770642202  C 0.400917431192624 15.7724770642202  10.7495412844036 6.23119266055051  10.7495412844036 6.23119266055051  C 10.7495412844036 6.23119266055051  13.9788990825688 3.51559633027529  14.7128440366972 1.09357798165144  C 14.7128440366972 1.09357798165144  15.1532110091743 0.286238532110133  15.8871559633027 1.09357798165144  C 15.8871559633027 1.09357798165144  17.2816513761468 2.78165137614684  17.2816513761468 2.78165137614684  C 17.2816513761468 2.78165137614684  17.9422018348624 3.88256880733951  16.7678899082568 3.88256880733951  C 16.7678899082568 3.88256880733951  14.0522935779816 4.61651376146796  11.2633027522936 7.03853211009181  Z " stroke-width="2" stroke="#000000" fill="none" transform="matrix(1 0 0 1 433 671 )" mask="url(#clip7770)" />
  </g>
</svg>