<?xml version="1.0" encoding="utf-8"?>
<svg version="1.1" xmlns:xlink="http://www.w3.org/1999/xlink" width="9px" height="5px" xmlns="http://www.w3.org/2000/svg">
  <defs>
    <mask fill="white" id="clip3838">
      <path d="M 0.734862385321094 4.6990825688074  C 0.734862385321094 4.6990825688074  0.734862385321094 0.735779816513798  0.734862385321094 0.735779816513798  C 0.734862385321094 0.735779816513798  8.14770642201836 0.735779816513798  8.14770642201836 0.735779816513798  C 8.14770642201836 0.735779816513798  8.14770642201836 4.6990825688074  8.14770642201836 4.6990825688074  C 8.14770642201836 4.6990825688074  0.734862385321094 4.6990825688074  0.734862385321094 4.6990825688074  Z " fill-rule="evenodd" />
    </mask>
  </defs>
  <g transform="matrix(1 0 0 1 -212 -405 )">
    <path d="M 0.734862385321094 4.6990825688074  C 0.734862385321094 4.6990825688074  0.734862385321094 0.735779816513798  0.734862385321094 0.735779816513798  C 0.734862385321094 0.735779816513798  8.14770642201836 0.735779816513798  8.14770642201836 0.735779816513798  C 8.14770642201836 0.735779816513798  8.14770642201836 4.6990825688074  8.14770642201836 4.6990825688074  C 8.14770642201836 4.6990825688074  0.734862385321094 4.6990825688074  0.734862385321094 4.6990825688074  Z " fill-rule="nonzero" fill="#000000" stroke="none" transform="matrix(1 0 0 1 212 405 )" />
    <path d="M 0.734862385321094 4.6990825688074  C 0.734862385321094 4.6990825688074  0.734862385321094 0.735779816513798  0.734862385321094 0.735779816513798  C 0.734862385321094 0.735779816513798  8.14770642201836 0.735779816513798  8.14770642201836 0.735779816513798  C 8.14770642201836 0.735779816513798  8.14770642201836 4.6990825688074  8.14770642201836 4.6990825688074  C 8.14770642201836 4.6990825688074  0.734862385321094 4.6990825688074  0.734862385321094 4.6990825688074  Z " stroke-width="1.46788990825688" stroke="#000000" fill="none" transform="matrix(1 0 0 1 212 405 )" mask="url(#clip3838)" />
  </g>
</svg>