<?xml version="1.0" encoding="utf-8"?>
<svg version="1.1" xmlns:xlink="http://www.w3.org/1999/xlink" width="36px" height="21px" xmlns="http://www.w3.org/2000/svg">
  <defs>
    <mask fill="white" id="clip8101">
      <path d="M 18.1525992607851 20.4360854993173  C 8.6113148571153 20.4360854993173  0.58685028049922 16.1058102699595  0.58685028049922 10.674617609409  C 0.58685028049922 5.31681944427146  8.6113148571153 0.668501656646072  18.1525992607851 0.668501656646072  C 27.6938836644549 0.668501656646072  35.4737001782162 5.31681944427146  35.4737001782162 10.674617609409  C 35.4737001782162 16.1058102699595  27.6938836644549 20.4360854993173  18.1525992607851 20.4360854993173  Z " fill-rule="evenodd" />
    </mask>
  </defs>
  <g transform="matrix(1 0 0 1 -1135 -373 )">
    <path d="M 18.1525992607851 20.4360854993173  C 8.6113148571153 20.4360854993173  0.58685028049922 16.1058102699595  0.58685028049922 10.674617609409  C 0.58685028049922 5.31681944427146  8.6113148571153 0.668501656646072  18.1525992607851 0.668501656646072  C 27.6938836644549 0.668501656646072  35.4737001782162 5.31681944427146  35.4737001782162 10.674617609409  C 35.4737001782162 16.1058102699595  27.6938836644549 20.4360854993173  18.1525992607851 20.4360854993173  Z " fill-rule="nonzero" fill="#deb887" stroke="none" transform="matrix(1 0 0 1 1135 373 )" />
    <path d="M 18.1525992607851 20.4360854993173  C 8.6113148571153 20.4360854993173  0.58685028049922 16.1058102699595  0.58685028049922 10.674617609409  C 0.58685028049922 5.31681944427146  8.6113148571153 0.668501656646072  18.1525992607851 0.668501656646072  C 27.6938836644549 0.668501656646072  35.4737001782162 5.31681944427146  35.4737001782162 10.674617609409  C 35.4737001782162 16.1058102699595  27.6938836644549 20.4360854993173  18.1525992607851 20.4360854993173  Z " stroke-width="0.489296125709464" stroke="#deb887" fill="none" transform="matrix(1 0 0 1 1135 373 )" mask="url(#clip8101)" />
  </g>
</svg>