<?xml version="1.0" encoding="utf-8"?>
<svg version="1.1" xmlns:xlink="http://www.w3.org/1999/xlink" width="3px" height="3px" xmlns="http://www.w3.org/2000/svg">
  <defs>
    <mask fill="white" id="clip4301">
      <path d="M 0.225382390590994 2.85993871032645  C 0.225382390590994 2.85993871032645  0.225382390590994 0.780428262150622  0.225382390590994 0.780428262150622  C 0.225382390590994 0.780428262150622  2.01131485711539 0.780428262150622  2.01131485711539 0.780428262150622  C 2.01131485711539 0.780428262150622  2.01131485711539 2.85993871032645  2.01131485711539 2.85993871032645  C 2.01131485711539 2.85993871032645  0.225382390590994 2.85993871032645  0.225382390590994 2.85993871032645  Z " fill-rule="evenodd" />
    </mask>
  </defs>
  <g transform="matrix(1 0 0 1 -1147 -296 )">
    <path d="M 0.225382390590994 2.85993871032645  C 0.225382390590994 2.85993871032645  0.225382390590994 0.780428262150622  0.225382390590994 0.780428262150622  C 0.225382390590994 0.780428262150622  2.01131485711539 0.780428262150622  2.01131485711539 0.780428262150622  C 2.01131485711539 0.780428262150622  2.01131485711539 2.85993871032645  2.01131485711539 2.85993871032645  C 2.01131485711539 2.85993871032645  0.225382390590994 2.85993871032645  0.225382390590994 2.85993871032645  Z " fill-rule="nonzero" fill="#9e9f9f" stroke="none" transform="matrix(1 0 0 1 1147 296 )" />
    <path d="M 0.225382390590994 2.85993871032645  C 0.225382390590994 2.85993871032645  0.225382390590994 0.780428262150622  0.225382390590994 0.780428262150622  C 0.225382390590994 0.780428262150622  2.01131485711539 0.780428262150622  2.01131485711539 0.780428262150622  C 2.01131485711539 0.780428262150622  2.01131485711539 2.85993871032645  2.01131485711539 2.85993871032645  C 2.01131485711539 2.85993871032645  0.225382390590994 2.85993871032645  0.225382390590994 2.85993871032645  Z " stroke-width="0.489296125709464" stroke="#9e9f9f" fill="none" transform="matrix(1 0 0 1 1147 296 )" mask="url(#clip4301)" />
  </g>
</svg>