<?xml version="1.0" encoding="utf-8"?>
<svg version="1.1" xmlns:xlink="http://www.w3.org/1999/xlink" width="36px" height="21px" xmlns="http://www.w3.org/2000/svg">
  <defs>
    <mask fill="white" id="clip2521">
      <path d="M 18.1525992607851 20.2324157745466  C 8.6113148571153 20.2324157745466  0.58685028049922 15.9021405451888  0.58685028049922 10.4709478846384  C 0.58685028049922 5.11314971950077  8.6113148571153 0.464831931875409  18.1525992607851 0.464831931875409  C 27.6938836644549 0.464831931875409  35.4737001782162 5.11314971950077  35.4737001782162 10.4709478846384  C 35.4737001782162 15.9021405451888  27.6938836644549 20.2324157745466  18.1525992607851 20.2324157745466  Z " fill-rule="evenodd" />
    </mask>
  </defs>
  <g transform="matrix(1 0 0 1 -1135 -202 )">
    <path d="M 18.1525992607851 20.2324157745466  C 8.6113148571153 20.2324157745466  0.58685028049922 15.9021405451888  0.58685028049922 10.4709478846384  C 0.58685028049922 5.11314971950077  8.6113148571153 0.464831931875409  18.1525992607851 0.464831931875409  C 27.6938836644549 0.464831931875409  35.4737001782162 5.11314971950077  35.4737001782162 10.4709478846384  C 35.4737001782162 15.9021405451888  27.6938836644549 20.2324157745466  18.1525992607851 20.2324157745466  Z " fill-rule="nonzero" fill="#deb887" stroke="none" transform="matrix(1 0 0 1 1135 202 )" />
    <path d="M 18.1525992607851 20.2324157745466  C 8.6113148571153 20.2324157745466  0.58685028049922 15.9021405451888  0.58685028049922 10.4709478846384  C 0.58685028049922 5.11314971950077  8.6113148571153 0.464831931875409  18.1525992607851 0.464831931875409  C 27.6938836644549 0.464831931875409  35.4737001782162 5.11314971950077  35.4737001782162 10.4709478846384  C 35.4737001782162 15.9021405451888  27.6938836644549 20.2324157745466  18.1525992607851 20.2324157745466  Z " stroke-width="0.489296125709464" stroke="#deb887" fill="none" transform="matrix(1 0 0 1 1135 202 )" mask="url(#clip2521)" />
  </g>
</svg>