<?xml version="1.0" encoding="utf-8"?>
<svg version="1.1" xmlns:xlink="http://www.w3.org/1999/xlink" width="8px" height="8px" xmlns="http://www.w3.org/2000/svg">
  <defs>
    <mask fill="white" id="clip3537">
      <path d="M 5.46819559106035 2.51437321627913  C 5.46819559106035 2.51437321627913  7.22966348096861 1.3400612896736  7.22966348096861 1.3400612896736  C 7.22966348096861 1.3400612896736  7.52324146261998 1.78042826215068  7.52324146261998 1.78042826215068  C 7.52324146261998 1.78042826215068  5.76177357271172 2.9547401887562  5.76177357271172 2.9547401887562  C 5.90856256353743 3.10152917958186  5.90856256353743 3.56636072867514  5.90856256353743 3.78654421491365  C 5.90856256353743 3.78654421491365  7.96360843509706 4.15351669197787  7.96360843509706 4.15351669197787  C 7.96360843509706 4.15351669197787  7.8902139396842 4.66727815986781  7.8902139396842 4.66727815986781  C 7.8902139396842 4.66727815986781  5.83516806812457 4.30030568280358  5.83516806812457 4.30030568280358  C 5.76177357271172 4.44709467362924  5.68837907729889 4.66727815986781  5.54159008647321 4.74067265528066  C 5.54159008647321 4.74067265528066  6.7159020130787 6.50214054518892  6.7159020130787 6.50214054518892  C 6.7159020130787 6.50214054518892  6.27553504060162 6.79571852684029  6.27553504060162 6.79571852684029  C 6.27553504060162 6.79571852684029  5.10122311399613 5.03425063693203  5.10122311399613 5.03425063693203  C 4.95443412317044 5.18103962775768  4.7342506369319 5.18103962775768  4.51406715069339 5.18103962775768  C 4.51406715069339 5.18103962775768  3.90244661077443 7.23608549931731  3.90244661077443 7.23608549931731  C 3.90244661077443 7.23608549931731  3.38868514288453 7.16269100390451  3.38868514288453 7.16269100390451  C 3.38868514288453 7.16269100390451  3.75565761994875 5.10764513234483  3.75565761994875 5.10764513234483  C 3.60886862912307 5.03425063693203  3.38868514288453 4.96085614151917  3.24189615205884 4.81406715069346  C 3.24189615205884 4.81406715069346  1.55382275756341 5.98837907729899  1.55382275756341 5.98837907729899  C 1.55382275756341 5.98837907729899  1.26024477591204 5.54801210482191  1.26024477591204 5.54801210482191  C 1.26024477591204 5.54801210482191  2.94831817040745 4.37370017821644  2.94831817040745 4.37370017821644  C 2.87492367499462 4.22691118739073  2.87492367499462 4.00672770115222  2.87492367499462 3.78654421491365  C 2.87492367499462 3.78654421491365  0.819877803434991 3.17492367499472  0.819877803434991 3.17492367499472  C 0.819877803434991 3.17492367499472  0.893272298847819 2.66116220710478  0.893272298847819 2.66116220710478  C 0.893272298847819 2.66116220710478  2.94831817040745 3.028134684169  2.94831817040745 3.028134684169  C 3.0217126658203 2.88134569334335  3.09510716123316 2.66116220710478  3.24189615205884 2.51437321627913  C 3.24189615205884 2.51437321627913  2.06758422545332 0.826299821783721  2.06758422545332 0.826299821783721  C 2.06758422545332 0.826299821783721  2.5079511979304 0.532721840132353  2.5079511979304 0.532721840132353  C 2.5079511979304 0.532721840132353  3.68226312453589 2.22079523462776  3.68226312453589 2.22079523462776  C 3.82905211536158 2.1474007392149  4.29388366445485 2.1474007392149  4.51406715069339 2.1474007392149  C 4.51406715069339 2.1474007392149  4.88103962775759 0.0923548676552741  4.88103962775759 0.0923548676552741  C 4.88103962775759 0.0923548676552741  5.39480109564752 0.16574936306813  5.39480109564752 0.16574936306813  C 5.39480109564752 0.16574936306813  5.0278286185833 2.22079523462776  5.0278286185833 2.22079523462776  C 5.17461760940898 2.29418973004056  5.39480109564752 2.36758422545341  5.46819559106035 2.51437321627913  Z " fill-rule="evenodd" />
    </mask>
  </defs>
  <g transform="matrix(1 0 0 1 -1014 -386 )">
    <path d="M 5.46819559106035 2.51437321627913  C 5.46819559106035 2.51437321627913  7.22966348096861 1.3400612896736  7.22966348096861 1.3400612896736  C 7.22966348096861 1.3400612896736  7.52324146261998 1.78042826215068  7.52324146261998 1.78042826215068  C 7.52324146261998 1.78042826215068  5.76177357271172 2.9547401887562  5.76177357271172 2.9547401887562  C 5.90856256353743 3.10152917958186  5.90856256353743 3.56636072867514  5.90856256353743 3.78654421491365  C 5.90856256353743 3.78654421491365  7.96360843509706 4.15351669197787  7.96360843509706 4.15351669197787  C 7.96360843509706 4.15351669197787  7.8902139396842 4.66727815986781  7.8902139396842 4.66727815986781  C 7.8902139396842 4.66727815986781  5.83516806812457 4.30030568280358  5.83516806812457 4.30030568280358  C 5.76177357271172 4.44709467362924  5.68837907729889 4.66727815986781  5.54159008647321 4.74067265528066  C 5.54159008647321 4.74067265528066  6.7159020130787 6.50214054518892  6.7159020130787 6.50214054518892  C 6.7159020130787 6.50214054518892  6.27553504060162 6.79571852684029  6.27553504060162 6.79571852684029  C 6.27553504060162 6.79571852684029  5.10122311399613 5.03425063693203  5.10122311399613 5.03425063693203  C 4.95443412317044 5.18103962775768  4.7342506369319 5.18103962775768  4.51406715069339 5.18103962775768  C 4.51406715069339 5.18103962775768  3.90244661077443 7.23608549931731  3.90244661077443 7.23608549931731  C 3.90244661077443 7.23608549931731  3.38868514288453 7.16269100390451  3.38868514288453 7.16269100390451  C 3.38868514288453 7.16269100390451  3.75565761994875 5.10764513234483  3.75565761994875 5.10764513234483  C 3.60886862912307 5.03425063693203  3.38868514288453 4.96085614151917  3.24189615205884 4.81406715069346  C 3.24189615205884 4.81406715069346  1.55382275756341 5.98837907729899  1.55382275756341 5.98837907729899  C 1.55382275756341 5.98837907729899  1.26024477591204 5.54801210482191  1.26024477591204 5.54801210482191  C 1.26024477591204 5.54801210482191  2.94831817040745 4.37370017821644  2.94831817040745 4.37370017821644  C 2.87492367499462 4.22691118739073  2.87492367499462 4.00672770115222  2.87492367499462 3.78654421491365  C 2.87492367499462 3.78654421491365  0.819877803434991 3.17492367499472  0.819877803434991 3.17492367499472  C 0.819877803434991 3.17492367499472  0.893272298847819 2.66116220710478  0.893272298847819 2.66116220710478  C 0.893272298847819 2.66116220710478  2.94831817040745 3.028134684169  2.94831817040745 3.028134684169  C 3.0217126658203 2.88134569334335  3.09510716123316 2.66116220710478  3.24189615205884 2.51437321627913  C 3.24189615205884 2.51437321627913  2.06758422545332 0.826299821783721  2.06758422545332 0.826299821783721  C 2.06758422545332 0.826299821783721  2.5079511979304 0.532721840132353  2.5079511979304 0.532721840132353  C 2.5079511979304 0.532721840132353  3.68226312453589 2.22079523462776  3.68226312453589 2.22079523462776  C 3.82905211536158 2.1474007392149  4.29388366445485 2.1474007392149  4.51406715069339 2.1474007392149  C 4.51406715069339 2.1474007392149  4.88103962775759 0.0923548676552741  4.88103962775759 0.0923548676552741  C 4.88103962775759 0.0923548676552741  5.39480109564752 0.16574936306813  5.39480109564752 0.16574936306813  C 5.39480109564752 0.16574936306813  5.0278286185833 2.22079523462776  5.0278286185833 2.22079523462776  C 5.17461760940898 2.29418973004056  5.39480109564752 2.36758422545341  5.46819559106035 2.51437321627913  Z " fill-rule="nonzero" fill="#3e3938" stroke="none" transform="matrix(1 0 0 1 1014 386 )" />
    <path d="M 5.46819559106035 2.51437321627913  C 5.46819559106035 2.51437321627913  7.22966348096861 1.3400612896736  7.22966348096861 1.3400612896736  C 7.22966348096861 1.3400612896736  7.52324146261998 1.78042826215068  7.52324146261998 1.78042826215068  C 7.52324146261998 1.78042826215068  5.76177357271172 2.9547401887562  5.76177357271172 2.9547401887562  C 5.90856256353743 3.10152917958186  5.90856256353743 3.56636072867514  5.90856256353743 3.78654421491365  C 5.90856256353743 3.78654421491365  7.96360843509706 4.15351669197787  7.96360843509706 4.15351669197787  C 7.96360843509706 4.15351669197787  7.8902139396842 4.66727815986781  7.8902139396842 4.66727815986781  C 7.8902139396842 4.66727815986781  5.83516806812457 4.30030568280358  5.83516806812457 4.30030568280358  C 5.76177357271172 4.44709467362924  5.68837907729889 4.66727815986781  5.54159008647321 4.74067265528066  C 5.54159008647321 4.74067265528066  6.7159020130787 6.50214054518892  6.7159020130787 6.50214054518892  C 6.7159020130787 6.50214054518892  6.27553504060162 6.79571852684029  6.27553504060162 6.79571852684029  C 6.27553504060162 6.79571852684029  5.10122311399613 5.03425063693203  5.10122311399613 5.03425063693203  C 4.95443412317044 5.18103962775768  4.7342506369319 5.18103962775768  4.51406715069339 5.18103962775768  C 4.51406715069339 5.18103962775768  3.90244661077443 7.23608549931731  3.90244661077443 7.23608549931731  C 3.90244661077443 7.23608549931731  3.38868514288453 7.16269100390451  3.38868514288453 7.16269100390451  C 3.38868514288453 7.16269100390451  3.75565761994875 5.10764513234483  3.75565761994875 5.10764513234483  C 3.60886862912307 5.03425063693203  3.38868514288453 4.96085614151917  3.24189615205884 4.81406715069346  C 3.24189615205884 4.81406715069346  1.55382275756341 5.98837907729899  1.55382275756341 5.98837907729899  C 1.55382275756341 5.98837907729899  1.26024477591204 5.54801210482191  1.26024477591204 5.54801210482191  C 1.26024477591204 5.54801210482191  2.94831817040745 4.37370017821644  2.94831817040745 4.37370017821644  C 2.87492367499462 4.22691118739073  2.87492367499462 4.00672770115222  2.87492367499462 3.78654421491365  C 2.87492367499462 3.78654421491365  0.819877803434991 3.17492367499472  0.819877803434991 3.17492367499472  C 0.819877803434991 3.17492367499472  0.893272298847819 2.66116220710478  0.893272298847819 2.66116220710478  C 0.893272298847819 2.66116220710478  2.94831817040745 3.028134684169  2.94831817040745 3.028134684169  C 3.0217126658203 2.88134569334335  3.09510716123316 2.66116220710478  3.24189615205884 2.51437321627913  C 3.24189615205884 2.51437321627913  2.06758422545332 0.826299821783721  2.06758422545332 0.826299821783721  C 2.06758422545332 0.826299821783721  2.5079511979304 0.532721840132353  2.5079511979304 0.532721840132353  C 2.5079511979304 0.532721840132353  3.68226312453589 2.22079523462776  3.68226312453589 2.22079523462776  C 3.82905211536158 2.1474007392149  4.29388366445485 2.1474007392149  4.51406715069339 2.1474007392149  C 4.51406715069339 2.1474007392149  4.88103962775759 0.0923548676552741  4.88103962775759 0.0923548676552741  C 4.88103962775759 0.0923548676552741  5.39480109564752 0.16574936306813  5.39480109564752 0.16574936306813  C 5.39480109564752 0.16574936306813  5.0278286185833 2.22079523462776  5.0278286185833 2.22079523462776  C 5.17461760940898 2.29418973004056  5.39480109564752 2.36758422545341  5.46819559106035 2.51437321627913  Z " stroke-width="0.489296125709464" stroke="#3e3938" fill="none" transform="matrix(1 0 0 1 1014 386 )" mask="url(#clip3537)" />
  </g>
</svg>