<?xml version="1.0" encoding="utf-8"?>
<svg version="1.1" xmlns:xlink="http://www.w3.org/1999/xlink" width="15px" height="14px" xmlns="http://www.w3.org/2000/svg">
  <defs>
    <mask fill="white" id="clip2444">
      <path d="M 0.479816513761534 0.634862385321128  C 0.479816513761534 0.634862385321128  14.7183486238532 3.27706422018349  14.7183486238532 3.27706422018349  C 14.7183486238532 3.27706422018349  14.7183486238532 8.9284403669725  14.7183486238532 8.9284403669725  C 14.7183486238532 8.9284403669725  0.479816513761534 13.9926605504588  0.479816513761534 13.9926605504588  C 0.479816513761534 13.9926605504588  0.479816513761534 0.634862385321128  0.479816513761534 0.634862385321128  Z " fill-rule="evenodd" />
    </mask>
  </defs>
  <g transform="matrix(1 0 0 1 -1163 -306 )">
    <path d="M 0.479816513761534 0.634862385321128  C 0.479816513761534 0.634862385321128  14.7183486238532 3.27706422018349  14.7183486238532 3.27706422018349  C 14.7183486238532 3.27706422018349  14.7183486238532 8.9284403669725  14.7183486238532 8.9284403669725  C 14.7183486238532 8.9284403669725  0.479816513761534 13.9926605504588  0.479816513761534 13.9926605504588  C 0.479816513761534 13.9926605504588  0.479816513761534 0.634862385321128  0.479816513761534 0.634862385321128  Z " fill-rule="nonzero" fill="#007fcc" stroke="none" transform="matrix(1 0 0 1 1163 306 )" />
    <path d="M 0.479816513761534 0.634862385321128  C 0.479816513761534 0.634862385321128  14.7183486238532 3.27706422018349  14.7183486238532 3.27706422018349  C 14.7183486238532 3.27706422018349  14.7183486238532 8.9284403669725  14.7183486238532 8.9284403669725  C 14.7183486238532 8.9284403669725  0.479816513761534 13.9926605504588  0.479816513761534 13.9926605504588  C 0.479816513761534 13.9926605504588  0.479816513761534 0.634862385321128  0.479816513761534 0.634862385321128  Z " stroke-width="1.46788990825688" stroke="#007fcc" fill="none" transform="matrix(1 0 0 1 1163 306 )" mask="url(#clip2444)" />
  </g>
</svg>