<?xml version="1.0" encoding="utf-8"?>
<svg version="1.1" xmlns:xlink="http://www.w3.org/1999/xlink" width="6px" height="4px" xmlns="http://www.w3.org/2000/svg">
  <defs>
    <mask fill="white" id="clip2432">
      <path d="M 3.50366972477059 3.97431192660554  C 2.10917431192661 3.97431192660554  0.274311926605606 3.3871559633028  0.274311926605606 2.5798165137615  C 0.274311926605606 1.84587155963305  2.10917431192661 0.451376146789016  3.50366972477059 0.451376146789016  C 4.89816513761457 0.451376146789016  5.99908256880735 1.84587155963305  5.99908256880735 2.5798165137615  C 5.99908256880735 3.3871559633028  4.89816513761457 3.97431192660554  3.50366972477059 3.97431192660554  Z " fill-rule="evenodd" />
    </mask>
  </defs>
  <g transform="matrix(1 0 0 1 -1156 -386 )">
    <path d="M 3.50366972477059 3.97431192660554  C 2.10917431192661 3.97431192660554  0.274311926605606 3.3871559633028  0.274311926605606 2.5798165137615  C 0.274311926605606 1.84587155963305  2.10917431192661 0.451376146789016  3.50366972477059 0.451376146789016  C 4.89816513761457 0.451376146789016  5.99908256880735 1.84587155963305  5.99908256880735 2.5798165137615  C 5.99908256880735 3.3871559633028  4.89816513761457 3.97431192660554  3.50366972477059 3.97431192660554  Z " fill-rule="nonzero" fill="#ffffff" stroke="none" transform="matrix(1 0 0 1 1156 386 )" />
    <path d="M 3.50366972477059 3.97431192660554  C 2.10917431192661 3.97431192660554  0.274311926605606 3.3871559633028  0.274311926605606 2.5798165137615  C 0.274311926605606 1.84587155963305  2.10917431192661 0.451376146789016  3.50366972477059 0.451376146789016  C 4.89816513761457 0.451376146789016  5.99908256880735 1.84587155963305  5.99908256880735 2.5798165137615  C 5.99908256880735 3.3871559633028  4.89816513761457 3.97431192660554  3.50366972477059 3.97431192660554  Z " stroke-width="1.46788990825688" stroke="#e35020" fill="none" transform="matrix(1 0 0 1 1156 386 )" mask="url(#clip2432)" />
  </g>
</svg>