<?xml version="1.0" encoding="utf-8"?>
<svg version="1.1" xmlns:xlink="http://www.w3.org/1999/xlink" width="6px" height="6px" xmlns="http://www.w3.org/2000/svg">
  <defs>
    <mask fill="white" id="clip9251">
      <path d="M 3.21743119266051 5.68807339449546  C 2.04311926605502 5.68807339449546  0.281651376146755 4.7339449541285  0.281651376146755 3.48623853211018  C 0.281651376146755 2.31192660550465  2.04311926605502 0.550458715596392  3.21743119266051 0.550458715596392  C 4.46513761467887 0.550458715596392  5.41926605504585 2.31192660550465  5.41926605504585 3.48623853211018  C 5.41926605504585 4.7339449541285  4.46513761467887 5.68807339449546  3.21743119266051 5.68807339449546  Z " fill-rule="evenodd" />
    </mask>
  </defs>
  <g transform="matrix(1 0 0 1 -1018 -395 )">
    <path d="M 3.21743119266051 5.68807339449546  C 2.04311926605502 5.68807339449546  0.281651376146755 4.7339449541285  0.281651376146755 3.48623853211018  C 0.281651376146755 2.31192660550465  2.04311926605502 0.550458715596392  3.21743119266051 0.550458715596392  C 4.46513761467887 0.550458715596392  5.41926605504585 2.31192660550465  5.41926605504585 3.48623853211018  C 5.41926605504585 4.7339449541285  4.46513761467887 5.68807339449546  3.21743119266051 5.68807339449546  Z " fill-rule="nonzero" fill="#ffffff" stroke="none" transform="matrix(1 0 0 1 1018 395 )" />
    <path d="M 3.21743119266051 5.68807339449546  C 2.04311926605502 5.68807339449546  0.281651376146755 4.7339449541285  0.281651376146755 3.48623853211018  C 0.281651376146755 2.31192660550465  2.04311926605502 0.550458715596392  3.21743119266051 0.550458715596392  C 4.46513761467887 0.550458715596392  5.41926605504585 2.31192660550465  5.41926605504585 3.48623853211018  C 5.41926605504585 4.7339449541285  4.46513761467887 5.68807339449546  3.21743119266051 5.68807339449546  Z " stroke-width="1.46788990825688" stroke="#e35020" fill="none" transform="matrix(1 0 0 1 1018 395 )" mask="url(#clip9251)" />
  </g>
</svg>