<?xml version="1.0" encoding="utf-8"?>
<svg version="1.1" xmlns:xlink="http://www.w3.org/1999/xlink" width="26px" height="25px" xmlns="http://www.w3.org/2000/svg">
  <defs>
    <mask fill="white" id="clip3536">
      <path d="M 12.8877677116919 24.331498343354  C 6.28226312453592 24.331498343354  0.924464959398307 18.7290521153616  0.924464959398307 12.0501530327928  C 0.924464959398307 5.44464844563686  6.28226312453592 0.0868502804992772  12.8877677116919 0.0868502804992772  C 19.5666667942607 0.0868502804992772  25.169113022253 5.44464844563686  25.169113022253 12.0501530327928  C 25.169113022253 18.7290521153616  19.5666667942607 24.331498343354  12.8877677116919 24.331498343354  Z " fill-rule="evenodd" />
    </mask>
  </defs>
  <g transform="matrix(1 0 0 1 -1009 -377 )">
    <path d="M 12.8877677116919 24.331498343354  C 6.28226312453592 24.331498343354  0.924464959398307 18.7290521153616  0.924464959398307 12.0501530327928  C 0.924464959398307 5.44464844563686  6.28226312453592 0.0868502804992772  12.8877677116919 0.0868502804992772  C 19.5666667942607 0.0868502804992772  25.169113022253 5.44464844563686  25.169113022253 12.0501530327928  C 25.169113022253 18.7290521153616  19.5666667942607 24.331498343354  12.8877677116919 24.331498343354  Z " fill-rule="nonzero" fill="#ffffff" stroke="none" transform="matrix(1 0 0 1 1009 377 )" />
    <path d="M 12.8877677116919 24.331498343354  C 6.28226312453592 24.331498343354  0.924464959398307 18.7290521153616  0.924464959398307 12.0501530327928  C 0.924464959398307 5.44464844563686  6.28226312453592 0.0868502804992772  12.8877677116919 0.0868502804992772  C 19.5666667942607 0.0868502804992772  25.169113022253 5.44464844563686  25.169113022253 12.0501530327928  C 25.169113022253 18.7290521153616  19.5666667942607 24.331498343354  12.8877677116919 24.331498343354  Z " stroke-width="0.489296125709464" stroke="#ffffff" fill="none" transform="matrix(1 0 0 1 1009 377 )" mask="url(#clip3536)" />
  </g>
</svg>