<?xml version="1.0" encoding="utf-8"?>
<svg version="1.1" xmlns:xlink="http://www.w3.org/1999/xlink" width="7px" height="4px" xmlns="http://www.w3.org/2000/svg">
  <defs>
    <mask fill="white" id="clip2109">
      <path d="M 0.184403669724759 3.82018348623853  C 0.184403669724759 3.82018348623853  0.184403669724759 0.994495412844117  0.184403669724759 0.994495412844117  C 0.184403669724759 0.994495412844117  6.31284403669719 0.994495412844117  6.31284403669719 0.994495412844117  C 6.31284403669719 0.994495412844117  6.31284403669719 3.82018348623853  6.31284403669719 3.82018348623853  C 6.31284403669719 3.82018348623853  0.184403669724759 3.82018348623853  0.184403669724759 3.82018348623853  Z " fill-rule="evenodd" />
    </mask>
  </defs>
  <g transform="matrix(1 0 0 1 -441 -690 )">
    <path d="M 0.184403669724759 3.82018348623853  C 0.184403669724759 3.82018348623853  0.184403669724759 0.994495412844117  0.184403669724759 0.994495412844117  C 0.184403669724759 0.994495412844117  6.31284403669719 0.994495412844117  6.31284403669719 0.994495412844117  C 6.31284403669719 0.994495412844117  6.31284403669719 3.82018348623853  6.31284403669719 3.82018348623853  C 6.31284403669719 3.82018348623853  0.184403669724759 3.82018348623853  0.184403669724759 3.82018348623853  Z " fill-rule="nonzero" fill="#ffffff" stroke="none" fill-opacity="0" transform="matrix(1 0 0 1 441 690 )" />
    <path d="M 0.184403669724759 3.82018348623853  C 0.184403669724759 3.82018348623853  0.184403669724759 0.994495412844117  0.184403669724759 0.994495412844117  C 0.184403669724759 0.994495412844117  6.31284403669719 0.994495412844117  6.31284403669719 0.994495412844117  C 6.31284403669719 0.994495412844117  6.31284403669719 3.82018348623853  6.31284403669719 3.82018348623853  C 6.31284403669719 3.82018348623853  0.184403669724759 3.82018348623853  0.184403669724759 3.82018348623853  Z " stroke-width="1.10091743119266" stroke="#ffffff" fill="none" transform="matrix(1 0 0 1 441 690 )" mask="url(#clip2109)" />
  </g>
</svg>