<?xml version="1.0" encoding="utf-8"?>
<svg version="1.1" xmlns:xlink="http://www.w3.org/1999/xlink" width="8px" height="5px" xmlns="http://www.w3.org/2000/svg">
  <defs>
    <mask fill="white" id="clip3922">
      <path d="M 0.534862385321048 4.3889908256881  C 0.534862385321048 4.3889908256881  0.534862385321048 0.425688073394554  0.534862385321048 0.425688073394554  C 0.534862385321048 0.425688073394554  7.94770642201831 0.425688073394554  7.94770642201831 0.425688073394554  C 7.94770642201831 0.425688073394554  7.94770642201831 4.3889908256881  7.94770642201831 4.3889908256881  C 7.94770642201831 4.3889908256881  0.534862385321048 4.3889908256881  0.534862385321048 4.3889908256881  Z " fill-rule="evenodd" />
    </mask>
  </defs>
  <g transform="matrix(1 0 0 1 -440 -690 )">
    <path d="M 0.534862385321048 4.3889908256881  C 0.534862385321048 4.3889908256881  0.534862385321048 0.425688073394554  0.534862385321048 0.425688073394554  C 0.534862385321048 0.425688073394554  7.94770642201831 0.425688073394554  7.94770642201831 0.425688073394554  C 7.94770642201831 0.425688073394554  7.94770642201831 4.3889908256881  7.94770642201831 4.3889908256881  C 7.94770642201831 4.3889908256881  0.534862385321048 4.3889908256881  0.534862385321048 4.3889908256881  Z " fill-rule="nonzero" fill="#000000" stroke="none" transform="matrix(1 0 0 1 440 690 )" />
    <path d="M 0.534862385321048 4.3889908256881  C 0.534862385321048 4.3889908256881  0.534862385321048 0.425688073394554  0.534862385321048 0.425688073394554  C 0.534862385321048 0.425688073394554  7.94770642201831 0.425688073394554  7.94770642201831 0.425688073394554  C 7.94770642201831 0.425688073394554  7.94770642201831 4.3889908256881  7.94770642201831 4.3889908256881  C 7.94770642201831 4.3889908256881  0.534862385321048 4.3889908256881  0.534862385321048 4.3889908256881  Z " stroke-width="1.46788990825688" stroke="#000000" fill="none" transform="matrix(1 0 0 1 440 690 )" mask="url(#clip3922)" />
  </g>
</svg>