<?xml version="1.0" encoding="utf-8"?>
<svg version="1.1" xmlns:xlink="http://www.w3.org/1999/xlink" width="18px" height="4px" xmlns="http://www.w3.org/2000/svg">
  <defs>
    <mask fill="white" id="clip4250">
      <path d="M 0.834556702517602 3.0177368754641  C 0.834556702517602 3.0177368754641  0.834556702517602 0.130886977746968  0.834556702517602 0.130886977746968  C 0.834556702517602 0.130886977746968  17.225993756198 0.130886977746968  17.225993756198 0.130886977746968  C 17.225993756198 0.130886977746968  17.225993756198 3.0177368754641  17.225993756198 3.0177368754641  C 17.225993756198 3.0177368754641  0.834556702517602 3.0177368754641  0.834556702517602 3.0177368754641  Z " fill-rule="evenodd" />
    </mask>
  </defs>
  <g transform="matrix(1 0 0 1 -1144 -378 )">
    <path d="M 0.834556702517602 3.0177368754641  C 0.834556702517602 3.0177368754641  0.834556702517602 0.130886977746968  0.834556702517602 0.130886977746968  C 0.834556702517602 0.130886977746968  17.225993756198 0.130886977746968  17.225993756198 0.130886977746968  C 17.225993756198 0.130886977746968  17.225993756198 3.0177368754641  17.225993756198 3.0177368754641  C 17.225993756198 3.0177368754641  0.834556702517602 3.0177368754641  0.834556702517602 3.0177368754641  Z " fill-rule="nonzero" fill="#dcdcdd" stroke="none" transform="matrix(1 0 0 1 1144 378 )" />
    <path d="M 0.834556702517602 3.0177368754641  C 0.834556702517602 3.0177368754641  0.834556702517602 0.130886977746968  0.834556702517602 0.130886977746968  C 0.834556702517602 0.130886977746968  17.225993756198 0.130886977746968  17.225993756198 0.130886977746968  C 17.225993756198 0.130886977746968  17.225993756198 3.0177368754641  17.225993756198 3.0177368754641  C 17.225993756198 3.0177368754641  0.834556702517602 3.0177368754641  0.834556702517602 3.0177368754641  Z " stroke-width="0.489296125709464" stroke="#dcdcdd" fill="none" transform="matrix(1 0 0 1 1144 378 )" mask="url(#clip4250)" />
  </g>
</svg>