<?xml version="1.0" encoding="utf-8"?>
<svg version="1.1" xmlns:xlink="http://www.w3.org/1999/xlink" width="7px" height="4px" xmlns="http://www.w3.org/2000/svg">
  <defs>
    <mask fill="white" id="clip8200">
      <path d="M 4.07064220183474 3.92477064220185  C 2.67614678899076 3.92477064220185  0.841284403669761 3.33761467889909  0.841284403669761 2.53027522935781  C 0.841284403669761 1.79633027522937  2.67614678899076 0.401834862385329  4.07064220183474 0.401834862385329  C 5.46513761467872 0.401834862385329  6.56605504587151 1.79633027522937  6.56605504587151 2.53027522935781  C 6.56605504587151 3.33761467889909  5.46513761467872 3.92477064220185  4.07064220183474 3.92477064220185  Z " fill-rule="evenodd" />
    </mask>
  </defs>
  <g transform="matrix(1 0 0 1 -1159 -211 )">
    <path d="M 4.07064220183474 3.92477064220185  C 2.67614678899076 3.92477064220185  0.841284403669761 3.33761467889909  0.841284403669761 2.53027522935781  C 0.841284403669761 1.79633027522937  2.67614678899076 0.401834862385329  4.07064220183474 0.401834862385329  C 5.46513761467872 0.401834862385329  6.56605504587151 1.79633027522937  6.56605504587151 2.53027522935781  C 6.56605504587151 3.33761467889909  5.46513761467872 3.92477064220185  4.07064220183474 3.92477064220185  Z " fill-rule="nonzero" fill="#ffffff" stroke="none" transform="matrix(1 0 0 1 1159 211 )" />
    <path d="M 4.07064220183474 3.92477064220185  C 2.67614678899076 3.92477064220185  0.841284403669761 3.33761467889909  0.841284403669761 2.53027522935781  C 0.841284403669761 1.79633027522937  2.67614678899076 0.401834862385329  4.07064220183474 0.401834862385329  C 5.46513761467872 0.401834862385329  6.56605504587151 1.79633027522937  6.56605504587151 2.53027522935781  C 6.56605504587151 3.33761467889909  5.46513761467872 3.92477064220185  4.07064220183474 3.92477064220185  Z " stroke-width="1.46788990825688" stroke="#e35020" fill="none" transform="matrix(1 0 0 1 1159 211 )" mask="url(#clip8200)" />
  </g>
</svg>