<?xml version="1.0" encoding="utf-8"?>
<svg version="1.1" xmlns:xlink="http://www.w3.org/1999/xlink" width="9px" height="6px" xmlns="http://www.w3.org/2000/svg">
  <defs>
    <mask fill="white" id="clip8104">
      <path d="M 6.15076439839982 2.08501541811393  C 6.15076439839982 2.08501541811393  8.05902127913373 1.35107046398548  8.05902127913373 1.35107046398548  C 8.05902127913373 1.35107046398548  8.35259926078515 1.57125395022405  8.35259926078515 1.57125395022405  C 8.35259926078515 1.57125395022405  6.44434238005124 2.37859339976535  6.44434238005124 2.37859339976535  C 6.59113137087684 2.45198789517815  6.59113137087684 2.84342494885857  6.59113137087684 2.99021393968428  C 6.59113137087684 2.99021393968428  8.93975522408778 3.21039742592279  8.93975522408778 3.21039742592279  C 8.93975522408778 3.21039742592279  8.79296623326218 3.50397540757416  8.79296623326218 3.50397540757416  C 8.79296623326218 3.50397540757416  6.51773687546392 3.28379192133565  6.51773687546392 3.28379192133565  C 6.44434238005124 3.43058091216136  6.29755338922541 3.50397540757416  6.15076439839982 3.57736990298702  C 6.15076439839982 3.57736990298702  7.47186531583088 4.67828733417969  7.47186531583088 4.67828733417969  C 7.47186531583088 4.67828733417969  7.03149834335386 4.8984708204182  7.03149834335386 4.8984708204182  C 7.03149834335386 4.8984708204182  5.71039742592279 3.79755338922558  5.71039742592279 3.79755338922558  C 5.49021393968405 3.87094788463838  5.27003045344554 3.87094788463838  5.04984696720703 3.87094788463838  C 5.04984696720703 3.87094788463838  4.36483193187519 5.19204880206962  4.36483193187519 5.19204880206962  C 4.36483193187519 5.19204880206962  3.85107046398548 5.11865430665677  3.85107046398548 5.11865430665677  C 3.85107046398548 5.11865430665677  4.21804294104959 3.79755338922558  4.21804294104959 3.79755338922558  C 3.99785945481108 3.79755338922558  3.85107046398548 3.72415889381273  3.70428147315965 3.65076439839987  C 3.70428147315965 3.65076439839987  1.79602459242574 4.38470935252832  1.79602459242574 4.38470935252832  C 1.79602459242574 4.38470935252832  1.42905211536163 4.09113137087695  1.42905211536163 4.09113137087695  C 1.42905211536163 4.09113137087695  3.33730899609554 3.3571864167485  3.33730899609554 3.3571864167485  C 3.26391450068263 3.21039742592279  3.19052000526972 3.13700293050994  3.19052000526972 2.99021393968428  C 3.19052000526972 2.99021393968428  0.915290647471693 2.52538239059101  0.915290647471693 2.52538239059101  C 0.915290647471693 2.52538239059101  0.988685142884378 2.15840991352678  0.988685142884378 2.15840991352678  C 0.988685142884378 2.15840991352678  3.33730899609554 2.45198789517815  3.33730899609554 2.45198789517815  C 3.41070349150823 2.30519890435249  3.48409798692114 2.15840991352678  3.63088697774674 2.08501541811393  C 3.63088697774674 2.08501541811393  2.30978606031567 1.05749248233411  2.30978606031567 1.05749248233411  C 2.30978606031567 1.05749248233411  2.82354752820561 0.837308996095601  2.82354752820561 0.837308996095601  C 2.82354752820561 0.837308996095601  4.14464844563668 1.93822642728827  4.14464844563668 1.93822642728827  C 4.36483193187519 1.86483193187541  4.82966348096852 1.86483193187541  5.04984696720703 1.86483193187541  C 5.04984696720703 1.86483193187541  5.41681944427137 0.543731014444234  5.41681944427137 0.543731014444234  C 5.41681944427137 0.543731014444234  6.00397540757399 0.61712550985709  6.00397540757399 0.61712550985709  C 6.00397540757399 0.61712550985709  5.56360843509697 1.86483193187541  5.56360843509697 1.86483193187541  C 5.78379192133548 1.93822642728827  6.00397540757399 2.01162092270113  6.15076439839982 2.08501541811393  Z " fill-rule="evenodd" />
    </mask>
  </defs>
  <g transform="matrix(1 0 0 1 -1144 -381 )">
    <path d="M 6.15076439839982 2.08501541811393  C 6.15076439839982 2.08501541811393  8.05902127913373 1.35107046398548  8.05902127913373 1.35107046398548  C 8.05902127913373 1.35107046398548  8.35259926078515 1.57125395022405  8.35259926078515 1.57125395022405  C 8.35259926078515 1.57125395022405  6.44434238005124 2.37859339976535  6.44434238005124 2.37859339976535  C 6.59113137087684 2.45198789517815  6.59113137087684 2.84342494885857  6.59113137087684 2.99021393968428  C 6.59113137087684 2.99021393968428  8.93975522408778 3.21039742592279  8.93975522408778 3.21039742592279  C 8.93975522408778 3.21039742592279  8.79296623326218 3.50397540757416  8.79296623326218 3.50397540757416  C 8.79296623326218 3.50397540757416  6.51773687546392 3.28379192133565  6.51773687546392 3.28379192133565  C 6.44434238005124 3.43058091216136  6.29755338922541 3.50397540757416  6.15076439839982 3.57736990298702  C 6.15076439839982 3.57736990298702  7.47186531583088 4.67828733417969  7.47186531583088 4.67828733417969  C 7.47186531583088 4.67828733417969  7.03149834335386 4.8984708204182  7.03149834335386 4.8984708204182  C 7.03149834335386 4.8984708204182  5.71039742592279 3.79755338922558  5.71039742592279 3.79755338922558  C 5.49021393968405 3.87094788463838  5.27003045344554 3.87094788463838  5.04984696720703 3.87094788463838  C 5.04984696720703 3.87094788463838  4.36483193187519 5.19204880206962  4.36483193187519 5.19204880206962  C 4.36483193187519 5.19204880206962  3.85107046398548 5.11865430665677  3.85107046398548 5.11865430665677  C 3.85107046398548 5.11865430665677  4.21804294104959 3.79755338922558  4.21804294104959 3.79755338922558  C 3.99785945481108 3.79755338922558  3.85107046398548 3.72415889381273  3.70428147315965 3.65076439839987  C 3.70428147315965 3.65076439839987  1.79602459242574 4.38470935252832  1.79602459242574 4.38470935252832  C 1.79602459242574 4.38470935252832  1.42905211536163 4.09113137087695  1.42905211536163 4.09113137087695  C 1.42905211536163 4.09113137087695  3.33730899609554 3.3571864167485  3.33730899609554 3.3571864167485  C 3.26391450068263 3.21039742592279  3.19052000526972 3.13700293050994  3.19052000526972 2.99021393968428  C 3.19052000526972 2.99021393968428  0.915290647471693 2.52538239059101  0.915290647471693 2.52538239059101  C 0.915290647471693 2.52538239059101  0.988685142884378 2.15840991352678  0.988685142884378 2.15840991352678  C 0.988685142884378 2.15840991352678  3.33730899609554 2.45198789517815  3.33730899609554 2.45198789517815  C 3.41070349150823 2.30519890435249  3.48409798692114 2.15840991352678  3.63088697774674 2.08501541811393  C 3.63088697774674 2.08501541811393  2.30978606031567 1.05749248233411  2.30978606031567 1.05749248233411  C 2.30978606031567 1.05749248233411  2.82354752820561 0.837308996095601  2.82354752820561 0.837308996095601  C 2.82354752820561 0.837308996095601  4.14464844563668 1.93822642728827  4.14464844563668 1.93822642728827  C 4.36483193187519 1.86483193187541  4.82966348096852 1.86483193187541  5.04984696720703 1.86483193187541  C 5.04984696720703 1.86483193187541  5.41681944427137 0.543731014444234  5.41681944427137 0.543731014444234  C 5.41681944427137 0.543731014444234  6.00397540757399 0.61712550985709  6.00397540757399 0.61712550985709  C 6.00397540757399 0.61712550985709  5.56360843509697 1.86483193187541  5.56360843509697 1.86483193187541  C 5.78379192133548 1.93822642728827  6.00397540757399 2.01162092270113  6.15076439839982 2.08501541811393  Z " fill-rule="nonzero" fill="#3e3938" stroke="none" transform="matrix(1 0 0 1 1144 381 )" />
    <path d="M 6.15076439839982 2.08501541811393  C 6.15076439839982 2.08501541811393  8.05902127913373 1.35107046398548  8.05902127913373 1.35107046398548  C 8.05902127913373 1.35107046398548  8.35259926078515 1.57125395022405  8.35259926078515 1.57125395022405  C 8.35259926078515 1.57125395022405  6.44434238005124 2.37859339976535  6.44434238005124 2.37859339976535  C 6.59113137087684 2.45198789517815  6.59113137087684 2.84342494885857  6.59113137087684 2.99021393968428  C 6.59113137087684 2.99021393968428  8.93975522408778 3.21039742592279  8.93975522408778 3.21039742592279  C 8.93975522408778 3.21039742592279  8.79296623326218 3.50397540757416  8.79296623326218 3.50397540757416  C 8.79296623326218 3.50397540757416  6.51773687546392 3.28379192133565  6.51773687546392 3.28379192133565  C 6.44434238005124 3.43058091216136  6.29755338922541 3.50397540757416  6.15076439839982 3.57736990298702  C 6.15076439839982 3.57736990298702  7.47186531583088 4.67828733417969  7.47186531583088 4.67828733417969  C 7.47186531583088 4.67828733417969  7.03149834335386 4.8984708204182  7.03149834335386 4.8984708204182  C 7.03149834335386 4.8984708204182  5.71039742592279 3.79755338922558  5.71039742592279 3.79755338922558  C 5.49021393968405 3.87094788463838  5.27003045344554 3.87094788463838  5.04984696720703 3.87094788463838  C 5.04984696720703 3.87094788463838  4.36483193187519 5.19204880206962  4.36483193187519 5.19204880206962  C 4.36483193187519 5.19204880206962  3.85107046398548 5.11865430665677  3.85107046398548 5.11865430665677  C 3.85107046398548 5.11865430665677  4.21804294104959 3.79755338922558  4.21804294104959 3.79755338922558  C 3.99785945481108 3.79755338922558  3.85107046398548 3.72415889381273  3.70428147315965 3.65076439839987  C 3.70428147315965 3.65076439839987  1.79602459242574 4.38470935252832  1.79602459242574 4.38470935252832  C 1.79602459242574 4.38470935252832  1.42905211536163 4.09113137087695  1.42905211536163 4.09113137087695  C 1.42905211536163 4.09113137087695  3.33730899609554 3.3571864167485  3.33730899609554 3.3571864167485  C 3.26391450068263 3.21039742592279  3.19052000526972 3.13700293050994  3.19052000526972 2.99021393968428  C 3.19052000526972 2.99021393968428  0.915290647471693 2.52538239059101  0.915290647471693 2.52538239059101  C 0.915290647471693 2.52538239059101  0.988685142884378 2.15840991352678  0.988685142884378 2.15840991352678  C 0.988685142884378 2.15840991352678  3.33730899609554 2.45198789517815  3.33730899609554 2.45198789517815  C 3.41070349150823 2.30519890435249  3.48409798692114 2.15840991352678  3.63088697774674 2.08501541811393  C 3.63088697774674 2.08501541811393  2.30978606031567 1.05749248233411  2.30978606031567 1.05749248233411  C 2.30978606031567 1.05749248233411  2.82354752820561 0.837308996095601  2.82354752820561 0.837308996095601  C 2.82354752820561 0.837308996095601  4.14464844563668 1.93822642728827  4.14464844563668 1.93822642728827  C 4.36483193187519 1.86483193187541  4.82966348096852 1.86483193187541  5.04984696720703 1.86483193187541  C 5.04984696720703 1.86483193187541  5.41681944427137 0.543731014444234  5.41681944427137 0.543731014444234  C 5.41681944427137 0.543731014444234  6.00397540757399 0.61712550985709  6.00397540757399 0.61712550985709  C 6.00397540757399 0.61712550985709  5.56360843509697 1.86483193187541  5.56360843509697 1.86483193187541  C 5.78379192133548 1.93822642728827  6.00397540757399 2.01162092270113  6.15076439839982 2.08501541811393  Z " stroke-width="0.489296125709464" stroke="#3e3938" fill="none" transform="matrix(1 0 0 1 1144 381 )" mask="url(#clip8104)" />
  </g>
</svg>