<?xml version="1.0" encoding="utf-8"?>
<svg version="1.1" xmlns:xlink="http://www.w3.org/1999/xlink" width="2px" height="3px" xmlns="http://www.w3.org/2000/svg">
  <defs>
    <mask fill="white" id="clip6279">
      <path d="M 0.100611748389156 2.33700293050993  C 0.100611748389156 2.33700293050993  0.100611748389156 0.257492482334101  0.100611748389156 0.257492482334101  C 0.100611748389156 0.257492482334101  1.88654421491356 0.257492482334101  1.88654421491356 0.257492482334101  C 1.88654421491356 0.257492482334101  1.88654421491356 2.33700293050993  1.88654421491356 2.33700293050993  C 1.88654421491356 2.33700293050993  0.100611748389156 2.33700293050993  0.100611748389156 2.33700293050993  Z " fill-rule="evenodd" />
    </mask>
  </defs>
  <g transform="matrix(1 0 0 1 -1152 -207 )">
    <path d="M 0.100611748389156 2.33700293050993  C 0.100611748389156 2.33700293050993  0.100611748389156 0.257492482334101  0.100611748389156 0.257492482334101  C 0.100611748389156 0.257492482334101  1.88654421491356 0.257492482334101  1.88654421491356 0.257492482334101  C 1.88654421491356 0.257492482334101  1.88654421491356 2.33700293050993  1.88654421491356 2.33700293050993  C 1.88654421491356 2.33700293050993  0.100611748389156 2.33700293050993  0.100611748389156 2.33700293050993  Z " fill-rule="nonzero" fill="#9e9f9f" stroke="none" transform="matrix(1 0 0 1 1152 207 )" />
    <path d="M 0.100611748389156 2.33700293050993  C 0.100611748389156 2.33700293050993  0.100611748389156 0.257492482334101  0.100611748389156 0.257492482334101  C 0.100611748389156 0.257492482334101  1.88654421491356 0.257492482334101  1.88654421491356 0.257492482334101  C 1.88654421491356 0.257492482334101  1.88654421491356 2.33700293050993  1.88654421491356 2.33700293050993  C 1.88654421491356 2.33700293050993  0.100611748389156 2.33700293050993  0.100611748389156 2.33700293050993  Z " stroke-width="0.489296125709464" stroke="#9e9f9f" fill="none" transform="matrix(1 0 0 1 1152 207 )" mask="url(#clip6279)" />
  </g>
</svg>