<?xml version="1.0" encoding="utf-8"?>
<svg version="1.1" xmlns:xlink="http://www.w3.org/1999/xlink" width="18px" height="14px" xmlns="http://www.w3.org/2000/svg">
  <defs>
    <mask fill="white" id="clip4239">
      <path d="M 17.0798165137612 0.315596330275241  C 17.0798165137612 0.315596330275241  0.566055045871508 2.9577981651376  0.566055045871508 2.9577981651376  C 0.566055045871508 2.9577981651376  0.566055045871508 8.60917431192661  0.566055045871508 8.60917431192661  C 0.566055045871508 8.60917431192661  17.0798165137612 13.6733944954129  17.0798165137612 13.6733944954129  C 17.0798165137612 13.6733944954129  17.0798165137612 0.315596330275241  17.0798165137612 0.315596330275241  Z " fill-rule="evenodd" />
    </mask>
  </defs>
  <g transform="matrix(1 0 0 1 -1125 -388 )">
    <path d="M 17.0798165137612 0.315596330275241  C 17.0798165137612 0.315596330275241  0.566055045871508 2.9577981651376  0.566055045871508 2.9577981651376  C 0.566055045871508 2.9577981651376  0.566055045871508 8.60917431192661  0.566055045871508 8.60917431192661  C 0.566055045871508 8.60917431192661  17.0798165137612 13.6733944954129  17.0798165137612 13.6733944954129  C 17.0798165137612 13.6733944954129  17.0798165137612 0.315596330275241  17.0798165137612 0.315596330275241  Z " fill-rule="nonzero" fill="#007fcc" stroke="none" transform="matrix(1 0 0 1 1125 388 )" />
    <path d="M 17.0798165137612 0.315596330275241  C 17.0798165137612 0.315596330275241  0.566055045871508 2.9577981651376  0.566055045871508 2.9577981651376  C 0.566055045871508 2.9577981651376  0.566055045871508 8.60917431192661  0.566055045871508 8.60917431192661  C 0.566055045871508 8.60917431192661  17.0798165137612 13.6733944954129  17.0798165137612 13.6733944954129  C 17.0798165137612 13.6733944954129  17.0798165137612 0.315596330275241  17.0798165137612 0.315596330275241  Z " stroke-width="1.46788990825688" stroke="#007fcc" fill="none" transform="matrix(1 0 0 1 1125 388 )" mask="url(#clip4239)" />
  </g>
</svg>