<?xml version="1.0" encoding="utf-8"?>
<svg version="1.1" xmlns:xlink="http://www.w3.org/1999/xlink" width="7px" height="4px" xmlns="http://www.w3.org/2000/svg">
  <defs>
    <mask fill="white" id="clip2412">
      <path d="M 4.06880733944945 3.98715596330277  C 2.67431192660547 3.98715596330277  0.839449541284466 3.40000000000003  0.839449541284466 2.59266055045873  C 0.839449541284466 1.85871559633028  2.67431192660547 0.464220183486248  4.06880733944945 0.464220183486248  C 5.46330275229343 0.464220183486248  6.56422018348621 1.85871559633028  6.56422018348621 2.59266055045873  C 6.56422018348621 3.40000000000003  5.46330275229343 3.98715596330277  4.06880733944945 3.98715596330277  Z " fill-rule="evenodd" />
    </mask>
  </defs>
  <g transform="matrix(1 0 0 1 -1148 -387 )">
    <path d="M 4.06880733944945 3.98715596330277  C 2.67431192660547 3.98715596330277  0.839449541284466 3.40000000000003  0.839449541284466 2.59266055045873  C 0.839449541284466 1.85871559633028  2.67431192660547 0.464220183486248  4.06880733944945 0.464220183486248  C 5.46330275229343 0.464220183486248  6.56422018348621 1.85871559633028  6.56422018348621 2.59266055045873  C 6.56422018348621 3.40000000000003  5.46330275229343 3.98715596330277  4.06880733944945 3.98715596330277  Z " fill-rule="nonzero" fill="#ffffff" stroke="none" transform="matrix(1 0 0 1 1148 387 )" />
    <path d="M 4.06880733944945 3.98715596330277  C 2.67431192660547 3.98715596330277  0.839449541284466 3.40000000000003  0.839449541284466 2.59266055045873  C 0.839449541284466 1.85871559633028  2.67431192660547 0.464220183486248  4.06880733944945 0.464220183486248  C 5.46330275229343 0.464220183486248  6.56422018348621 1.85871559633028  6.56422018348621 2.59266055045873  C 6.56422018348621 3.40000000000003  5.46330275229343 3.98715596330277  4.06880733944945 3.98715596330277  Z " stroke-width="1.46788990825688" stroke="#e35020" fill="none" transform="matrix(1 0 0 1 1148 387 )" mask="url(#clip2412)" />
  </g>
</svg>