<?xml version="1.0" encoding="utf-8"?>
<svg version="1.1" xmlns:xlink="http://www.w3.org/1999/xlink" width="7px" height="5px" xmlns="http://www.w3.org/2000/svg">
  <defs>
    <mask fill="white" id="clip2454">
      <path d="M 3.5678899082568 4.44770642201837  C 2.17339449541282 4.44770642201837  0.338532110091819 3.86055045871564  0.338532110091819 3.05321100917433  C 0.338532110091819 2.31926605504589  2.17339449541282 0.92477064220185  3.5678899082568 0.92477064220185  C 4.96238532110078 0.92477064220185  6.06330275229357 2.31926605504589  6.06330275229357 3.05321100917433  C 6.06330275229357 3.86055045871564  4.96238532110078 4.44770642201837  3.5678899082568 4.44770642201837  Z " fill-rule="evenodd" />
    </mask>
  </defs>
  <g transform="matrix(1 0 0 1 -1160 -300 )">
    <path d="M 3.5678899082568 4.44770642201837  C 2.17339449541282 4.44770642201837  0.338532110091819 3.86055045871564  0.338532110091819 3.05321100917433  C 0.338532110091819 2.31926605504589  2.17339449541282 0.92477064220185  3.5678899082568 0.92477064220185  C 4.96238532110078 0.92477064220185  6.06330275229357 2.31926605504589  6.06330275229357 3.05321100917433  C 6.06330275229357 3.86055045871564  4.96238532110078 4.44770642201837  3.5678899082568 4.44770642201837  Z " fill-rule="nonzero" fill="#ffffff" stroke="none" transform="matrix(1 0 0 1 1160 300 )" />
    <path d="M 3.5678899082568 4.44770642201837  C 2.17339449541282 4.44770642201837  0.338532110091819 3.86055045871564  0.338532110091819 3.05321100917433  C 0.338532110091819 2.31926605504589  2.17339449541282 0.92477064220185  3.5678899082568 0.92477064220185  C 4.96238532110078 0.92477064220185  6.06330275229357 2.31926605504589  6.06330275229357 3.05321100917433  C 6.06330275229357 3.86055045871564  4.96238532110078 4.44770642201837  3.5678899082568 4.44770642201837  Z " stroke-width="1.46788990825688" stroke="#e35020" fill="none" transform="matrix(1 0 0 1 1160 300 )" mask="url(#clip2454)" />
  </g>
</svg>