<?xml version="1.0" encoding="utf-8"?>
<svg version="1.1" xmlns:xlink="http://www.w3.org/1999/xlink" width="35px" height="20px" xmlns="http://www.w3.org/2000/svg">
  <defs>
    <mask fill="white" id="clip2447">
      <path d="M 0.0840979869212788 10.6911313708769  C 0.0840979869212788 10.6911313708769  0.0840979869212788 4.7951071612332  0.0840979869212788 4.7951071612332  C 0.0840979869212788 4.7951071612332  2.94648330802215 4.7951071612332  2.94648330802215 4.7951071612332  C 6.02905211536154 2.37308881260935  11.5581038479411 0.758409913526805  17.6498469672072 0.758409913526805  C 23.6681955910603 0.758409913526805  29.025993756198 2.37308881260935  32.1085625635374 4.7951071612332  C 32.1085625635374 4.7951071612332  34.9709478846382 4.7951071612332  34.9709478846382 4.7951071612332  C 34.9709478846382 4.7951071612332  34.9709478846382 10.6911313708769  34.9709478846382 10.6911313708769  C 34.2370029305098 15.3149845818861  26.7507643983997 19.0581038479411  17.6498469672072 19.0581038479411  C 8.4755350406017 19.0581038479411  0.744648445636813 15.3149845818861  0.0840979869212788 10.6911313708769  Z " fill-rule="evenodd" />
    </mask>
  </defs>
  <g transform="matrix(1 0 0 1 -1136 -296 )">
    <path d="M 0.0840979869212788 10.6911313708769  C 0.0840979869212788 10.6911313708769  0.0840979869212788 4.7951071612332  0.0840979869212788 4.7951071612332  C 0.0840979869212788 4.7951071612332  2.94648330802215 4.7951071612332  2.94648330802215 4.7951071612332  C 6.02905211536154 2.37308881260935  11.5581038479411 0.758409913526805  17.6498469672072 0.758409913526805  C 23.6681955910603 0.758409913526805  29.025993756198 2.37308881260935  32.1085625635374 4.7951071612332  C 32.1085625635374 4.7951071612332  34.9709478846382 4.7951071612332  34.9709478846382 4.7951071612332  C 34.9709478846382 4.7951071612332  34.9709478846382 10.6911313708769  34.9709478846382 10.6911313708769  C 34.2370029305098 15.3149845818861  26.7507643983997 19.0581038479411  17.6498469672072 19.0581038479411  C 8.4755350406017 19.0581038479411  0.744648445636813 15.3149845818861  0.0840979869212788 10.6911313708769  Z " fill-rule="nonzero" fill="#deb887" stroke="none" transform="matrix(1 0 0 1 1136 296 )" />
    <path d="M 0.0840979869212788 10.6911313708769  C 0.0840979869212788 10.6911313708769  0.0840979869212788 4.7951071612332  0.0840979869212788 4.7951071612332  C 0.0840979869212788 4.7951071612332  2.94648330802215 4.7951071612332  2.94648330802215 4.7951071612332  C 6.02905211536154 2.37308881260935  11.5581038479411 0.758409913526805  17.6498469672072 0.758409913526805  C 23.6681955910603 0.758409913526805  29.025993756198 2.37308881260935  32.1085625635374 4.7951071612332  C 32.1085625635374 4.7951071612332  34.9709478846382 4.7951071612332  34.9709478846382 4.7951071612332  C 34.9709478846382 4.7951071612332  34.9709478846382 10.6911313708769  34.9709478846382 10.6911313708769  C 34.2370029305098 15.3149845818861  26.7507643983997 19.0581038479411  17.6498469672072 19.0581038479411  C 8.4755350406017 19.0581038479411  0.744648445636813 15.3149845818861  0.0840979869212788 10.6911313708769  Z " stroke-width="0.489296125709464" stroke="#deb887" fill="none" transform="matrix(1 0 0 1 1136 296 )" mask="url(#clip2447)" />
  </g>
</svg>