<?xml version="1.0" encoding="utf-8"?>
<svg version="1.1" xmlns:xlink="http://www.w3.org/1999/xlink" width="32px" height="19px" xmlns="http://www.w3.org/2000/svg">
  <defs>
    <mask fill="white" id="clip2429">
      <path d="M 16.1599387103263 18.1590212791338  C 7.86636072867486 18.1590212791338  0.869419087838651 14.3425075176659  0.869419087838651 9.71865430665673  C 0.869419087838651 5.02140660023468  7.86636072867486 0.960244775912088  16.1599387103263 0.960244775912088  C 24.4535166919777 0.960244775912088  31.1324157745464 5.02140660023468  31.1324157745464 9.71865430665673  C 31.1324157745464 14.3425075176659  24.4535166919777 18.1590212791338  16.1599387103263 18.1590212791338  Z " fill-rule="evenodd" />
    </mask>
  </defs>
  <g transform="matrix(1 0 0 1 -1137 -374 )">
    <path d="M 16.1599387103263 18.1590212791338  C 7.86636072867486 18.1590212791338  0.869419087838651 14.3425075176659  0.869419087838651 9.71865430665673  C 0.869419087838651 5.02140660023468  7.86636072867486 0.960244775912088  16.1599387103263 0.960244775912088  C 24.4535166919777 0.960244775912088  31.1324157745464 5.02140660023468  31.1324157745464 9.71865430665673  C 31.1324157745464 14.3425075176659  24.4535166919777 18.1590212791338  16.1599387103263 18.1590212791338  Z " fill-rule="nonzero" fill="#ffdead" stroke="none" transform="matrix(1 0 0 1 1137 374 )" />
    <path d="M 16.1599387103263 18.1590212791338  C 7.86636072867486 18.1590212791338  0.869419087838651 14.3425075176659  0.869419087838651 9.71865430665673  C 0.869419087838651 5.02140660023468  7.86636072867486 0.960244775912088  16.1599387103263 0.960244775912088  C 24.4535166919777 0.960244775912088  31.1324157745464 5.02140660023468  31.1324157745464 9.71865430665673  C 31.1324157745464 14.3425075176659  24.4535166919777 18.1590212791338  16.1599387103263 18.1590212791338  Z " stroke-width="0.489296125709464" stroke="#ffdead" fill="none" transform="matrix(1 0 0 1 1137 374 )" mask="url(#clip2429)" />
  </g>
</svg>