<?xml version="1.0" encoding="utf-8"?>
<svg version="1.1" xmlns:xlink="http://www.w3.org/1999/xlink" width="36px" height="32px" xmlns="http://www.w3.org/2000/svg">
  <defs>
    <mask fill="white" id="clip4333">
      <path d="M 0.804587155963418 16.5412844036697  C 0.804587155963418 8.10091743119267  7.55688073394504 0.614678899082577  15.9238532110091 0.614678899082577  C 15.9238532110091 0.614678899082577  20.1073394495413 0.614678899082577  20.1073394495413 0.614678899082577  C 28.4743119266054 0.614678899082577  35.2266055045873 8.10091743119267  35.2266055045873 16.5412844036697  C 35.2266055045873 24.908256880734  28.4743119266054 31.6605504587156  20.1073394495413 31.6605504587156  C 20.1073394495413 31.6605504587156  15.9238532110091 31.6605504587156  15.9238532110091 31.6605504587156  C 7.55688073394504 31.6605504587156  0.804587155963418 24.908256880734  0.804587155963418 16.5412844036697  Z " fill-rule="evenodd" />
    </mask>
  </defs>
  <g transform="matrix(1 0 0 1 -1135 -203 )">
    <path d="M 0.804587155963418 16.5412844036697  C 0.804587155963418 8.10091743119267  7.55688073394504 0.614678899082577  15.9238532110091 0.614678899082577  C 15.9238532110091 0.614678899082577  20.1073394495413 0.614678899082577  20.1073394495413 0.614678899082577  C 28.4743119266054 0.614678899082577  35.2266055045873 8.10091743119267  35.2266055045873 16.5412844036697  C 35.2266055045873 24.908256880734  28.4743119266054 31.6605504587156  20.1073394495413 31.6605504587156  C 20.1073394495413 31.6605504587156  15.9238532110091 31.6605504587156  15.9238532110091 31.6605504587156  C 7.55688073394504 31.6605504587156  0.804587155963418 24.908256880734  0.804587155963418 16.5412844036697  Z " fill-rule="nonzero" fill="#007fcc" stroke="none" transform="matrix(1 0 0 1 1135 203 )" />
    <path d="M 0.804587155963418 16.5412844036697  C 0.804587155963418 8.10091743119267  7.55688073394504 0.614678899082577  15.9238532110091 0.614678899082577  C 15.9238532110091 0.614678899082577  20.1073394495413 0.614678899082577  20.1073394495413 0.614678899082577  C 28.4743119266054 0.614678899082577  35.2266055045873 8.10091743119267  35.2266055045873 16.5412844036697  C 35.2266055045873 24.908256880734  28.4743119266054 31.6605504587156  20.1073394495413 31.6605504587156  C 20.1073394495413 31.6605504587156  15.9238532110091 31.6605504587156  15.9238532110091 31.6605504587156  C 7.55688073394504 31.6605504587156  0.804587155963418 24.908256880734  0.804587155963418 16.5412844036697  Z " stroke-width="1.46788990825688" stroke="#007fcc" fill="none" transform="matrix(1 0 0 1 1135 203 )" mask="url(#clip4333)" />
  </g>
</svg>