<?xml version="1.0" encoding="utf-8"?>
<svg version="1.1" xmlns:xlink="http://www.w3.org/1999/xlink" width="16px" height="14px" xmlns="http://www.w3.org/2000/svg">
  <defs>
    <mask fill="white" id="clip8190">
      <path d="M 0.982568807339476 0.111926605504607  C 0.982568807339476 0.111926605504607  15.2211009174312 2.754128440367  15.2211009174312 2.754128440367  C 15.2211009174312 2.754128440367  15.2211009174312 8.40550458715597  15.2211009174312 8.40550458715597  C 15.2211009174312 8.40550458715597  0.982568807339476 13.4697247706422  0.982568807339476 13.4697247706422  C 0.982568807339476 13.4697247706422  0.982568807339476 0.111926605504607  0.982568807339476 0.111926605504607  Z " fill-rule="evenodd" />
    </mask>
  </defs>
  <g transform="matrix(1 0 0 1 -1162 -217 )">
    <path d="M 0.982568807339476 0.111926605504607  C 0.982568807339476 0.111926605504607  15.2211009174312 2.754128440367  15.2211009174312 2.754128440367  C 15.2211009174312 2.754128440367  15.2211009174312 8.40550458715597  15.2211009174312 8.40550458715597  C 15.2211009174312 8.40550458715597  0.982568807339476 13.4697247706422  0.982568807339476 13.4697247706422  C 0.982568807339476 13.4697247706422  0.982568807339476 0.111926605504607  0.982568807339476 0.111926605504607  Z " fill-rule="nonzero" fill="#007fcc" stroke="none" transform="matrix(1 0 0 1 1162 217 )" />
    <path d="M 0.982568807339476 0.111926605504607  C 0.982568807339476 0.111926605504607  15.2211009174312 2.754128440367  15.2211009174312 2.754128440367  C 15.2211009174312 2.754128440367  15.2211009174312 8.40550458715597  15.2211009174312 8.40550458715597  C 15.2211009174312 8.40550458715597  0.982568807339476 13.4697247706422  0.982568807339476 13.4697247706422  C 0.982568807339476 13.4697247706422  0.982568807339476 0.111926605504607  0.982568807339476 0.111926605504607  Z " stroke-width="1.46788990825688" stroke="#007fcc" fill="none" transform="matrix(1 0 0 1 1162 217 )" mask="url(#clip8190)" />
  </g>
</svg>