<?xml version="1.0" encoding="utf-8"?>
<svg version="1.1" xmlns:xlink="http://www.w3.org/1999/xlink" width="193px" height="68px" xmlns="http://www.w3.org/2000/svg">
  <defs>
    <mask fill="white" id="clip2391">
      <path d="M 0.788073394495399 34.3357798165138  C 0.788073394495399 1.96880733944954  22.8064220183486 0.867889908256871  22.8064220183486 0.867889908256871  C 22.8064220183486 0.867889908256871  170.255963302752 0.794495412844071  170.255963302752 0.794495412844071  C 170.255963302752 0.794495412844071  192.64128440367 2.26238532110096  192.64128440367 34.6293577981652  C 192.421100917431 66.9963302752294  170.255963302752 66.9963302752294  170.255963302752 66.9963302752294  C 170.255963302752 66.9963302752294  22.8064220183486 67.1431192660551  22.8064220183486 67.1431192660551  C 22.8064220183486 67.1431192660551  0.788073394495399 66.6293577981652  0.788073394495399 34.3357798165138  Z " fill-rule="evenodd" />
    </mask>
  </defs>
  <g transform="matrix(1 0 0 1 -159 -603 )">
    <path d="M 0.788073394495399 34.3357798165138  C 0.788073394495399 1.96880733944954  22.8064220183486 0.867889908256871  22.8064220183486 0.867889908256871  C 22.8064220183486 0.867889908256871  170.255963302752 0.794495412844071  170.255963302752 0.794495412844071  C 170.255963302752 0.794495412844071  192.64128440367 2.26238532110096  192.64128440367 34.6293577981652  C 192.421100917431 66.9963302752294  170.255963302752 66.9963302752294  170.255963302752 66.9963302752294  C 170.255963302752 66.9963302752294  22.8064220183486 67.1431192660551  22.8064220183486 67.1431192660551  C 22.8064220183486 67.1431192660551  0.788073394495399 66.6293577981652  0.788073394495399 34.3357798165138  Z " fill-rule="nonzero" fill="#a0d7f6" stroke="none" transform="matrix(1 0 0 1 159 603 )" />
    <path d="M 0.788073394495399 34.3357798165138  C 0.788073394495399 1.96880733944954  22.8064220183486 0.867889908256871  22.8064220183486 0.867889908256871  C 22.8064220183486 0.867889908256871  170.255963302752 0.794495412844071  170.255963302752 0.794495412844071  C 170.255963302752 0.794495412844071  192.64128440367 2.26238532110096  192.64128440367 34.6293577981652  C 192.421100917431 66.9963302752294  170.255963302752 66.9963302752294  170.255963302752 66.9963302752294  C 170.255963302752 66.9963302752294  22.8064220183486 67.1431192660551  22.8064220183486 67.1431192660551  C 22.8064220183486 67.1431192660551  0.788073394495399 66.6293577981652  0.788073394495399 34.3357798165138  Z " stroke-width="1.46788990825688" stroke="#a0d7f6" fill="none" transform="matrix(1 0 0 1 159 603 )" mask="url(#clip2391)" />
  </g>
</svg>