<?xml version="1.0" encoding="utf-8"?>
<svg version="1.1" xmlns:xlink="http://www.w3.org/1999/xlink" width="7px" height="5px" xmlns="http://www.w3.org/2000/svg">
  <defs>
    <mask fill="white" id="clip2452">
      <path d="M 4.00091743119265 4.29357798165137  C 2.60642201834867 4.29357798165137  0.771559633027664 3.70642201834863  0.771559633027664 2.89908256880733  C 0.771559633027664 2.16513761467888  2.60642201834867 0.770642201834846  4.00091743119265 0.770642201834846  C 5.39541284403663 0.770642201834846  6.49633027522941 2.16513761467888  6.49633027522941 2.89908256880733  C 6.49633027522941 3.70642201834863  5.39541284403663 4.29357798165137  4.00091743119265 4.29357798165137  Z " fill-rule="evenodd" />
    </mask>
  </defs>
  <g transform="matrix(1 0 0 1 -1156 -304 )">
    <path d="M 4.00091743119265 4.29357798165137  C 2.60642201834867 4.29357798165137  0.771559633027664 3.70642201834863  0.771559633027664 2.89908256880733  C 0.771559633027664 2.16513761467888  2.60642201834867 0.770642201834846  4.00091743119265 0.770642201834846  C 5.39541284403663 0.770642201834846  6.49633027522941 2.16513761467888  6.49633027522941 2.89908256880733  C 6.49633027522941 3.70642201834863  5.39541284403663 4.29357798165137  4.00091743119265 4.29357798165137  Z " fill-rule="nonzero" fill="#ffffff" stroke="none" transform="matrix(1 0 0 1 1156 304 )" />
    <path d="M 4.00091743119265 4.29357798165137  C 2.60642201834867 4.29357798165137  0.771559633027664 3.70642201834863  0.771559633027664 2.89908256880733  C 0.771559633027664 2.16513761467888  2.60642201834867 0.770642201834846  4.00091743119265 0.770642201834846  C 5.39541284403663 0.770642201834846  6.49633027522941 2.16513761467888  6.49633027522941 2.89908256880733  C 6.49633027522941 3.70642201834863  5.39541284403663 4.29357798165137  4.00091743119265 4.29357798165137  Z " stroke-width="1.46788990825688" stroke="#e35020" fill="none" transform="matrix(1 0 0 1 1156 304 )" mask="url(#clip2452)" />
  </g>
</svg>