<?xml version="1.0" encoding="utf-8"?>
<svg version="1.1" xmlns:xlink="http://www.w3.org/1999/xlink" width="36px" height="19px" xmlns="http://www.w3.org/2000/svg">
  <defs>
    <mask fill="white" id="clip4241">
      <path d="M 0.58685028049922 10.371865315831  C 0.58685028049922 10.371865315831  0.58685028049922 4.47584110618732  0.58685028049922 4.47584110618732  C 0.58685028049922 4.47584110618732  3.44923560160009 4.47584110618732  3.44923560160009 4.47584110618732  C 6.53180440893948 2.05382275756347  12.060856141519 0.439143858480918  18.1525992607851 0.439143858480918  C 24.1709478846383 0.439143858480918  29.5287460497759 2.05382275756347  32.6113148571153 4.47584110618732  C 32.6113148571153 4.47584110618732  35.4737001782162 4.47584110618732  35.4737001782162 4.47584110618732  C 35.4737001782162 4.47584110618732  35.4737001782162 10.371865315831  35.4737001782162 10.371865315831  C 34.7397552240877 14.9957185268402  27.2535166919777 18.7388377928953  18.1525992607851 18.7388377928953  C 8.97828733417964 18.7388377928953  1.24740073921475 14.9957185268402  0.58685028049922 10.371865315831  Z " fill-rule="evenodd" />
    </mask>
  </defs>
  <g transform="matrix(1 0 0 1 -1135 -378 )">
    <path d="M 0.58685028049922 10.371865315831  C 0.58685028049922 10.371865315831  0.58685028049922 4.47584110618732  0.58685028049922 4.47584110618732  C 0.58685028049922 4.47584110618732  3.44923560160009 4.47584110618732  3.44923560160009 4.47584110618732  C 6.53180440893948 2.05382275756347  12.060856141519 0.439143858480918  18.1525992607851 0.439143858480918  C 24.1709478846383 0.439143858480918  29.5287460497759 2.05382275756347  32.6113148571153 4.47584110618732  C 32.6113148571153 4.47584110618732  35.4737001782162 4.47584110618732  35.4737001782162 4.47584110618732  C 35.4737001782162 4.47584110618732  35.4737001782162 10.371865315831  35.4737001782162 10.371865315831  C 34.7397552240877 14.9957185268402  27.2535166919777 18.7388377928953  18.1525992607851 18.7388377928953  C 8.97828733417964 18.7388377928953  1.24740073921475 14.9957185268402  0.58685028049922 10.371865315831  Z " fill-rule="nonzero" fill="#deb887" stroke="none" transform="matrix(1 0 0 1 1135 378 )" />
    <path d="M 0.58685028049922 10.371865315831  C 0.58685028049922 10.371865315831  0.58685028049922 4.47584110618732  0.58685028049922 4.47584110618732  C 0.58685028049922 4.47584110618732  3.44923560160009 4.47584110618732  3.44923560160009 4.47584110618732  C 6.53180440893948 2.05382275756347  12.060856141519 0.439143858480918  18.1525992607851 0.439143858480918  C 24.1709478846383 0.439143858480918  29.5287460497759 2.05382275756347  32.6113148571153 4.47584110618732  C 32.6113148571153 4.47584110618732  35.4737001782162 4.47584110618732  35.4737001782162 4.47584110618732  C 35.4737001782162 4.47584110618732  35.4737001782162 10.371865315831  35.4737001782162 10.371865315831  C 34.7397552240877 14.9957185268402  27.2535166919777 18.7388377928953  18.1525992607851 18.7388377928953  C 8.97828733417964 18.7388377928953  1.24740073921475 14.9957185268402  0.58685028049922 10.371865315831  Z " stroke-width="0.489296125709464" stroke="#deb887" fill="none" transform="matrix(1 0 0 1 1135 378 )" mask="url(#clip4241)" />
  </g>
</svg>