<?xml version="1.0" encoding="utf-8"?>
<svg version="1.1" xmlns:xlink="http://www.w3.org/1999/xlink" width="36px" height="32px" xmlns="http://www.w3.org/2000/svg">
  <defs>
    <mask fill="white" id="clip2426">
      <path d="M 0.804587155963418 16.7449541284403  C 0.804587155963418 8.3045871559633  7.55688073394504 0.818348623853183  15.9238532110091 0.818348623853183  C 15.9238532110091 0.818348623853183  20.1073394495413 0.818348623853183  20.1073394495413 0.818348623853183  C 28.4743119266054 0.818348623853183  35.2266055045873 8.3045871559633  35.2266055045873 16.7449541284403  C 35.2266055045873 25.1119266055046  28.4743119266054 31.8642201834862  20.1073394495413 31.8642201834862  C 20.1073394495413 31.8642201834862  15.9238532110091 31.8642201834862  15.9238532110091 31.8642201834862  C 7.55688073394504 31.8642201834862  0.804587155963418 25.1119266055046  0.804587155963418 16.7449541284403  Z " fill-rule="evenodd" />
    </mask>
  </defs>
  <g transform="matrix(1 0 0 1 -1135 -374 )">
    <path d="M 0.804587155963418 16.7449541284403  C 0.804587155963418 8.3045871559633  7.55688073394504 0.818348623853183  15.9238532110091 0.818348623853183  C 15.9238532110091 0.818348623853183  20.1073394495413 0.818348623853183  20.1073394495413 0.818348623853183  C 28.4743119266054 0.818348623853183  35.2266055045873 8.3045871559633  35.2266055045873 16.7449541284403  C 35.2266055045873 25.1119266055046  28.4743119266054 31.8642201834862  20.1073394495413 31.8642201834862  C 20.1073394495413 31.8642201834862  15.9238532110091 31.8642201834862  15.9238532110091 31.8642201834862  C 7.55688073394504 31.8642201834862  0.804587155963418 25.1119266055046  0.804587155963418 16.7449541284403  Z " fill-rule="nonzero" fill="#007fcc" stroke="none" transform="matrix(1 0 0 1 1135 374 )" />
    <path d="M 0.804587155963418 16.7449541284403  C 0.804587155963418 8.3045871559633  7.55688073394504 0.818348623853183  15.9238532110091 0.818348623853183  C 15.9238532110091 0.818348623853183  20.1073394495413 0.818348623853183  20.1073394495413 0.818348623853183  C 28.4743119266054 0.818348623853183  35.2266055045873 8.3045871559633  35.2266055045873 16.7449541284403  C 35.2266055045873 25.1119266055046  28.4743119266054 31.8642201834862  20.1073394495413 31.8642201834862  C 20.1073394495413 31.8642201834862  15.9238532110091 31.8642201834862  15.9238532110091 31.8642201834862  C 7.55688073394504 31.8642201834862  0.804587155963418 25.1119266055046  0.804587155963418 16.7449541284403  Z " stroke-width="1.46788990825688" stroke="#007fcc" fill="none" transform="matrix(1 0 0 1 1135 374 )" mask="url(#clip2426)" />
  </g>
</svg>