<?xml version="1.0" encoding="utf-8"?>
<svg version="1.1" xmlns:xlink="http://www.w3.org/1999/xlink" width="3px" height="3px" xmlns="http://www.w3.org/2000/svg">
  <defs>
    <mask fill="white" id="clip4299">
      <path d="M 0.902446610774405 2.20489283876685  C 0.462079638297382 2.0581038479412  0.315290647471556 1.76452586628977  0.608868629122981 1.54434238005126  C 0.608868629122981 1.47094788463841  0.682263124535893 1.47094788463841  0.682263124535893 1.47094788463841  C 0.682263124535893 1.47094788463841  2.90856256353732 0.198776886003884  2.90856256353732 0.198776886003884  C 2.90856256353732 0.198776886003884  2.39480109564738 1.83792036170263  2.39480109564738 1.83792036170263  C 2.39480109564738 1.91131485711549  2.39480109564738 1.98470935252834  2.3214066002347 1.98470935252834  C 2.10122311399596 2.27828733417971  1.26941908783851 2.35168182959256  0.902446610774405 2.20489283876685  Z " fill-rule="evenodd" />
    </mask>
  </defs>
  <g transform="matrix(1 0 0 1 -1162 -301 )">
    <path d="M 0.902446610774405 2.20489283876685  C 0.462079638297382 2.0581038479412  0.315290647471556 1.76452586628977  0.608868629122981 1.54434238005126  C 0.608868629122981 1.47094788463841  0.682263124535893 1.47094788463841  0.682263124535893 1.47094788463841  C 0.682263124535893 1.47094788463841  2.90856256353732 0.198776886003884  2.90856256353732 0.198776886003884  C 2.90856256353732 0.198776886003884  2.39480109564738 1.83792036170263  2.39480109564738 1.83792036170263  C 2.39480109564738 1.91131485711549  2.39480109564738 1.98470935252834  2.3214066002347 1.98470935252834  C 2.10122311399596 2.27828733417971  1.26941908783851 2.35168182959256  0.902446610774405 2.20489283876685  Z " fill-rule="nonzero" fill="#e35020" stroke="none" transform="matrix(1 0 0 1 1162 301 )" />
    <path d="M 0.902446610774405 2.20489283876685  C 0.462079638297382 2.0581038479412  0.315290647471556 1.76452586628977  0.608868629122981 1.54434238005126  C 0.608868629122981 1.47094788463841  0.682263124535893 1.47094788463841  0.682263124535893 1.47094788463841  C 0.682263124535893 1.47094788463841  2.90856256353732 0.198776886003884  2.90856256353732 0.198776886003884  C 2.90856256353732 0.198776886003884  2.39480109564738 1.83792036170263  2.39480109564738 1.83792036170263  C 2.39480109564738 1.91131485711549  2.39480109564738 1.98470935252834  2.3214066002347 1.98470935252834  C 2.10122311399596 2.27828733417971  1.26941908783851 2.35168182959256  0.902446610774405 2.20489283876685  Z " stroke-width="0.489296125709464" stroke="#e35020" fill="none" transform="matrix(1 0 0 1 1162 301 )" mask="url(#clip4299)" />
  </g>
</svg>