<?xml version="1.0" encoding="utf-8"?>
<svg version="1.1" xmlns:xlink="http://www.w3.org/1999/xlink" width="35px" height="21px" xmlns="http://www.w3.org/2000/svg">
  <defs>
    <mask fill="white" id="clip2448">
      <path d="M 17.6498469672072 20.7553515543632  C 8.10856256353736 20.7553515543632  0.0840979869212788 16.4250763250054  0.0840979869212788 10.9938836644549  C 0.0840979869212788 5.63608549931729  8.10856256353736 0.98776771169193  17.6498469672072 0.98776771169193  C 27.191131370877 0.98776771169193  34.9709478846382 5.63608549931729  34.9709478846382 10.9938836644549  C 34.9709478846382 16.4250763250054  27.191131370877 20.7553515543632  17.6498469672072 20.7553515543632  Z " fill-rule="evenodd" />
    </mask>
  </defs>
  <g transform="matrix(1 0 0 1 -1136 -291 )">
    <path d="M 17.6498469672072 20.7553515543632  C 8.10856256353736 20.7553515543632  0.0840979869212788 16.4250763250054  0.0840979869212788 10.9938836644549  C 0.0840979869212788 5.63608549931729  8.10856256353736 0.98776771169193  17.6498469672072 0.98776771169193  C 27.191131370877 0.98776771169193  34.9709478846382 5.63608549931729  34.9709478846382 10.9938836644549  C 34.9709478846382 16.4250763250054  27.191131370877 20.7553515543632  17.6498469672072 20.7553515543632  Z " fill-rule="nonzero" fill="#deb887" stroke="none" transform="matrix(1 0 0 1 1136 291 )" />
    <path d="M 17.6498469672072 20.7553515543632  C 8.10856256353736 20.7553515543632  0.0840979869212788 16.4250763250054  0.0840979869212788 10.9938836644549  C 0.0840979869212788 5.63608549931729  8.10856256353736 0.98776771169193  17.6498469672072 0.98776771169193  C 27.191131370877 0.98776771169193  34.9709478846382 5.63608549931729  34.9709478846382 10.9938836644549  C 34.9709478846382 16.4250763250054  27.191131370877 20.7553515543632  17.6498469672072 20.7553515543632  Z " stroke-width="0.489296125709464" stroke="#deb887" fill="none" transform="matrix(1 0 0 1 1136 291 )" mask="url(#clip2448)" />
  </g>
</svg>