<?xml version="1.0" encoding="utf-8"?>
<svg version="1.1" xmlns:xlink="http://www.w3.org/1999/xlink" width="4px" height="3px" xmlns="http://www.w3.org/2000/svg">
  <defs>
    <mask fill="white" id="clip2528">
      <path d="M 1.40519890435235 2.6819570589503  C 0.964831931875324 2.53516806812462  0.818042941049498 2.24159008647325  1.11162092270092 2.02140660023471  C 1.11162092270092 1.94801210482188  1.18501541811384 1.94801210482188  1.18501541811384 1.94801210482188  C 1.18501541811384 1.94801210482188  3.41131485711526 0.675841106187335  3.41131485711526 0.675841106187335  C 3.41131485711526 0.675841106187335  2.89755338922532 2.31498458188608  2.89755338922532 2.31498458188608  C 2.89755338922532 2.38837907729894  2.89755338922532 2.46177357271179  2.82415889381264 2.46177357271179  C 2.6039754075739 2.75535155436316  1.77217138141646 2.82874604977599  1.40519890435235 2.6819570589503  Z " fill-rule="evenodd" />
    </mask>
  </defs>
  <g transform="matrix(1 0 0 1 -1161 -211 )">
    <path d="M 1.40519890435235 2.6819570589503  C 0.964831931875324 2.53516806812462  0.818042941049498 2.24159008647325  1.11162092270092 2.02140660023471  C 1.11162092270092 1.94801210482188  1.18501541811384 1.94801210482188  1.18501541811384 1.94801210482188  C 1.18501541811384 1.94801210482188  3.41131485711526 0.675841106187335  3.41131485711526 0.675841106187335  C 3.41131485711526 0.675841106187335  2.89755338922532 2.31498458188608  2.89755338922532 2.31498458188608  C 2.89755338922532 2.38837907729894  2.89755338922532 2.46177357271179  2.82415889381264 2.46177357271179  C 2.6039754075739 2.75535155436316  1.77217138141646 2.82874604977599  1.40519890435235 2.6819570589503  Z " fill-rule="nonzero" fill="#e35020" stroke="none" transform="matrix(1 0 0 1 1161 211 )" />
    <path d="M 1.40519890435235 2.6819570589503  C 0.964831931875324 2.53516806812462  0.818042941049498 2.24159008647325  1.11162092270092 2.02140660023471  C 1.11162092270092 1.94801210482188  1.18501541811384 1.94801210482188  1.18501541811384 1.94801210482188  C 1.18501541811384 1.94801210482188  3.41131485711526 0.675841106187335  3.41131485711526 0.675841106187335  C 3.41131485711526 0.675841106187335  2.89755338922532 2.31498458188608  2.89755338922532 2.31498458188608  C 2.89755338922532 2.38837907729894  2.89755338922532 2.46177357271179  2.82415889381264 2.46177357271179  C 2.6039754075739 2.75535155436316  1.77217138141646 2.82874604977599  1.40519890435235 2.6819570589503  Z " stroke-width="0.489296125709464" stroke="#e35020" fill="none" transform="matrix(1 0 0 1 1161 211 )" mask="url(#clip2528)" />
  </g>
</svg>