<?xml version="1.0" encoding="utf-8"?>
<svg version="1.1" xmlns:xlink="http://www.w3.org/1999/xlink" width="36px" height="19px" xmlns="http://www.w3.org/2000/svg">
  <defs>
    <mask fill="white" id="clip6267">
      <path d="M 0.58685028049922 10.1681955910604  C 0.58685028049922 10.1681955910604  0.58685028049922 4.27217138141668  0.58685028049922 4.27217138141668  C 0.58685028049922 4.27217138141668  3.44923560160009 4.27217138141668  3.44923560160009 4.27217138141668  C 6.53180440893948 1.85015303279283  12.060856141519 0.235474133710284  18.1525992607851 0.235474133710284  C 24.1709478846383 0.235474133710284  29.5287460497759 1.85015303279283  32.6113148571153 4.27217138141668  C 32.6113148571153 4.27217138141668  35.4737001782162 4.27217138141668  35.4737001782162 4.27217138141668  C 35.4737001782162 4.27217138141668  35.4737001782162 10.1681955910604  35.4737001782162 10.1681955910604  C 34.7397552240877 14.7920488020696  27.2535166919777 18.5351680681246  18.1525992607851 18.5351680681246  C 8.97828733417964 18.5351680681246  1.24740073921475 14.7920488020696  0.58685028049922 10.1681955910604  Z " fill-rule="evenodd" />
    </mask>
  </defs>
  <g transform="matrix(1 0 0 1 -1135 -207 )">
    <path d="M 0.58685028049922 10.1681955910604  C 0.58685028049922 10.1681955910604  0.58685028049922 4.27217138141668  0.58685028049922 4.27217138141668  C 0.58685028049922 4.27217138141668  3.44923560160009 4.27217138141668  3.44923560160009 4.27217138141668  C 6.53180440893948 1.85015303279283  12.060856141519 0.235474133710284  18.1525992607851 0.235474133710284  C 24.1709478846383 0.235474133710284  29.5287460497759 1.85015303279283  32.6113148571153 4.27217138141668  C 32.6113148571153 4.27217138141668  35.4737001782162 4.27217138141668  35.4737001782162 4.27217138141668  C 35.4737001782162 4.27217138141668  35.4737001782162 10.1681955910604  35.4737001782162 10.1681955910604  C 34.7397552240877 14.7920488020696  27.2535166919777 18.5351680681246  18.1525992607851 18.5351680681246  C 8.97828733417964 18.5351680681246  1.24740073921475 14.7920488020696  0.58685028049922 10.1681955910604  Z " fill-rule="nonzero" fill="#deb887" stroke="none" transform="matrix(1 0 0 1 1135 207 )" />
    <path d="M 0.58685028049922 10.1681955910604  C 0.58685028049922 10.1681955910604  0.58685028049922 4.27217138141668  0.58685028049922 4.27217138141668  C 0.58685028049922 4.27217138141668  3.44923560160009 4.27217138141668  3.44923560160009 4.27217138141668  C 6.53180440893948 1.85015303279283  12.060856141519 0.235474133710284  18.1525992607851 0.235474133710284  C 24.1709478846383 0.235474133710284  29.5287460497759 1.85015303279283  32.6113148571153 4.27217138141668  C 32.6113148571153 4.27217138141668  35.4737001782162 4.27217138141668  35.4737001782162 4.27217138141668  C 35.4737001782162 4.27217138141668  35.4737001782162 10.1681955910604  35.4737001782162 10.1681955910604  C 34.7397552240877 14.7920488020696  27.2535166919777 18.5351680681246  18.1525992607851 18.5351680681246  C 8.97828733417964 18.5351680681246  1.24740073921475 14.7920488020696  0.58685028049922 10.1681955910604  Z " stroke-width="0.489296125709464" stroke="#deb887" fill="none" transform="matrix(1 0 0 1 1135 207 )" mask="url(#clip6267)" />
  </g>
</svg>