<?xml version="1.0" encoding="utf-8"?>
<svg version="1.1" xmlns:xlink="http://www.w3.org/1999/xlink" width="32px" height="18px" xmlns="http://www.w3.org/2000/svg">
  <defs>
    <mask fill="white" id="clip2492">
      <path d="M 16.1599387103263 17.9553515543631  C 7.86636072867486 17.9553515543631  0.869419087838651 14.1388377928953  0.869419087838651 9.5149845818861  C 0.869419087838651 4.81773687546405  7.86636072867486 0.756575051141454  16.1599387103263 0.756575051141454  C 24.4535166919777 0.756575051141454  31.1324157745464 4.81773687546405  31.1324157745464 9.5149845818861  C 31.1324157745464 14.1388377928953  24.4535166919777 17.9553515543631  16.1599387103263 17.9553515543631  Z " fill-rule="evenodd" />
    </mask>
  </defs>
  <g transform="matrix(1 0 0 1 -1137 -203 )">
    <path d="M 16.1599387103263 17.9553515543631  C 7.86636072867486 17.9553515543631  0.869419087838651 14.1388377928953  0.869419087838651 9.5149845818861  C 0.869419087838651 4.81773687546405  7.86636072867486 0.756575051141454  16.1599387103263 0.756575051141454  C 24.4535166919777 0.756575051141454  31.1324157745464 4.81773687546405  31.1324157745464 9.5149845818861  C 31.1324157745464 14.1388377928953  24.4535166919777 17.9553515543631  16.1599387103263 17.9553515543631  Z " fill-rule="nonzero" fill="#ffdead" stroke="none" transform="matrix(1 0 0 1 1137 203 )" />
    <path d="M 16.1599387103263 17.9553515543631  C 7.86636072867486 17.9553515543631  0.869419087838651 14.1388377928953  0.869419087838651 9.5149845818861  C 0.869419087838651 4.81773687546405  7.86636072867486 0.756575051141454  16.1599387103263 0.756575051141454  C 24.4535166919777 0.756575051141454  31.1324157745464 4.81773687546405  31.1324157745464 9.5149845818861  C 31.1324157745464 14.1388377928953  24.4535166919777 17.9553515543631  16.1599387103263 17.9553515543631  Z " stroke-width="0.489296125709464" stroke="#ffdead" fill="none" transform="matrix(1 0 0 1 1137 203 )" mask="url(#clip2492)" />
  </g>
</svg>