<?xml version="1.0" encoding="utf-8"?>
<svg version="1.1" xmlns:xlink="http://www.w3.org/1999/xlink" width="9px" height="6px" xmlns="http://www.w3.org/2000/svg">
  <defs>
    <mask fill="white" id="clip8154">
      <path d="M 5.64801210482187 2.40428147315981  C 5.64801210482187 2.40428147315981  7.55626898555579 1.67033651903137  7.55626898555579 1.67033651903137  C 7.55626898555579 1.67033651903137  7.84984696720721 1.89052000526993  7.84984696720721 1.89052000526993  C 7.84984696720721 1.89052000526993  5.9415900864733 2.69785945481124  5.9415900864733 2.69785945481124  C 6.0883790772989 2.77125395022404  6.0883790772989 3.16269100390446  6.0883790772989 3.30947999473017  C 6.0883790772989 3.30947999473017  8.43700293050983 3.52966348096868  8.43700293050983 3.52966348096868  C 8.43700293050983 3.52966348096868  8.29021393968424 3.82324146262005  8.29021393968424 3.82324146262005  C 8.29021393968424 3.82324146262005  6.01498458188598 3.60305797638154  6.01498458188598 3.60305797638154  C 5.9415900864733 3.74984696720725  5.79480109564747 3.82324146262005  5.64801210482187 3.8966359580329  C 5.64801210482187 3.8966359580329  6.96911302225294 4.99755338922557  6.96911302225294 4.99755338922557  C 6.96911302225294 4.99755338922557  6.52874604977592 5.21773687546408  6.52874604977592 5.21773687546408  C 6.52874604977592 5.21773687546408  5.20764513234485 4.11681944427147  5.20764513234485 4.11681944427147  C 4.98746164610611 4.19021393968427  4.7672781598676 4.19021393968427  4.54709467362909 4.19021393968427  C 4.54709467362909 4.19021393968427  3.86207963829725 5.51131485711551  3.86207963829725 5.51131485711551  C 3.86207963829725 5.51131485711551  3.34831817040754 5.43792036170265  3.34831817040754 5.43792036170265  C 3.34831817040754 5.43792036170265  3.71529064747165 4.11681944427147  3.71529064747165 4.11681944427147  C 3.49510716123314 4.11681944427147  3.34831817040754 4.04342494885861  3.20152917958171 3.97003045344576  C 3.20152917958171 3.97003045344576  1.2932722988478 4.70397540757421  1.2932722988478 4.70397540757421  C 1.2932722988478 4.70397540757421  0.926299821783687 4.41039742592284  0.926299821783687 4.41039742592284  C 0.926299821783687 4.41039742592284  2.8345567025176 3.67645247179439  2.8345567025176 3.67645247179439  C 2.76116220710469 3.52966348096868  2.68776771169178 3.45626898555582  2.68776771169178 3.30947999473017  C 2.68776771169178 3.30947999473017  0.412538353893751 2.84464844563689  0.412538353893751 2.84464844563689  C 0.412538353893751 2.84464844563689  0.485932849306437 2.47767596857267  0.485932849306437 2.47767596857267  C 0.485932849306437 2.47767596857267  2.8345567025176 2.77125395022404  2.8345567025176 2.77125395022404  C 2.90795119793029 2.62446495939838  2.9813456933432 2.47767596857267  3.1281346841688 2.40428147315981  C 3.1281346841688 2.40428147315981  1.80703376673773 1.37675853738  1.80703376673773 1.37675853738  C 1.80703376673773 1.37675853738  2.32079523462767 1.15657505114149  2.32079523462767 1.15657505114149  C 2.32079523462767 1.15657505114149  3.64189615205873 2.25749248233416  3.64189615205873 2.25749248233416  C 3.86207963829725 2.1840979869213  4.32691118739058 2.1840979869213  4.54709467362909 2.1840979869213  C 4.54709467362909 2.1840979869213  4.91406715069343 0.86299706949012  4.91406715069343 0.86299706949012  C 4.91406715069343 0.86299706949012  5.50122311399605 0.936391564902976  5.50122311399605 0.936391564902976  C 5.50122311399605 0.936391564902976  5.06085614151903 2.1840979869213  5.06085614151903 2.1840979869213  C 5.28103962775754 2.25749248233416  5.50122311399605 2.33088697774701  5.64801210482187 2.40428147315981  Z " fill-rule="evenodd" />
    </mask>
  </defs>
  <g transform="matrix(1 0 0 1 -1145 -299 )">
    <path d="M 5.64801210482187 2.40428147315981  C 5.64801210482187 2.40428147315981  7.55626898555579 1.67033651903137  7.55626898555579 1.67033651903137  C 7.55626898555579 1.67033651903137  7.84984696720721 1.89052000526993  7.84984696720721 1.89052000526993  C 7.84984696720721 1.89052000526993  5.9415900864733 2.69785945481124  5.9415900864733 2.69785945481124  C 6.0883790772989 2.77125395022404  6.0883790772989 3.16269100390446  6.0883790772989 3.30947999473017  C 6.0883790772989 3.30947999473017  8.43700293050983 3.52966348096868  8.43700293050983 3.52966348096868  C 8.43700293050983 3.52966348096868  8.29021393968424 3.82324146262005  8.29021393968424 3.82324146262005  C 8.29021393968424 3.82324146262005  6.01498458188598 3.60305797638154  6.01498458188598 3.60305797638154  C 5.9415900864733 3.74984696720725  5.79480109564747 3.82324146262005  5.64801210482187 3.8966359580329  C 5.64801210482187 3.8966359580329  6.96911302225294 4.99755338922557  6.96911302225294 4.99755338922557  C 6.96911302225294 4.99755338922557  6.52874604977592 5.21773687546408  6.52874604977592 5.21773687546408  C 6.52874604977592 5.21773687546408  5.20764513234485 4.11681944427147  5.20764513234485 4.11681944427147  C 4.98746164610611 4.19021393968427  4.7672781598676 4.19021393968427  4.54709467362909 4.19021393968427  C 4.54709467362909 4.19021393968427  3.86207963829725 5.51131485711551  3.86207963829725 5.51131485711551  C 3.86207963829725 5.51131485711551  3.34831817040754 5.43792036170265  3.34831817040754 5.43792036170265  C 3.34831817040754 5.43792036170265  3.71529064747165 4.11681944427147  3.71529064747165 4.11681944427147  C 3.49510716123314 4.11681944427147  3.34831817040754 4.04342494885861  3.20152917958171 3.97003045344576  C 3.20152917958171 3.97003045344576  1.2932722988478 4.70397540757421  1.2932722988478 4.70397540757421  C 1.2932722988478 4.70397540757421  0.926299821783687 4.41039742592284  0.926299821783687 4.41039742592284  C 0.926299821783687 4.41039742592284  2.8345567025176 3.67645247179439  2.8345567025176 3.67645247179439  C 2.76116220710469 3.52966348096868  2.68776771169178 3.45626898555582  2.68776771169178 3.30947999473017  C 2.68776771169178 3.30947999473017  0.412538353893751 2.84464844563689  0.412538353893751 2.84464844563689  C 0.412538353893751 2.84464844563689  0.485932849306437 2.47767596857267  0.485932849306437 2.47767596857267  C 0.485932849306437 2.47767596857267  2.8345567025176 2.77125395022404  2.8345567025176 2.77125395022404  C 2.90795119793029 2.62446495939838  2.9813456933432 2.47767596857267  3.1281346841688 2.40428147315981  C 3.1281346841688 2.40428147315981  1.80703376673773 1.37675853738  1.80703376673773 1.37675853738  C 1.80703376673773 1.37675853738  2.32079523462767 1.15657505114149  2.32079523462767 1.15657505114149  C 2.32079523462767 1.15657505114149  3.64189615205873 2.25749248233416  3.64189615205873 2.25749248233416  C 3.86207963829725 2.1840979869213  4.32691118739058 2.1840979869213  4.54709467362909 2.1840979869213  C 4.54709467362909 2.1840979869213  4.91406715069343 0.86299706949012  4.91406715069343 0.86299706949012  C 4.91406715069343 0.86299706949012  5.50122311399605 0.936391564902976  5.50122311399605 0.936391564902976  C 5.50122311399605 0.936391564902976  5.06085614151903 2.1840979869213  5.06085614151903 2.1840979869213  C 5.28103962775754 2.25749248233416  5.50122311399605 2.33088697774701  5.64801210482187 2.40428147315981  Z " fill-rule="nonzero" fill="#3e3938" stroke="none" transform="matrix(1 0 0 1 1145 299 )" />
    <path d="M 5.64801210482187 2.40428147315981  C 5.64801210482187 2.40428147315981  7.55626898555579 1.67033651903137  7.55626898555579 1.67033651903137  C 7.55626898555579 1.67033651903137  7.84984696720721 1.89052000526993  7.84984696720721 1.89052000526993  C 7.84984696720721 1.89052000526993  5.9415900864733 2.69785945481124  5.9415900864733 2.69785945481124  C 6.0883790772989 2.77125395022404  6.0883790772989 3.16269100390446  6.0883790772989 3.30947999473017  C 6.0883790772989 3.30947999473017  8.43700293050983 3.52966348096868  8.43700293050983 3.52966348096868  C 8.43700293050983 3.52966348096868  8.29021393968424 3.82324146262005  8.29021393968424 3.82324146262005  C 8.29021393968424 3.82324146262005  6.01498458188598 3.60305797638154  6.01498458188598 3.60305797638154  C 5.9415900864733 3.74984696720725  5.79480109564747 3.82324146262005  5.64801210482187 3.8966359580329  C 5.64801210482187 3.8966359580329  6.96911302225294 4.99755338922557  6.96911302225294 4.99755338922557  C 6.96911302225294 4.99755338922557  6.52874604977592 5.21773687546408  6.52874604977592 5.21773687546408  C 6.52874604977592 5.21773687546408  5.20764513234485 4.11681944427147  5.20764513234485 4.11681944427147  C 4.98746164610611 4.19021393968427  4.7672781598676 4.19021393968427  4.54709467362909 4.19021393968427  C 4.54709467362909 4.19021393968427  3.86207963829725 5.51131485711551  3.86207963829725 5.51131485711551  C 3.86207963829725 5.51131485711551  3.34831817040754 5.43792036170265  3.34831817040754 5.43792036170265  C 3.34831817040754 5.43792036170265  3.71529064747165 4.11681944427147  3.71529064747165 4.11681944427147  C 3.49510716123314 4.11681944427147  3.34831817040754 4.04342494885861  3.20152917958171 3.97003045344576  C 3.20152917958171 3.97003045344576  1.2932722988478 4.70397540757421  1.2932722988478 4.70397540757421  C 1.2932722988478 4.70397540757421  0.926299821783687 4.41039742592284  0.926299821783687 4.41039742592284  C 0.926299821783687 4.41039742592284  2.8345567025176 3.67645247179439  2.8345567025176 3.67645247179439  C 2.76116220710469 3.52966348096868  2.68776771169178 3.45626898555582  2.68776771169178 3.30947999473017  C 2.68776771169178 3.30947999473017  0.412538353893751 2.84464844563689  0.412538353893751 2.84464844563689  C 0.412538353893751 2.84464844563689  0.485932849306437 2.47767596857267  0.485932849306437 2.47767596857267  C 0.485932849306437 2.47767596857267  2.8345567025176 2.77125395022404  2.8345567025176 2.77125395022404  C 2.90795119793029 2.62446495939838  2.9813456933432 2.47767596857267  3.1281346841688 2.40428147315981  C 3.1281346841688 2.40428147315981  1.80703376673773 1.37675853738  1.80703376673773 1.37675853738  C 1.80703376673773 1.37675853738  2.32079523462767 1.15657505114149  2.32079523462767 1.15657505114149  C 2.32079523462767 1.15657505114149  3.64189615205873 2.25749248233416  3.64189615205873 2.25749248233416  C 3.86207963829725 2.1840979869213  4.32691118739058 2.1840979869213  4.54709467362909 2.1840979869213  C 4.54709467362909 2.1840979869213  4.91406715069343 0.86299706949012  4.91406715069343 0.86299706949012  C 4.91406715069343 0.86299706949012  5.50122311399605 0.936391564902976  5.50122311399605 0.936391564902976  C 5.50122311399605 0.936391564902976  5.06085614151903 2.1840979869213  5.06085614151903 2.1840979869213  C 5.28103962775754 2.25749248233416  5.50122311399605 2.33088697774701  5.64801210482187 2.40428147315981  Z " stroke-width="0.489296125709464" stroke="#3e3938" fill="none" transform="matrix(1 0 0 1 1145 299 )" mask="url(#clip8154)" />
  </g>
</svg>