<?xml version="1.0" encoding="utf-8"?>
<svg version="1.1" xmlns:xlink="http://www.w3.org/1999/xlink" width="7px" height="4px" xmlns="http://www.w3.org/2000/svg">
  <defs>
    <mask fill="white" id="clip7698">
      <path d="M 0.384403669724861 3.13027522935784  C 0.384403669724861 3.13027522935784  0.384403669724861 0.304587155963361  0.384403669724861 0.304587155963361  C 0.384403669724861 0.304587155963361  6.51284403669729 0.304587155963361  6.51284403669729 0.304587155963361  C 6.51284403669729 0.304587155963361  6.51284403669729 3.13027522935784  6.51284403669729 3.13027522935784  C 6.51284403669729 3.13027522935784  0.384403669724861 3.13027522935784  0.384403669724861 3.13027522935784  Z " fill-rule="evenodd" />
    </mask>
  </defs>
  <g transform="matrix(1 0 0 1 -213 -406 )">
    <path d="M 0.384403669724861 3.13027522935784  C 0.384403669724861 3.13027522935784  0.384403669724861 0.304587155963361  0.384403669724861 0.304587155963361  C 0.384403669724861 0.304587155963361  6.51284403669729 0.304587155963361  6.51284403669729 0.304587155963361  C 6.51284403669729 0.304587155963361  6.51284403669729 3.13027522935784  6.51284403669729 3.13027522935784  C 6.51284403669729 3.13027522935784  0.384403669724861 3.13027522935784  0.384403669724861 3.13027522935784  Z " fill-rule="nonzero" fill="#ffffff" stroke="none" fill-opacity="0" transform="matrix(1 0 0 1 213 406 )" />
    <path d="M 0.384403669724861 3.13027522935784  C 0.384403669724861 3.13027522935784  0.384403669724861 0.304587155963361  0.384403669724861 0.304587155963361  C 0.384403669724861 0.304587155963361  6.51284403669729 0.304587155963361  6.51284403669729 0.304587155963361  C 6.51284403669729 0.304587155963361  6.51284403669729 3.13027522935784  6.51284403669729 3.13027522935784  C 6.51284403669729 3.13027522935784  0.384403669724861 3.13027522935784  0.384403669724861 3.13027522935784  Z " stroke-width="1.10091743119266" stroke="#ffffff" fill="none" transform="matrix(1 0 0 1 213 406 )" mask="url(#clip7698)" />
  </g>
</svg>