<?xml version="1.0" encoding="utf-8"?>
<svg version="1.1" xmlns:xlink="http://www.w3.org/1999/xlink" width="9px" height="5px" xmlns="http://www.w3.org/2000/svg">
  <defs>
    <mask fill="white" id="clip2494">
      <path d="M 6.15076439839982 1.88134569334332  C 6.15076439839982 1.88134569334332  8.05902127913373 1.14740073921487  8.05902127913373 1.14740073921487  C 8.05902127913373 1.14740073921487  8.35259926078515 1.36758422545341  8.35259926078515 1.36758422545341  C 8.35259926078515 1.36758422545341  6.44434238005124 2.17492367499469  6.44434238005124 2.17492367499469  C 6.59113137087684 2.24831817040754  6.59113137087684 2.63975522408796  6.59113137087684 2.78654421491365  C 6.59113137087684 2.78654421491365  8.93975522408778 3.00672770115216  8.93975522408778 3.00672770115216  C 8.93975522408778 3.00672770115216  8.79296623326218 3.30030568280355  8.79296623326218 3.30030568280355  C 8.79296623326218 3.30030568280355  6.51773687546392 3.08012219656501  6.51773687546392 3.08012219656501  C 6.44434238005124 3.2269111873907  6.29755338922541 3.30030568280355  6.15076439839982 3.37370017821638  C 6.15076439839982 3.37370017821638  7.47186531583088 4.47461760940905  7.47186531583088 4.47461760940905  C 7.47186531583088 4.47461760940905  7.03149834335386 4.69480109564759  7.03149834335386 4.69480109564759  C 7.03149834335386 4.69480109564759  5.71039742592279 3.59388366445492  5.71039742592279 3.59388366445492  C 5.49021393968405 3.66727815986778  5.27003045344554 3.66727815986778  5.04984696720703 3.66727815986778  C 5.04984696720703 3.66727815986778  4.36483193187519 4.98837907729896  4.36483193187519 4.98837907729896  C 4.36483193187519 4.98837907729896  3.85107046398548 4.91498458188613  3.85107046398548 4.91498458188613  C 3.85107046398548 4.91498458188613  4.21804294104959 3.59388366445492  4.21804294104959 3.59388366445492  C 3.99785945481108 3.59388366445492  3.85107046398548 3.52048916904209  3.70428147315965 3.44709467362924  C 3.70428147315965 3.44709467362924  1.79602459242574 4.18103962775768  1.79602459242574 4.18103962775768  C 1.79602459242574 4.18103962775768  1.42905211536163 3.88746164610629  1.42905211536163 3.88746164610629  C 1.42905211536163 3.88746164610629  3.33730899609554 3.15351669197787  3.33730899609554 3.15351669197787  C 3.26391450068263 3.00672770115216  3.19052000526972 2.93333320573933  3.19052000526972 2.78654421491365  C 3.19052000526972 2.78654421491365  0.915290647471693 2.32171266582037  0.915290647471693 2.32171266582037  C 0.915290647471693 2.32171266582037  0.988685142884378 1.95474018875615  0.988685142884378 1.95474018875615  C 0.988685142884378 1.95474018875615  3.33730899609554 2.24831817040754  3.33730899609554 2.24831817040754  C 3.41070349150823 2.10152917958183  3.48409798692114 1.95474018875615  3.63088697774674 1.88134569334332  C 3.63088697774674 1.88134569334332  2.30978606031567 0.853822757563506  2.30978606031567 0.853822757563506  C 2.30978606031567 0.853822757563506  2.82354752820561 0.633639271324967  2.82354752820561 0.633639271324967  C 2.82354752820561 0.633639271324967  4.14464844563668 1.73455670251764  4.14464844563668 1.73455670251764  C 4.36483193187519 1.66116220710478  4.82966348096852 1.66116220710478  5.04984696720703 1.66116220710478  C 5.04984696720703 1.66116220710478  5.41681944427137 0.340061289673599  5.41681944427137 0.340061289673599  C 5.41681944427137 0.340061289673599  6.00397540757399 0.413455785086427  6.00397540757399 0.413455785086427  C 6.00397540757399 0.413455785086427  5.56360843509697 1.66116220710478  5.56360843509697 1.66116220710478  C 5.78379192133548 1.73455670251764  6.00397540757399 1.80795119793046  6.15076439839982 1.88134569334332  Z " fill-rule="evenodd" />
    </mask>
  </defs>
  <g transform="matrix(1 0 0 1 -1144 -210 )">
    <path d="M 6.15076439839982 1.88134569334332  C 6.15076439839982 1.88134569334332  8.05902127913373 1.14740073921487  8.05902127913373 1.14740073921487  C 8.05902127913373 1.14740073921487  8.35259926078515 1.36758422545341  8.35259926078515 1.36758422545341  C 8.35259926078515 1.36758422545341  6.44434238005124 2.17492367499469  6.44434238005124 2.17492367499469  C 6.59113137087684 2.24831817040754  6.59113137087684 2.63975522408796  6.59113137087684 2.78654421491365  C 6.59113137087684 2.78654421491365  8.93975522408778 3.00672770115216  8.93975522408778 3.00672770115216  C 8.93975522408778 3.00672770115216  8.79296623326218 3.30030568280355  8.79296623326218 3.30030568280355  C 8.79296623326218 3.30030568280355  6.51773687546392 3.08012219656501  6.51773687546392 3.08012219656501  C 6.44434238005124 3.2269111873907  6.29755338922541 3.30030568280355  6.15076439839982 3.37370017821638  C 6.15076439839982 3.37370017821638  7.47186531583088 4.47461760940905  7.47186531583088 4.47461760940905  C 7.47186531583088 4.47461760940905  7.03149834335386 4.69480109564759  7.03149834335386 4.69480109564759  C 7.03149834335386 4.69480109564759  5.71039742592279 3.59388366445492  5.71039742592279 3.59388366445492  C 5.49021393968405 3.66727815986778  5.27003045344554 3.66727815986778  5.04984696720703 3.66727815986778  C 5.04984696720703 3.66727815986778  4.36483193187519 4.98837907729896  4.36483193187519 4.98837907729896  C 4.36483193187519 4.98837907729896  3.85107046398548 4.91498458188613  3.85107046398548 4.91498458188613  C 3.85107046398548 4.91498458188613  4.21804294104959 3.59388366445492  4.21804294104959 3.59388366445492  C 3.99785945481108 3.59388366445492  3.85107046398548 3.52048916904209  3.70428147315965 3.44709467362924  C 3.70428147315965 3.44709467362924  1.79602459242574 4.18103962775768  1.79602459242574 4.18103962775768  C 1.79602459242574 4.18103962775768  1.42905211536163 3.88746164610629  1.42905211536163 3.88746164610629  C 1.42905211536163 3.88746164610629  3.33730899609554 3.15351669197787  3.33730899609554 3.15351669197787  C 3.26391450068263 3.00672770115216  3.19052000526972 2.93333320573933  3.19052000526972 2.78654421491365  C 3.19052000526972 2.78654421491365  0.915290647471693 2.32171266582037  0.915290647471693 2.32171266582037  C 0.915290647471693 2.32171266582037  0.988685142884378 1.95474018875615  0.988685142884378 1.95474018875615  C 0.988685142884378 1.95474018875615  3.33730899609554 2.24831817040754  3.33730899609554 2.24831817040754  C 3.41070349150823 2.10152917958183  3.48409798692114 1.95474018875615  3.63088697774674 1.88134569334332  C 3.63088697774674 1.88134569334332  2.30978606031567 0.853822757563506  2.30978606031567 0.853822757563506  C 2.30978606031567 0.853822757563506  2.82354752820561 0.633639271324967  2.82354752820561 0.633639271324967  C 2.82354752820561 0.633639271324967  4.14464844563668 1.73455670251764  4.14464844563668 1.73455670251764  C 4.36483193187519 1.66116220710478  4.82966348096852 1.66116220710478  5.04984696720703 1.66116220710478  C 5.04984696720703 1.66116220710478  5.41681944427137 0.340061289673599  5.41681944427137 0.340061289673599  C 5.41681944427137 0.340061289673599  6.00397540757399 0.413455785086427  6.00397540757399 0.413455785086427  C 6.00397540757399 0.413455785086427  5.56360843509697 1.66116220710478  5.56360843509697 1.66116220710478  C 5.78379192133548 1.73455670251764  6.00397540757399 1.80795119793046  6.15076439839982 1.88134569334332  Z " fill-rule="nonzero" fill="#3e3938" stroke="none" transform="matrix(1 0 0 1 1144 210 )" />
    <path d="M 6.15076439839982 1.88134569334332  C 6.15076439839982 1.88134569334332  8.05902127913373 1.14740073921487  8.05902127913373 1.14740073921487  C 8.05902127913373 1.14740073921487  8.35259926078515 1.36758422545341  8.35259926078515 1.36758422545341  C 8.35259926078515 1.36758422545341  6.44434238005124 2.17492367499469  6.44434238005124 2.17492367499469  C 6.59113137087684 2.24831817040754  6.59113137087684 2.63975522408796  6.59113137087684 2.78654421491365  C 6.59113137087684 2.78654421491365  8.93975522408778 3.00672770115216  8.93975522408778 3.00672770115216  C 8.93975522408778 3.00672770115216  8.79296623326218 3.30030568280355  8.79296623326218 3.30030568280355  C 8.79296623326218 3.30030568280355  6.51773687546392 3.08012219656501  6.51773687546392 3.08012219656501  C 6.44434238005124 3.2269111873907  6.29755338922541 3.30030568280355  6.15076439839982 3.37370017821638  C 6.15076439839982 3.37370017821638  7.47186531583088 4.47461760940905  7.47186531583088 4.47461760940905  C 7.47186531583088 4.47461760940905  7.03149834335386 4.69480109564759  7.03149834335386 4.69480109564759  C 7.03149834335386 4.69480109564759  5.71039742592279 3.59388366445492  5.71039742592279 3.59388366445492  C 5.49021393968405 3.66727815986778  5.27003045344554 3.66727815986778  5.04984696720703 3.66727815986778  C 5.04984696720703 3.66727815986778  4.36483193187519 4.98837907729896  4.36483193187519 4.98837907729896  C 4.36483193187519 4.98837907729896  3.85107046398548 4.91498458188613  3.85107046398548 4.91498458188613  C 3.85107046398548 4.91498458188613  4.21804294104959 3.59388366445492  4.21804294104959 3.59388366445492  C 3.99785945481108 3.59388366445492  3.85107046398548 3.52048916904209  3.70428147315965 3.44709467362924  C 3.70428147315965 3.44709467362924  1.79602459242574 4.18103962775768  1.79602459242574 4.18103962775768  C 1.79602459242574 4.18103962775768  1.42905211536163 3.88746164610629  1.42905211536163 3.88746164610629  C 1.42905211536163 3.88746164610629  3.33730899609554 3.15351669197787  3.33730899609554 3.15351669197787  C 3.26391450068263 3.00672770115216  3.19052000526972 2.93333320573933  3.19052000526972 2.78654421491365  C 3.19052000526972 2.78654421491365  0.915290647471693 2.32171266582037  0.915290647471693 2.32171266582037  C 0.915290647471693 2.32171266582037  0.988685142884378 1.95474018875615  0.988685142884378 1.95474018875615  C 0.988685142884378 1.95474018875615  3.33730899609554 2.24831817040754  3.33730899609554 2.24831817040754  C 3.41070349150823 2.10152917958183  3.48409798692114 1.95474018875615  3.63088697774674 1.88134569334332  C 3.63088697774674 1.88134569334332  2.30978606031567 0.853822757563506  2.30978606031567 0.853822757563506  C 2.30978606031567 0.853822757563506  2.82354752820561 0.633639271324967  2.82354752820561 0.633639271324967  C 2.82354752820561 0.633639271324967  4.14464844563668 1.73455670251764  4.14464844563668 1.73455670251764  C 4.36483193187519 1.66116220710478  4.82966348096852 1.66116220710478  5.04984696720703 1.66116220710478  C 5.04984696720703 1.66116220710478  5.41681944427137 0.340061289673599  5.41681944427137 0.340061289673599  C 5.41681944427137 0.340061289673599  6.00397540757399 0.413455785086427  6.00397540757399 0.413455785086427  C 6.00397540757399 0.413455785086427  5.56360843509697 1.66116220710478  5.56360843509697 1.66116220710478  C 5.78379192133548 1.73455670251764  6.00397540757399 1.80795119793046  6.15076439839982 1.88134569334332  Z " stroke-width="0.489296125709464" stroke="#3e3938" fill="none" transform="matrix(1 0 0 1 1144 210 )" mask="url(#clip2494)" />
  </g>
</svg>