<?xml version="1.0" encoding="utf-8"?>
<svg version="1.1" xmlns:xlink="http://www.w3.org/1999/xlink" width="3px" height="3px" xmlns="http://www.w3.org/2000/svg">
  <defs>
    <mask fill="white" id="clip4304">
      <path d="M 0.284097986921324 2.85993871032645  C 0.284097986921324 2.85993871032645  0.284097986921324 0.780428262150622  0.284097986921324 0.780428262150622  C 0.284097986921324 0.780428262150622  2.07003045344572 0.780428262150622  2.07003045344572 0.780428262150622  C 2.07003045344572 0.780428262150622  2.07003045344572 2.85993871032645  2.07003045344572 2.85993871032645  C 2.07003045344572 2.85993871032645  0.284097986921324 2.85993871032645  0.284097986921324 2.85993871032645  Z " fill-rule="evenodd" />
    </mask>
  </defs>
  <g transform="matrix(1 0 0 1 -1155 -296 )">
    <path d="M 0.284097986921324 2.85993871032645  C 0.284097986921324 2.85993871032645  0.284097986921324 0.780428262150622  0.284097986921324 0.780428262150622  C 0.284097986921324 0.780428262150622  2.07003045344572 0.780428262150622  2.07003045344572 0.780428262150622  C 2.07003045344572 0.780428262150622  2.07003045344572 2.85993871032645  2.07003045344572 2.85993871032645  C 2.07003045344572 2.85993871032645  0.284097986921324 2.85993871032645  0.284097986921324 2.85993871032645  Z " fill-rule="nonzero" fill="#9e9f9f" stroke="none" transform="matrix(1 0 0 1 1155 296 )" />
    <path d="M 0.284097986921324 2.85993871032645  C 0.284097986921324 2.85993871032645  0.284097986921324 0.780428262150622  0.284097986921324 0.780428262150622  C 0.284097986921324 0.780428262150622  2.07003045344572 0.780428262150622  2.07003045344572 0.780428262150622  C 2.07003045344572 0.780428262150622  2.07003045344572 2.85993871032645  2.07003045344572 2.85993871032645  C 2.07003045344572 2.85993871032645  0.284097986921324 2.85993871032645  0.284097986921324 2.85993871032645  Z " stroke-width="0.489296125709464" stroke="#9e9f9f" fill="none" transform="matrix(1 0 0 1 1155 296 )" mask="url(#clip4304)" />
  </g>
</svg>