<?xml version="1.0" encoding="utf-8"?>
<svg version="1.1" xmlns:xlink="http://www.w3.org/1999/xlink" width="46px" height="6px" preserveAspectRatio="xMinYMid meet" viewBox="532 695  46 4" xmlns="http://www.w3.org/2000/svg">
  <g transform="matrix(-1 0 0 -1 1110 1394 )">
    <path d="M 561.3 683.5  L 555 677.5  L 548.7 683.5  L 561.3 683.5  Z M 558.9 682.5  L 551.1 682.5  L 555 679  L 558.9 682.5  Z M 561.3 688.5  L 555 682.5  L 548.7 688.5  L 561.3 688.5  Z M 558.9 687.5  L 551.1 687.5  L 555 684  L 558.9 687.5  Z " fill-rule="nonzero" fill="#f20201" stroke="none" transform="matrix(6.12303176911189E-17 1 -1 6.12303176911189E-17 1252.5 143.5 )" />
    <path d="M 555 688.5  L 555 717.5  " stroke-width="1" stroke="#f20201" fill="none" transform="matrix(6.12303176911189E-17 1 -1 6.12303176911189E-17 1252.5 143.5 )" />
  </g>
</svg>