<?xml version="1.0" encoding="utf-8"?>
<svg version="1.1" xmlns:xlink="http://www.w3.org/1999/xlink" width="44px" height="6px" preserveAspectRatio="xMinYMid meet" viewBox="994 609  44 4" xmlns="http://www.w3.org/2000/svg">
  <g transform="matrix(-1 0 0 -1 2032 1222 )">
    <path d="M 1022.3 597.5  L 1016 591.5  L 1009.7 597.5  L 1022.3 597.5  Z M 1019.9 596.5  L 1012.1 596.5  L 1016 593  L 1019.9 596.5  Z M 1022.3 602.5  L 1016 596.5  L 1009.7 602.5  L 1022.3 602.5  Z M 1019.9 601.5  L 1012.1 601.5  L 1016 598  L 1019.9 601.5  Z " fill-rule="nonzero" fill="#f20201" stroke="none" transform="matrix(6.12303176911189E-17 1 -1 6.12303176911189E-17 1627.5 -403.5 )" />
    <path d="M 1016 602.5  L 1016 631.5  " stroke-width="1" stroke="#f20201" fill="none" transform="matrix(6.12303176911189E-17 1 -1 6.12303176911189E-17 1627.5 -403.5 )" />
  </g>
</svg>