<?xml version="1.0" encoding="utf-8"?>
<svg version="1.1" xmlns:xlink="http://www.w3.org/1999/xlink" width="46px" height="6px" preserveAspectRatio="xMinYMid meet" viewBox="1180 695  46 4" xmlns="http://www.w3.org/2000/svg">
  <g transform="matrix(-1 0 0 -1 2406 1394 )">
    <path d="M 1209.3 683.5  L 1203 677.5  L 1196.7 683.5  L 1209.3 683.5  Z M 1206.9 682.5  L 1199.1 682.5  L 1203 679  L 1206.9 682.5  Z M 1209.3 688.5  L 1203 682.5  L 1196.7 688.5  L 1209.3 688.5  Z M 1206.9 687.5  L 1199.1 687.5  L 1203 684  L 1206.9 687.5  Z " fill-rule="nonzero" fill="#f20201" stroke="none" transform="matrix(6.12303176911189E-17 1 -1 6.12303176911189E-17 1900.5 -504.5 )" />
    <path d="M 1203 688.5  L 1203 717.5  " stroke-width="1" stroke="#f20201" fill="none" transform="matrix(6.12303176911189E-17 1 -1 6.12303176911189E-17 1900.5 -504.5 )" />
  </g>
</svg>