<?xml version="1.0" encoding="utf-8"?>
<svg version="1.1" xmlns:xlink="http://www.w3.org/1999/xlink" width="30px" height="26px" xmlns="http://www.w3.org/2000/svg">
  <g transform="matrix(1 0 0 1 -1264 -27 )">
    <path d="M 9.06850961538462 23.4701704545455  C 9.17668269230769 23.359375  9.23076923076923 23.217803030303  9.23076923076923 23.0454545454545  L 9.23076923076923 19.5  C 9.23076923076923 19.3276515151515  9.17668269230769 19.1860795454545  9.06850961538462 19.0752840909091  C 8.96033653846154 18.9644886363636  8.82211538461539 18.9090909090909  8.65384615384615 18.9090909090909  L 2.88461538461538 18.9090909090909  C 2.71634615384615 18.9090909090909  2.578125 18.9644886363636  2.46995192307692 19.0752840909091  C 2.36177884615385 19.1860795454545  2.30769230769231 19.3276515151515  2.30769230769231 19.5  L 2.30769230769231 23.0454545454545  C 2.30769230769231 23.217803030303  2.36177884615385 23.359375  2.46995192307692 23.4701704545455  C 2.578125 23.5809659090909  2.71634615384615 23.6363636363636  2.88461538461538 23.6363636363636  L 8.65384615384615 23.6363636363636  C 8.82211538461539 23.6363636363636  8.96033653846154 23.5809659090909  9.06850961538462 23.4701704545455  Z M 9.06850961538462 16.3792613636364  C 9.17668269230769 16.2684659090909  9.23076923076923 16.1268939393939  9.23076923076923 15.9545454545455  L 9.23076923076923 12.4090909090909  C 9.23076923076923 12.2367424242424  9.17668269230769 12.0951704545455  9.06850961538462 11.984375  C 8.96033653846154 11.8735795454545  8.82211538461539 11.8181818181818  8.65384615384615 11.8181818181818  L 2.88461538461538 11.8181818181818  C 2.71634615384615 11.8181818181818  2.578125 11.8735795454545  2.46995192307692 11.984375  C 2.36177884615385 12.0951704545455  2.30769230769231 12.2367424242424  2.30769230769231 12.4090909090909  L 2.30769230769231 15.9545454545455  C 2.30769230769231 16.1268939393939  2.36177884615385 16.2684659090909  2.46995192307692 16.3792613636364  C 2.578125 16.4900568181818  2.71634615384615 16.5454545454545  2.88461538461538 16.5454545454545  L 8.65384615384615 16.5454545454545  C 8.82211538461539 16.5454545454545  8.96033653846154 16.4900568181818  9.06850961538462 16.3792613636364  Z M 18.2992788461538 23.4701704545455  C 18.4074519230769 23.359375  18.4615384615385 23.217803030303  18.4615384615385 23.0454545454545  L 18.4615384615385 19.5  C 18.4615384615385 19.3276515151515  18.4074519230769 19.1860795454545  18.2992788461538 19.0752840909091  C 18.1911057692308 18.9644886363636  18.0528846153846 18.9090909090909  17.8846153846154 18.9090909090909  L 12.1153846153846 18.9090909090909  C 11.9471153846154 18.9090909090909  11.8088942307692 18.9644886363636  11.7007211538462 19.0752840909091  C 11.5925480769231 19.1860795454545  11.5384615384615 19.3276515151515  11.5384615384615 19.5  L 11.5384615384615 23.0454545454545  C 11.5384615384615 23.217803030303  11.5925480769231 23.359375  11.7007211538462 23.4701704545455  C 11.8088942307692 23.5809659090909  11.9471153846154 23.6363636363636  12.1153846153846 23.6363636363636  L 17.8846153846154 23.6363636363636  C 18.0528846153846 23.6363636363636  18.1911057692308 23.5809659090909  18.2992788461538 23.4701704545455  Z M 9.06850961538462 9.28835227272727  C 9.17668269230769 9.17755681818182  9.23076923076923 9.03598484848485  9.23076923076923 8.86363636363637  L 9.23076923076923 5.31818181818182  C 9.23076923076923 5.14583333333333  9.17668269230769 5.00426136363636  9.06850961538462 4.89346590909091  C 8.96033653846154 4.78267045454546  8.82211538461539 4.72727272727273  8.65384615384615 4.72727272727273  L 2.88461538461538 4.72727272727273  C 2.71634615384615 4.72727272727273  2.578125 4.78267045454546  2.46995192307692 4.89346590909091  C 2.36177884615385 5.00426136363636  2.30769230769231 5.14583333333333  2.30769230769231 5.31818181818182  L 2.30769230769231 8.86363636363637  C 2.30769230769231 9.03598484848485  2.36177884615385 9.17755681818182  2.46995192307692 9.28835227272727  C 2.578125 9.39914772727273  2.71634615384615 9.45454545454546  2.88461538461538 9.45454545454546  L 8.65384615384615 9.45454545454546  C 8.82211538461539 9.45454545454546  8.96033653846154 9.39914772727273  9.06850961538462 9.28835227272727  Z M 18.2992788461538 16.3792613636364  C 18.4074519230769 16.2684659090909  18.4615384615385 16.1268939393939  18.4615384615385 15.9545454545455  L 18.4615384615385 12.4090909090909  C 18.4615384615385 12.2367424242424  18.4074519230769 12.0951704545455  18.2992788461538 11.984375  C 18.1911057692308 11.8735795454545  18.0528846153846 11.8181818181818  17.8846153846154 11.8181818181818  L 12.1153846153846 11.8181818181818  C 11.9471153846154 11.8181818181818  11.8088942307692 11.8735795454545  11.7007211538462 11.984375  C 11.5925480769231 12.0951704545455  11.5384615384615 12.2367424242424  11.5384615384615 12.4090909090909  L 11.5384615384615 15.9545454545455  C 11.5384615384615 16.1268939393939  11.5925480769231 16.2684659090909  11.7007211538462 16.3792613636364  C 11.8088942307692 16.4900568181818  11.9471153846154 16.5454545454545  12.1153846153846 16.5454545454545  L 17.8846153846154 16.5454545454545  C 18.0528846153846 16.5454545454545  18.1911057692308 16.4900568181818  18.2992788461538 16.3792613636364  Z M 27.5300480769231 23.4701704545455  C 27.6382211538462 23.359375  27.6923076923077 23.217803030303  27.6923076923077 23.0454545454545  L 27.6923076923077 19.5  C 27.6923076923077 19.3276515151515  27.6382211538462 19.1860795454545  27.5300480769231 19.0752840909091  C 27.421875 18.9644886363636  27.2836538461539 18.9090909090909  27.1153846153846 18.9090909090909  L 21.3461538461538 18.9090909090909  C 21.1778846153846 18.9090909090909  21.0396634615385 18.9644886363636  20.9314903846154 19.0752840909091  C 20.8233173076923 19.1860795454545  20.7692307692308 19.3276515151515  20.7692307692308 19.5  L 20.7692307692308 23.0454545454545  C 20.7692307692308 23.217803030303  20.8233173076923 23.359375  20.9314903846154 23.4701704545455  C 21.0396634615385 23.5809659090909  21.1778846153846 23.6363636363636  21.3461538461538 23.6363636363636  L 27.1153846153846 23.6363636363636  C 27.2836538461539 23.6363636363636  27.421875 23.5809659090909  27.5300480769231 23.4701704545455  Z M 18.2992788461538 9.28835227272727  C 18.4074519230769 9.17755681818182  18.4615384615385 9.03598484848485  18.4615384615385 8.86363636363637  L 18.4615384615385 5.31818181818182  C 18.4615384615385 5.14583333333333  18.4074519230769 5.00426136363636  18.2992788461538 4.89346590909091  C 18.1911057692308 4.78267045454546  18.0528846153846 4.72727272727273  17.8846153846154 4.72727272727273  L 12.1153846153846 4.72727272727273  C 11.9471153846154 4.72727272727273  11.8088942307692 4.78267045454546  11.7007211538462 4.89346590909091  C 11.5925480769231 5.00426136363636  11.5384615384615 5.14583333333333  11.5384615384615 5.31818181818182  L 11.5384615384615 8.86363636363637  C 11.5384615384615 9.03598484848485  11.5925480769231 9.17755681818182  11.7007211538462 9.28835227272727  C 11.8088942307692 9.39914772727273  11.9471153846154 9.45454545454546  12.1153846153846 9.45454545454546  L 17.8846153846154 9.45454545454546  C 18.0528846153846 9.45454545454546  18.1911057692308 9.39914772727273  18.2992788461538 9.28835227272727  Z M 27.5300480769231 16.3792613636364  C 27.6382211538462 16.2684659090909  27.6923076923077 16.1268939393939  27.6923076923077 15.9545454545455  L 27.6923076923077 12.4090909090909  C 27.6923076923077 12.2367424242424  27.6382211538462 12.0951704545455  27.5300480769231 11.984375  C 27.421875 11.8735795454545  27.2836538461539 11.8181818181818  27.1153846153846 11.8181818181818  L 21.3461538461538 11.8181818181818  C 21.1778846153846 11.8181818181818  21.0396634615385 11.8735795454545  20.9314903846154 11.984375  C 20.8233173076923 12.0951704545455  20.7692307692308 12.2367424242424  20.7692307692308 12.4090909090909  L 20.7692307692308 15.9545454545455  C 20.7692307692308 16.1268939393939  20.8233173076923 16.2684659090909  20.9314903846154 16.3792613636364  C 21.0396634615385 16.4900568181818  21.1778846153846 16.5454545454545  21.3461538461538 16.5454545454545  L 27.1153846153846 16.5454545454545  C 27.2836538461539 16.5454545454545  27.421875 16.4900568181818  27.5300480769231 16.3792613636364  Z M 27.5300480769231 9.28835227272727  C 27.6382211538462 9.17755681818182  27.6923076923077 9.03598484848485  27.6923076923077 8.86363636363637  L 27.6923076923077 5.31818181818182  C 27.6923076923077 5.14583333333333  27.6382211538462 5.00426136363636  27.5300480769231 4.89346590909091  C 27.421875 4.78267045454546  27.2836538461539 4.72727272727273  27.1153846153846 4.72727272727273  L 21.3461538461538 4.72727272727273  C 21.1778846153846 4.72727272727273  21.0396634615385 4.78267045454546  20.9314903846154 4.89346590909091  C 20.8233173076923 5.00426136363636  20.7692307692308 5.14583333333333  20.7692307692308 5.31818181818182  L 20.7692307692308 8.86363636363637  C 20.7692307692308 9.03598484848485  20.8233173076923 9.17755681818182  20.9314903846154 9.28835227272727  C 21.0396634615385 9.39914772727273  21.1778846153846 9.45454545454546  21.3461538461538 9.45454545454546  L 27.1153846153846 9.45454545454546  C 27.2836538461539 9.45454545454546  27.421875 9.39914772727273  27.5300480769231 9.28835227272727  Z M 29.1526442307692 0.867897727272726  C 29.7175480769231 1.44649621212121  30 2.14204545454546  30 2.95454545454546  L 30 23.0454545454545  C 30 23.8579545454545  29.7175480769231 24.5535037878788  29.1526442307692 25.1321022727273  C 28.5877403846154 25.7107007575758  27.9086538461538 26  27.1153846153846 26  L 2.88461538461538 26  C 2.09134615384615 26  1.41225961538462 25.7107007575758  0.847355769230769 25.1321022727273  C 0.282451923076923 24.5535037878788  0 23.8579545454545  0 23.0454545454545  L 0 2.95454545454546  C 0 2.14204545454546  0.282451923076923 1.44649621212121  0.847355769230769 0.867897727272726  C 1.41225961538462 0.289299242424239  2.09134615384615 0  2.88461538461538 0  L 27.1153846153846 0  C 27.9086538461538 0  28.5877403846154 0.289299242424239  29.1526442307692 0.867897727272726  Z " fill-rule="nonzero" fill="#aaaaaa" stroke="none" transform="matrix(1 0 0 1 1264 27 )" />
  </g>
</svg>