<?xml version="1.0" encoding="utf-8"?>
<svg version="1.1" xmlns:xlink="http://www.w3.org/1999/xlink" width="50px" height="16px" xmlns="http://www.w3.org/2000/svg">
  <g transform="matrix(1 0 0 1 -70 -592 )">
    <path d="M 49.7106481481481 7.46944083224967  C 49.9035493827161 7.60814911140009  50 7.76766363242306  50 7.9479843953186  C 50 8.14217598612917  49.9035493827161 8.30862592110966  49.7106481481481 8.44733420026008  L 38.599537037037 15.8127438231469  C 38.2908950617284 16.0069354139575  37.9533179012346 16.0485478977026  37.5868055555556 15.9375812743823  C 37.2202932098766 15.8127438231469  37.037037037037 15.6116168183788  37.037037037037 15.334200260078  L 37.037037037037 10.6736020806242  L 0.925925925925926 10.6736020806242  C 0.655864197530864 10.6736020806242  0.434027777777778 10.6111833550065  0.260416666666667 10.4863459037711  C 0.0868055555555556 10.3615084525358  0 10.2019939315128  0 10.0078023407022  L 0 6.01300390117035  C 0 5.81881231035977  0.0868055555555556 5.6592977893368  0.260416666666667 5.53446033810143  C 0.434027777777778 5.40962288686606  0.655864197530864 5.34720416124837  0.925925925925926 5.34720416124837  L 37.037037037037 5.34720416124837  L 37.037037037037 0.686605981794539  C 37.037037037037 0.395318595578674  37.2202932098766 0.194191590810576  37.5868055555556 0.0832249674902474  C 37.9533179012346 -0.0277416558300843  38.2908950617284 0.00693541395751929  38.599537037037 0.187256176853056  L 49.7106481481481 7.46944083224967  Z " fill-rule="nonzero" fill="#a0d7f6" stroke="none" transform="matrix(1 0 0 1 70 592 )" />
  </g>
</svg>