<?xml version="1.0" encoding="utf-8"?>
<svg version="1.1" xmlns:xlink="http://www.w3.org/1999/xlink" width="40px" height="16px" xmlns="http://www.w3.org/2000/svg">
  <g transform="matrix(1 0 0 1 12 -12 )">
    <path d="M 39.7685185185185 7.46944083224967  C 39.9228395061728 7.60814911140009  40 7.76766363242306  40 7.9479843953186  C 40 8.14217598612917  39.9228395061728 8.30862592110966  39.7685185185185 8.44733420026008  L 30.8796296296296 15.8127438231469  C 30.6327160493827 16.0069354139575  30.3626543209877 16.0485478977026  30.0694444444444 15.9375812743823  C 29.7762345679012 15.8127438231469  29.6296296296296 15.6116168183788  29.6296296296296 15.334200260078  L 29.6296296296296 10.6736020806242  L 0.740740740740741 10.6736020806242  C 0.524691358024691 10.6736020806242  0.347222222222222 10.6111833550065  0.208333333333333 10.4863459037711  C 0.0694444444444444 10.3615084525358  0 10.2019939315128  0 10.0078023407022  L 0 6.01300390117035  C 0 5.81881231035977  0.0694444444444444 5.6592977893368  0.208333333333333 5.53446033810143  C 0.347222222222222 5.40962288686606  0.524691358024691 5.34720416124837  0.740740740740741 5.34720416124837  L 29.6296296296296 5.34720416124837  L 29.6296296296296 0.686605981794539  C 29.6296296296296 0.395318595578674  29.7762345679012 0.194191590810576  30.0694444444444 0.0832249674902474  C 30.3626543209877 -0.0277416558300843  30.6327160493827 0.00693541395751929  30.8796296296296 0.187256176853056  L 39.7685185185185 7.46944083224967  Z " fill-rule="nonzero" fill="#a0d7f6" stroke="none" transform="matrix(1 0 0 1 -12 12 )" />
  </g>
</svg>