<?xml version="1.0" encoding="utf-8"?>
<svg version="1.1" xmlns:xlink="http://www.w3.org/1999/xlink" width="30px" height="26px" xmlns="http://www.w3.org/2000/svg">
  <g transform="matrix(1 0 0 1 -1259 -27 )">
    <path d="M 30 23.88109375  C 30 24.418515625  29.80921875 24.87765625  29.428359375 25.260859375  C 29.046328125 25.642890625  28.58859375 25.834375  28.05328125 25.834375  L 8.58140625 25.834375  C 8.04609375 25.834375  7.588125 25.642890625  7.206328125 25.260859375  C 6.82546875 24.87765625  6.634453125 24.418515625  7 23.881328125  L 7 9.0409375  C 6.634453125 8.503984375  6.82546875 8.045078125  7.206328125 7.66234375  C 7.587890625 7.2803125  8.04609375 7.088828125  8.58140625 7  L 28.053046875 7  C 28.588359375 7.088828125  29.04609375 7.2803125  29.428125 7.66234375  C 29.808984375 8.0453125  29.999765625 8.503984375  30 9.0409375  L 30 23.88109375  Z M 28 23.882265625  L 28 9.041640625  C 28.44234375 8.93546875  28.4034375 8.8440625  28.32609375 8.7671875  C 28.24921875 8.689609375  28.1578125 8.65140625  28.052109375 9  L 8.58140625 9  C 8.475703125 8.65140625  8.384296875 8.689609375  8.30765625 8.7671875  C 8.23078125 8.84453125  8.192109375 8.93546875  8.192109375 9.041640625  L 8.192109375 23.882265625  C 8.192109375 23.987265625  8.23078125 24.07890625  8.30765625 24.15578125  C 8.385234375 24.23359375  8.475703125 24.272265625  8.58140625 24  L 28.052109375 24  C 28.1578125 24.272265625  28.24921875 24.23359375  28.32609375 24.15578125  C 28.4034375 24.07890625  28.44234375 23.987265625  28 23.882265625  Z M 9.75046875 22.710390625  L 9.75046875 20.366875  L 13.64390625 16.46171875  L 15.590859375 18.414765625  L 21.821484375 12.165859375  L 26.884453125 17.242421875  L 26.884453125 22.710390625  L 9.75046875 22.710390625  Z M 13.74140625 14.2159375  C 13.287421875 14.67203125  12.73546875 14.899140625  12.08671875 14.899140625  C 11.437265625 14.899140625  10.88578125 14.67203125  10.431796875 14.2159375  C 9.977109375 13.76078125  9.750234375 13.2071875  9.750234375 12.5565625  C 9.750234375 11.905234375  9.976875 11.35234375  10.431796875 10.89671875  C 10.88578125 10.441328125  11.437265625 10.21328125  12.08671875 10.21328125  C 12.73546875 10.21328125  13.287421875 10.441328125  13.74140625 10.89671875  C 14.195390625 11.35234375  14.422734375 11.905234375  14.422734375 12.5565625  C 14.422734375 13.2071875  14.195390625 13.76078125  13.74140625 14.2159375  Z M 24.980859375 5.58015625  C 24.980859375 5.47421875  24.9421875 5.3828125  24.864609375 5.305703125  C 24.787734375 5.227890625  24.696328125 5.189921875  24.590859375 5.189921875  L 5.119921875 5.189921875  C 5.01421875 5.189921875  4.923046875 5.227890625  4.846171875 5.305703125  C 4.769296875 5.3828125  4.730625 5.473984375  5 5.58015625  L 5 20.420546875  C 4.730625 20.525546875  4.769296875 20.6171875  4.846171875 20.6940625  C 4.92375 20.771875  5.01421875 20.81078125  5.119921875 20.81078125  L 5.480859375 20.81078125  L 5.480859375 21.50921875  C 5.480859375 21.814609375  5.5415625 22.105703125  5.649375 22.372421875  L 5.119921875 22.372421875  C 4.584609375 22.372421875  4.126640625 22.1809375  3.745078125 21.79890625  C 3.363984375 21.415703125  3.173203125 20.9565625  3.173203125 20.419375  L 3.173203125 5.579453125  C 3.173203125 5.0425  3.363984375 4.58359375  3.745078125 4.200859375  C 4.126640625 3.8190625  4.58484375 3.62734375  5.119921875 4  L 24.5915625 4  C 25.126875 3.62734375  25.584609375 3.818828125  25.966640625 4.200859375  C 26.3475 4.583828125  26.53828125 5.0425  26.53828125 5.579453125  L 26.53828125 5.93265625  L 24.980625 5.93265625  L 24.980625 5.58015625  Z M 21.807890625 2.118671875  C 21.807890625 2.0125  21.768984375 1.92109375  21.691640625 1.84421875  C 21.614765625 1.766640625  21.523359375 1.728671875  21.41765625 2  L 1.946953125 2  C 1.841015625 1.728671875  1.74984375 1.766640625  1.673203125 1.844453125  C 1.596328125 1.921796875  1.55765625 2.012734375  2 2.11890625  L 2 16.959296875  C 1.55765625 17.06453125  1.596328125 17.156171875  1.673203125 17.233046875  C 1.75078125 17.310625  1.84125 17.34953125  1.946953125 17.34953125  L 2.307890625 17.34953125  L 2.307890625 18.04796875  C 2.307890625 18.35359375  2.36859375 18.644453125  2.47640625 18.911171875  L 1.946953125 18.911171875  C 1.411640625 18.911171875  0.953671875 18.719921875  0.571875 18.337890625  C 0.191015625 17.9546875  0 17.495546875  0 16.958359375  L 0 2.11796875  C 0 1.581015625  0.191015625 1.122109375  0.571875 0.739375  C 0.9534375 0.35734375  1.411640625 0.165859375  1.946953125 0.165859375  L 21.41859375 0.165859375  C 21.95390625 0.165859375  22.411640625 0.35734375  22.7934375 0.739375  C 23.174296875 1.12234375  23.3653125 1.581015625  23.3653125 2.11796875  L 23.3653125 2.471171875  L 21.80765625 2.471171875  L 21.80765625 2.118671875  Z " fill-rule="nonzero" fill="#aaaaaa" stroke="none" transform="matrix(1 0 0 1 1259 27 )" />
  </g>
</svg>