<?xml version="1.0" encoding="utf-8"?>
<svg version="1.1" xmlns:xlink="http://www.w3.org/1999/xlink" width="18px" height="16px" xmlns="http://www.w3.org/2000/svg">
  <defs>
    <mask fill="white" id="clip3609">
      <path d="M 17.67752 14.8889  C 17.62624 15.16236  17.43834 15.35026  17.16488 15.35026  L 17.1479 15.35026  C 16.87444 15.35026  16.68654 15.1452  16.66938 14.85478  C 16.6524 14.701  16.61812 14.49594  16.54988 14.2398  C 16.49862 13.98348  16.29356 13.55624  15.95186 12.99252  C 15.62714 12.42862  15.18292 11.916  14.65332 11.47178  C 14.12372 11.02756  13.30352 10.6346  12.21002 10.27576  C 11.13368 9.91692  9.86924 9.74616  8.43406 9.74616  L 8.43406 12.89  C 8.43406 13.09506  8.31438 13.29992  8.12648 13.38548  C 7.90446000000001 13.488  7.71638 13.47086  7.54562 13.31708  L 0.455060000000005 7.4395  C 0.318240000000005 7.32  0.250000000000005 7.16622  0.250000000000005 7.01242  C 0.250000000000005 6.84148  0.318240000000005 6.70484  0.455060000000005 6.58534  L 7.54562 0.776000000000002  C 7.88732000000001 0.485560000000002  8.43406000000001 0.724740000000001  8.43406000000001 1.20324  L 8.43406000000001 4.26152  C 11.64614 4.4153  14.05532 5.37216  15.67842 7.25158  C 16.1739 7.81548  16.56686 8.48172  16.87444 9.21654  C 17.19916 9.9512  17.40422 10.60046  17.52372 11.19848  C 17.6434 11.7965  17.71162 12.3945  17.72878 13.00948  C 17.78004 14.2398  17.72878 14.6156  17.67752 14.8889  Z M 7.49436 8.80644  C 7.59688 8.70392  7.75068 8.65266  7.88732 8.65266  C 10.62106 8.65266  12.51762 9.131  13.85028 9.78028  C 15.2685 10.46368  16.02012 11.28388  16.63528 12.1382  C 16.41308 10.48082  15.81524 9.09688  14.84124 7.96928  C 13.35478 6.22652  11.03116 5.35504  7.88732 5.35504  C 7.59688 5.35504  7.34058 5.09872  7.34058 4.8083  L 7.34058 2.348  L 1.6509 7.01242  L 7.34058 11.7281  L 7.34058 9.1994  C 7.34058 9.04562  7.39184 8.92594  7.49436 8.80644  Z " fill-rule="evenodd" />
    </mask>
  </defs>
  <g transform="matrix(1 0 0 1 -35 -47 )">
    <path d="M 17.67752 14.8889  C 17.62624 15.16236  17.43834 15.35026  17.16488 15.35026  L 17.1479 15.35026  C 16.87444 15.35026  16.68654 15.1452  16.66938 14.85478  C 16.6524 14.701  16.61812 14.49594  16.54988 14.2398  C 16.49862 13.98348  16.29356 13.55624  15.95186 12.99252  C 15.62714 12.42862  15.18292 11.916  14.65332 11.47178  C 14.12372 11.02756  13.30352 10.6346  12.21002 10.27576  C 11.13368 9.91692  9.86924 9.74616  8.43406 9.74616  L 8.43406 12.89  C 8.43406 13.09506  8.31438 13.29992  8.12648 13.38548  C 7.90446000000001 13.488  7.71638 13.47086  7.54562 13.31708  L 0.455060000000005 7.4395  C 0.318240000000005 7.32  0.250000000000005 7.16622  0.250000000000005 7.01242  C 0.250000000000005 6.84148  0.318240000000005 6.70484  0.455060000000005 6.58534  L 7.54562 0.776000000000002  C 7.88732000000001 0.485560000000002  8.43406000000001 0.724740000000001  8.43406000000001 1.20324  L 8.43406000000001 4.26152  C 11.64614 4.4153  14.05532 5.37216  15.67842 7.25158  C 16.1739 7.81548  16.56686 8.48172  16.87444 9.21654  C 17.19916 9.9512  17.40422 10.60046  17.52372 11.19848  C 17.6434 11.7965  17.71162 12.3945  17.72878 13.00948  C 17.78004 14.2398  17.72878 14.6156  17.67752 14.8889  Z M 7.49436 8.80644  C 7.59688 8.70392  7.75068 8.65266  7.88732 8.65266  C 10.62106 8.65266  12.51762 9.131  13.85028 9.78028  C 15.2685 10.46368  16.02012 11.28388  16.63528 12.1382  C 16.41308 10.48082  15.81524 9.09688  14.84124 7.96928  C 13.35478 6.22652  11.03116 5.35504  7.88732 5.35504  C 7.59688 5.35504  7.34058 5.09872  7.34058 4.8083  L 7.34058 2.348  L 1.6509 7.01242  L 7.34058 11.7281  L 7.34058 9.1994  C 7.34058 9.04562  7.39184 8.92594  7.49436 8.80644  Z " fill-rule="nonzero" fill="#ffffff" stroke="none" transform="matrix(1 0 0 1 35 47 )" />
    <path d="M 17.67752 14.8889  C 17.62624 15.16236  17.43834 15.35026  17.16488 15.35026  L 17.1479 15.35026  C 16.87444 15.35026  16.68654 15.1452  16.66938 14.85478  C 16.6524 14.701  16.61812 14.49594  16.54988 14.2398  C 16.49862 13.98348  16.29356 13.55624  15.95186 12.99252  C 15.62714 12.42862  15.18292 11.916  14.65332 11.47178  C 14.12372 11.02756  13.30352 10.6346  12.21002 10.27576  C 11.13368 9.91692  9.86924 9.74616  8.43406 9.74616  L 8.43406 12.89  C 8.43406 13.09506  8.31438 13.29992  8.12648 13.38548  C 7.90446000000001 13.488  7.71638 13.47086  7.54562 13.31708  L 0.455060000000005 7.4395  C 0.318240000000005 7.32  0.250000000000005 7.16622  0.250000000000005 7.01242  C 0.250000000000005 6.84148  0.318240000000005 6.70484  0.455060000000005 6.58534  L 7.54562 0.776000000000002  C 7.88732000000001 0.485560000000002  8.43406000000001 0.724740000000001  8.43406000000001 1.20324  L 8.43406000000001 4.26152  C 11.64614 4.4153  14.05532 5.37216  15.67842 7.25158  C 16.1739 7.81548  16.56686 8.48172  16.87444 9.21654  C 17.19916 9.9512  17.40422 10.60046  17.52372 11.19848  C 17.6434 11.7965  17.71162 12.3945  17.72878 13.00948  C 17.78004 14.2398  17.72878 14.6156  17.67752 14.8889  Z " stroke-width="2" stroke="#ffffff" fill="none" transform="matrix(1 0 0 1 35 47 )" mask="url(#clip3609)" />
    <path d="M 7.49436 8.80644  C 7.59688 8.70392  7.75068 8.65266  7.88732 8.65266  C 10.62106 8.65266  12.51762 9.131  13.85028 9.78028  C 15.2685 10.46368  16.02012 11.28388  16.63528 12.1382  C 16.41308 10.48082  15.81524 9.09688  14.84124 7.96928  C 13.35478 6.22652  11.03116 5.35504  7.88732 5.35504  C 7.59688 5.35504  7.34058 5.09872  7.34058 4.8083  L 7.34058 2.348  L 1.6509 7.01242  L 7.34058 11.7281  L 7.34058 9.1994  C 7.34058 9.04562  7.39184 8.92594  7.49436 8.80644  Z " stroke-width="2" stroke="#ffffff" fill="none" transform="matrix(1 0 0 1 35 47 )" mask="url(#clip3609)" />
  </g>
</svg>