<?xml version="1.0" encoding="utf-8"?>
<svg version="1.1" xmlns:xlink="http://www.w3.org/1999/xlink" width="16px" height="12px" xmlns="http://www.w3.org/2000/svg">
  <g transform="matrix(1 0 0 1 -258 -164 )">
    <path d="M 2.92857142857143 9.20454545454546  C 3.26190476190476 9.52272727272727  3.42857142857143 9.90909090909091  3.42857142857143 10.3636363636364  C 3.42857142857143 10.8181818181818  3.26190476190476 11.2045454545455  2.92857142857143 11.5227272727273  C 2.5952380952381 11.8409090909091  2.19047619047619 12  1.71428571428571 12  C 1.23809523809524 12  0.833333333333333 11.8409090909091  0.5 11.5227272727273  C 0.166666666666667 11.2045454545455  0 10.8181818181818  0 10.3636363636364  C 0 9.90909090909091  0.166666666666667 9.52272727272727  0.5 9.20454545454546  C 0.833333333333333 8.88636363636364  1.23809523809524 8.72727272727273  1.71428571428571 8.72727272727273  C 2.19047619047619 8.72727272727273  2.5952380952381 8.88636363636364  2.92857142857143 9.20454545454546  Z M 2.92857142857143 4.84090909090909  C 3.26190476190476 5.15909090909091  3.42857142857143 5.54545454545455  3.42857142857143 6  C 3.42857142857143 6.45454545454545  3.26190476190476 6.84090909090909  2.92857142857143 7.15909090909091  C 2.5952380952381 7.47727272727273  2.19047619047619 7.63636363636364  1.71428571428571 7.63636363636364  C 1.23809523809524 7.63636363636364  0.833333333333333 7.47727272727273  0.5 7.15909090909091  C 0.166666666666667 6.84090909090909  0 6.45454545454545  0 6  C 0 5.54545454545455  0.166666666666667 5.15909090909091  0.5 4.84090909090909  C 0.833333333333333 4.52272727272727  1.23809523809524 4.36363636363636  1.71428571428571 4.36363636363636  C 2.19047619047619 4.36363636363636  2.5952380952381 4.52272727272727  2.92857142857143 4.84090909090909  Z M 15.9151785714286 9.35369318181818  C 15.9717261904762 9.40767045454545  16 9.47159090909091  16 9.54545454545455  L 16 11.1818181818182  C 16 11.2556818181818  15.9717261904762 11.3196022727273  15.9151785714286 11.3735795454545  C 15.858630952381 11.4275568181818  15.7916666666667 11.4545454545455  15.7142857142857 11.4545454545455  L 4.85714285714286 11.4545454545455  C 4.77976190476191 11.4545454545455  4.71279761904762 11.4275568181818  4.65625 11.3735795454545  C 4.59970238095238 11.3196022727273  4.57142857142857 11.2556818181818  4.57142857142857 11.1818181818182  L 4.57142857142857 9.54545454545455  C 4.57142857142857 9.47159090909091  4.59970238095238 9.40767045454545  4.65625 9.35369318181818  C 4.71279761904762 9.29971590909091  4.77976190476191 9.27272727272727  4.85714285714286 9.27272727272727  L 15.7142857142857 9.27272727272727  C 15.7916666666667 9.27272727272727  15.858630952381 9.29971590909091  15.9151785714286 9.35369318181818  Z M 2.92857142857143 0.477272727272728  C 3.26190476190476 0.795454545454545  3.42857142857143 1.18181818181818  3.42857142857143 1.63636363636364  C 3.42857142857143 2.09090909090909  3.26190476190476 2.47727272727273  2.92857142857143 2.79545454545455  C 2.5952380952381 3.11363636363636  2.19047619047619 3.27272727272727  1.71428571428571 3.27272727272727  C 1.23809523809524 3.27272727272727  0.833333333333333 3.11363636363636  0.5 2.79545454545455  C 0.166666666666667 2.47727272727273  0 2.09090909090909  0 1.63636363636364  C 0 1.18181818181818  0.166666666666667 0.795454545454545  0.5 0.477272727272728  C 0.833333333333333 0.159090909090908  1.23809523809524 0  1.71428571428571 0  C 2.19047619047619 0  2.5952380952381 0.159090909090908  2.92857142857143 0.477272727272728  Z M 15.9151785714286 4.99005681818182  C 15.9717261904762 5.04403409090909  16 5.10795454545455  16 5.18181818181818  L 16 6.81818181818182  C 16 6.89204545454545  15.9717261904762 6.95596590909091  15.9151785714286 7.00994318181818  C 15.858630952381 7.06392045454545  15.7916666666667 7.09090909090909  15.7142857142857 7  L 4.85714285714286 7  C 4.77976190476191 7.09090909090909  4.71279761904762 7.06392045454545  4.65625 7.00994318181818  C 4.59970238095238 6.95596590909091  4.57142857142857 6.89204545454545  4.57142857142857 6.81818181818182  L 4.57142857142857 5.18181818181818  C 4.57142857142857 5.10795454545455  4.59970238095238 5.04403409090909  4.65625 4.99005681818182  C 4.71279761904762 4.93607954545455  4.77976190476191 4.90909090909091  4.85714285714286 5  L 15.7142857142857 5  C 15.7916666666667 4.90909090909091  15.858630952381 4.93607954545455  15.9151785714286 4.99005681818182  Z M 15.9151785714286 0.626420454545455  C 15.9717261904762 0.680397727272727  16 0.744318181818182  16 0.818181818181819  L 16 2.45454545454546  C 16 2.52840909090909  15.9717261904762 2.59232954545454  15.9151785714286 2.64630681818182  C 15.858630952381 2.70028409090909  15.7916666666667 2.72727272727273  15.7142857142857 2.72727272727273  L 4.85714285714286 2.72727272727273  C 4.77976190476191 2.72727272727273  4.71279761904762 2.70028409090909  4.65625 2.64630681818182  C 4.59970238095238 2.59232954545454  4.57142857142857 2.52840909090909  4.57142857142857 2.45454545454546  L 4.57142857142857 0.818181818181819  C 4.57142857142857 0.744318181818182  4.59970238095238 0.680397727272727  4.65625 0.626420454545455  C 4.71279761904762 0.572443181818181  4.77976190476191 0.545454545454545  4.85714285714286 0.545454545454545  L 15.7142857142857 0.545454545454545  C 15.7916666666667 0.545454545454545  15.858630952381 0.572443181818181  15.9151785714286 0.626420454545455  Z " fill-rule="nonzero" fill="#000000" stroke="none" transform="matrix(1 0 0 1 258 164 )" />
  </g>
</svg>