<?xml version="1.0" encoding="utf-8"?>
<svg version="1.1" xmlns:xlink="http://www.w3.org/1999/xlink" width="18px" height="20px" xmlns="http://www.w3.org/2000/svg">
  <g>
    <path d="M 14.6122159090909 9.21875  C 14.6889204545455 9.30397727272727  14.7272727272727 9.41287878787879  14.7272727272727 9.54545454545455  L 14.7272727272727 10.4545454545455  C 14.7272727272727 10.5871212121212  14.6889204545455 10.6960227272727  14.6122159090909 10.78125  C 14.5355113636364 10.8664772727273  14.4375 10.9090909090909  14.3181818181818 10.9090909090909  L 9.81818181818182 10.9090909090909  L 9.81818181818182 15.9090909090909  C 9.81818181818182 16.0416666666667  9.77982954545455 16.1505681818182  9.703125 16.2357954545455  C 9.62642045454546 16.3210227272727  9.52840909090909 16.3636363636364  9.40909090909091 16.3636363636364  L 8.59090909090909 16.3636363636364  C 8.47159090909091 16.3636363636364  8.37357954545455 16.3210227272727  8.296875 16.2357954545455  C 8.22017045454546 16.1505681818182  8.18181818181818 16.0416666666667  8.18181818181818 15.9090909090909  L 8.18181818181818 10.9090909090909  L 3.68181818181818 10.9090909090909  C 3.5625 10.9090909090909  3.46448863636364 10.8664772727273  3.38778409090909 10.78125  C 3.31107954545455 10.6960227272727  3.27272727272727 10.5871212121212  3.27272727272727 10.4545454545455  L 3.27272727272727 9.54545454545455  C 3.27272727272727 9.41287878787879  3.31107954545455 9.30397727272727  3.38778409090909 9.21875  C 3.46448863636364 9.13352272727273  3.5625 9.09090909090909  3.68181818181818 9.09090909090909  L 8.18181818181818 9.09090909090909  L 8.18181818181818 4.09090909090909  C 8.18181818181818 3.95833333333333  8.22017045454546 3.84943181818182  8.296875 3.76420454545455  C 8.37357954545455 3.67897727272727  8.47159090909091 3.63636363636364  8.59090909090909 3.63636363636364  L 9.40909090909091 3.63636363636364  C 9.52840909090909 3.63636363636364  9.62642045454546 3.67897727272727  9.703125 3.76420454545455  C 9.77982954545455 3.84943181818182  9.81818181818182 3.95833333333333  9.81818181818182 4.09090909090909  L 9.81818181818182 9.09090909090909  L 14.3181818181818 9.09090909090909  C 14.4375 9.09090909090909  14.5355113636364 9.13352272727273  14.6122159090909 9.21875  Z M 15.7627840909091 17.5142045454545  C 16.1633522727273 17.0691287878788  16.3636363636364 16.5340909090909  16.3636363636364 15.9090909090909  L 16.3636363636364 4.09090909090909  C 16.3636363636364 3.46590909090909  16.1633522727273 2.93087121212121  15.7627840909091 2.48579545454545  C 15.3622159090909 2.0407196969697  14.8806818181818 1.81818181818182  14.3181818181818 2  L 3.68181818181818 2  C 3.11931818181818 1.81818181818182  2.63778409090909 2.0407196969697  2.23721590909091 2.48579545454545  C 1.83664772727273 2.93087121212121  1.63636363636364 3.46590909090909  1.63636363636364 4.09090909090909  L 1.63636363636364 15.9090909090909  C 1.63636363636364 16.5340909090909  1.83664772727273 17.0691287878788  2.23721590909091 17.5142045454545  C 2.63778409090909 17.9592803030303  3.11931818181818 18.1818181818182  3.68181818181818 18  L 14.3181818181818 18  C 14.8806818181818 18.1818181818182  15.3622159090909 17.9592803030303  15.7627840909091 17.5142045454545  Z M 16.9197443181818 1.20028409090909  C 17.6399147727273 2.00047348484848  18 2.96401515151515  18 4.09090909090909  L 18 15.9090909090909  C 18 17.0359848484848  17.6399147727273 17.9995265151515  16.9197443181818 18.7997159090909  C 16.1995738636364 19.5999053030303  15.3323863636364 20  14.3181818181818 20  L 3.68181818181818 20  C 2.66761363636364 20  1.80042613636364 19.5999053030303  1.08025568181818 18.7997159090909  C 0.360085227272727 17.9995265151515  0 17.0359848484848  0 15.9090909090909  L 0 4.09090909090909  C 0 2.96401515151515  0.360085227272727 2.00047348484848  1.08025568181818 1.20028409090909  C 1.80042613636364 0.400094696969695  2.66761363636364 0  3.68181818181818 0  L 14.3181818181818 0  C 15.3323863636364 0  16.1995738636364 0.400094696969695  16.9197443181818 1.20028409090909  Z " fill-rule="nonzero" fill="#555555" stroke="none" />
  </g>
</svg>