<?xml version="1.0" encoding="utf-8"?>
<svg version="1.1" xmlns:xlink="http://www.w3.org/1999/xlink" width="16px" height="17px" xmlns="http://www.w3.org/2000/svg">
  <g transform="matrix(1 0 0 1 -1776 -22 )">
    <path d="M 15.9602272727273 12.9879557291667  C 15.9867424242424 13.3605685763889  16 13.7424045138889  16 14.1334635416667  C 16 15.0188802083333  15.7234848484848 15.7179904513889  15.1704545454545 16.2307942708333  C 14.6174242424242 16.7435980902778  13.8825757575758 17  12.9659090909091 17  L 3.03409090909091 17  C 2.11742424242424 17  1.38257575757576 16.7435980902778  0.829545454545455 16.2307942708333  C 0.276515151515151 15.7179904513889  0 15.0188802083333  0 14.1334635416667  C 0 13.7424045138889  0.0132575757575758 13.3605685763889  0.0397727272727273 12.9879557291667  C 0.0662878787878788 12.6153428819444  0.119318181818182 12.2132161458333  0.198863636363636 11.7815755208333  C 0.278409090909091 11.3499348958333  0.378787878787879 10.9496527777778  0.5 10.5807291666667  C 0.621212121212121 10.2118055555556  0.784090909090909 9.85210503472222  0.988636363636364 9.50162760416667  C 1.19318181818182 9.15115017361111  1.4280303030303 8.85232204861111  1.69318181818182 8.60514322916667  C 1.95833333333333 8.35796440972222  2.28219696969697 8.16059027777778  2.66477272727273 8.01302083333333  C 3.04734848484848 7.86545138888889  3.46969696969697 7.79166666666667  3.93181818181818 7.79166666666667  C 4 7.79166666666667  4.15909090909091 7.87098524305556  4.40909090909091 8.02962239583333  C 4.65909090909091 8.18825954861111  4.94128787878788 8.36534288194444  5.25568181818182 8.56087239583333  C 5.57007575757576 8.75640190972222  5.97916666666667 8.93348524305556  6.48295454545455 9.09212239583333  C 6.98674242424242 9.25075954861111  7.49242424242424 9.330078125  8 9.330078125  C 8.50757575757576 9.330078125  9.01325757575758 9.25075954861111  9.51704545454546 9.09212239583333  C 10.0208333333333 8.93348524305556  10.4299242424242 8.75640190972222  10.7443181818182 8.56087239583333  C 11.0587121212121 8.36534288194444  11.3409090909091 8.18825954861111  11.5909090909091 8.02962239583333  C 11.8409090909091 7.87098524305556  12 7.79166666666667  12.0681818181818 7.79166666666667  C 12.530303030303 7.79166666666667  12.9526515151515 7.86545138888889  13.3352272727273 8.01302083333333  C 13.717803030303 8.16059027777778  14.0416666666667 8.35796440972222  14.3068181818182 8.60514322916667  C 14.5719696969697 8.85232204861111  14.8068181818182 9.15115017361111  15.0113636363636 9.50162760416667  C 15.2159090909091 9.85210503472222  15.3787878787879 10.2118055555556  15.5 10.5807291666667  C 15.6212121212121 10.9496527777778  15.7215909090909 11.3499348958333  15.8011363636364 11.7815755208333  C 15.8806818181818 12.2132161458333  15.9337121212121 12.6153428819444  15.9602272727273 12.9879557291667  Z M 11.0852272727273 1.2451171875  C 11.9375 2.0751953125  12.3636363636364 3.07682291666667  12.3636363636364 4.25  C 12.3636363636364 5.42317708333333  11.9375 6.4248046875  11.0852272727273 7.2548828125  C 10.2329545454545 8.0849609375  9.20454545454546 8.5  8 8.5  C 6.79545454545455 8.5  5.76704545454545 8.0849609375  4.91477272727273 7.2548828125  C 4.0625 6.4248046875  3.63636363636364 5.42317708333333  3.63636363636364 4.25  C 3.63636363636364 3.07682291666667  4.0625 2.0751953125  4.91477272727273 1.2451171875  C 5.76704545454545 0.4150390625  6.79545454545455 0  8 0  C 9.20454545454546 0  10.2329545454545 0.4150390625  11.0852272727273 1.2451171875  Z " fill-rule="nonzero" fill="#f4f5f8" stroke="none" transform="matrix(1 0 0 1 1776 22 )" />
  </g>
</svg>