<?xml version="1.0" encoding="utf-8"?>
<svg version="1.1" xmlns:xlink="http://www.w3.org/1999/xlink" width="13px" height="13px" xmlns="http://www.w3.org/2000/svg">
  <g transform="matrix(1 0 0 1 -1690 -25 )">
    <path d="M 6.67389322916688 0.637369791666664  C 8.21187065972231 0.637369791666664  9.65785590277756 1.23634982638889  10.7454861111112 2.32393663194444  C 11.833203125 3.41161024305556  12.4322482638888 4.85776909722222  12.4322482638888 6.39602864583333  C 12.4322482638888 7.93402777777778  11.833203125 9.38001302083333  10.7454861111112 10.4676215277778  C 9.65781250000009 11.5551866319445  8.21182725694439 12.1541015625  6.67389322916688 12.1541015625  C 5.13569878472231 12.1541015625  3.68953993055561 11.5551649305555  2.60180121527787 10.4676215277778  C 1.51401909722222 9.38005642361112  0.914973958333349 7.93407118055556  0.914973958333349 6.39602864583333  C 0.914973958333349 4.85774739583333  1.51404079861118 3.41156684027778  2.60180121527787 2.32391493055555  C 3.68951822916665 1.236328125  5.13565538194439 0.637369791666664  6.67389322916688 0.637369791666664  Z " fill-rule="nonzero" fill="#ffffff" stroke="none" transform="matrix(1 0 0 1 1690 25 )" />
  </g>
</svg>