<?xml version="1.0" encoding="utf-8"?>
<svg version="1.1" xmlns:xlink="http://www.w3.org/1999/xlink" width="14px" height="18px" xmlns="http://www.w3.org/2000/svg">
  <g transform="matrix(1 0 0 1 -1683 -20 )">
    <path d="M 0.677539062499818 16.7057725694444  C 0.767534722222308 16.9498697916667  1.00015190972226 17.1122178819444  1.26013454861118 17.1122178819444  L 8.15746527777765 17.1122178819444  C 8.50151909722217 17.1121744791667  8.7797309027776 16.8339626736111  8.7797309027776 16.4907769097222  C 8.7797309027776 16.1469618055556  8.50151909722217 15.8690755208333  8.15744357638869 15.8690755208333  L 2.64700520833321 15.8690755208333  C 3.13608940972222 15.1912109375  3.63984374999995 14.2395399305556  3.71542968749986 13.1249782986111  C 3.78144531249995 12.1439019097222  3.76851128472231 10.5399522569444  3.75911458333326 9.36833767361111  L 3.75262586805547 8.47254774305556  C 3.75262586805547 6.94153645833333  4.40256076388869 5.48109809027778  5.53656684027783 4.464453125  C 6.63763020833335 3.47660590277778  8.03982204861109 3.01961805555556  9.50436197916656 3.1763671875  C 10.6795355902777 3.30282118055556  11.7494357638889 3.85247395833333  12.5963758680557 4.76471354166667  C 12.8310329861113 5.01851128472222  13.2245442708333 5.0314453125  13.4745225694446 4.79735243055556  C 13.7268446180556 4.56412760416667  13.7415581597222 4.17065972222222  13.5074652777778 3.91950954861111  C 12.7040147569444 3.05401475694445  11.6988281249999 2.44613715277778  10.6125 2.13823784722223  C 10.6125 1.20481770833333  9.86493055555547 0.356076388888894  8.94444444444434 0.356076388888894  C 8.02395833333321 0.356076388888894  7.27580295138887 1.11482204861111  7.27580295138887 2.04824218750001  C 6.33882378472231 2.30496961805556  5.46306423611122 2.85963541666667  4.70607638888896 3.53956163194444  C 3.30961371527769 4.79118923611111  2.50939670138882 6.58951822916667  2.50939670138882 8.47254774305556  L 2.51555989583335 9.37921006944445  C 2.52556423611122 10.5302734375  2.53851996527783 12.1065321180556  2.47441406249982 13.0399739583333  C 2.36117621527774 14.7156901041667  0.872808159722126 16.0037760416667  0.858116319444434 16.0173177083333  C 0.659027777777965 16.1858289930556  0.587565104166742 16.4613498263889  0.677539062499818 16.7057725694444  Z " fill-rule="nonzero" fill="#ffffff" stroke="none" transform="matrix(1 0 0 1 1683 20 )" />
  </g>
</svg>