<?xml version="1.0" encoding="utf-8"?>
<svg version="1.1" xmlns:xlink="http://www.w3.org/1999/xlink" width="20px" height="17px" xmlns="http://www.w3.org/2000/svg">
  <g transform="matrix(1 0 0 1 -76 -28 )">
    <path d="M 10.4335375 15.4039091796875  C 11.4674358675114 16.3796527267885  12.8555450928851 16.9259342478249  14.3010251542104 16.9259342478249  C 17.3573862186725 16.9259342478249  19.8350564042104 14.5327300913394  19.8350564042104 11.5805631540749  C 19.8350564042104 10.3204164833996  19.3741422240342 9.10078559506758  18.5336796875 8.1369736328125  L 18.5336796875 1.6774716796875  C 18.5336796875 0.751029652723047  17.7561431058573 0  16.797003125 0  L 1.853846875 0  C 0.894713606285825 0  0.117187499953025 0.751036135997759  0.1171875 1.6774716796875  L 0.1171875 10.6030859375  C 0.120756712370314 11.5270828176682  0.897248869220653 12.2743052596694  1.8538640625 12.274298828125  L 7.1805109375 12.274298828125  L 7.1805109375 14.152068359375  L 3.6877359375 14.152068359375  C 3.32985091335448 14.1520683592534  3.03972511721612 14.4322960705492  3.039715625 14.77798046875  C 3.039715625 15.123671350282  3.32984420132567 15.4039091796875  3.6877359375 15.4039091796875  L 10.4335375 15.4039091796875  Z M 14.3734453125 7.5486142578125  C 16.7176015372033 7.5486142578125  18.617915625 9.38414491079796  18.617915625 11.64838671875  C 18.6143474405534 13.9111929055826  16.7161324201349 15.7447034748975  14.3734625 15.7481591796875  C 12.0293062752967 15.7481591796875  10.128975 13.912628526702  10.128975 11.64838671875  C 10.128975 9.38414491079796  12.0292890877967 7.5486142578125  14.3734453125 7.5486142578125  Z M 8.852390625 11.0224580078125  L 1.8538640625 11.0224580078125  C 1.61441872534961 11.0192027805032  1.42013702537513 10.8343111078019  1.4132109375 10.6031025390625  L 1.6 10.6030859375  L 1.6 1.6774716796875  C 1.41317803463447 1.67536414175575  1.41316158250036 1.67325639416414  1.41316158250036 1.67114861661967  C 1.41316158250036 1.4395449864709  1.60753995658164 1.25179314786967  1.84731783250036 1.25179314786967  C 1.84950000219346 1.25179314786967  1.85168214087654 1.25180903913558  1.8538640625 1.54545454545455  L 16.7970203125 1.54545454545455  C 17.0389230605279 1.25521202725138  17.234175494794 1.4438154849341  17.23765625 1.6774716796875  L 17.23765625 7.0916728515625  C 14.9394819432033 5.71568296126235  11.9464939543232 6.15902176737496  10.1808125 8.1369736328125  L 8.9495859375 4.7444775390625  C 8.80187914688478 4.32626858796334  8.39508967032668 4.04515613920767  7.93761870711923 4.04515613920767  C 7.63722705209525 4.04515613920767  7.35069057601377 4.1672081163996  7.1481125 4.381451171875  L 5.30128125 6.2967734375  L 2.3981921875 6.2967734375  L 2.3981921875 7.54859765625  L 5.417915625 7.54859765625  C 5.71603560267533 7.54985590008158  6.00082358107796 7.42936851474483  6.202009375 7.216865234375  L 7.8479703125 5.483064453125  L 9.2930265625 9.4826962890625  C 9.06637914092458 9.97147364309113  8.91781022293862 10.4906340497724  8.852390625 11.0224580078125  Z M 8.47653437500001 12.2930751953125  L 8.852390625 12.2930751953125  C 8.93627900342285 12.9502424743274  9.14497358853238 13.5868203646728  9.4679953125 14.1708447265625  L 8.47653437500001 14.1708447265625  L 8.47653437500001 12.2930751953125  Z M 17.179321875 12.574720703125  C 17.5372136111743 12.574720703125  17.8306795180605 12.2944911745008  17.8306795180605 11.9488002929688  C 17.8306795180605 11.6031094114367  17.5405509417348 11.3228715820313  17.1826592055605 11.3228715820313  L 14.9307328125 11.322896484375  L 14.9307328125 9.15722265625  C 14.9307328125 8.81153177471797  14.6406128299243 8.52807038738478  14.28272109375 8.52807038738478  C 13.9248293575757 8.52807038738478  13.63470078125 8.80830821679025  13.63470078125 9.15399909832228  L 13.634709375 11.7798046875  C 13.6348880427619 11.9904817492867  13.7322891170568 12.1901154151625  13.90039375 12.3243525390625  C 14.0374525581024 12.4848509225557  14.2422972365163 12.5768798771841  14.45768125 12.574720703125  L 17.179321875 12.574720703125  Z " fill-rule="nonzero" fill="#ffffff" stroke="none" transform="matrix(1 0 0 1 76 28 )" />
  </g>
</svg>