<?xml version="1.0" encoding="utf-8"?>
<svg version="1.1" xmlns:xlink="http://www.w3.org/1999/xlink" width="13px" height="9px" xmlns="http://www.w3.org/2000/svg">
  <g transform="matrix(1 0 0 1 -925 -167 )">
    <path d="M 2.55138889160156 2.97361110839844  L 5.0875 5.61666667480469  L 10.125 0.369444433593751  C 10.4417975638733 0.0358421283343322  10.932904499471 -0.0650398747991883  11.3555555664063 0.116666674804689  C 11.767934653473 0.297651085777057  12.034257622143 0.705377611334731  12.034257622143 1.15572399853573  C 12.034257622143 1.44937554316776  11.9204179785338 1.73159248240938  11.7166666748047 1.94305556640625  L 5.88333332519531 8.01944443359375  C 5.67575976211466 8.23698400560334  5.38818297171624 8.36007013951436  5.0875 8.36007013951436  C 4.78681702828376 8.36007013951436  4.49924023788534 8.23698400560334  4.29166667480469 8.01944443359375  L 0.968055566406249 4.55694443359375  C 0.687601064165682 4.27308999697083  0.575931159846773 3.86328254193518  0.673611108398437 3.47638889160157  C 0.770526683616666 3.08324096685029  1.0721953028073 2.77307464218068  1.4625 2.66527778320313  C 1.85455820049719 2.55785754312461  2.27385451194735 2.67658685237618  2.55138889160156 2.97361110839844  Z M 5.29444443359375 7.05833332519531  L 5.0875 6.84305556640625  L 4.88194443359375 7.05833332519531  C 4.93608308196685 7.00258444773067  5.01048387712789 6.97112607968234  5.08819443359375 6.97112607968234  C 5.16590499005961 6.97112607968234  5.24030578522065 7.00258444773067  5.29444443359375 7.05833332519531  Z " fill-rule="nonzero" fill="#ffffff" stroke="none" transform="matrix(1 0 0 1 925 167 )" />
  </g>
</svg>