<?xml version="1.0" encoding="utf-8"?>
<svg version="1.1" xmlns:xlink="http://www.w3.org/1999/xlink" width="24px" height="20px" xmlns="http://www.w3.org/2000/svg">
  <g transform="matrix(1 0 0 1 -50 -10 )">
    <path d="M 22.24 5.43835616438356  C 22.24 5.9041095890411  22.6 6.28767123287671  23.0666666666667 6.28767123287671  C 23.52 6.28767123287671  23.8933333333333 5.9041095890411  23.8933333333333 5.43835616438356  L 23.8933333333333 3.16438356164384  C 23.8933333333333 1.43835616438356  22.5333333333333 0.0410958904109595  20.8533333333333 0  L 3.13333333333333 0  C 1.45333333333333 0.0410958904109595  0.0933333333333335 1.43835616438356  0 3.16438356164384  L 0 16.8219178082192  C 0.0933333333333335 18.5479452054794  1.45333333333333 19.9452054794521  3.13333333333333 20  L 20.8533333333333 20  C 22.5333333333333 19.9452054794521  23.8933333333333 18.5479452054794  23.8933333333333 16.8219178082192  L 23.8933333333333 10  C 23.8933333333333 9.53424657534246  23.52 9.15068493150685  23.0666666666667 9.15068493150685  C 22.6133333333333 9.15068493150685  22.24 9.53424657534246  22.24 10  L 22.24 13  L 1.74666666666667 13  L 1.74666666666667 3.16438356164384  C 1.74666666666667 2.38356164383562  2.37333333333333 1.73972602739726  3.13333333333333 2  L 20.8533333333333 2  C 21.6133333333333 1.73972602739726  22.24 2.38356164383562  22.24 3.16438356164384  L 22.24 5.43835616438356  Z M 1.74666666666667 14.6712328767123  L 22.24 14.6712328767123  L 22.24 16.8082191780822  C 22.24 17.5890410958904  21.6133333333333 18.2328767123288  20.8533333333333 18  L 3.13333333333333 18  C 2.37333333333333 18.2328767123288  1.74666666666667 17.5890410958904  1.74666666666667 16.8082191780822  L 1.74666666666667 14.6712328767123  Z M 16.8133333333333 7.86301369863014  L 18.9066666666667 7.86301369863014  C 19.36 7.86301369863014  19.7333333333333 8.24657534246575  19.7333333333333 8.71232876712329  C 19.7333333333333 9.17808219178082  19.36 9.56164383561644  18.9066666666667 9.56164383561644  L 16.3466666666667 9.56164383561644  C 16.0533333333333 9.56164383561644  15.7866666666667 9.41095890410959  15.64 9.15068493150685  L 15.12 8.27397260273973  L 13.1733333333333 11.6027397260274  C 13 11.8904109589041  12.68 12.0547945205479  12.36 12.013698630137  C 12.0266666666667 11.972602739726  11.76 11.7397260273973  11.6666666666667 11.4109589041096  L 10.2933333333333 6.75342465753424  L 9.72 9  C 9.62666666666667 9.36986301369863  9.29333333333334 9.63013698630137  8.92000000000001 9.63013698630137  L 5.06666666666667 9.63013698630137  C 4.61333333333333 9.63013698630137  4.24 9.24657534246575  4.24 8.78082191780822  C 4.24 8.31506849315068  4.61333333333333 7.93150684931507  5.06666666666667 7.93150684931507  L 8.28 7.93150684931507  L 9.44 3.3972602739726  C 9.53333333333333 3.02739726027397  9.85333333333333 2.76712328767123  10.2266666666667 2.76712328767123  C 10.5866666666667 2.78082191780822  10.9333333333333 3.01369863013698  11.04 3.36986301369863  L 12.72 9.08219178082192  L 14.4 6.20547945205479  C 14.5466666666667 5.94520547945205  14.8133333333333 5.7945205479452  15.1066666666667 5.7945205479452  C 15.4 5.7945205479452  15.6666666666667 5.94520547945205  15.8133333333333 6.20547945205479  L 16.8133333333333 7.86301369863014  Z M 4.24 17.6575342465753  C 3.78666666666667 17.6575342465753  3.41333333333333 17.2876712328767  3.41333333333333 16.8082191780822  C 3.41333333333333 16.3424657534247  3.78666666666667 15.958904109589  4.24 15.958904109589  L 6.45333333333333 15.958904109589  C 6.90666666666667 15.958904109589  7.28 16.3424657534247  7.28 16.8082191780822  C 7.28 17.2739726027397  6.90666666666667 17.6575342465753  6.45333333333333 17.6575342465753  L 4.24 17.6575342465753  Z M 9.77333333333333 17.6575342465753  C 9.32 17.6575342465753  8.94666666666667 17.2876712328767  8.94666666666667 16.8082191780822  C 8.94666666666667 16.3424657534247  9.32 15.958904109589  9.77333333333333 15.958904109589  L 11.9866666666667 15.958904109589  C 12.44 15.958904109589  12.8133333333333 16.3424657534247  12.8133333333333 16.8082191780822  C 12.8133333333333 17.2739726027397  12.44 17.6575342465753  11.9866666666667 17.6575342465753  L 9.77333333333333 17.6575342465753  Z M 18.64 17.9452054794521  C 18.0266666666667 17.9452054794521  17.5333333333333 17.4383561643836  17.5333333333333 16.8082191780822  C 17.5333333333333 16.1780821917808  18.0266666666667 15.6712328767123  18.64 15.6712328767123  C 19.2533333333333 15.6712328767123  19.7466666666667 16.1780821917808  19.7466666666667 16.8082191780822  C 19.7466666666667 17.4383561643836  19.2533333333333 17.9452054794521  18.64 17.9452054794521  Z " fill-rule="nonzero" fill="#174a8e" stroke="none" transform="matrix(1 0 0 1 50 10 )" />
  </g>
</svg>