<?xml version="1.0" encoding="utf-8"?>
<svg version="1.1" xmlns:xlink="http://www.w3.org/1999/xlink" width="21px" height="25px" xmlns="http://www.w3.org/2000/svg">
  <g transform="matrix(1 0 0 1 -1130 -158 )">
    <path d="M 20.6891447368421 5.06963315217391  C 20.6459703947368 4.64504076086956  20.4732730263158 4.26290760869565  20.1710526315789 3.96569293478261  C 19.8688322368421 3.7109375  19.4802631578947 3.5835597826087  19.0916940789474 3.5835597826087  L 18.3577302631579 3.5835597826087  C 17.7101151315789 3.5835597826087  16.4148848684211 3.54110054347826  15.2491776315789 3.24388586956522  C 13.6949013157895 2.8617527173913  11.8815789473684 1.20584239130435  11.3634868421053 0.866168478260869  C 11.1044407894737 0.69633152173913  10.8022203947368 0.611413043478261  10.5 0.611413043478261  C 10.1977796052632 0.611413043478261  9.89555921052631 0.69633152173913  9.63651315789473 0.866168478260869  C 9.59333881578947 0.908627717391304  7.69366776315789 2.81929347826087  5.83717105263157 3.24388586956522  C 4.62828947368421 3.54110054347826  3.33305921052631 3.5835597826087  2.68544407894736 3.5835597826087  L 1.95148026315789 3.5835597826087  C 1.56291118421052 3.5835597826087  1.17434210526315 3.7109375  0.872121710526312 3.96569293478261  C 0.569901315789471 4.26290760869565  0.397203947368418 4.64504076086957  0.397203947368418 5.06963315217391  L 0.397203947368418 8.80604619565217  C 0.397203947368418 22.562839673913  9.85238486842105 24.3036684782609  10.2409539473684 24.3885869565217  C 10.3273026315789 24.3885869565217  10.4136513157895 24.4310461956522  10.5 24.4310461956522  C 10.5863486842105 24.4310461956522  10.672697368421 24.4310461956522  10.7590460526316 24.3885869565217  C 11.1476151315789 24.3036684782609  20.6891447368421 22.562839673913  20.6891447368421 8.80604619565217  L 20.6891447368421 5.06963315217391  Z M 11.3634868421053 16.6610054347826  L 11.3634868421053 18.359375  L 9.63651315789474 18.359375  L 9.63651315789474 16.6610054347826  L 11.3634868421053 16.6610054347826  Z M 11.3634868421053 6.68308423913043  L 11.3634868421053 15.5995244565217  L 9.63651315789474 15.5995244565217  L 9.63651315789474 6.68308423913043  L 11.3634868421053 6.68308423913043  Z " fill-rule="nonzero" fill="#ffffff" stroke="none" transform="matrix(1 0 0 1 1130 158 )" />
  </g>
</svg>