<?xml version="1.0" encoding="utf-8"?>
<svg version="1.1" xmlns:xlink="http://www.w3.org/1999/xlink" width="24px" height="24px" xmlns="http://www.w3.org/2000/svg">
  <g transform="matrix(1 0 0 1 -50 -8 )">
    <path d="M 22.7608695652174 24  L 22.7608695652174 21.625  L 19 21.625  L 19 10.9375  C 19.1739130434783 7.66000000000003  15.3 5  12 5  C 8.7 5  4.82608695652173 7.66000000000003  5 10.9375  L 5 21.625  L 1.23913043478261 21.625  L 1.23913043478261 24  L 22.7608695652174 24  Z M 10.8 0  L 13.2 0  L 13.2 3.52941176470586  L 10.8 3.52941176470586  L 10.8 0  Z M 20.4 12.9411764705882  L 24 12.9411764705882  L 24 15.2941176470588  L 20.4 15.2941176470588  L 20.4 12.9411764705882  Z M 0 12.9411764705882  L 3.59999999999999 12.9411764705882  L 3.59999999999999 15.2941176470588  L 0 15.2941176470588  L 0 12.9411764705882  Z M 18.2868 6.28705882352943  L 20.8308 3.79176470588237  L 22.5288 5.45529411764704  L 19.9836 7.95058823529411  L 18.2868 6.28705882352943  Z M 1.47 5.45882352941175  L 3.1668 3.79529411764707  L 5.712 6.29176470588237  L 4.01519999999999 7.95529411764704  L 1.47 5.45882352941175  Z M 16.7826086956522 10.9375  L 16.7826086956522 21.625  L 7.21739130434783 21.625  L 7.21739130434783 10.9375  C 7.21739130434783 9.239375  9.71630434782608 7.375  12 7.375  C 14.2836956521739 7.375  16.7826086956522 9.239375  16.7826086956522 10.9375  Z M 16.175 13.75  L 12.425 13.75  L 13.75 10  L 11.25 10  L 8.825 16.25  L 12.575 16.25  L 11.25 20  L 13.75 20  L 16.175 13.75  Z " fill-rule="nonzero" fill="#000000" stroke="none" transform="matrix(1 0 0 1 50 8 )" />
  </g>
</svg>