<?xml version="1.0" encoding="utf-8"?>
<svg version="1.1" xmlns:xlink="http://www.w3.org/1999/xlink" width="20px" height="20px" xmlns="http://www.w3.org/2000/svg">
  <g transform="matrix(1 0 0 1 -366 -458 )">
    <path d="M 376 458  C 381.6 458  386 462.4  386 468  C 386 473.6  381.6 478  376 478  C 370.4 478  366 473.6  366 468  C 366 462.4  370.4 458  376 458  Z " fill-rule="nonzero" fill="#ffffff" stroke="none" fill-opacity="0" />
    <path d="M 376 458.5  C 381.32 458.5  385.5 462.68  385.5 468  C 385.5 473.32  381.32 477.5  376 477.5  C 370.68 477.5  366.5 473.32  366.5 468  C 366.5 462.68  370.68 458.5  376 458.5  Z " stroke-width="1" stroke="#f20201" fill="none" />
  </g>
</svg>