<?xml version="1.0" encoding="utf-8"?>
<svg version="1.1" xmlns:xlink="http://www.w3.org/1999/xlink" width="22px" height="19px" xmlns="http://www.w3.org/2000/svg">
  <g transform="matrix(1 0 0 1 -699 -158 )">
    <path d="M 0.232370055573716 3.89658035714286  C 0.232370055573716 4.94982142857143  1.09070447858777 5.81108928571428  2.13793396534815 6  L 19.7817955214122 6  C 20.831236515201 5.81108928571429  21.6873594311867 4.94982142857143  21.6873594311867 3.899875  L 21.6873594311867 2.26621428571429  C 21.6873594311867 1.21297321428571  20.8290250081726 0.355  19.7817955214122 0.355  L 2.13793396534815 0.355  C 1.08849297155933 0.355  0.232370055573716 1.21626785714286  0.232370055573716 2.26621428571429  L 0.232370055573716 3.89658035714286  Z M 3.25032200065381 1.98646428571429  C 3.86041700772416 1.98646428571429  4.35499673095783 2.47767187447136  4.35499673095783 3.08360714285714  C 4.35499673095783 3.68954241124293  3.86041700772416 4.18075  3.25032200065381 4.18075  C 2.64022699358345 4.18075  2.14564727034979 3.68954241124293  2.14564727034979 3.08360714285714  C 2.14564727034979 2.47767187447136  2.64022699358345 1.98646428571429  3.25032200065381 1.98646428571429  Z M 2.13793396534815 12.3917767857143  L 2.13793396534815 12.390625  L 19.7817955214122 12.390625  C 20.831236515201 12.390625  21.6873594311867 11.5293839285714  21.6873594311867 10.4783125  L 21.6873594311867 8.84904464285714  C 21.6873594311867 7.79580357142857  20.8290250081726 6.93783035714286  19.7817955214122 7  L 2.13793396534815 7  C 1.08849297155933 6.93783035714286  0.232370055573716 7.79909821428571  0.232370055573716 8.84904464285714  L 0.232370055573716 10.4794642857143  C 0.232370055573716 11.5327053571429  1.09070447858777 12.3917767857143  2.13793396534815 12.3917767857143  Z M 3.25032200065381 8.566  C 3.86041700772416 8.566  4.35499673095783 9.05720758875707  4.35499673095783 9.66314285714286  C 4.35499673095783 10.2690781255286  3.86041700772416 10.7602857142857  3.25032200065381 10.7602857142857  C 2.64022699358345 10.7602857142857  2.14564727034979 10.2690781255286  2.14564727034979 9.66314285714286  C 2.14564727034979 9.05720758875707  2.64022699358345 8.566  3.25032200065381 8.566  Z M 2.13793396534815 18.9493482142857  L 2.13903971886237 18.949375  L 7.26471967963387 18.949375  C 8.13079437724747 17.7622589285714  9.51824534161491 16.8307857142857  11.0957510624387 16.8307857142857  C 12.6732567832625 16.8307857142857  14.0893764302059 17.7600625  14.9510550833606 18.949375  L 19.780689767898 18.949375  C 20.8301307616868 18.949375  21.6862536776724 18.0881071428571  21.6862536776724 17.0381607142857  L 21.6862536776724 15.4077678571429  C 21.6862536776724 14.3545267857143  20.8279192546584 13.4954553571429  19.780689767898 13.4954553571429  L 2.13793396534815 13.4954553571429  C 1.08849297155933 13.4954553571429  0.232370055573716 14.3567232142857  0.232370055573716 15.4077678571429  L 0.232370055573716 17.0381339285714  C 0.231115900980233 18.0869220249027  1.08198438824025 18.9403135064343  2.13793396534815 18.9493482142857  Z M 3.25032200065381 15.12475  C 3.86041700772416 15.12475  4.35499673095783 15.6159575887571  4.35499673095783 16.2218928571429  C 4.35499673095783 16.8278281255286  3.86041700772416 17.3190357142857  3.25032200065381 17.3190357142857  C 2.64022699358345 17.3190357142857  2.14564727034979 16.8278281255286  2.14564727034979 16.2218928571429  C 2.14564727034979 15.6159575887571  2.64022699358345 15.12475  3.25032200065381 15.12475  Z " fill-rule="nonzero" fill="#ffffff" stroke="none" transform="matrix(1 0 0 1 699 158 )" />
  </g>
</svg>