<?xml version="1.0" encoding="utf-8"?>
<svg version="1.1" xmlns:xlink="http://www.w3.org/1999/xlink" width="9px" height="4px" xmlns="http://www.w3.org/2000/svg">
  <g transform="matrix(1 0 0 1 -372 -550 )">
    <path d="M 8.90981963927856 0.412371134020618  C 8.96993987975952 0.458190148911797  9 0.510882016036655  9 0.570446735395189  C 9 0.630011454753722  8.96993987975952 0.682703321878579  8.90981963927856 0.72852233676976  L 4.70741482965932 3.93127147766323  C 4.64729458917836 3.97709049255441  4.57815631262525 4  4.5 4  C 4.42184368737475 4  4.35270541082164 3.97709049255441  4.29258517034068 3.93127147766323  L 0.0901803607214429 0.72852233676976  C 0.030060120240481 0.682703321878579  0 0.630011454753722  0 0.570446735395189  C 0 0.510882016036655  0.030060120240481 0.458190148911797  0.0901803607214429 0.412371134020618  L 0.541082164328657 0.06872852233677  C 0.601202404809619 0.0229095074455894  0.670340681362726 0  0.748496993987976 0  C 0.826653306613227 0  0.895791583166333 0.0229095074455894  0.955911823647295 0.06872852233677  L 4.5 2.76975945017182  L 8.04408817635271 0.06872852233677  C 8.10420841683367 0.0229095074455894  8.17334669338677 0  8.25150300601202 0  C 8.32965931863728 0  8.39879759519038 0.0229095074455894  8.45891783567134 0.06872852233677  L 8.90981963927856 0.412371134020618  Z " fill-rule="nonzero" fill="#f20201" stroke="none" transform="matrix(1 0 0 1 372 550 )" />
  </g>
</svg>