<?xml version="1.0" encoding="utf-8"?>
<svg version="1.1" xmlns:xlink="http://www.w3.org/1999/xlink" width="9px" height="4px" xmlns="http://www.w3.org/2000/svg">
  <g transform="matrix(1 0 0 1 -372 -521 )">
    <path d="M 8.90981963927856 3.27147766323024  C 8.96993987975952 3.31729667812142  9 3.36998854524628  9 3.42955326460481  C 9 3.48911798396334  8.96993987975952 3.5418098510882  8.90981963927856 3.58762886597938  L 8.45891783567134 3.93127147766323  C 8.39879759519038 3.97709049255441  8.32965931863728 4  8.25150300601202 4  C 8.17334669338677 4  8.10420841683367 3.97709049255441  8.04408817635271 3.93127147766323  L 4.5 1.23024054982818  L 0.955911823647295 3.93127147766323  C 0.895791583166333 3.97709049255441  0.826653306613227 4  0.748496993987976 4  C 0.670340681362726 4  0.601202404809619 3.97709049255441  0.541082164328657 3.93127147766323  L 0.0901803607214429 3.58762886597938  C 0.030060120240481 3.5418098510882  0 3.48911798396334  0 3.42955326460481  C 0 3.36998854524628  0.030060120240481 3.31729667812142  0.0901803607214429 3.27147766323024  L 4.29258517034068 0.06872852233677  C 4.35270541082164 0.0229095074455894  4.42184368737475 0  4.5 0  C 4.57815631262525 0  4.64729458917836 0.0229095074455894  4.70741482965932 0.06872852233677  L 8.90981963927856 3.27147766323024  Z " fill-rule="nonzero" fill="#f20201" stroke="none" transform="matrix(1 0 0 1 372 521 )" />
  </g>
</svg>