<?xml version="1.0" encoding="utf-8"?>
<svg version="1.1" xmlns:xlink="http://www.w3.org/1999/xlink" width="7px" height="4px" xmlns="http://www.w3.org/2000/svg">
  <g transform="matrix(1 0 0 1 -736 -518 )">
    <path d="M 6.92985971943888 3.27147766323024  C 6.97661990647963 3.31729667812142  7 3.36998854524628  7 3.42955326460481  C 7 3.48911798396334  6.97661990647963 3.5418098510882  6.92985971943888 3.58762886597938  L 6.57915831663327 3.93127147766323  C 6.53239812959252 3.97709049255441  6.47862391449566 4  6.41783567134268 4  C 6.35704742818971 4  6.30327321309285 3.97709049255441  6.2565130260521 3.93127147766323  L 3.5 1.23024054982818  L 0.743486973947896 3.93127147766323  C 0.696726786907148 3.97709049255441  0.642952571810287 4  0.582164328657315 4  C 0.521376085504342 4  0.467601870407482 3.97709049255441  0.420841683366733 3.93127147766323  L 0.0701402805611222 3.58762886597938  C 0.0233800935203742 3.5418098510882  0 3.48911798396334  0 3.42955326460481  C 0 3.36998854524628  0.0233800935203742 3.31729667812142  0.0701402805611222 3.27147766323024  L 3.33867735470942 0.06872852233677  C 3.38543754175017 0.0229095074455894  3.43921175684703 0  3.5 0  C 3.56078824315297 0  3.61456245824983 0.0229095074455894  3.66132264529058 0.06872852233677  L 6.92985971943888 3.27147766323024  Z " fill-rule="nonzero" fill="#00e266" stroke="none" transform="matrix(1 0 0 1 736 518 )" />
  </g>
</svg>