<?xml version="1.0" encoding="utf-8"?>
<svg version="1.1" xmlns:xlink="http://www.w3.org/1999/xlink" width="46px" height="6px" preserveAspectRatio="xMinYMid meet" viewBox="164 609  46 4" xmlns="http://www.w3.org/2000/svg">
  <g transform="matrix(-1 0 0 -1 374 1222 )">
    <path d="M 193.3 597.5  L 187 591.5  L 180.7 597.5  L 193.3 597.5  Z M 190.9 596.5  L 183.1 596.5  L 187 593  L 190.9 596.5  Z M 193.3 602.5  L 187 596.5  L 180.7 602.5  L 193.3 602.5  Z M 190.9 601.5  L 183.1 601.5  L 187 598  L 190.9 601.5  Z " fill-rule="nonzero" fill="#f20201" stroke="none" transform="matrix(6.12303176911189E-17 1 -1 6.12303176911189E-17 798.5 425.5 )" />
    <path d="M 187 602.5  L 187 631.5  " stroke-width="1" stroke="#f20201" fill="none" transform="matrix(6.12303176911189E-17 1 -1 6.12303176911189E-17 798.5 425.5 )" />
  </g>
</svg>