<?xml version="1.0" encoding="utf-8"?>
<svg version="1.1" xmlns:xlink="http://www.w3.org/1999/xlink" width="26.0000000082913px" height="20px" preserveAspectRatio="xMinYMid meet" viewBox="187.999999991709 645  26.0000000082913 18" xmlns="http://www.w3.org/2000/svg">
  <g transform="matrix(-1 0 0 -1 401.999999991709 1308 )">
    <path d="M 193.3 640.5  L 187 634.5  L 180.7 640.5  L 193.3 640.5  Z M 190.9 639.5  L 183.1 639.5  L 187 636  L 190.9 639.5  Z M 193.3 645.5  L 187 639.5  L 180.7 645.5  L 193.3 645.5  Z M 190.9 644.5  L 183.1 644.5  L 187 641  L 190.9 644.5  Z " fill-rule="nonzero" fill="#f20201" stroke="none" transform="matrix(6.12303176911189E-17 1 -1 6.12303176911189E-17 841.5 468.5 )" />
    <path d="M 187 645.5  L 187 674.5  " stroke-width="1" stroke="#f20201" fill="none" transform="matrix(6.12303176911189E-17 1 -1 6.12303176911189E-17 841.5 468.5 )" />
  </g>
</svg>