<?xml version="1.0" encoding="utf-8"?>
<svg version="1.1" xmlns:xlink="http://www.w3.org/1999/xlink" width="26.0000000082913px" height="20px" preserveAspectRatio="xMinYMid meet" viewBox="187.999999991709 731  26.0000000082913 18" xmlns="http://www.w3.org/2000/svg">
  <g transform="matrix(-1 0 0 -1 401.999999991709 1480 )">
    <path d="M 193.3 726.5  L 187 720.5  L 180.7 726.5  L 193.3 726.5  Z M 190.9 725.5  L 183.1 725.5  L 187 722  L 190.9 725.5  Z M 193.3 731.5  L 187 725.5  L 180.7 731.5  L 193.3 731.5  Z M 190.9 730.5  L 183.1 730.5  L 187 727  L 190.9 730.5  Z " fill-rule="nonzero" fill="#f20201" stroke="none" transform="matrix(6.12303176911189E-17 1 -1 6.12303176911189E-17 927.5 554.5 )" />
    <path d="M 187 731.5  L 187 760.5  " stroke-width="1" stroke="#f20201" fill="none" transform="matrix(6.12303176911189E-17 1 -1 6.12303176911189E-17 927.5 554.5 )" />
  </g>
</svg>