<?xml version="1.0" encoding="utf-8"?>
<svg version="1.1" xmlns:xlink="http://www.w3.org/1999/xlink" width="46px" height="6px" preserveAspectRatio="xMinYMid meet" viewBox="164 695  46 4" xmlns="http://www.w3.org/2000/svg">
  <g transform="matrix(-1 0 0 -1 374 1394 )">
    <path d="M 193.3 683.5  L 187 677.5  L 180.7 683.5  L 193.3 683.5  Z M 190.9 682.5  L 183.1 682.5  L 187 679  L 190.9 682.5  Z M 193.3 688.5  L 187 682.5  L 180.7 688.5  L 193.3 688.5  Z M 190.9 687.5  L 183.1 687.5  L 187 684  L 190.9 687.5  Z " fill-rule="nonzero" fill="#f20201" stroke="none" transform="matrix(6.12303176911189E-17 1 -1 6.12303176911189E-17 884.5 511.5 )" />
    <path d="M 187 688.5  L 187 717.5  " stroke-width="1" stroke="#f20201" fill="none" transform="matrix(6.12303176911189E-17 1 -1 6.12303176911189E-17 884.5 511.5 )" />
  </g>
</svg>