<?xml version="1.0" encoding="utf-8"?>
<svg version="1.1" xmlns:xlink="http://www.w3.org/1999/xlink" width="26.0000000082913px" height="20px" preserveAspectRatio="xMinYMid meet" viewBox="371.999999991709 731  26.0000000082913 18" xmlns="http://www.w3.org/2000/svg">
  <g transform="matrix(-1 0 0 -1 769.999999991709 1480 )">
    <path d="M 377.3 726.5  L 371 720.5  L 364.7 726.5  L 377.3 726.5  Z M 374.9 725.5  L 367.1 725.5  L 371 722  L 374.9 725.5  Z M 377.3 731.5  L 371 725.5  L 364.7 731.5  L 377.3 731.5  Z M 374.9 730.5  L 367.1 730.5  L 371 727  L 374.9 730.5  Z " fill-rule="nonzero" fill="#f20201" stroke="none" transform="matrix(6.12303176911189E-17 1 -1 6.12303176911189E-17 1111.5 370.5 )" />
    <path d="M 371 731.5  L 371 760.5  " stroke-width="1" stroke="#f20201" fill="none" transform="matrix(6.12303176911189E-17 1 -1 6.12303176911189E-17 1111.5 370.5 )" />
  </g>
</svg>