<?xml version="1.0" encoding="utf-8"?>
<svg version="1.1" xmlns:xlink="http://www.w3.org/1999/xlink" width="46px" height="6px" preserveAspectRatio="xMinYMid meet" viewBox="532 653  46 4" xmlns="http://www.w3.org/2000/svg">
  <g transform="matrix(-1 0 0 -1 1110 1310 )">
    <path d="M 561.3 640.5  L 555 634.5  L 548.7 640.5  L 561.3 640.5  Z M 558.9 639.5  L 551.1 639.5  L 555 636  L 558.9 639.5  Z M 561.3 645.5  L 555 639.5  L 548.7 645.5  L 561.3 645.5  Z M 558.9 644.5  L 551.1 644.5  L 555 641  L 558.9 644.5  Z " fill-rule="nonzero" fill="#f20201" stroke="none" transform="matrix(6.12303176911189E-17 1 -1 6.12303176911189E-17 1209.5 100.5 )" />
    <path d="M 555 645.5  L 555 674.5  " stroke-width="1" stroke="#f20201" fill="none" transform="matrix(6.12303176911189E-17 1 -1 6.12303176911189E-17 1209.5 100.5 )" />
  </g>
</svg>