<?xml version="1.0" encoding="utf-8"?>
<svg version="1.1" xmlns:xlink="http://www.w3.org/1999/xlink" width="46px" height="6px" preserveAspectRatio="xMinYMid meet" viewBox="532 739  46 4" xmlns="http://www.w3.org/2000/svg">
  <g transform="matrix(-1 0 0 -1 1110 1482 )">
    <path d="M 561.3 726.5  L 555 720.5  L 548.7 726.5  L 561.3 726.5  Z M 558.9 725.5  L 551.1 725.5  L 555 722  L 558.9 725.5  Z M 561.3 731.5  L 555 725.5  L 548.7 731.5  L 561.3 731.5  Z M 558.9 730.5  L 551.1 730.5  L 555 727  L 558.9 730.5  Z " fill-rule="nonzero" fill="#f20201" stroke="none" transform="matrix(6.12303176911189E-17 1 -1 6.12303176911189E-17 1295.5 186.5 )" />
    <path d="M 555 731.5  L 555 760.5  " stroke-width="1" stroke="#f20201" fill="none" transform="matrix(6.12303176911189E-17 1 -1 6.12303176911189E-17 1295.5 186.5 )" />
  </g>
</svg>