<?xml version="1.0" encoding="utf-8"?>
<svg version="1.1" xmlns:xlink="http://www.w3.org/1999/xlink" width="26.0000000082914px" height="20px" preserveAspectRatio="xMinYMid meet" viewBox="827.999999991709 603  26.0000000082914 18" xmlns="http://www.w3.org/2000/svg">
  <g transform="matrix(-1 0 0 -1 1681.99999999171 1224 )">
    <path d="M 833.3 597.5  L 827 591.5  L 820.7 597.5  L 833.3 597.5  Z M 830.9 596.5  L 823.1 596.5  L 827 593  L 830.9 596.5  Z M 833.3 602.5  L 827 596.5  L 820.7 602.5  L 833.3 602.5  Z M 830.9 601.5  L 823.1 601.5  L 827 598  L 830.9 601.5  Z " fill-rule="nonzero" fill="#f20201" stroke="none" transform="matrix(6.12303176911189E-17 1 -1 6.12303176911189E-17 1438.5 -214.5 )" />
    <path d="M 827 602.5  L 827 631.5  " stroke-width="1" stroke="#f20201" fill="none" transform="matrix(6.12303176911189E-17 1 -1 6.12303176911189E-17 1438.5 -214.5 )" />
  </g>
</svg>