<?xml version="1.0" encoding="utf-8"?>
<svg version="1.1" xmlns:xlink="http://www.w3.org/1999/xlink" width="46px" height="6px" preserveAspectRatio="xMinYMid meet" viewBox="804 653  46 4" xmlns="http://www.w3.org/2000/svg">
  <g transform="matrix(-1 0 0 -1 1654 1310 )">
    <path d="M 833.3 640.5  L 827 634.5  L 820.7 640.5  L 833.3 640.5  Z M 830.9 639.5  L 823.1 639.5  L 827 636  L 830.9 639.5  Z M 833.3 645.5  L 827 639.5  L 820.7 645.5  L 833.3 645.5  Z M 830.9 644.5  L 823.1 644.5  L 827 641  L 830.9 644.5  Z " fill-rule="nonzero" fill="#f20201" stroke="none" transform="matrix(6.12303176911189E-17 1 -1 6.12303176911189E-17 1481.5 -171.5 )" />
    <path d="M 827 645.5  L 827 674.5  " stroke-width="1" stroke="#f20201" fill="none" transform="matrix(6.12303176911189E-17 1 -1 6.12303176911189E-17 1481.5 -171.5 )" />
  </g>
</svg>