<?xml version="1.0" encoding="utf-8"?>
<svg version="1.1" xmlns:xlink="http://www.w3.org/1999/xlink" width="26.0000000082914px" height="20px" preserveAspectRatio="xMinYMid meet" viewBox="827.999999991709 731  26.0000000082914 18" xmlns="http://www.w3.org/2000/svg">
  <g transform="matrix(-1 0 0 -1 1681.99999999171 1480 )">
    <path d="M 833.3 726.5  L 827 720.5  L 820.7 726.5  L 833.3 726.5  Z M 830.9 725.5  L 823.1 725.5  L 827 722  L 830.9 725.5  Z M 833.3 731.5  L 827 725.5  L 820.7 731.5  L 833.3 731.5  Z M 830.9 730.5  L 823.1 730.5  L 827 727  L 830.9 730.5  Z " fill-rule="nonzero" fill="#f20201" stroke="none" transform="matrix(6.12303176911189E-17 1 -1 6.12303176911189E-17 1567.5 -85.5 )" />
    <path d="M 827 731.5  L 827 760.5  " stroke-width="1" stroke="#f20201" fill="none" transform="matrix(6.12303176911189E-17 1 -1 6.12303176911189E-17 1567.5 -85.5 )" />
  </g>
</svg>