<?xml version="1.0" encoding="utf-8"?>
<svg version="1.1" xmlns:xlink="http://www.w3.org/1999/xlink" width="24.0000000082914px" height="20px" preserveAspectRatio="xMinYMid meet" viewBox="1017.99999999171 645  24.0000000082914 18" xmlns="http://www.w3.org/2000/svg">
  <g transform="matrix(-1 0 0 -1 2059.99999999171 1308 )">
    <path d="M 1022.3 640.5  L 1016 634.5  L 1009.7 640.5  L 1022.3 640.5  Z M 1019.9 639.5  L 1012.1 639.5  L 1016 636  L 1019.9 639.5  Z M 1022.3 645.5  L 1016 639.5  L 1009.7 645.5  L 1022.3 645.5  Z M 1019.9 644.5  L 1012.1 644.5  L 1016 641  L 1019.9 644.5  Z " fill-rule="nonzero" fill="#f20201" stroke="none" transform="matrix(6.12303176911189E-17 1 -1 6.12303176911189E-17 1670.5 -360.5 )" />
    <path d="M 1016 645.5  L 1016 674.5  " stroke-width="1" stroke="#f20201" fill="none" transform="matrix(6.12303176911189E-17 1 -1 6.12303176911189E-17 1670.5 -360.5 )" />
  </g>
</svg>