<?xml version="1.0" encoding="utf-8"?>
<svg version="1.1" xmlns:xlink="http://www.w3.org/1999/xlink" width="44px" height="6px" preserveAspectRatio="xMinYMid meet" viewBox="994 739  44 4" xmlns="http://www.w3.org/2000/svg">
  <g transform="matrix(-1 0 0 -1 2032 1482 )">
    <path d="M 1022.3 726.5  L 1016 720.5  L 1009.7 726.5  L 1022.3 726.5  Z M 1019.9 725.5  L 1012.1 725.5  L 1016 722  L 1019.9 725.5  Z M 1022.3 731.5  L 1016 725.5  L 1009.7 731.5  L 1022.3 731.5  Z M 1019.9 730.5  L 1012.1 730.5  L 1016 727  L 1019.9 730.5  Z " fill-rule="nonzero" fill="#f20201" stroke="none" transform="matrix(6.12303176911189E-17 1 -1 6.12303176911189E-17 1756.5 -274.5 )" />
    <path d="M 1016 731.5  L 1016 760.5  " stroke-width="1" stroke="#f20201" fill="none" transform="matrix(6.12303176911189E-17 1 -1 6.12303176911189E-17 1756.5 -274.5 )" />
  </g>
</svg>