<?xml version="1.0" encoding="utf-8"?>
<svg version="1.1" xmlns:xlink="http://www.w3.org/1999/xlink" width="22px" height="24px" xmlns="http://www.w3.org/2000/svg">
  <g transform="matrix(1 0 0 1 -52 -9 )">
    <path d="M 20.4932291666667 22.5328125  C 22.1346354166667 20.9521875  22.1346354166667 18.260625  20.4932291666667 16.6771875  C 18.8518229166667 15.09375  16.0588541666667 15.09375  14.4174479166667 16.6771875  C 12.7760416666667 18.260625  12.7760416666667 20.949375  14.4174479166667 22.5328125  C 16.0588541666667 24.11625  18.8518229166667 24.11625  20.4932291666667 22.5328125  Z M 18.4765625 19.14375  L 19.4104166666667 19.14375  L 19.4104166666667 20.0578125  L 18.0125 20.0578125  L 18.0125 20.51625  L 19.4104166666667 20.51625  L 19.4104166666667 21.4303125  L 18.0125 21.4303125  L 18.0125 22.344375  L 17.0815104166667 22.344375  L 17.0815104166667 21.4303125  L 15.68359375 21.4303125  L 15.68359375 20.51625  L 17.0815104166667 20.51625  L 17.0815104166667 20.0578125  L 15.68359375 20.0578125  L 15.68359375 19.14375  L 16.6145833333333 19.14375  L 15.5690104166667 17.31  L 16.5544270833333 17.31  L 17.3765625 18.575625  C 17.53984375 18.733125  17.53984375 18.8934375  17.53984375 19.0509375  C 17.53984375 18.8934375  17.703125 18.733125  17.703125 18.575625  L 18.5252604166667 17.31  L 19.5078125 17.31  L 18.4765625 19.14375  Z M 11.4841145833333 19.14375  C 11.4841145833333 16.2946875  13.9247395833333 13.9884375  17.0442708333333 13.9884375  C 17.7002604166667 13.9884375  18.1471354166667 13.951875  18.4765625 14.109375  L 18.4765625 4.9546875  C 18.4765625 3.6890625  17.6229166666667 2.6653125  16.1447916666667 2.6653125  L 13.3489583333333 2.6653125  C 13.3489583333333 1.5571875  12.2833333333333 0.3759375  11.2979166666667 0.3759375  L 7.35625 0.3759375  C 6.37083333333333 0.3759375  5.42265625 1.7146875  5.42265625 2.6653125  L 3.09088541666667 2.6653125  C 1.77604166666667 2.8228125  0.295052083333334 3.5428125  0.295052083333334 4.8084375  L 0.295052083333334 19.8440625  C 0.295052083333334 21.1096875  1.615625 21.8915625  3.09088541666667 21.8915625  L 11.9481770833333 21.8915625  C 11.3924479166667 21.196875  11.4841145833333 20.409375  11.4841145833333 19.14375  Z M 6.86354166666667 2.4346875  C 6.86354166666667 2.1196875  7.02682291666667 1.801875  7.35625 1.801875  L 11.2979166666667 1.801875  C 11.62734375 1.801875  11.95390625 2.1196875  11.95390625 2.4346875  C 11.95390625 2.7525  11.6244791666667 3.0675  11.2979166666667 3.0675  L 7.35625 3.0675  C 7.02682291666667 2.91  6.86354166666667 2.5921875  6.86354166666667 2.4346875  Z M 4.02473958333333 7.6996875  C 4.02473958333333 7.19625  4.44296875 6.785625  4.95572916666667 6.785625  L 14.2799479166667 6.785625  C 14.7955729166667 6.785625  15.2109375 7.19625  15.2109375 7.6996875  C 15.2109375 8.2059375  14.7927083333333 8.6165625  14.2799479166667 8.6165625  L 4.95572916666667 8.6165625  C 4.44010416666667 8.6165625  4.02473958333333 8.2059375  4.02473958333333 7.6996875  Z M 9.61640625 15.0234375  C 9.61927083333333 15.5296875  9.20104166666667 15.9403125  8.68541666666667 15.9403125  L 4.95572916666667 15.9403125  C 4.44010416666667 15.9403125  4.02473958333333 15.5296875  4.02473958333333 15.0234375  C 4.02473958333333 14.5171875  4.44296875 14.109375  4.95572916666667 14.109375  L 8.68541666666667 14.109375  C 9.20104166666667 14.109375  9.61640625 14.52  9.61640625 15.0234375  Z M 11.9481770833333 12.2784375  L 4.95572916666667 12.2784375  C 4.44010416666667 12.2784375  4.02473958333333 11.8678125  4.02473958333333 11.364375  C 4.02473958333333 10.858125  4.44296875 10.4475  4.95572916666667 10.4475  L 11.9481770833333 10.4475  C 12.4638020833333 10.4475  12.8791666666667 10.858125  12.8791666666667 11.364375  C 12.8791666666667 11.870625  12.4609375 12.2784375  11.9481770833333 12.2784375  Z " fill-rule="nonzero" fill="#000000" stroke="none" transform="matrix(1 0 0 1 52 9 )" />
  </g>
</svg>