<?xml version="1.0" encoding="utf-8"?>
<svg version="1.1" xmlns:xlink="http://www.w3.org/1999/xlink" width="24px" height="23px" xmlns="http://www.w3.org/2000/svg">
  <g transform="matrix(1 0 0 1 -51 -9 )">
    <path d="M 0.0596973201932625 14.6372059853801  L 0.0596973201932646 15.3258609561403  C 0.0572663175780212 15.3744740144888  0.0560502525919958 15.4231397124536  0.0560502525919958 15.4718129343486  C 0.0560502525919958 17.0465577569688  1.30427481559633 18.3409424915541  2.8852891921003 18.4056790048733  L 9.09390260991309 18.4056790048733  L 9.09390260991309 21.2750747163743  L 5.89348732642655 21.2750747163743  C 5.43169745190713 21.2750747163743  5.05734279290303 21.6476296598289  5.05734279290303 22.1071994727095  C 5.05734279290303 22.5667692855902  5.43169745190713 22.9393242290448  5.89348732642655 22.9393242290448  C 5.89348732642655 22.9393242290448  5.89348732642655 22.9393242290448  5.89348732642655 23  L 17.4265153750267 23  C 17.4265153750267 22.9393242290448  17.4265153750267 22.9393242290448  17.4265153750267 22.9393242290448  C 17.8883052495461 22.9393242290448  18.2626599085502 22.5667692855902  18.2626599085502 22.1071994727095  C 18.2626599085502 21.6476296598289  17.8883052495461 21.2750747163743  17.4265153750267 21.2750747163743  L 14.0915481051483 21.2750747163743  L 14.0915481051483 18.4056790048733  L 20.3097723871767 18.4056790048733  C 21.8868542622337 18.3359880037868  23.1294209287107 17.043267701898  23.1294209287107 15.4722211774823  C 23.1294209287107 15.4234116845389  23.1281980449273 15.3746097789042  23.1257534173936 15.3258609561403  L 23.1257534173936 14.6372059853801  L 0.0596973201932625 14.6372059853801  Z M 23 3.05441194834308  C 23.1276846398138 1.44478388626012  21.8691936549263 0.0897541208012709  20.2521072469337 0  L 2.81801318764165 0  C 1.20092678857404 0.089754132769213  -0.0575641829209964 1.44478389464743  0 3.05441194834308  L 0 13.6807407407407  L 23 13.6807407407407  L 23 3.05441194834308  Z M 6.82574043453021 9.82618582748538  L 6.79690786440871 11.2608836832359  C 6.79690786440871 11.691293039961  6.5662473034367 12.1217023966862  5.83582218618354 12.1217023966862  L 4.80746052602518 12.1217023966862  C 4.79434244923354 12.1223251416129  4.78121132153072 12.1226366467521  4.76807832850419 12.1226366467521  C 4.31159638772377 12.1226366467521  3.94154465919633 11.7543639473724  3.94154465919633 11.3000765502609  C 3.94154465919633 11.2870066942922  3.94185766913548 11.2739386946797  3.94248342238017 11.2608836832359  L 3.94248342238017 9.82618582748538  C 3.98642052186214 9.37010566930243  4.34917716381314 9.00909298526269  4.80746052602518 8.96536711403509  L 5.9607633308852 8.96536711403509  C 6.41904669309724 9.00909298526269  6.78180333504824 9.37010566930243  6.82574043453021 9.82618582748538  Z M 10.9103545275676 7.43502274951267  L 10.9295762559989 11.2608836832359  C 10.8800399926508 11.7514559411262  10.4639091643086 12.124173184132  9.96849057777375 12.1217023966862  L 8.89207461906259 12.1217023966862  C 8.87895654227094 12.1223251416129  8.86582541456812 12.1226366467521  8.8526924215416 12.1226366467521  C 8.39621048076118 12.1226366467521  8.02615875223374 11.7543639473724  8.02615875223374 11.3000765502609  C 8.02615875223374 11.2870066942922  8.02647176217289 11.2739386946797  8.02709751541757 11.2608836832359  L 8.02709751541757 7.43502274951267  C 8.02647176217289 7.42196773806886  8.02615875223374 7.40889973845631  8.02615875223374 7.39582988248764  C 8.02615875223374 6.94154248537618  8.39621048076118 6.57326978599641  8.8526924215416 6.57326978599641  C 8.86582541456812 6.57326978599641  8.87895654227094 6.57358129113566  8.89207461906259 6.57420403606238  L 10.0453774239226 6.57420403606238  C 10.0584955007143 6.57358129113566  10.0716266284171 6.57326978599641  10.0847596214436 6.57326978599641  C 10.541241562224 6.57326978599641  10.9112932907514 6.94154248537618  10.9112932907514 7.39582988248764  C 10.9112932907514 7.40889973845633  10.9109802808123 7.42196773806884  10.9103545275676 7.43502274951267  Z M 15.0622446250637 2.65269654873294  L 15.0622446250637 11.2608836832359  C 15.0628703783084 11.2739386946797  15.0631833882475 11.2870066942922  15.0631833882475 11.3000765502609  C 15.0631833882475 11.7543639473724  14.6931316597201 12.1226366467521  14.2366497189396 12.1226366467521  C 14.2235167259131 12.1226366467521  14.2103855982103 12.1223251416129  14.1972675214187 12.1217023966862  L 13.0439647165586 12.1217023966862  C 13.030846639767 12.1223251416129  13.0177155120642 12.1226366467521  13.0045825190377 12.1226366467521  C 12.5481005782572 12.1226366467521  12.1780488497298 11.7543639473724  12.1780488497298 11.3000765502609  C 12.1780488497298 11.2870066942922  12.1783618596689 11.2739386946797  12.1789876129136 11.2608836832359  L 12.1789876129136 2.65269654873294  C 12.1783618596689 2.63964153728913  12.1780488497298 2.62657353767658  12.1780488497298 2.61350368170791  C 12.1780488497298 2.15921628459646  12.5481005782572 1.79094358521668  13.0045825190377 1.79094358521668  C 13.0177155120642 1.79094358521668  13.030846639767 1.79125509035593  13.0439647165586 1.79187783528265  L 14.1972675214187 1.79187783528265  C 14.2103855982103 1.79125509035593  14.2235167259131 1.79094358521668  14.2366497189396 1.79094358521668  C 14.6931316597201 1.79094358521668  15.0631833882475 2.15921628459646  15.0631833882475 2.61350368170791  C 15.0631833882475 2.6265735376766  15.0628703783084 2.63964153728911  15.0622446250637 2.65269654873294  Z M 19.1949130166539 4.94821311793372  L 19.1949130166539 11.2608836832359  C 19.1955387698986 11.2739386946797  19.1958517798377 11.2870066942922  19.1958517798377 11.3000765502609  C 19.1958517798377 11.7543639473724  18.8258000513103 12.1226366467521  18.3693181105298 12.1226366467521  C 18.3561851175033 12.1226366467521  18.3430539898005 12.1223251416129  18.3299359130089 12.1217023966862  L 17.1766331081488 12.1217023966862  C 17.1635150313572 12.1223251416129  17.1503839036544 12.1226366467521  17.1372509106279 12.1226366467521  C 16.6807689698474 12.1226366467521  16.31071724132 11.7543639473724  16.31071724132 11.3000765502609  C 16.31071724132 11.2870066942923  16.3110302512591 11.2739386946797  16.3116560045038 11.2608836832359  L 16.3116560045038 4.94821311793372  C 16.3110302512591 4.93515810648987  16.31071724132 4.9220901068774  16.31071724132 4.90902025090869  C 16.31071724132 4.45473285379723  16.6807689698474 4.08646015441746  17.1372509106279 4.08646015441746  C 17.1503839036544 4.08646015441746  17.1635150313572 4.08677165955671  17.1766331081488 4.08739440448343  L 18.3299359130089 4.08739440448343  C 18.7882192752209 4.13112027571103  19.1509759171719 4.49213295975077  19.1949130166539 4.94821311793372  Z " fill-rule="nonzero" fill="#000000" stroke="none" transform="matrix(1 0 0 1 51 9 )" />
  </g>
</svg>