<?xml version="1.0" encoding="utf-8"?>
<svg version="1.1" xmlns:xlink="http://www.w3.org/1999/xlink" width="18px" height="14px" xmlns="http://www.w3.org/2000/svg">
  <g transform="matrix(1 0 0 1 -15 -8 )">
    <path d="M 1.30392 13.616925  L 16.74792 13.616925  C 16.98192 13.616925  17.17092 13.433175  17.17092 13.205675  C 17.17992 12.978175  16.99092 12.794425  16.75692 12.794425  L 16.50492 12.794425  L 16.50492 4.061925  C 16.50492 3.834425  16.31592 3.650675  16.08192 3.650675  L 14.06592 3.650675  C 13.83192 3.650675  13.64292 3.834425  13.64292 4.061925  L 13.64292 12.794425  L 12.47292 12.794425  L 12.47292 8.629425  C 12.47292 8.401925  12.28392 8.218175  12.04992 8.218175  L 10.03392 8.218175  C 9.79992 8.218175  9.61092 8.401925  9.61092 8.629425  L 9.61092 12.794425  L 8.44992 12.794425  L 8.44992 6.678175  C 8.44992 6.450675  8.26092 6.266925  8.02692 6.266925  L 6.01092 6.266925  C 5.77692 6.266925  5.58792 6.450675  5.58792 6.678175  L 5.58792 12.794425  L 4.41792 12.794425  L 4.41792 10.589425  C 4.41792 10.361925  4.22892 10.178175  3.99492 10.178175  L 1.97892000000001 10.178175  C 1.74492 10.178175  1.55592 10.361925  1.55592 10.589425  L 1.55592 12.794425  L 1.30392 12.794425  C 1.06992 12.794425  0.880920000000003 12.978175  0.880920000000003 13.205675  C 0.880920000000003 13.433175  1.06992 13.616925  1.30392 13.616925  Z M 6.01092 4.473175  L 3.40092 7.010675  C 2.99592 6.853175  2.53692 6.949425  2.21292 7.238175  C 1.78092 7.649425  1.78092 8.323175  2.20392 8.743175  C 2.41992 8.935675  2.69892 9.049425  2.98692 9.040675  C 3.58992 9.040675  4.08492 8.559425  4.07592 7.973175  C 4.07592 7.833175  4.04892 7.701925  3.99492 7.570675  L 6.59592 5.041925  C 6.73092 5.094425  6.86592 5.120675  7.00992 5.120675  C 7.27092 5.120675  7.51392 5.024425  7.71192 4.858175  L 9.96192 5.951925  C 9.96192 6.538175  10.42992 7.089425  11.03292 7.089425  C 11.63592 7.089425  12.13092 6.616925  12.13092 6.030675  C 12.13092 5.890675  12.10392 5.750675  12.04992 5.619425  L 14.66892 2.434425  C 15.22692 2.653175  15.86592 2.390675  16.09092 1.848175  C 16.25292 1.454425  16.16292 0.999424999999996  15.84792 0.701924999999999  C 15.41592 0.299424999999999  14.73192 0.299424999999999  14.29992 0.701924999999999  C 13.98492 1.008175  13.89492 1.463175  14.06592 1.865675  L 11.44692 5.050675  C 11.07792 4.919425  10.65492 4.980675  10.34892 5.234425  L 8.08992 4.140675  C 8.08992 4.114425  8.10792 4.096925  8.10792 4.070675  C 8.10792 3.790675  7.99092 3.519425  7.79292 3.318175  C 7.36092 2.915675  6.67692 2.915675  6.24492 3.318175  C 5.93892 3.624425  5.83992 4.079425  6.01092 4.473175  Z M 15.66792 12.794425  L 14.4979200310269 12.76345  L 15.66792 12.794425  Z M 10.87092 5.846925  C 10.77192 5.943175  10.77192 6.091925  10.87092 6.188175  C 10.96992 6.275675  11.12292 6.275675  11.22192 6.188175  C 11.32092 6.091925  11.32092 5.943175  11.22192 5.846925  C 11.12292 5.750675  10.96992 5.750675  10.87092 5.846925  Z M 6.83892 3.886925  C 6.75792 3.983175  6.75792 4.140675  6.83892 4.228175  C 6.93792 4.315675  7.09092 4.315675  7.18992 4.228175  C 7.28892 4.131925  7.28892 3.983175  7.18992 3.886925  C 7.09092 3.790675  6.93792 3.790675  6.83892 3.886925  Z M 2.81592 7.806925  C 2.75292 7.911925  2.73492 8.060675  2.81592 8.148175  C 2.91492 8.235675  3.06792 8.235675  3.16692 8.148175  C 3.26592 8.060675  3.26592 7.903175  3.16692 7.806925  C 3.06792 7.710675  2.91492 7.710675  2.81592 7.806925  Z " fill-rule="nonzero" fill="#0a92fa" stroke="none" transform="matrix(1 0 0 1 15 8 )" />
  </g>
</svg>