<?xml version="1.0" encoding="utf-8"?>
<svg version="1.1" xmlns:xlink="http://www.w3.org/1999/xlink" width="16px" height="18px" xmlns="http://www.w3.org/2000/svg">
  <g transform="matrix(1 0 0 1 -78 -27 )">
    <path d="M 14.67109375 6.6376953125  L 14.67109375 6.639453125  C 15.3513671875 6.639453125  15.9033203125 7.19140625  15.9033203125 7.8716796875  L 15.9033203125 16.08203125  C 15.9033203125 16.7623046875  15.3513671875 17.3142578125  14.67109375 17.3142578125  L 13.0296875 17.3142578125  C 12.3494140625 17.3142578125  11.797265625 16.7623046875  11.797265625 16.08203125  L 11.797265625 7.8701171875  C 11.797265625 7.18984375  12.34921875 6.6376953125  13.0296875 6.6376953125  L 14.67109375 6.6376953125  Z M 3.1759765625 8.2791015625  L 3.1759765625 8.280859375  C 3.85625 8.280859375  4.408203125 8.8328125  4.408203125 9.5130859375  L 4.408203125 16.08046875  C 4.408203125 16.7607421875  3.85625 17.312890625  3.1759765625 17.312890625  L 1.5345703125 17.312890625  C 0.854296875 17.312890625  0.302343749999999 16.7609375  0.302343749999999 16.08046875  L 0.302343749999999 9.5115234375  C 0.302343749999999 8.83125  0.854296874999999 8.2791015625  1.5345703125 8.2791015625  L 3.1759765625 8.2791015625  Z M 7.28203125 9.922265625  L 8.9234375 9.922265625  C 9.6037109375 9.922265625  10.1556640625 10.47421875  10.1556640625 11.1544921875  L 10.1556640625 16.08046875  C 10.1556640625 16.7607421875  9.6037109375 17.312890625  8.9234375 17.312890625  L 7.28203125 17.312890625  C 6.6017578125 17.312890625  6.049609375 16.7609375  6.049609375 16.08046875  L 6.049609375 11.1544921875  C 6.049609375 10.47421875  6.6015625 9.922265625  7.28203125 9.922265625  Z M 7.9658203125 7.134375  L 13.1740234375 1.927734375  L 12.2046875 1.9341796875  C 11.865234375 1.9359375  11.5876953125 1.6630859375  11.5845703125 1.3220703125  C 11.58125 0.984375  11.8556640625 0.7068359375  12.1951171875 0.703515625  L 14.666015625 0.685546875  C 14.8251953125 0.683984375  14.984375 0.744140625  15.1060546875 0.8658203125  C 15.1662109375 0.9259765625  15.2115234375 0.995703125  15.2408203125 1.06875  C 15.268359375 1.13359375  15.286328125 1.21484375  15.286328125 1.3009765625  L 15.286328125 3.775390625  C 15.286328125 4.11484375  15.0103515625 4.3908203125  14.67109375 4.3908203125  C 14.3318359375 4.3908203125  14.0556640625 4.11484375  14.0556640625 3.775390625  L 14.0556640625 2.78828125  L 8.538671875 8.305078125  C 8.3583984375 8.4853515625  8.0857421875 8.5357421875  7.853515625 8.431640625  L 0.4630859375 5.148828125  C 0.1529296875 5.0107421875  0.01171875 4.6470703125  0.1498046875 4.3353515625  C 0.2876953125 4.0251953125  0.6515625 3.883984375  0.96328125 4.0220703125  L 7.9658203125 7.134375  Z " fill-rule="nonzero" fill="#ffffff" stroke="none" transform="matrix(1 0 0 1 78 27 )" />
  </g>
</svg>