<?xml version="1.0" encoding="utf-8"?>
<svg version="1.1" xmlns:xlink="http://www.w3.org/1999/xlink" width="16px" height="14px" xmlns="http://www.w3.org/2000/svg">
  <g transform="matrix(1 0 0 1 -125 -8 )">
    <path d="M 3.34375 10.2762784090909  C 3.40029761904762 10.3392518939394  3.42857142857143 10.4138257575758  3.42857142857143 10.5  L 3.42857142857143 11.1363636363636  C 3.42857142857143 11.2225378787879  3.40029761904762 11.2971117424242  3.34375 11.3600852272727  C 3.28720238095238 11.4230587121212  3.2202380952381 11.4545454545455  3.14285714285714 11.4545454545455  L 2.57142857142857 11.4545454545455  C 2.49404761904762 11.4545454545455  2.42708333333333 11.4230587121212  2.37053571428571 11.3600852272727  C 2.3139880952381 11.2971117424242  2.28571428571429 11.2225378787879  2.28571428571429 11.1363636363636  L 2.28571428571429 10.5  C 2.28571428571429 10.4138257575758  2.3139880952381 10.3392518939394  2.37053571428571 10.2762784090909  C 2.42708333333333 10.2133049242424  2.49404761904762 10.1818181818182  2.57142857142857 10.1818181818182  L 3.14285714285714 10.1818181818182  C 3.2202380952381 10.1818181818182  3.28720238095238 10.2133049242424  3.34375 10.2762784090909  Z M 3.34375 7.73082386363636  C 3.40029761904762 7.79379734848485  3.42857142857143 7.86837121212121  3.42857142857143 7.95454545454545  L 3.42857142857143 8.59090909090909  C 3.42857142857143 8.67708333333333  3.40029761904762 8.7516571969697  3.34375 8.81463068181818  C 3.28720238095238 8.87760416666667  3.2202380952381 8.90909090909091  3.14285714285714 8.90909090909091  L 2.57142857142857 8.90909090909091  C 2.49404761904762 8.90909090909091  2.42708333333333 8.87760416666667  2.37053571428571 8.81463068181818  C 2.3139880952381 8.7516571969697  2.28571428571429 8.67708333333333  2.28571428571429 8.59090909090909  L 2.28571428571429 7.95454545454545  C 2.28571428571429 7.86837121212121  2.3139880952381 7.79379734848485  2.37053571428571 7.73082386363636  C 2.42708333333333 7.66785037878788  2.49404761904762 7.63636363636364  2.57142857142857 7.63636363636364  L 3.14285714285714 7.63636363636364  C 3.2202380952381 7.63636363636364  3.28720238095238 7.66785037878788  3.34375 7.73082386363636  Z M 3.34375 5.18536931818182  C 3.40029761904762 5.2483428030303  3.42857142857143 5.32291666666667  3.42857142857143 5.40909090909091  L 3.42857142857143 6.04545454545455  C 3.42857142857143 6.13162878787879  3.40029761904762 6.20620265151515  3.34375 6.26917613636364  C 3.28720238095238 6.33214962121212  3.2202380952381 6.36363636363636  3.14285714285714 6.36363636363636  L 2.57142857142857 6.36363636363636  C 2.49404761904762 6.36363636363636  2.42708333333333 6.33214962121212  2.37053571428571 6.26917613636364  C 2.3139880952381 6.20620265151515  2.28571428571429 6.13162878787879  2.28571428571429 6.04545454545455  L 2.28571428571429 5.40909090909091  C 2.28571428571429 5.32291666666667  2.3139880952381 5.2483428030303  2.37053571428571 5.18536931818182  C 2.42708333333333 5.12239583333333  2.49404761904762 5.09090909090909  2.57142857142857 5.09090909090909  L 3.14285714285714 5.09090909090909  C 3.2202380952381 5.09090909090909  3.28720238095238 5.12239583333333  3.34375 5.18536931818182  Z M 13.6294642857143 10.2762784090909  C 13.6860119047619 10.3392518939394  13.7142857142857 10.4138257575758  13.7142857142857 10.5  L 13.7142857142857 11.1363636363636  C 13.7142857142857 11.2225378787879  13.6860119047619 11.2971117424242  13.6294642857143 11.3600852272727  C 13.5729166666667 11.4230587121212  13.5059523809524 11.4545454545455  13.4285714285714 11.4545454545455  L 4.85714285714286 11.4545454545455  C 4.77976190476191 11.4545454545455  4.71279761904762 11.4230587121212  4.65625 11.3600852272727  C 4.59970238095238 11.2971117424242  4.57142857142857 11.2225378787879  4.57142857142857 11.1363636363636  L 4.57142857142857 10.5  C 4.57142857142857 10.4138257575758  4.59970238095238 10.3392518939394  4.65625 10.2762784090909  C 4.71279761904762 10.2133049242424  4.77976190476191 10.1818181818182  4.85714285714286 10.1818181818182  L 13.4285714285714 10.1818181818182  C 13.5059523809524 10.1818181818182  13.5729166666667 10.2133049242424  13.6294642857143 10.2762784090909  Z M 13.6294642857143 7.73082386363636  C 13.6860119047619 7.79379734848485  13.7142857142857 7.86837121212121  13.7142857142857 7.95454545454545  L 13.7142857142857 8.59090909090909  C 13.7142857142857 8.67708333333333  13.6860119047619 8.7516571969697  13.6294642857143 8.81463068181818  C 13.5729166666667 8.87760416666667  13.5059523809524 8.90909090909091  13.4285714285714 8.90909090909091  L 4.85714285714286 8.90909090909091  C 4.77976190476191 8.90909090909091  4.71279761904762 8.87760416666667  4.65625 8.81463068181818  C 4.59970238095238 8.7516571969697  4.57142857142857 8.67708333333333  4.57142857142857 8.59090909090909  L 4.57142857142857 7.95454545454545  C 4.57142857142857 7.86837121212121  4.59970238095238 7.79379734848485  4.65625 7.73082386363636  C 4.71279761904762 7.66785037878788  4.77976190476191 7.63636363636364  4.85714285714286 7.63636363636364  L 13.4285714285714 7.63636363636364  C 13.5059523809524 7.63636363636364  13.5729166666667 7.66785037878788  13.6294642857143 7.73082386363636  Z M 13.6294642857143 5.18536931818182  C 13.6860119047619 5.2483428030303  13.7142857142857 5.32291666666667  13.7142857142857 5.40909090909091  L 13.7142857142857 6.04545454545455  C 13.7142857142857 6.13162878787879  13.6860119047619 6.20620265151515  13.6294642857143 6.26917613636364  C 13.5729166666667 6.33214962121212  13.5059523809524 6.36363636363636  13.4285714285714 6.36363636363636  L 4.85714285714286 6.36363636363636  C 4.77976190476191 6.36363636363636  4.71279761904762 6.33214962121212  4.65625 6.26917613636364  C 4.59970238095238 6.20620265151515  4.57142857142857 6.13162878787879  4.57142857142857 6.04545454545455  L 4.57142857142857 5.40909090909091  C 4.57142857142857 5.32291666666667  4.59970238095238 5.2483428030303  4.65625 5.18536931818182  C 4.71279761904762 5.12239583333333  4.77976190476191 5.09090909090909  4.85714285714286 5.09090909090909  L 13.4285714285714 5.09090909090909  C 13.5059523809524 5.09090909090909  13.5729166666667 5.12239583333333  13.6294642857143 5.18536931818182  Z M 14.7723214285714 12.6328125  C 14.828869047619 12.5698390151515  14.8571428571429 12.4952651515152  14.8571428571429 12.4090909090909  L 14.8571428571429 4.13636363636364  C 14.8571428571429 4.05018939393939  14.828869047619 3.97561553030303  14.7723214285714 3.91264204545455  C 14.7157738095238 3.84966856060606  14.6488095238095 3.81818181818182  14.5714285714286 4  L 1.42857142857143 4  C 1.35119047619048 3.81818181818182  1.28422619047619 3.84966856060606  1.22767857142857 3.91264204545455  C 1.17113095238095 3.97561553030303  1.14285714285714 4.05018939393939  1.14285714285714 4.13636363636364  L 1.14285714285714 12.4090909090909  C 1.14285714285714 12.4952651515152  1.17113095238095 12.5698390151515  1.22767857142857 12.6328125  C 1.28422619047619 12.6957859848485  1.35119047619048 12.7272727272727  1.42857142857143 12.7272727272727  L 14.5714285714286 12.7272727272727  C 14.6488095238095 12.7272727272727  14.7157738095238 12.6957859848485  14.7723214285714 12.6328125  Z M 15.5803571428571 0.467329545454545  C 15.860119047619 0.778882575757575  16 1.15340909090909  16 1.59090909090909  L 16 12.4090909090909  C 16 12.8465909090909  15.860119047619 13.2211174242424  15.5803571428571 13.5326704545455  C 15.3005952380952 13.8442234848485  14.9642857142857 14  14.5714285714286 14  L 1.42857142857143 14  C 1.03571428571429 14  0.699404761904762 13.8442234848485  0.419642857142857 13.5326704545455  C 0.139880952380952 13.2211174242424  0 12.8465909090909  0 12.4090909090909  L 0 1.59090909090909  C 0 1.15340909090909  0.139880952380952 0.778882575757575  0.419642857142857 0.467329545454545  C 0.699404761904762 0.155776515151513  1.03571428571429 0  1.42857142857143 0  L 14.5714285714286 0  C 14.9642857142857 0  15.3005952380952 0.155776515151513  15.5803571428571 0.467329545454545  Z " fill-rule="nonzero" fill="#ffffff" stroke="none" transform="matrix(1 0 0 1 125 8 )" />
  </g>
</svg>