<?xml version="1.0" encoding="utf-8"?>
<svg version="1.1" xmlns:xlink="http://www.w3.org/1999/xlink" width="30px" height="27px" xmlns="http://www.w3.org/2000/svg">
  <g transform="matrix(1 0 0 1 -840 -162 )">
    <path d="M 24.5762711864407 26.832298136646  C 26.4406779661017 27  28.135593220339 25.9937888198758  29.1525423728814 24.3167701863354  C 30.1694915254237 22.639751552795  30.1694915254237 20.7950310559006  29.1525423728814 19.1180124223602  L 19.6610169491525 2.6832298136646  C 18.6440677966102 1.00621118012422  16.9491525423729 0  15.0847457627119 0  C 13.2203389830508 0  11.5254237288136 1.00621118012422  10.5084745762712 2.6832298136646  L 0.847457627118644 19.1180124223602  C -0.169491525423729 20.7950310559006  -0.169491525423729 22.8074534161491  0.847457627118644 24.3167701863354  C 1.86440677966102 25.9937888198758  3.55932203389831 26.832298136646  5.42372881355932 26.832298136646  L 24.5762711864407 26.832298136646  Z M 26.9491525423729 20.4596273291925  C 27.6271186440678 21.1304347826087  27.6271186440678 22.304347826087  26.9491525423729 23.1428571428571  C 26.4406779661017 23.9813664596273  25.4237288135593 24.6521739130435  24.406779661017 24.6521739130435  L 5.25423728813559 24.6521739130435  C 4.23728813559322 24.6521739130435  3.22033898305085 24.1490683229814  2.71186440677966 23.3105590062112  C 2.20338983050847 22.472049689441  2.20338983050847 21.2981366459627  2.71186440677966 20.4596273291925  L 12.3728813559322 4.02484472049689  C 12.8813559322034 3.18633540372671  13.8983050847458 2.51552795031056  14.9152542372881 2.51552795031056  C 15.9322033898305 2.51552795031056  16.9491525423729 3.01863354037267  17.4576271186441 4.02484472049689  L 26.9491525423729 20.4596273291925  Z M 16.4406779661017 8.88819875776398  C 16.1016949152542 8.5527950310559  15.2542372881356 8.21739130434783  14.5762711864407 8.38509316770186  C 13.8983050847458 8.5527950310559  13.3898305084746 9.22360248447205  13.3898305084746 10.0621118012422  C 13.3898305084746 10.5652173913043  13.3898305084746 11.0683229813665  13.5593220338983 11.5714285714286  C 13.728813559322 13.416149068323  13.728813559322 15.0931677018634  13.8983050847458 16.9378881987578  C 13.8983050847458 17.6086956521739  14.4067796610169 17.944099378882  15.0847457627119 17.944099378882  C 15.7627118644068 17.944099378882  16.271186440678 17.4409937888199  16.271186440678 16.7701863354037  L 16.271186440678 15.5962732919255  C 16.271186440678 14.4223602484472  16.4406779661017 13.2484472049689  16.4406779661017 12.0745341614907  C 16.4406779661017 11.2360248447205  16.6101694915254 10.5652173913043  16.6101694915254 9.72670807453416  C 16.6101694915254 9.39130434782609  16.6101694915254 9.22360248447205  16.4406779661017 8.88819875776398  Z M 16.4406779661017 20.4596273291925  C 16.4406779661017 19.6211180124224  15.7627118644068 18.9503105590062  14.9152542372881 18.9503105590062  C 14.0677966101695 18.9503105590062  13.3898305084746 19.6211180124224  13.3898305084746 20.4596273291925  C 13.3898305084746 21.2981366459627  14.0677966101695 21.9689440993789  14.9152542372881 21.9689440993789  C 15.7627118644068 21.9689440993789  16.4406779661017 21.2981366459627  16.4406779661017 20.4596273291925  Z " fill-rule="nonzero" fill="#ffffff" stroke="none" transform="matrix(1 0 0 1 840 162 )" />
  </g>
</svg>