<?xml version="1.0" encoding="utf-8"?>
<svg version="1.1" xmlns:xlink="http://www.w3.org/1999/xlink" width="23px" height="28px" xmlns="http://www.w3.org/2000/svg">
  <g transform="matrix(1 0 0 1 -624 -161 )">
    <path d="M 22.0625 5.796875  C 22.015625 5.328125  21.828125 4.90625  21.5 4.578125  C 21.171875 4.296875  20.75 4.15625  20.328125 4.15625  L 19.53125 4.15625  C 18.828125 4.15625  17.421875 4.109375  16.15625 3.78125  C 14.46875 3.359375  12.5 1.53125  11.9375 1.15625  C 11.65625 0.968749999999999  11.328125 0.875  11 0.875  C 10.671875 0.875  10.34375 0.968749999999999  10.0625 1.15625  C 10.015625 1.203125  7.953125 3.3125  5.9375 3.78125  C 4.625 4.109375  3.21875 4.15625  2.515625 4.15625  L 1.71875 4.15625  C 1.296875 4.15625  0.874999999999996 4.296875  0.546874999999996 4.578125  C 0.218749999999996 4.90625  0.0312499999999964 5.328125  0.0312499999999964 5.796875  L 0.0312499999999964 9.921875  C 0.0312499999999964 25.109375  10.296875 27.03125  10.71875 27.125  C 10.8125 27.125  10.90625 27.171875  11 27.171875  C 11.09375 27.171875  11.1875 27.171875  11.28125 27.125  C 11.703125 27.03125  22.0625 25.109375  22.0625 9.921875  L 22.0625 5.796875  Z M 11.9375 18.59375  L 11.9375 20.46875  L 10.0625 20.46875  L 10.0625 18.59375  L 11.9375 18.59375  Z M 11.9375 7.578125  L 11.9375 17.421875  L 10.0625 17.421875  L 10.0625 7.578125  L 11.9375 7.578125  Z " fill-rule="nonzero" fill="#ffffff" stroke="none" transform="matrix(1 0 0 1 624 161 )" />
  </g>
</svg>