<?xml version="1.0" encoding="utf-8"?>
<svg version="1.1" xmlns:xlink="http://www.w3.org/1999/xlink" width="58px" height="49px" xmlns="http://www.w3.org/2000/svg">
  <g transform="matrix(1 0 0 1 -142 -327 )">
    <path d="M 25.8446022727273 33.6003889101562  L 31.2518939608487 33.6003889101563  L 31.2518939608487 43  L 42.0651041881215 43  L 42.0651041881215 49  L 15.0327651300604 49  L 15.0327651300604 43  L 25.8446022727273 43  L 25.8446022727273 33.6003889101562  Z M 10.152746233576 24.5  L 10.152746233576 24.4986389101563  L 8.28532194824219 32.6666666666667  L 2.90961172096946 32.6666666666667  C 1.3919804049377 32.6666668262154  0.162459348465878 31.4478864134553  0.162459348465878 29.9444445827259  C 0.162459348465878 29.6902920766698  0.198364489711611 29.437391707464  0.269128766424005 29.1931110898438  L 1.62850376642401 24.5  L 10.152746233576 24.5  Z M 12.9277935391513 24  L 27.1971117209695 24  L 27.1971117209695 32  L 11.0617424027876 32  L 12.9277935391513 24  Z M 29.9007575972124 24  L 45.9166666881215 24  L 47.7827178244851 32  L 29.9007575972124 32  L 29.9007575972124 24  Z M 48.6903409090909 24.4986389101562  L 56.3701230846058 24.4986389101563  L 57.7294980846058 29.1944722434896  C 57.8000023251984 29.4383333334245  57.8357735737388 29.6907663814456  57.8357735737388 29.9444445465662  C 57.8357735737388 31.4475663038286  56.6067564023423 32.6662140966932  55.0903882790305 32.6666666666667  L 50.5577651300604 32.6666666666667  L 48.6903409090909 24.4986389101562  Z M 3.99436555175781 16.3319722434896  L 12.0187973699396 16.3319722434896  L 10.7747632790305 21.7764166666667  L 2.41666668812145 21.7764166666667  L 3.99436555175781 16.3319722434896  Z M 14.7938446755149 17  L 27.1971117209695 17  L 27.1971117209695 22  L 13.5484375 22  L 14.7938446755149 17  Z M 44.0492424027876 17  L 44.0506155517578 16.3319722434896  L 45.2946496426669 22  L 29.9007575972124 22  L 29.9007575972124 17  L 44.0492424027876 17  Z M 46.8242897727273 16.3319722434896  L 54.0042613636364 16.3319722434896  L 55.5805871426669 21.7764166666667  L 48.0683238636364 21.7764166666667  L 46.8242897727273 16.3319722434896  Z M 13.8834753573331 8.16530557682292  L 13.8848485063033 8.16530557682292  L 12.6408144153942 13.60975  L 4.78252840909091 13.60975  L 6.35885418812145 8.16530557682292  L 13.8834753573331 8.16530557682292  Z M 16.6598958118785 9  L 27.1971117209695 9  L 27.1971117209695 14  L 15.4158617209695 14  L 16.6598958118785 9  Z M 29.9007575972124 9  L 42.1845644153942 9  L 43.4285985063033 14  L 29.9007575972124 14  L 29.9007575972124 9  Z M 44.9582386363636 8.16530557682292  L 51.6383996426669 8.16530557682292  L 53.2147253573331 13.60975  L 46.2022727272727 13.60975  L 44.9582386363636 8.16530557682292  Z M 15.7495264936967 0  L 15.7508996426669 0  L 14.5068655517578 5.44308333333333  L 7.14839013006037 5.44308333333333  L 8.15487691539417 1.97225  C 8.49222350940887 0.8054291365973  9.56812408352976 0.000972463404367143  10.7926136363636 0  L 15.7495264936967 0  Z M 18.5259469482422 0  L 27.1971117209695 0  L 27.1971117209695 5.44308333333333  L 17.2819128573331 5.44308333333333  L 18.5259469482422 0  Z M 29.9007575972124 0  L 40.3185132790305 0  L 41.5625473699396 6  L 29.9007575972124 6  L 29.9007575972124 0  Z M 43.0921875 0  L 47.2060132790305 0  C 48.4306284324281 0.000191389461896302  49.5071293159283 0.804122945694171  49.8451230846058 1.97088891015625  L 50.8502367209695 5.44444442317708  L 44.3362215909091 5.44444442317708  L 43.0921875 0  Z " fill-rule="nonzero" fill="#2893e1" stroke="none" transform="matrix(1 0 0 1 142 327 )" />
  </g>
</svg>