<?xml version="1.0" encoding="utf-8"?>
<svg version="1.1" xmlns:xlink="http://www.w3.org/1999/xlink" width="250px" height="50px" xmlns="http://www.w3.org/2000/svg">
  <defs>
    <filter x="-5px" y="-5px" width="250px" height="50px" filterUnits="userSpaceOnUse" id="filter88">
      <feOffset dx="0" dy="0" in="SourceAlpha" result="shadowOffsetInner" />
      <feGaussianBlur stdDeviation="2.5" in="shadowOffsetInner" result="shadowGaussian" />
      <feComposite in2="shadowGaussian" operator="atop" in="SourceAlpha" result="shadowComposite" />
      <feColorMatrix type="matrix" values="0 0 0 0 0.250980392156863  0 0 0 0 0.619607843137255  0 0 0 0 1  0 0 0 0.247058823529412 0  " in="shadowComposite" />
    </filter>
    <g id="widget89">
      <path d="M 0.5 5  A 4.5 4.5 0 0 1 5 0.5 L 235 0.5  A 4.5 4.5 0 0 1 239.5 5 L 239.5 35  A 4.5 4.5 0 0 1 235 39.5 L 5 39.5  A 4.5 4.5 0 0 1 0.5 35 L 0.5 5  Z " fill-rule="nonzero" fill="#409eff" stroke="none" fill-opacity="0.247058823529412" />
      <path d="M 0.5 5  A 4.5 4.5 0 0 1 5 0.5 L 235 0.5  A 4.5 4.5 0 0 1 239.5 5 L 239.5 35  A 4.5 4.5 0 0 1 235 39.5 L 5 39.5  A 4.5 4.5 0 0 1 0.5 35 L 0.5 5  Z " stroke-width="1" stroke="#409eff" fill="none" />
    </g>
  </defs>
  <g transform="matrix(1 0 0 1 5 5 )">
    <use xlink:href="#widget89" filter="url(#filter88)" />
    <use xlink:href="#widget89" />
  </g>
</svg>