<?xml version="1.0" encoding="utf-8"?>
<svg version="1.1" xmlns:xlink="http://www.w3.org/1999/xlink" width="240px" height="40px" xmlns="http://www.w3.org/2000/svg">
  <g>
    <path d="M 0.5 5  A 4.5 4.5 0 0 1 5 0.5 L 235 0.5  A 4.5 4.5 0 0 1 239.5 5 L 239.5 35  A 4.5 4.5 0 0 1 235 39.5 L 5 39.5  A 4.5 4.5 0 0 1 0.5 35 L 0.5 5  Z " fill-rule="nonzero" fill="#409eff" stroke="none" fill-opacity="0.247058823529412" />
    <path d="M 0.5 5  A 4.5 4.5 0 0 1 5 0.5 L 235 0.5  A 4.5 4.5 0 0 1 239.5 5 L 239.5 35  A 4.5 4.5 0 0 1 235 39.5 L 5 39.5  A 4.5 4.5 0 0 1 0.5 35 L 0.5 5  Z " stroke-width="1" stroke="#409eff" fill="none" />
  </g>
</svg>