<?xml version="1.0" encoding="utf-8"?>
<svg version="1.1" xmlns:xlink="http://www.w3.org/1999/xlink" width="8px" height="8px" xmlns="http://www.w3.org/2000/svg">
  <g transform="matrix(1 0 0 1 -639 -149 )">
    <path d="M 643 149  C 645.24 149  647 150.76  647 153  C 647 155.24  645.24 157  643 157  C 640.76 157  639 155.24  639 153  C 639 150.76  640.76 149  643 149  Z " fill-rule="nonzero" fill="#ffffff" stroke="none" />
    <path d="M 643 149.5  C 644.96 149.5  646.5 151.04  646.5 153  C 646.5 154.96  644.96 156.5  643 156.5  C 641.04 156.5  639.5 154.96  639.5 153  C 639.5 151.04  641.04 149.5  643 149.5  Z " stroke-width="1" stroke="#0a92fa" fill="none" />
  </g>
</svg>