<?xml version="1.0" encoding="utf-8"?>
<svg version="1.1" xmlns:xlink="http://www.w3.org/1999/xlink" width="24px" height="22px" xmlns="http://www.w3.org/2000/svg">
  <g transform="matrix(1 0 0 1 -50 -9 )">
    <path d="M 19.9290865384615 17.8394681490385  C 21.9275841346154 17.8394681490385  23.4987980769231 16.3991887019231  23.4987980769231 14.5672325721154  L 23.4987980769231 4.03658353365385  C 23.4987980769231 2.26908052884615  21.8572716346154 0.76434795673077  19.9317908653846 1  L 4.08713942307692 1  C 2.08864182692308 0.76434795673077  0.517427884615387 2.20462740384615  0.517427884615387 4.03658353365385  L 0.517427884615387 14.5697115384615  C 0.517427884615387 16.4016676682692  2.08864182692308 17.8419471153846  4.08713942307692 17.8419471153846  L 11.2941706730769 17.8419471153846  L 11.2941706730769 20.0160006009615  L 9.15234375 20.0160006009615  C 8.72235576923077 20.0160006009615  8.43840144230769 20.1920072115385  8.43840144230769 20.5861628605769  C 8.43840144230769 20.9803185096154  8.72235576923077 21.2406099759615  9.15234375 21.2406099759615  L 14.8638822115385 21.2406099759615  C 15.2938701923077 21.2406099759615  15.5778245192308 20.9803185096154  15.5778245192308 20.5861628605769  C 15.5778245192308 20.1920072115385  15.2938701923077 20.0160006009615  14.8638822115385 20.0160006009615  L 12.7220552884615 20.0160006009615  L 12.7220552884615 17.8394681490385  L 19.9290865384615 17.8394681490385  Z M 4.08713942307692 2  L 19.8614783653846 2  C 21.0757211538461 2.0732421875  22.0033052884615 2.92352764423077  22 4.03658353365385  L 22 14.6341646634615  C 22.0709134615385 15.7472205528846  21.1433293269231 16.5975060096154  19.9290865384615 16.5  L 4.08713942307692 16.5  C 2.87289663461539 16.5975060096154  1.9453125 15.7472205528846  2 14.6341646634615  L 2 4.03658353365385  C 1.9453125 2.92352764423077  2.87289663461539 2.0732421875  4.08713942307692 2  Z M 2.87269176136363 9.65620349702381  L 5.64524147727273 9.65620349702381  L 7.09943181818182 6.80875651041667  L 10.0930397727273 14.308337983631  L 13.1532315340909 10.0014880952381  L 14.9216974431818 11.8130812872024  L 17.21484375 7.69498697916667  L 18.3467684659091 9.65620349702381  L 21.1672585227273 9.65620349702381  L 21.1672585227273 8.7607654389881  L 19.0392400568182 8.7607654389881  L 17.1962002840909 5.56803385416667  L 14.666015625 10.1142810639881  L 13.0147372159091 8.42008463541667  L 10.3780184659091 12.1261393229167  L 7.22993607954545 4.23753720238095  L 4.91548295454545 8.76306733630952  L 2.87269176136363 8.76306733630952  L 2.87269176136363 9.65620349702381  Z " fill-rule="nonzero" fill="#333333" stroke="none" transform="matrix(1 0 0 1 50 9 )" />
  </g>
</svg>