<?xml version="1.0" encoding="utf-8"?>
<svg version="1.1" xmlns:xlink="http://www.w3.org/1999/xlink" width="24px" height="22px" xmlns="http://www.w3.org/2000/svg">
  <g transform="matrix(1 0 0 1 -50 -9 )">
    <path d="M 20.1684375 3.08814538043478  C 21.7040625 4.61820652173913  22.5478125 6.65268342391304  22.5478125 8.81606657608696  C 22.5478125 10.9516531365179  21.7228646433643 12.9616247132419  20.2271810175833 14.4847609431906  L 23.6332125 17.8784281589674  L 23.036596875 18.4728821331522  L 19.6058175014633 15.054556863807  C 18.1503914266588 16.2581097854281  16.3353964532261 16.9147411874173  14.4196875 16.9147362365457  L 14.4196875 21.9308763586957  L 11.5509375 21.9308763586957  L 11.5509461748106 16.3981340101416  C 11.2037269293724 16.2679412546835  10.8658628717893 16.1139020804791  10.5394041139186 15.9368918085526  L 10.5496875 21.9308763586957  L 7.6809375 21.9308763586957  L 7.6696875 13.6080163043478  L 7.86287953157794 13.6080190973059  C 7.3686179611104 12.9392473888167  6.98462708690895 12.2043808480196  7 11.4258720276249  L 7 21.9308763586957  L 4 21.9308763586957  L 4 6.09782608695652  L 6.72 6.09782608695652  L 6.71963022934642 6.20982556530902  C 7.11477446982344 5.04710982906812  7.77585102040456 3.98162520300662  8.6709375 3.08814538043478  C 10.2065625 1.55808423913043  12.2484375 0.717391304347826  14.4196875 0.717391304347826  C 16.5909375 0.717391304347826  18.6328125 1.56088654891304  20.1684375 3.08814538043478  Z M 3 9.5726902173913  L 3 21.9308763586957  L 0 21.9308763586957  L 0 9.5726902173913  L 3 9.5726902173913  Z M 7.1353125 8.81606657608696  C 7.1353125 10.1734578490938  7.50707581833069 11.4757686239911  8.2040625 12.6052360101612  L 8.2040625 8.17153532608696  L 13.4071875 8.17153532608696  L 13.4071875048615 16.0046976456405  C 13.7399696330645 16.0506731250016  14.0780907301688 16.0740489130435  14.4196875 16.0740489130435  C 14.6941279087945 16.0740489130435  14.9663249136371 16.0590166841174  15 16.0293310086771  L 15 4.66864809782609  L 20.4384541959814 4.72513290944161  C 20.1844670030143 4.35620035880053  19.8941847767298 4.00800981847631  19.569375 3.68503736413043  C 18.1940625 2.31190557065217  16.3659375 1.55808423913043  14.4196875 1.55808423913043  C 12.4734375 1.55808423913043  10.6453125 2.31190557065217  9.27 3.68503736413043  C 7.8946875 5.05536684782609  7.1353125 6.87967051630435  7.1353125 8.81606657608696  Z M 1 10.4133831521739  L 1 21.090183423913  L 2 21.090183423913  L 2 10.4133831521739  L 1 10.4133831521739  Z M 12.3946875 21.090183423913  L 13.5759375 21.090183423913  L 13.5759371642764 16.8718842740251  C 13.1750285615633 16.8309225938165  12.7804421317374 16.7608454498442  12.3946875 16.6627158551034  L 12.3946875 21.090183423913  Z M 9.69474131305303 15.4091392801792  C 9.40928948271119 15.2054163784904  9.13547370324715 14.9821808119237  8.87498563556819 14.7401494565217  L 8.51471418649618 14.7401504345694  L 8.521875 21.090183423913  L 9.703125 21.090183423913  L 9.69474131305303 15.4091392801792  Z M 5 6.93851902173913  L 5 21.090183423913  L 6 21.090183423913  L 6 6.93851902173913  L 5 6.93851902173913  Z M 20.4384375 4.66864809782609  L 20.4384375509181 12.905335509303  C 21.2608695241019 11.7092886212362  21.7040625 10.2953877619391  21.7040625 8.81606657608696  C 21.7040625 7.33605899473582  21.2621011303854 5.92153246324411  20.4384375 4.66864809782609  Z M 16 5.5093410326087  L 16 15.8859090187809  C 17.1533572704158 15.6376435086628  18.1559653134466 15.1480972151091  19.0195797052057 14.4436559592345  C 19.2098300399522 14.2884707446083  19.3933349999771 14.1228566576316  19.5250781250019 13.9029594089655  L 19.5946875 13.8927811458767  L 19.5946875 5.5093410326087  L 16 5.5093410326087  Z M 9.0478125 9.01222826086956  L 9.04781376265899 13.7164311885802  C 9.11997255182906 13.7946603364787  9.19404216561563 13.8715676175404  9.27 13.9470957880435  C 10.1961285677613 14.8698688175158  11.3288652274249 15.51435028466  12.5634375 15.8368990591377  L 12.5634375 9.01222826086956  L 9.0478125 9.01222826086956  Z " fill-rule="nonzero" fill="#174a8e" stroke="none" transform="matrix(1 0 0 1 50 9 )" />
  </g>
</svg>