<?xml version="1.0" encoding="utf-8"?>
<svg version="1.1" xmlns:xlink="http://www.w3.org/1999/xlink" width="20px" height="15px" xmlns="http://www.w3.org/2000/svg">
  <g transform="matrix(1 0 0 1 -76 -29 )">
    <path d="M 19.1346153771034 13.5714285644531  C 19.4230769155649 13.5714285644531  19.6153846003606 13.7499999860491  19.6153846228966 14.0178571498326  C 19.6153846228966 14.2857142926897  19.423076938101 14.4642857142857  19.1346153771034 14.4642857142857  L 0.865384622896634 14.4642857142857  C 0.576923084435095 14.4642857142857  0.384615399639422 14.2857142926897  0.384615377103364 14.0178571498326  C 0.384615354567306 13.7500000069754  0.576923061899037 13.5714285853795  0.865384622896634 13.5714285644531  L 19.1346153771034 13.5714285644531  Z M 3.26923076171875 11.7857142857143  C 2.78846153846154 11.7857142857143  2.30769229266827 11.3392857212612  2.30769231520433 10.8928571358817  L 2.30769231520433 7.32142857840402  C 2.30769231520433 6.87500001395089  2.78846153846154 6.42857142857143  3.26923076171875 6.42857142857143  L 5.19230769981971 6.42857142857143  C 5.67307692307692 6.42857142857143  6.15384616887019 6.87499999302455  6.15384614633413 7.32142857840402  L 6.15384614633413 10.8928571358817  C 6.15384614633413 11.3392857003348  5.67307692307692 11.7857142857143  5.19230769981971 11.7857142857143  L 3.26923076171875 11.7857142857143  Z M 3.26923076171875 7.32142857840402  L 3.26923076171875 10.8928571358817  L 5.19230769981971 10.8928571358817  L 5.19230769981971 7.32142857840402  L 3.26923076171875 7.32142857840402  Z M 9.03846153094952 11.7857142857143  C 8.55769230769231 11.7857142857143  8.07692306189904 11.3392857212612  8.0769230844351 10.8928571358817  L 8.0769230844351 1.07142857142857  C 8.0769230844351 0.625000006975446  8.55769230769231 0.178571421595982  9.03846153094952 0.178571421595982  L 10.9615384690505 0.178571421595982  C 11.4423076923077 0.178571421595982  11.923076938101 0.624999986049108  11.9230769155649 1.07142857142857  L 11.9230769155649 10.8928571358817  C 11.9230769155649 11.3392857003348  11.4423076923077 11.7857142857143  10.9615384690505 11.7857142857143  L 9.03846153094952 11.7857142857143  Z M 9.03846153094952 1.07142857142857  L 9.03846153094952 10.8928571358817  L 10.9615384690505 10.8928571358817  L 10.9615384690505 1.07142857142857  L 9.03846153094952 1.07142857142857  Z M 13.8461538536659 10.8928571358817  C 13.8461538536659 11.3392857003348  14.3269230769231 11.7857142857143  14.8076923001803 11.7857142857143  L 16.7307692382813 11.7857142857143  C 17.2115384615385 11.7857142857143  17.6923077073317 11.3392857212612  17.6923076847957 10.8928571358817  L 17.6923076847957 4.64285714983259  C 17.6923076847957 4.19642858537946  17.2115384615385 3.75  16.7307692382813 3.75  L 14.8076923001803 3.75  C 14.3269230769231 3.75  13.8461538311298 4.19642856445313  13.8461538536659 4.64285714983259  L 13.8461538536659 10.8928571358817  Z " fill-rule="nonzero" fill="#ffffff" stroke="none" transform="matrix(1 0 0 1 76 29 )" />
  </g>
</svg>